<svg width="236" height="182" viewBox="0 0 236 182" fill="none" xmlns="http://www.w3.org/2000/svg">
<path d="M119.9 101.1C112.5 82.4004 110.8 63.2004 114 46.4004C92.2999 76.9004 99.0999 119.3 129.4 141.4C141.8 150.4 156.1 154.7 170.3 154.6C149.3 146.4 130.2 127.2 119.9 101.1Z" fill="#005EEC"/>
<path d="M95.8 129.7C75.5 84.4 90 33.7 128.3 16.5C143.1 9.90004 159.2 9.20004 174.7 13.5C118 -12.2 56.4 1.50004 36.8 44.3C17.2 87.1 47.4 143 104.2 168.9C118.8 175.6 133.8 179.6 148.2 181.2C126.6 172.9 107.1 154.8 95.8 129.7Z" fill="#005EEC"/>
<path d="M134.8 32.7001C145.2 33.9001 153.2 41.8001 155 51.6001C156.7 61.5001 164.7 69.4001 175.2 70.7001C188 72.2001 199.6 63.1001 201.1 50.3001C202.3 40.0001 196.6 30.4001 187.5 26.3001C186.4 25.8001 185.2 25.4001 184.1 24.9001C178.1 23.0001 171.7 22.1001 165.1 22.0001C151.2 21.7001 137.9 25.7001 127.2 33.0001C129.2 32.7001 132.6 32.5001 134.8 32.7001Z" fill="#005EEC"/>
<path d="M165.3 107C144.1 91.5004 131.7 68.8004 129.8 46.4004C123.6 68.2004 128.7 93.0004 145.4 111.5C169.3 137.9 208.3 142.1 235.6 122.1C213.1 127.8 187 123 165.3 107Z" fill="#005EEC"/>
<path d="M28.6002 40.0996C8.70017 55.5996 -2.39983 77.7996 1.40017 100.2C5.90017 127.2 34.0002 149.2 61.0002 154.6C28.8002 131.5 2.10017 87.6996 28.6002 40.0996Z" fill="#005EEC"/>
</svg>
