<?xml version="1.0" encoding="UTF-8" standalone="no"?>
<!-- Created with Inkscape (http://www.inkscape.org/) -->

<svg
   width="70mm"
   height="70mm"
   viewBox="0 0 70 70"
   version="1.1"
   id="svg5"
   inkscape:version="1.1.2 (b8e25be833, 2022-02-05)"
   sodipodi:docname="logo.svg"
   xmlns:inkscape="http://www.inkscape.org/namespaces/inkscape"
   xmlns:sodipodi="http://sodipodi.sourceforge.net/DTD/sodipodi-0.dtd"
   xmlns="http://www.w3.org/2000/svg"
   xmlns:svg="http://www.w3.org/2000/svg">
  <sodipodi:namedview
     id="namedview7"
     pagecolor="#ffffff"
     bordercolor="#666666"
     borderopacity="1.0"
     inkscape:pageshadow="2"
     inkscape:pageopacity="0.0"
     inkscape:pagecheckerboard="0"
     inkscape:document-units="mm"
     showgrid="false"
     units="mm"
     width="100mm"
     inkscape:zoom="1.0469406"
     inkscape:cx="51.101274"
     inkscape:cy="183.86907"
     inkscape:window-width="1300"
     inkscape:window-height="1040"
     inkscape:window-x="452"
     inkscape:window-y="47"
     inkscape:window-maximized="0"
     inkscape:current-layer="g19" />
  <defs
     id="defs2">
    <clipPath
       clipPathUnits="userSpaceOnUse"
       id="clipPath23">
      <path
         d="M 0,1080 H 1920 V 0 H 0 Z"
         id="path21" />
    </clipPath>
    <clipPath
       clipPathUnits="userSpaceOnUse"
       id="clipPath91">
      <path
         d="M 0,1080 H 1920 V 0 H 0 Z"
         id="path89" />
    </clipPath>
  </defs>
  <g
     inkscape:label="图层 1"
     inkscape:groupmode="layer"
     id="layer1">
    <g
       id="g15"
       inkscape:label="risingwave logo"
       transform="matrix(0.35277777,0,0,-0.35277777,-243.23898,359.93316)">
      <g
         id="g17"
         transform="translate(-131.81263,340.99355)">
        <g
           id="g19"
           clip-path="url(#clipPath23)">
          <g
             id="g65"
             transform="translate(836.53231,571.92025)">
            <path
               d="m 0,0 c 2.631,-2.663 5.385,-5.128 8.245,-7.398 7.412,-5.887 15.531,-10.457 24.042,-13.707 7.92,-3.025 16.177,-4.907 24.518,-5.645 25.774,-2.28 52.344,6.361 72.192,25.97 18.539,18.316 27.468,42.562 26.977,66.71 -1.092,5.997 -3.509,5.222 -3.427,8.318 0.575,-0.466 3.148,-2.951 5.036,-5.649 23.639,-35.608 19.594,-84.095 -11.954,-115.265 -28.918,-28.57 -72.105,-33.857 -106.307,-16.006 -8.184,4.272 -15.854,9.866 -22.69,16.786 -3.119,3.157 -5.96,6.485 -8.524,9.952 C 1.179,-26.566 -3.725,-16.178 -6.608,-5.365 -8.059,0.073 -8.999,5.618 -9.426,11.195 -6.631,7.278 -3.49,3.532 0,0"
               style="fill:#3a7ceb;fill-opacity:1;fill-rule:nonzero;stroke:none"
               id="path67" />
          </g>
          <g
             id="g69"
             transform="translate(895.31261,645.23765)">
            <path
               d="m 0,0 c 1.724,-1.745 2.919,-3.811 3.592,-6.004 0.215,-1.013 0.411,-2.032 0.592,-3.05 3.02,-17.13 1.122,-34.95 -5.679,-51.195 -2.925,13.93 -9.133,27.311 -18.638,38.906 -0.867,1.063 -1.768,2.11 -2.691,3.141 -4.817,5.221 -2.949,13.376 2.064,18.329 C -14.993,5.825 -5.698,5.767 0,0"
               style="fill:#e23e2b;fill-opacity:1;fill-rule:nonzero;stroke:none"
               id="path71" />
          </g>
          <g
             id="g73"
             transform="translate(905.40781,653.51065)">
            <path
               d="m 0,0 c 7.721,7.628 20.162,7.553 27.791,-0.168 4.886,-4.947 7.056,-11 5.637,-17.315 l -0.199,-0.886 C 29.492,-34.683 21.223,-50.161 8.436,-62.794 c -5.719,-5.651 -11.999,-10.39 -18.655,-14.22 -2.539,-1.463 -5.133,-2.791 -7.773,-3.99 2.476,4.025 4.608,8.199 6.402,12.483 6.8,16.244 8.698,34.064 5.678,51.194 -0.022,0.255 -0.235,1.283 -0.235,1.283 C -6.915,-10.163 -4.545,-4.491 0,0"
               style="fill:#f0b400;fill-opacity:1;fill-rule:nonzero;stroke:none"
               id="path75" />
          </g>
          <g
             id="g77"
             transform="translate(887.41611,572.50675)">
            <path
               d="m 0,0 c 2.64,1.199 5.234,2.527 7.773,3.99 6.656,3.83 12.935,8.569 18.655,14.22 12.786,12.633 21.056,28.111 24.792,44.425 0.2,0.873 0.296,1.518 0.473,2.409 1.024,5.123 3.642,9.917 7.64,13.867 10.654,10.527 27.456,11.077 38.355,-0.233 2.733,-2.837 7.101,-6.227 7.53,-15.069 0.007,-3.738 -0.219,-7.479 -0.674,-11.198 C 102.142,32.716 93.324,13.662 78.114,-1.365 58.267,-20.975 31.695,-29.616 5.922,-27.337 c -8.342,0.739 -16.599,2.622 -24.518,5.645 -8.512,3.249 -16.631,7.821 -24.044,13.707 C -28.138,-8.771 -13.481,-6.109 0,0"
               style="fill:#4acfd2;fill-opacity:1;fill-rule:nonzero;stroke:none"
               id="path79" />
          </g>
        </g>
      </g>
    </g>
  </g>
</svg>
