<svg width="252" height="45" viewBox="0 0 252 45" fill="none" xmlns="http://www.w3.org/2000/svg">
<path d="M26.3393 34.117H16.0913L8.23255 21.9266V28.6801C8.23255 30.1199 7.66059 31.5007 6.6425 32.5188C5.6244 33.5369 4.24358 34.1088 2.80378 34.1088H0V2.47082H12.808C14.3868 2.44777 15.9558 2.72351 17.4322 3.28351C18.6572 3.74558 19.7666 4.46945 20.683 5.40461C21.5319 6.29582 22.1876 7.35271 22.609 8.5091C23.0542 9.72168 23.2772 11.0046 23.2673 12.2962C23.3615 14.3905 22.7459 16.4551 21.52 18.1557C20.214 19.7399 18.3934 20.8155 16.3757 21.1952L26.3393 34.117ZM8.23255 16.5954H9.78479C11.1081 16.6826 12.423 16.3282 13.5232 15.5876C13.9346 15.2254 14.2642 14.7796 14.4899 14.2801C14.7156 13.7805 14.8324 13.2386 14.8324 12.6904C14.8324 12.1422 14.7156 11.6003 14.4899 11.1007C14.2642 10.6012 13.9346 10.1554 13.5232 9.79316C12.423 9.05264 11.1081 8.69818 9.78479 8.78541H8.23255V16.5954Z" fill="white"/>
<path d="M27.7289 4.2913C27.7213 3.71869 27.8348 3.15095 28.0621 2.62529C28.2833 2.11655 28.5975 1.65353 28.9885 1.25998C29.3795 0.867858 29.8433 0.555896 30.3539 0.341638C30.8775 0.116247 31.4416 0 32.0117 0C32.5818 0 33.146 0.116247 33.6696 0.341638C34.1802 0.555896 34.644 0.867858 35.0349 1.25998C35.4234 1.65564 35.7372 2.11815 35.9614 2.62529C36.1811 3.15183 36.2943 3.71669 36.2943 4.28723C36.2943 4.85777 36.1811 5.42266 35.9614 5.94919C35.7392 6.45739 35.4251 6.92024 35.0349 7.3145C34.644 7.70663 34.1802 8.01859 33.6696 8.23285C33.146 8.45824 32.5818 8.57449 32.0117 8.57449C31.4416 8.57449 30.8775 8.45824 30.3539 8.23285C29.8433 8.01859 29.3795 7.70663 28.9885 7.3145C28.5957 6.92245 28.2813 6.45907 28.0621 5.94919C27.836 5.42604 27.7224 4.86118 27.7289 4.2913ZM35.8558 15.3764V29.5822C35.8568 30.1773 35.7405 30.7669 35.5135 31.317C35.2865 31.8671 34.9533 32.3671 34.5328 32.7883C34.1124 33.2095 33.613 33.5437 33.0633 33.7717C32.5135 33.9997 31.9242 34.117 31.3291 34.117H28.2327V12.5645H33.0276C33.3965 12.5645 33.7617 12.6373 34.1024 12.7787C34.4431 12.9201 34.7526 13.1274 35.0131 13.3886C35.2735 13.6498 35.4799 13.9598 35.6203 14.3009C35.7607 14.642 35.8325 15.0075 35.8314 15.3764H35.8558Z" fill="white"/>
<path d="M54.4829 18.1071C53.2198 17.4185 51.8091 17.0449 50.3707 17.0181C49.7753 16.9894 49.1847 17.1364 48.6722 17.4407C48.4713 17.5528 48.3043 17.7168 48.1885 17.9155C48.0727 18.1142 48.0124 18.3404 48.0139 18.5703C48.0085 18.7785 48.0444 18.9857 48.1195 19.1799C48.2274 19.3685 48.3886 19.5212 48.5828 19.6187C48.912 19.7958 49.2651 19.9245 49.6311 20.0007L51.4597 20.4233C53.2207 20.6722 54.8629 21.455 56.1652 22.6663C56.6881 23.2168 57.0956 23.8664 57.3636 24.5768C57.6316 25.2873 57.7547 26.0442 57.7255 26.8029C57.7452 27.9826 57.4834 29.1499 56.9616 30.2081C56.4654 31.2045 55.7482 32.0745 54.8649 32.7518C53.8903 33.4886 52.7883 34.0396 51.6141 34.3772C50.2626 34.7704 48.8605 34.9621 47.4531 34.946C44.4112 34.9081 41.4356 34.0519 38.8386 32.4674L41.618 27.0873C43.3643 28.4139 45.4736 29.1765 47.6644 29.2735C48.2726 29.299 48.874 29.1373 49.3873 28.8102C49.5905 28.6892 49.7593 28.5181 49.8774 28.3132C49.9955 28.1082 50.059 27.8765 50.0619 27.64C50.0661 27.4027 50.0304 27.1664 49.9562 26.941C49.8602 26.7326 49.7047 26.5573 49.5092 26.4372C49.2056 26.2475 48.8737 26.1076 48.5259 26.0227C48.0952 25.8927 47.5263 25.7627 46.8274 25.6164C44.4706 25.145 42.8289 24.438 41.8862 23.4952C41.4013 22.9765 41.0267 22.3647 40.7851 21.697C40.5434 21.0293 40.4397 20.3195 40.4803 19.6106C40.4635 18.4906 40.6938 17.3807 41.1548 16.3598C41.5996 15.4068 42.2622 14.5717 43.089 13.9218C43.994 13.2155 45.0257 12.6886 46.1285 12.3695C47.4188 11.9917 48.7581 11.8082 50.1025 11.825C52.4815 11.8263 54.837 12.2957 57.0347 13.2066L54.4829 18.1071Z" fill="white"/>
<path d="M60.2446 4.2913C60.237 3.71869 60.3506 3.15095 60.5778 2.62529C60.7991 2.11655 61.1133 1.65353 61.5043 1.25998C61.8952 0.867858 62.359 0.555896 62.8696 0.341638C63.3933 0.116247 63.9574 0 64.5275 0C65.0976 0 65.6617 0.116247 66.1854 0.341638C66.696 0.555896 67.1598 0.867858 67.5507 1.25998C67.9392 1.65564 68.253 2.11815 68.4772 2.62529C68.6969 3.15183 68.81 3.71669 68.81 4.28723C68.81 4.85777 68.6969 5.42266 68.4772 5.94919C68.2549 6.45739 67.9408 6.92024 67.5507 7.3145C67.1598 7.70663 66.696 8.01859 66.1854 8.23285C65.6617 8.45824 65.0976 8.57449 64.5275 8.57449C63.9574 8.57449 63.3933 8.45824 62.8696 8.23285C62.359 8.01859 61.8952 7.70663 61.5043 7.3145C61.1115 6.92245 60.797 6.45907 60.5778 5.94919C60.3517 5.42604 60.2382 4.86118 60.2446 4.2913V4.2913ZM68.3715 15.3764V29.5822C68.3726 30.1773 68.2563 30.7669 68.0293 31.317C67.8023 31.8671 67.469 32.3671 67.0486 32.7883C66.6281 33.2095 66.1287 33.5437 65.579 33.7717C65.0293 33.9997 64.44 34.117 63.8448 34.117H60.7729V12.5645H65.5677C66.3085 12.5709 67.0167 12.8703 67.5374 13.3972C68.0582 13.924 68.3493 14.6356 68.3471 15.3764H68.3715Z" fill="white"/>
<path d="M72.7195 12.5645H80.3263V15.2952C81.15 14.202 82.2301 13.3283 83.4714 12.7514C84.6642 12.2968 85.9334 12.0761 87.2097 12.1013C88.5454 12.0652 89.8731 12.3175 91.1025 12.8408C92.1618 13.3172 93.1006 14.0254 93.8494 14.9132C94.4538 15.6164 94.8852 16.4514 95.1091 17.3513C95.349 18.3573 95.4637 19.3891 95.4504 20.4232V29.5822C95.4504 30.7849 94.9726 31.9384 94.1222 32.7888C93.2718 33.6393 92.1183 34.1171 90.9156 34.1171H87.8436V23.2351C87.8615 22.3676 87.7824 21.5008 87.608 20.6508C87.4884 20.0601 87.2071 19.5142 86.7953 19.0742C86.4745 18.7534 86.0856 18.509 85.6575 18.359C85.2246 18.2178 84.7719 18.1465 84.3166 18.1477C83.7673 18.1132 83.2171 18.1994 82.7046 18.4001C82.1922 18.6009 81.7299 18.9114 81.3502 19.3098C80.6223 20.2315 80.258 21.3882 80.3263 22.5606V29.5416C80.3263 30.1371 80.209 30.7268 79.9811 31.277C79.7532 31.8272 79.4191 32.3271 78.998 32.7482C78.5769 33.1693 78.077 33.5033 77.5268 33.7312C76.9767 33.9591 76.387 34.0764 75.7914 34.0764H72.7195V12.5645Z" fill="white"/>
<path d="M120.587 12.5647C121.02 12.5647 121.449 12.65 121.849 12.8159C122.25 12.9817 122.614 13.2247 122.92 13.5311C123.226 13.8375 123.469 14.2012 123.635 14.6015C123.801 15.0019 123.886 15.4309 123.886 15.8642V32.6463C123.898 33.7336 123.827 34.8203 123.675 35.897C123.559 36.7532 123.363 37.5966 123.09 38.4164C122.738 39.3722 122.202 40.2501 121.513 41.0007C120.769 41.8347 119.896 42.5451 118.929 43.1056C117.855 43.7184 116.704 44.1857 115.507 44.4953C114.156 44.8391 112.766 45.0084 111.371 44.9991C109.807 45.0158 108.249 44.8022 106.747 44.3652C105.435 43.9873 104.194 43.3971 103.073 42.618C102.062 41.9143 101.186 41.0332 100.489 40.0174C99.8212 39.0377 99.362 37.9312 99.1399 36.7666H107.714C108.242 38.1969 109.453 38.9121 111.33 38.9121C112.002 38.9542 112.675 38.8568 113.307 38.626C113.939 38.3952 114.517 38.0361 115.004 37.5712C115.907 36.5392 116.368 35.1936 116.288 33.8247V31.7279C115.783 32.2132 115.239 32.6563 114.662 33.0526C114.164 33.3877 113.637 33.676 113.086 33.9141C112.546 34.1399 111.981 34.3008 111.403 34.3935C110.764 34.498 110.117 34.5496 109.469 34.548C108.015 34.5619 106.573 34.2856 105.227 33.7353C103.971 33.2327 102.834 32.4744 101.887 31.5085C100.932 30.5295 100.188 29.365 99.7007 28.0871C99.1681 26.6721 98.9062 25.1696 98.9286 23.6579C98.9043 22.0869 99.1801 20.5257 99.7413 19.0581C100.27 17.6944 101.047 16.4406 102.033 15.3603C103.023 14.2822 104.228 13.4241 105.571 12.8416C106.913 12.2592 108.363 11.9655 109.827 11.9796C111.041 11.9603 112.245 12.2054 113.355 12.698C114.465 13.1905 115.455 13.9188 116.255 14.8321V12.5647H120.587ZM106.828 23.2353C106.822 24.5503 107.329 25.8158 108.242 26.7624C108.682 27.2148 109.21 27.5717 109.794 27.8108C110.412 28.0674 111.076 28.1973 111.745 28.1927C112.401 28.1951 113.05 28.0652 113.655 27.8108C114.241 27.5716 114.772 27.2148 115.215 26.7624C115.654 26.302 116.008 25.7684 116.263 25.1858C116.524 24.5785 116.658 23.9246 116.658 23.2638C116.658 22.603 116.524 21.9491 116.263 21.3418C116.001 20.7643 115.638 20.2386 115.191 19.7895C114.739 19.3404 114.203 18.9842 113.614 18.7411C113.023 18.4901 112.387 18.3602 111.745 18.3592C111.095 18.3578 110.453 18.4935 109.859 18.7574C109.281 19.0143 108.752 19.372 108.299 19.8139C107.848 20.2493 107.487 20.7682 107.234 21.3418C106.964 21.9362 106.825 22.5822 106.828 23.2353Z" fill="white"/>
<path d="M134.971 5.23434L139.685 22.9022L146.406 2.47119H152.981L159.71 22.9347L164.423 5.26685C164.637 4.46446 165.11 3.75517 165.768 3.24951C166.427 2.74385 167.234 2.4702 168.064 2.47119H173.753L164.301 34.1661H155.898L149.681 15.8074L143.464 34.1661H135.101L125.65 2.47119H131.339C132.163 2.47006 132.966 2.73986 133.622 3.23909C134.278 3.73833 134.752 4.43933 134.971 5.23434Z" fill="white"/>
<path d="M190.73 12.5644H195.948C196.594 12.5644 197.214 12.8213 197.672 13.2785C198.129 13.7357 198.386 14.3559 198.386 15.0025V34.1332H190.738V31.7276C189.961 32.7263 188.957 33.5256 187.809 34.0598C186.662 34.5939 185.404 34.8475 184.139 34.7996C182.654 34.8135 181.182 34.5202 179.816 33.9382C178.512 33.3699 177.339 32.5401 176.37 31.5001C175.374 30.4462 174.595 29.2062 174.078 27.8511C173.524 26.3873 173.248 24.8327 173.265 23.2675C173.261 21.7669 173.537 20.2787 174.078 18.879C174.577 17.5368 175.331 16.3034 176.297 15.2463C177.258 14.2145 178.416 13.3856 179.702 12.8082C181.077 12.1944 182.569 11.8866 184.074 11.9061C185.324 11.8731 186.567 12.1077 187.719 12.594C188.871 13.0804 189.906 13.8073 190.755 14.7262L190.73 12.5644ZM181.149 23.2757C181.144 24.5888 181.648 25.8526 182.554 26.8027C182.997 27.2577 183.528 27.6173 184.115 27.8592C184.733 28.1131 185.397 28.2402 186.065 28.2331C186.721 28.2381 187.37 28.1109 187.975 27.8592C188.559 27.6171 189.088 27.2575 189.527 26.8027C189.967 26.3508 190.325 25.8255 190.584 25.2505C190.849 24.6545 190.984 24.0092 190.982 23.357C190.982 22.6998 190.846 22.0496 190.584 21.4471C190.327 20.8635 189.969 20.3298 189.527 19.8705C189.087 19.4181 188.559 19.0612 187.975 18.8221C187.37 18.5705 186.721 18.4433 186.065 18.4483C185.397 18.4412 184.733 18.5683 184.115 18.8221C183.529 19.0613 182.997 19.4181 182.554 19.8705C182.126 20.3185 181.779 20.8384 181.53 21.4065C181.274 21.996 181.144 22.6328 181.149 23.2757V23.2757Z" fill="white"/>
<path d="M210.267 15.1082L214.209 23.6008L218.272 15.0757C218.629 14.3231 219.192 13.6869 219.895 13.241C220.598 12.795 221.414 12.5577 222.247 12.5564H227.935L216.712 34.1089H211.633L200.54 12.5564H206.31C207.143 12.5627 207.958 12.8059 208.659 13.2578C209.36 13.7096 209.918 14.3514 210.267 15.1082Z" fill="white"/>
<path d="M235.509 24.6246C235.509 27.8754 237.051 29.5008 240.134 29.5008C240.881 29.5359 241.624 29.3669 242.283 29.0118C242.941 28.6567 243.491 28.129 243.872 27.4853H251.227C249.737 32.4156 246.026 34.8808 240.093 34.8808C238.392 34.9025 236.701 34.6275 235.095 34.0681C233.652 33.5642 232.327 32.7705 231.202 31.7357C230.124 30.7238 229.273 29.4937 228.707 28.1273C228.102 26.6334 227.801 25.0337 227.821 23.4219C227.784 21.7599 228.06 20.1058 228.634 18.5457C229.155 17.1603 229.97 15.9043 231.023 14.8642C232.102 13.8342 233.384 13.0399 234.786 12.5318C236.385 11.9671 238.072 11.6919 239.768 11.7191C241.429 11.6968 243.08 11.972 244.644 12.5318C246.039 13.0395 247.303 13.8531 248.342 14.913C249.38 15.9954 250.17 17.2904 250.658 18.7083C251.214 20.3377 251.489 22.0497 251.471 23.7713V24.584L235.509 24.6246ZM244.449 20.2117C244.231 19.2069 243.685 18.3033 242.897 17.6436C242.068 17.0312 241.066 16.6974 240.035 16.6901C239.004 16.6828 237.997 17.0024 237.159 17.603C236.389 18.273 235.89 19.2002 235.753 20.2117H244.449Z" fill="white"/>
</svg>
