<svg width="147" height="27" viewBox="0 0 147 27" fill="none" xmlns="http://www.w3.org/2000/svg">
<path d="M15.3969 19.9434H9.40629L4.81241 12.8174V16.7652C4.81241 17.6069 4.47807 18.4141 3.88293 19.0092C3.2878 19.6043 2.48062 19.9387 1.63897 19.9387H0V1.44438H7.48702C8.40996 1.43091 9.32712 1.5921 10.1902 1.91945C10.9062 2.18956 11.5548 2.6127 12.0904 3.15936C12.5866 3.68032 12.9699 4.29814 13.2163 4.97411C13.4765 5.68294 13.6069 6.43286 13.6011 7.18792C13.6562 8.41212 13.2963 9.61904 12.5797 10.6131C11.8163 11.5392 10.752 12.1679 9.57256 12.3899L15.3969 19.9434ZM4.81241 9.70102H5.71979C6.49335 9.75201 7.26196 9.54482 7.90508 9.11194C8.14559 8.90017 8.33824 8.63961 8.4702 8.34759C8.60217 8.05557 8.67041 7.73879 8.67041 7.41833C8.67041 7.09788 8.60217 6.7811 8.4702 6.48908C8.33824 6.19706 8.14559 5.93649 7.90508 5.72472C7.26196 5.29185 6.49335 5.08465 5.71979 5.13563H4.81241V9.70102Z" fill="black"/>
<path d="M16.2092 2.50852C16.2048 2.17379 16.2711 1.84192 16.404 1.53464C16.5333 1.23725 16.717 0.966586 16.9455 0.736534C17.1741 0.507314 17.4452 0.324954 17.7437 0.199708C18.0498 0.0679534 18.3795 0 18.7128 0C19.046 0 19.3758 0.0679534 19.6819 0.199708C19.9804 0.324954 20.2515 0.507314 20.48 0.736534C20.7071 0.96782 20.8906 1.23819 21.0216 1.53464C21.15 1.84243 21.2162 2.17262 21.2162 2.50614C21.2162 2.83965 21.15 3.16986 21.0216 3.47765C20.8917 3.77473 20.7081 4.04529 20.48 4.27576C20.2515 4.50498 19.9804 4.68734 19.6819 4.81259C19.3758 4.94434 19.046 5.01229 18.7128 5.01229C18.3795 5.01229 18.0498 4.94434 17.7437 4.81259C17.4452 4.68734 17.1741 4.50498 16.9455 4.27576C16.7159 4.04658 16.5321 3.77571 16.404 3.47765C16.2718 3.17184 16.2054 2.84165 16.2092 2.50852ZM20.9598 8.98841V17.2925C20.9605 17.6404 20.8925 17.985 20.7598 18.3066C20.6271 18.6282 20.4323 18.9205 20.1865 19.1667C19.9407 19.4129 19.6488 19.6083 19.3275 19.7415C19.0061 19.8748 18.6616 19.9434 18.3137 19.9434H16.5037V7.34469H19.3066C19.5222 7.34469 19.7358 7.38723 19.9349 7.46989C20.1341 7.55256 20.315 7.67371 20.4672 7.82641C20.6195 7.97911 20.7401 8.16034 20.8222 8.35974C20.9043 8.55914 20.9462 8.77278 20.9456 8.98841H20.9598Z" fill="black"/>
<path d="M31.8485 10.5847C31.1101 10.1822 30.2855 9.96382 29.4447 9.94814C29.0966 9.93135 28.7514 10.0173 28.4518 10.1952C28.3344 10.2607 28.2367 10.3565 28.169 10.4727C28.1013 10.5889 28.0661 10.7211 28.067 10.8555C28.0638 10.9772 28.0848 11.0983 28.1287 11.2118C28.1918 11.3221 28.286 11.4113 28.3995 11.4684C28.592 11.5719 28.7984 11.6471 29.0124 11.6916L30.0813 11.9387C31.1106 12.0842 32.0707 12.5418 32.8319 13.2499C33.1376 13.5716 33.3758 13.9514 33.5324 14.3667C33.6891 14.782 33.761 15.2244 33.744 15.6679C33.7555 16.3575 33.6024 17.0399 33.2974 17.6585C33.0074 18.2409 32.5882 18.7495 32.0718 19.1454C31.5021 19.5761 30.8579 19.8982 30.1715 20.0955C29.3815 20.3254 28.5619 20.4374 27.7392 20.4281C25.961 20.4059 24.2215 19.9054 22.7035 18.9791L24.3282 15.8342C25.349 16.6096 26.582 17.0554 27.8627 17.1121C28.2182 17.1271 28.5697 17.0325 28.8698 16.8413C28.9886 16.7706 29.0873 16.6705 29.1563 16.5508C29.2253 16.431 29.2625 16.2955 29.2641 16.1572C29.2666 16.0186 29.2458 15.8804 29.2024 15.7487C29.1463 15.6269 29.0554 15.5244 28.9411 15.4541C28.7636 15.3432 28.5696 15.2615 28.3663 15.2119C28.1145 15.1359 27.7819 15.0599 27.3734 14.9743C25.9957 14.6988 25.0361 14.2855 24.485 13.7344C24.2015 13.4312 23.9826 13.0736 23.8413 12.6832C23.7 12.2929 23.6394 11.878 23.6631 11.4636C23.6534 10.8089 23.788 10.1601 24.0574 9.56334C24.3175 9.00627 24.7048 8.51808 25.1881 8.13815C25.7171 7.72529 26.3202 7.41731 26.9648 7.23077C27.7191 7.00992 28.502 6.90265 29.2879 6.91248C30.6786 6.91323 32.0555 7.18764 33.3402 7.72009L31.8485 10.5847Z" fill="black"/>
<path d="M35.2165 2.50852C35.2121 2.17379 35.2785 1.84192 35.4113 1.53464C35.5406 1.23725 35.7243 0.966586 35.9529 0.736534C36.1814 0.507314 36.4525 0.324954 36.751 0.199708C37.0571 0.0679534 37.3869 0 37.7201 0C38.0534 0 38.3831 0.0679534 38.6892 0.199708C38.9877 0.324954 39.2588 0.507314 39.4874 0.736534C39.7144 0.96782 39.8979 1.23819 40.0289 1.53464C40.1574 1.84243 40.2235 2.17262 40.2235 2.50614C40.2235 2.83965 40.1574 3.16986 40.0289 3.47765C39.899 3.77473 39.7154 4.04529 39.4874 4.27576C39.2588 4.50498 38.9877 4.68734 38.6892 4.81259C38.3831 4.94434 38.0534 5.01229 37.7201 5.01229C37.3869 5.01229 37.0571 4.94434 36.751 4.81259C36.4525 4.68734 36.1814 4.50498 35.9529 4.27576C35.7232 4.04658 35.5394 3.77571 35.4113 3.47765C35.2791 3.17184 35.2128 2.84165 35.2165 2.50852V2.50852ZM39.9672 8.98841V17.2925C39.9678 17.6404 39.8998 17.985 39.7671 18.3066C39.6344 18.6282 39.4396 18.9205 39.1938 19.1667C38.948 19.4129 38.6561 19.6083 38.3348 19.7415C38.0134 19.8748 37.669 19.9434 37.3211 19.9434H35.5253V7.34469H38.3282C38.7612 7.34845 39.1752 7.52344 39.4796 7.83143C39.784 8.13941 39.9542 8.55536 39.9529 8.98841H39.9672Z" fill="black"/>
<path d="M42.5088 7.34479H46.9554V8.94101C47.4369 8.30197 48.0683 7.79129 48.7939 7.45405C49.4912 7.18832 50.2331 7.05929 50.9792 7.074C51.76 7.05291 52.5361 7.20037 53.2548 7.50631C53.874 7.78475 54.4227 8.19874 54.8605 8.71772C55.2138 9.12881 55.466 9.6169 55.5968 10.1429C55.7371 10.731 55.8041 11.3341 55.7964 11.9387V17.2926C55.7964 17.9957 55.5171 18.67 55.0199 19.1671C54.5228 19.6642 53.8486 19.9435 53.1455 19.9435H51.3498V13.5824C51.3602 13.0753 51.314 12.5686 51.212 12.0717C51.1421 11.7264 50.9776 11.4073 50.7369 11.1501C50.5494 10.9626 50.3221 10.8197 50.0718 10.732C49.8187 10.6495 49.5541 10.6078 49.288 10.6085C48.9669 10.5883 48.6453 10.6387 48.3457 10.756C48.0462 10.8734 47.7759 11.0549 47.554 11.2878C47.1285 11.8266 46.9155 12.5027 46.9554 13.1881V17.2689C46.9554 17.617 46.8868 17.9617 46.7536 18.2833C46.6204 18.605 46.4251 18.8972 46.179 19.1433C45.9328 19.3895 45.6406 19.5848 45.319 19.718C44.9974 19.8512 44.6527 19.9198 44.3045 19.9198H42.5088V7.34479Z" fill="black"/>
<path d="M70.4901 7.34486C70.7434 7.34486 70.9942 7.39474 71.2282 7.49167C71.4622 7.5886 71.6748 7.73068 71.8539 7.90979C72.033 8.08889 72.1751 8.3015 72.272 8.53551C72.369 8.76952 72.4189 9.02034 72.4189 9.27363V19.0837C72.4257 19.7194 72.3844 20.3546 72.2953 20.984C72.2274 21.4845 72.1129 21.9775 71.9533 22.4567C71.7473 23.0154 71.4343 23.5286 71.0317 23.9674C70.5964 24.4549 70.0865 24.8702 69.521 25.1978C68.8932 25.556 68.2206 25.8292 67.5209 26.0102C66.7308 26.2111 65.9181 26.3101 65.1028 26.3047C64.1885 26.3144 63.2777 26.1896 62.3997 25.9342C61.633 25.7132 60.9076 25.3682 60.2524 24.9128C59.6612 24.5014 59.1493 23.9864 58.7417 23.3926C58.3514 22.8199 58.0829 22.1731 57.9531 21.4923H62.9651C63.2738 22.3284 63.9817 22.7465 65.0791 22.7465C65.4717 22.7711 65.8652 22.7141 66.2348 22.5792C66.6043 22.4443 66.9419 22.2344 67.2264 21.9626C67.7542 21.3594 68.0238 20.5728 67.977 19.7726V18.5469C67.682 18.8306 67.3642 19.0896 67.0269 19.3213C66.7358 19.5171 66.4273 19.6857 66.1052 19.8248C65.7897 19.9568 65.4596 20.0509 65.1218 20.1051C64.7481 20.1662 64.3699 20.1964 63.9912 20.1954C63.1412 20.2035 62.2981 20.042 61.5114 19.7203C60.7773 19.4265 60.1124 18.9832 59.5588 18.4186C59.0006 17.8463 58.5657 17.1656 58.2809 16.4186C57.9696 15.5915 57.8165 14.7132 57.8296 13.8295C57.8154 12.9111 57.9766 11.9985 58.3047 11.1406C58.6137 10.3435 59.0679 9.61054 59.6443 8.97907C60.2229 8.34882 60.9274 7.8472 61.7122 7.50675C62.4971 7.16629 63.3447 6.9946 64.2002 7.00282C64.91 6.99153 65.6138 7.13482 66.2627 7.42276C66.9116 7.7107 67.4901 8.13639 67.958 8.67029V7.34486H70.4901ZM62.4472 13.5825C62.4436 14.3512 62.7402 15.0909 63.2738 15.6443C63.531 15.9087 63.8399 16.1173 64.1812 16.2571C64.5425 16.4071 64.9302 16.483 65.3214 16.4804C65.7047 16.4818 66.0844 16.4058 66.4378 16.2571C66.7805 16.1173 67.0909 15.9087 67.3499 15.6443C67.6064 15.3751 67.8138 15.0632 67.9627 14.7226C68.115 14.3676 68.1935 13.9854 68.1935 13.5991C68.1935 13.2128 68.115 12.8306 67.9627 12.4756C67.8097 12.138 67.5973 11.8307 67.3356 11.5682C67.0714 11.3057 66.7583 11.0974 66.414 10.9553C66.0684 10.8086 65.6969 10.7327 65.3214 10.7321C64.9417 10.7313 64.5661 10.8106 64.2192 10.9649C63.881 11.115 63.5721 11.3241 63.3071 11.5824C63.0437 11.8369 62.8323 12.1403 62.6848 12.4756C62.5267 12.8231 62.4456 13.2007 62.4472 13.5825Z" fill="black"/>
<path d="M78.8987 3.0598L81.6541 13.3877L85.5829 1.44458H89.4262L93.3597 13.4067L96.1151 3.07881C96.2398 2.60976 96.5162 2.19514 96.9011 1.89955C97.2861 1.60396 97.758 1.444 98.2434 1.44458H101.569L96.0438 19.9721H91.1316L87.4974 9.2404L83.8631 19.9721H78.9747L73.4497 1.44458H76.7752C77.2572 1.44392 77.7261 1.60163 78.1098 1.89346C78.4935 2.18529 78.7706 2.59508 78.8987 3.0598Z" fill="black"/>
<path d="M111.493 7.34461H114.543C114.921 7.34461 115.283 7.49475 115.551 7.76203C115.818 8.02931 115.968 8.39182 115.968 8.7698V19.9528H111.498V18.5466C111.043 19.1304 110.456 19.5977 109.786 19.9099C109.115 20.2222 108.38 20.3704 107.64 20.3424C106.772 20.3505 105.912 20.179 105.113 19.8388C104.351 19.5066 103.665 19.0216 103.099 18.4136C102.516 17.7975 102.061 17.0727 101.759 16.2806C101.435 15.4249 101.274 14.5161 101.284 13.6012C101.282 12.724 101.443 11.8541 101.759 11.0359C102.051 10.2512 102.491 9.53024 103.056 8.91232C103.618 8.30919 104.294 7.8246 105.046 7.48712C105.85 7.12831 106.722 6.94838 107.602 6.95979C108.333 6.94051 109.059 7.07762 109.733 7.36192C110.406 7.64622 111.011 8.07116 111.507 8.60827L111.493 7.34461ZM105.892 13.606C105.89 14.3735 106.184 15.1123 106.714 15.6677C106.973 15.9337 107.283 16.1439 107.626 16.2853C107.988 16.4337 108.375 16.508 108.766 16.5039C109.149 16.5068 109.529 16.4324 109.883 16.2853C110.224 16.1438 110.533 15.9336 110.79 15.6677C111.047 15.4036 111.256 15.0965 111.408 14.7604C111.562 14.4119 111.642 14.0347 111.64 13.6535C111.64 13.2693 111.561 12.8893 111.408 12.5371C111.257 12.1959 111.048 11.8839 110.79 11.6154C110.533 11.351 110.224 11.1424 109.883 11.0026C109.529 10.8555 109.149 10.7812 108.766 10.7841C108.375 10.7799 107.988 10.8542 107.626 11.0026C107.283 11.1424 106.973 11.351 106.714 11.6154C106.463 11.8773 106.261 12.1812 106.115 12.5133C105.965 12.8579 105.889 13.2301 105.892 13.606V13.606Z" fill="black"/>
<path d="M122.914 8.83154L125.218 13.796L127.593 8.81255C127.802 8.37257 128.13 8.00068 128.542 7.74001C128.953 7.47935 129.429 7.3406 129.916 7.33984H133.242L126.681 19.9386H123.712L117.227 7.33984H120.6C121.088 7.34352 121.564 7.48571 121.974 7.74983C122.383 8.01395 122.709 8.38911 122.914 8.83154Z" fill="black"/>
<path d="M137.669 14.3945C137.669 16.2947 138.57 17.2449 140.372 17.2449C140.809 17.2654 141.243 17.1666 141.628 16.959C142.013 16.7515 142.335 16.443 142.558 16.0667H146.857C145.986 18.9488 143.816 20.3898 140.349 20.3898C139.354 20.4025 138.366 20.2417 137.427 19.9147C136.583 19.6202 135.809 19.1562 135.151 18.5513C134.521 17.9598 134.024 17.2407 133.693 16.442C133.339 15.5687 133.163 14.6336 133.175 13.6914C133.153 12.7199 133.315 11.753 133.65 10.841C133.955 10.0311 134.431 9.29692 135.047 8.68894C135.677 8.08681 136.427 7.62249 137.246 7.32551C138.181 6.99538 139.167 6.8345 140.158 6.85044C141.129 6.83738 142.095 6.99828 143.009 7.32551C143.824 7.62225 144.563 8.09787 145.17 8.71745C145.777 9.35019 146.239 10.1072 146.524 10.936C146.849 11.8885 147.01 12.8893 146.999 13.8957V14.3707L137.669 14.3945ZM142.895 11.8149C142.768 11.2275 142.448 10.6993 141.987 10.3137C141.503 9.95568 140.917 9.76053 140.314 9.75626C139.712 9.75199 139.123 9.93882 138.634 10.2899C138.183 10.6815 137.891 11.2236 137.812 11.8149H142.895Z" fill="black"/>
</svg>
