<svg xmlns="http://www.w3.org/2000/svg" width="190" height="33" viewBox="0 0 190 33" fill="none">
<path d="M59.8405 4.07812C62.2071 4.07812 64.007 4.56925 65.2375 5.5542C66.468 6.53644 67.086 7.83981 67.086 9.4643C67.086 10.1902 66.9861 10.881 66.7864 11.5394C66.5867 12.1979 66.271 12.8104 65.842 13.3717C65.4129 13.9357 64.8597 14.4349 64.1824 14.8748C63.5051 15.3146 62.6874 15.6762 61.7349 15.9622C61.9831 16.4021 62.2503 16.931 62.5363 17.5516C62.8224 18.1723 63.1192 18.8415 63.4241 19.5566C63.729 20.2717 64.0259 21.0219 64.3119 21.8045C64.598 22.587 64.857 23.3615 65.0837 24.1252H61.2869C61.0576 23.437 60.8174 22.7408 60.5691 22.0338C60.3209 21.3268 60.0618 20.6441 59.792 19.9857C59.5248 19.3272 59.2496 18.7066 58.9716 18.1237C58.6937 17.5409 58.4211 17.02 58.1513 16.564C57.9786 16.5829 57.7681 16.5937 57.5198 16.5937H55.1991L54.2412 20.6117C53.7501 22.6734 51.7532 24.5299 49.6349 24.5299L54.4571 4.56655C55.3718 4.37496 56.3028 4.24813 57.25 4.18067C58.1945 4.11321 59.058 4.08082 59.8405 4.08082V4.07812ZM63.4187 9.86367C63.4187 8.81396 63.0355 8.09347 62.2719 7.70219C61.5082 7.31091 60.4855 7.11392 59.2091 7.11392C58.9419 7.11392 58.6559 7.12471 58.351 7.1436C58.046 7.16249 57.7411 7.19217 57.4335 7.22995L55.89 13.7009H57.4929C58.351 13.7009 59.1443 13.6308 59.8702 13.485C60.5961 13.342 61.2195 13.118 61.7457 12.8131C62.2719 12.5082 62.682 12.1115 62.9762 11.6258C63.273 11.1401 63.4214 10.5518 63.4214 9.86367H63.4187Z" fill="#081F29"/>
<path d="M70.2594 24.1384H66.916L70.3997 9.68264H73.7432L70.2594 24.1384ZM72.7474 8.19578C72.2509 8.19578 71.8164 8.04736 71.4494 7.75323C71.0797 7.45909 70.8962 7.01654 70.8962 6.42557C70.8962 5.74286 71.131 5.18157 71.6006 4.73902C72.0701 4.29647 72.6098 4.0752 73.2169 4.0752C73.7135 4.0752 74.1506 4.22631 74.5284 4.53124C74.9062 4.83617 75.0951 5.28142 75.0951 5.87239C75.0951 6.5551 74.8549 7.11099 74.3773 7.54544C73.897 7.9772 73.3546 8.19578 72.7474 8.19578Z" fill="#081F29"/>
<path d="M78.2578 21.7885C79.1429 21.7885 79.8418 21.6455 80.3599 21.3595C80.8753 21.0734 81.1343 20.6363 81.1343 20.048C81.1343 19.5677 80.9697 19.1872 80.6378 18.9011C80.3059 18.6151 79.7257 18.2805 78.8973 17.8919C78.4547 17.6895 78.0446 17.4763 77.6668 17.2578C77.289 17.0365 76.9625 16.7774 76.6845 16.4833C76.4093 16.1892 76.188 15.8438 76.0207 15.4471C75.8561 15.0504 75.7725 14.5755 75.7725 14.0223C75.7725 12.584 76.2987 11.4425 77.3484 10.5952C78.3981 9.74788 79.92 9.32422 81.9088 9.32422C82.829 9.32422 83.6547 9.42136 84.3833 9.61566C85.1119 9.80995 85.6597 10.0069 86.0267 10.2093L84.8394 12.808C84.5263 12.6245 84.0757 12.4437 83.4847 12.2683C82.8937 12.0929 82.2785 12.0065 81.6336 12.0065C81.3205 12.0065 81.0129 12.0335 80.708 12.0902C80.4031 12.1441 80.1305 12.2386 79.893 12.3654C79.6529 12.4949 79.4559 12.673 79.2994 12.9051C79.1429 13.1345 79.0646 13.4151 79.0646 13.747C79.0646 14.1707 79.2346 14.5161 79.5773 14.7832C79.9173 15.0504 80.4111 15.331 81.0561 15.6252C81.6632 15.9031 82.1787 16.1703 82.605 16.4266C83.0287 16.6857 83.3795 16.9744 83.6547 17.2982C83.9327 17.6221 84.135 17.981 84.2619 18.3749C84.3914 18.7716 84.4562 19.2465 84.4562 19.7997C84.4562 20.4824 84.3186 21.1112 84.0406 21.6941C83.7654 22.2742 83.3633 22.7708 82.8371 23.1863C82.3109 23.6019 81.6632 23.9284 80.8888 24.1686C80.1143 24.4087 79.2292 24.5275 78.2362 24.5275C77.5535 24.5275 76.9409 24.4816 76.3985 24.3898C75.8534 24.2981 75.3812 24.1929 74.9737 24.0714C74.5689 23.9527 74.2262 23.8286 73.951 23.699C73.6757 23.5695 73.4626 23.4589 73.3168 23.3671L74.5042 20.7415C74.6337 20.8144 74.8226 20.9115 75.0708 21.0329C75.3191 21.1517 75.6051 21.2677 75.929 21.3783C76.2501 21.489 76.6117 21.5861 77.0057 21.6698C77.4023 21.7534 77.8206 21.7939 78.2632 21.7939L78.2578 21.7885Z" fill="#081F29"/>
<path d="M89.1579 24.1379H85.8145L89.2982 9.68216H92.6416L89.1579 24.1379ZM91.6459 8.19529C91.1494 8.19529 90.7149 8.04687 90.3479 7.75274C89.9782 7.4586 89.7947 7.01605 89.7947 6.42509C89.7947 5.74237 90.0295 5.18108 90.499 4.73853C90.9686 4.29598 91.5083 4.07471 92.1154 4.07471C92.6119 4.07471 93.0491 4.22582 93.4269 4.53075C93.8047 4.83568 93.9936 5.28093 93.9936 5.8719C93.9936 6.55461 93.7534 7.1105 93.2758 7.54496C92.7954 7.97671 92.253 8.19529 91.6459 8.19529Z" fill="#081F29"/>
<path d="M95.9528 10.2895C96.6895 10.0683 97.5314 9.86047 98.4813 9.66618C99.4312 9.47189 100.467 9.37744 101.59 9.37744C103.285 9.37744 104.529 9.79301 105.322 10.6214C106.115 11.4499 106.509 12.567 106.509 13.9649C106.509 14.3507 106.477 14.7609 106.412 15.1954C106.347 15.6271 106.269 16.0751 106.177 16.5365L104.353 24.1381H101.012L102.723 16.8954C102.815 16.4906 102.907 16.0751 102.999 15.6514C103.09 15.2278 103.147 14.823 103.163 14.4344C103.182 13.7895 103.028 13.2552 102.707 12.8315C102.383 12.4078 101.755 12.1947 100.813 12.1947C100.019 12.1947 99.3394 12.2783 98.7673 12.4429L95.996 24.1354H92.631L95.9474 10.2868L95.9528 10.2895Z" fill="#081F29"/>
<path d="M113.449 26.7053C115.499 25.2535 115.799 24.0904 116.039 23.003L116.123 22.6171C115.753 22.8006 115.311 22.9733 114.795 23.1298C114.28 23.2863 113.735 23.3646 113.165 23.3646C111.544 23.3646 110.343 22.9274 109.557 22.0504C108.775 21.1761 108.384 20.0103 108.384 18.5532C108.384 17.2255 108.613 16.0004 109.074 14.8778C109.536 13.7553 110.183 12.7811 111.023 11.9608C111.862 11.1404 112.868 10.5009 114.05 10.0394C115.23 9.578 116.538 9.34863 117.974 9.34863C118.673 9.34863 119.426 9.42689 120.227 9.5834C121.029 9.73991 121.752 9.99357 122.397 10.3444L119.466 22.6171C119.207 23.7046 118.881 24.6679 118.484 25.5044C118.087 26.3437 117.567 27.0426 116.922 27.6039C116.277 28.1652 115.481 28.5942 114.531 28.8883C113.581 29.1825 112.434 29.3309 111.09 29.3309C110.113 29.3309 109.234 29.2257 108.451 29.0125C107.669 28.7993 106.98 28.5375 106.392 28.2245C106.392 28.2245 111.182 28.3082 113.449 26.7026V26.7053ZM113.988 20.6553C114.485 20.6553 114.995 20.5635 115.518 20.3773C116.042 20.1938 116.479 19.9618 116.827 19.6865L118.611 12.3062C118.187 12.2144 117.772 12.1685 117.367 12.1685C116.52 12.1685 115.748 12.3251 115.057 12.6381C114.366 12.9511 113.772 13.3748 113.273 13.9091C112.777 14.4434 112.388 15.0667 112.113 15.7737C111.838 16.4834 111.697 17.2444 111.697 18.0539C111.697 18.8635 111.873 19.5003 112.221 19.9618C112.572 20.4232 113.157 20.6526 113.986 20.6526L113.988 20.6553Z" fill="#081F29"/>
<path d="M138.133 7.39634C138.3 8.75097 139.247 15.2003 139.361 16.2824C139.477 17.3618 139.59 18.3657 139.706 19.2912C140.246 18.2685 140.807 17.146 141.387 15.9208C141.967 14.6957 142.547 13.4274 143.128 12.116C143.708 10.8045 144.277 9.46067 144.838 8.08175C145.4 6.70283 145.939 5.34819 146.463 4.01784H150.341C148.816 7.73904 147.272 11.2606 145.718 14.577C144.164 17.8934 142.518 21.0561 140.777 24.0649H137.237C137.083 23.0232 136.935 22.0005 136.792 20.9994C136.649 19.9982 136.514 18.9782 136.389 17.9474C136.265 16.9166 136.149 15.8642 136.044 14.7929C135.939 13.7216 135.839 12.6098 135.742 11.4522C134.538 13.6703 133.348 15.8156 132.174 17.888C130.998 19.9605 129.751 22.0194 128.432 24.0649H124.889C124.737 22.3864 124.63 20.7187 124.565 19.0592C124.5 17.3996 124.465 15.7023 124.465 13.9671C124.465 10.8045 124.576 7.48808 124.794 4.01514H128.44C128.324 5.8663 128.227 7.70396 128.151 9.52544C128.073 11.3469 128.035 13.1954 128.035 15.0654V17.1621C128.035 17.8664 128.054 18.5761 128.092 19.2885C128.691 18.3063 129.309 17.2674 129.948 16.1799C130.588 15.0897 131.214 13.986 131.834 12.8689C132.452 11.7517 133.057 10.6318 133.648 9.51195C134.236 8.39477 134.428 8.41906 134.951 7.39634H138.133Z" fill="#081F29"/>
<path d="M160.154 18.5259C160.1 18.7283 160.044 19.0602 159.99 19.5216C159.936 19.9831 159.906 20.4148 159.906 20.8196C159.906 21.3539 159.952 21.8747 160.044 22.382C160.135 22.8893 160.284 23.3993 160.486 23.9148C160.486 23.9148 158.012 24.2062 156.975 22.9487C156.514 23.3535 155.947 23.7178 155.275 24.0416C154.604 24.3627 153.843 24.5246 152.995 24.5246C152.148 24.5246 151.387 24.3816 150.769 24.0956C150.151 23.8095 149.649 23.4128 149.263 22.9082C148.877 22.4009 148.591 21.8072 148.405 21.1245C148.222 20.4418 148.13 19.7051 148.13 18.9145C148.13 17.5706 148.37 16.3158 148.848 15.1555C149.328 13.9951 149.994 12.9913 150.853 12.144C151.711 11.2967 152.728 10.6274 153.907 10.139C155.087 9.65058 156.376 9.40771 157.777 9.40771C158.495 9.40771 159.218 9.46708 159.946 9.58851C160.675 9.70725 161.406 9.93392 162.143 10.2658L160.152 18.5313L160.154 18.5259ZM158.338 12.2789C157.987 12.206 157.591 12.1683 157.148 12.1683C156.317 12.1683 155.553 12.3491 154.852 12.708C154.15 13.0669 153.546 13.5472 153.041 14.1463C152.534 14.7453 152.142 15.4307 151.865 16.2052C151.587 16.9797 151.449 17.7892 151.449 18.6365C151.449 19.0602 151.487 19.4569 151.56 19.8239C151.632 20.1936 151.757 20.5147 151.932 20.7899C152.107 21.0652 152.342 21.2864 152.636 21.4537C152.93 21.6184 153.308 21.702 153.77 21.702C154.358 21.702 154.879 21.5779 155.332 21.3296C155.783 21.0814 156.204 20.744 156.59 20.3204C156.608 19.8401 156.649 19.3894 156.714 18.9657C156.778 18.5421 156.865 18.1184 156.975 17.6948L158.336 12.2762L158.338 12.2789Z" fill="#081F29"/>
<path d="M166.008 24.1382C165.538 22.26 165.114 20.0796 164.739 17.6024C164.364 15.1252 164.119 12.4834 164.008 9.68239H167.435C167.454 10.4946 167.486 11.3689 167.532 12.308C167.578 13.2471 167.64 14.1916 167.716 15.1414C167.791 16.0913 167.88 17.0061 167.983 17.8912C168.085 18.7763 168.204 19.5777 168.334 20.2955C168.814 19.6695 169.332 18.9193 169.885 18.0423C170.439 17.168 170.976 16.2451 171.494 15.279C172.012 14.313 172.481 13.3388 172.908 12.362C173.331 11.3851 173.674 10.4919 173.933 9.67969H177.417C176.974 10.9507 176.418 12.2594 175.755 13.6033C175.091 14.9498 174.37 16.2559 173.593 17.5296C172.816 18.8006 172.017 20.0068 171.197 21.1509C170.374 22.2924 169.594 23.2881 168.857 24.1355H166.01L166.008 24.1382Z" fill="#081F29"/>
<path d="M177.036 18.9139C177.036 17.6807 177.233 16.4853 177.63 15.333C178.027 14.1808 178.596 13.158 179.343 12.2648C180.091 11.3716 180.987 10.6565 182.039 10.1222C183.089 9.58795 184.268 9.3208 185.577 9.3208C186.977 9.3208 188.065 9.6797 188.839 10.3975C189.614 11.1153 190 12.0382 190 13.1607C190 14.2833 189.714 15.2629 189.144 15.9807C188.572 16.6985 187.83 17.2624 186.918 17.6672C186.006 18.072 184.975 18.3499 183.823 18.4956C182.671 18.6441 181.505 18.7358 180.326 18.7709C180.307 18.8087 180.299 18.8437 180.299 18.8815V19.1568C180.299 20.8325 181.116 22.1305 183.127 22.8051C184.967 23.4231 187.514 23.6066 187.514 23.6066C187.072 23.809 186.446 24.0113 185.636 24.2137C184.824 24.4161 183.904 24.5187 182.873 24.5187C181.842 24.5187 180.957 24.3702 180.22 24.0761C179.484 23.782 178.879 23.3772 178.41 22.8591C177.94 22.3437 177.595 21.75 177.374 21.0754C177.152 20.4035 177.042 19.6803 177.042 18.9058L177.036 18.9139ZM185.08 12.0598C184.527 12.0598 184.004 12.1704 183.505 12.3917C183.008 12.6129 182.565 12.9179 182.177 13.3038C181.791 13.6896 181.454 14.1457 181.168 14.6719C180.882 15.1981 180.674 15.7648 180.544 16.3719C182.754 16.2991 184.363 16.0319 185.366 15.5705C186.37 15.109 186.872 14.4182 186.872 13.4981C186.872 13.1311 186.74 12.7991 186.473 12.5023C186.206 12.2082 185.742 12.0598 185.078 12.0598H185.08Z" fill="#081F29"/>
<path d="M21.1398 17.8322C19.8284 14.5211 19.5289 11.121 20.0901 8.12842C16.2502 13.5389 17.4564 21.0461 22.8264 24.975C25.0176 26.5779 27.5622 27.3389 30.0826 27.32C26.3587 25.8574 22.9694 22.4574 21.1372 17.8322H21.1398Z" fill="#005EEC"/>
<path d="M16.8732 22.9032C13.2681 14.8698 15.8505 5.88654 22.6426 2.83726C25.2628 1.66072 28.1259 1.54199 30.8622 2.29756C20.8076 -2.26018 9.87338 0.171157 6.40853 7.7485C2.93559 15.3447 8.28668 25.2401 18.3628 29.8464C20.9534 31.031 23.6033 31.7488 26.1695 32.0348C22.3269 30.5534 18.8647 27.3368 16.8732 22.9005V22.9032Z" fill="#005EEC"/>
<path d="M23.781 5.6997C25.6214 5.91828 27.0354 7.31339 27.3565 9.04312C27.6642 10.7917 29.0836 12.2057 30.9374 12.4243C33.2014 12.6915 35.255 11.0724 35.5221 8.80835C35.738 6.97338 34.718 5.27874 33.1178 4.55824C32.9181 4.47189 32.7184 4.39094 32.5133 4.31538C31.4447 3.98616 30.3114 3.82156 29.1375 3.79997C26.6657 3.75409 24.3207 4.4557 22.4237 5.74827C22.7853 5.6916 23.3979 5.65383 23.7783 5.6997H23.781Z" fill="#005EEC"/>
<path d="M29.1807 18.8792C25.4163 16.1267 23.2197 12.1114 22.877 8.12842C21.7761 11.998 22.6774 16.3966 25.6403 19.6779C29.8715 24.3625 36.8012 25.0965 41.6261 21.5615C37.662 22.5545 33.0395 21.7018 29.1807 18.8792Z" fill="#005EEC"/>
<path d="M4.95705 7.00879C1.42204 9.75315 -0.537057 13.6929 0.129468 17.6678C0.933616 22.4522 5.91502 26.3542 10.6994 27.3203C4.99214 23.224 0.2509 15.4577 4.95705 7.00879Z" fill="#005EEC"/>
</svg>
