<svg width="100" height="32" viewBox="0 0 100 32" fill="none" xmlns="http://www.w3.org/2000/svg">
<path d="M0 3C0 1.34315 1.34315 0 3 0H97C98.6569 0 100 1.34315 100 3V29C100 30.6569 98.6568 32 97 32H49.4429H3C1.34315 32 0 30.6569 0 29V3Z" fill="#F59E0B"/>
<path d="M38.833 11.0469V21H37.5342V11.0469H38.833ZM42.0322 11.0469V12.127H34.3418V11.0469H42.0322ZM47.1865 19.291V13.6035H48.458V21H47.248L47.1865 19.291ZM47.4258 17.7324L47.9521 17.7188C47.9521 18.2109 47.8997 18.6667 47.7949 19.0859C47.6947 19.5007 47.5306 19.8607 47.3027 20.166C47.0749 20.4714 46.7764 20.7106 46.4072 20.8838C46.0381 21.0524 45.5892 21.1367 45.0605 21.1367C44.7005 21.1367 44.3701 21.0843 44.0693 20.9795C43.7731 20.8747 43.5179 20.7129 43.3037 20.4941C43.0895 20.2754 42.9232 19.9906 42.8047 19.6396C42.6908 19.2887 42.6338 18.8672 42.6338 18.375V13.6035H43.8984V18.3887C43.8984 18.7214 43.9349 18.9971 44.0078 19.2158C44.0853 19.43 44.1878 19.6009 44.3154 19.7285C44.4476 19.8516 44.5934 19.9382 44.7529 19.9883C44.917 20.0384 45.0856 20.0635 45.2588 20.0635C45.7965 20.0635 46.2227 19.9609 46.5371 19.7559C46.8516 19.5462 47.0771 19.266 47.2139 18.915C47.3551 18.5596 47.4258 18.1654 47.4258 17.7324ZM53.4824 13.6035V14.5742H49.4834V13.6035H53.4824ZM50.8369 11.8057H52.1016V19.168C52.1016 19.4186 52.1403 19.6077 52.2178 19.7354C52.2952 19.863 52.3955 19.9473 52.5186 19.9883C52.6416 20.0293 52.7738 20.0498 52.915 20.0498C53.0199 20.0498 53.1292 20.0407 53.2432 20.0225C53.3617 19.9997 53.4505 19.9814 53.5098 19.9678L53.5166 21C53.4163 21.0319 53.2842 21.0615 53.1201 21.0889C52.9606 21.1208 52.7669 21.1367 52.5391 21.1367C52.2292 21.1367 51.9443 21.0752 51.6846 20.9521C51.4248 20.8291 51.2174 20.624 51.0625 20.3369C50.9121 20.0452 50.8369 19.6533 50.8369 19.1611V11.8057ZM54.4941 17.3838V17.2266C54.4941 16.6934 54.5716 16.1989 54.7266 15.7432C54.8815 15.2829 55.1048 14.8841 55.3965 14.5469C55.6882 14.2051 56.0413 13.9408 56.4561 13.7539C56.8708 13.5625 57.3356 13.4668 57.8506 13.4668C58.3701 13.4668 58.8372 13.5625 59.252 13.7539C59.6712 13.9408 60.0267 14.2051 60.3184 14.5469C60.6146 14.8841 60.8402 15.2829 60.9951 15.7432C61.1501 16.1989 61.2275 16.6934 61.2275 17.2266V17.3838C61.2275 17.917 61.1501 18.4115 60.9951 18.8672C60.8402 19.3229 60.6146 19.7217 60.3184 20.0635C60.0267 20.4007 59.6735 20.665 59.2588 20.8564C58.8486 21.0433 58.3838 21.1367 57.8643 21.1367C57.3447 21.1367 56.8776 21.0433 56.4629 20.8564C56.0482 20.665 55.6927 20.4007 55.3965 20.0635C55.1048 19.7217 54.8815 19.3229 54.7266 18.8672C54.5716 18.4115 54.4941 17.917 54.4941 17.3838ZM55.7588 17.2266V17.3838C55.7588 17.7529 55.8021 18.1016 55.8887 18.4297C55.9753 18.7533 56.1051 19.0404 56.2783 19.291C56.4561 19.5417 56.6771 19.7399 56.9414 19.8857C57.2057 20.027 57.5133 20.0977 57.8643 20.0977C58.2106 20.0977 58.5137 20.027 58.7734 19.8857C59.0378 19.7399 59.2565 19.5417 59.4297 19.291C59.6029 19.0404 59.7327 18.7533 59.8193 18.4297C59.9105 18.1016 59.9561 17.7529 59.9561 17.3838V17.2266C59.9561 16.862 59.9105 16.5179 59.8193 16.1943C59.7327 15.8662 59.6006 15.5768 59.4229 15.3262C59.2497 15.071 59.0309 14.8704 58.7666 14.7246C58.5068 14.5788 58.2015 14.5059 57.8506 14.5059C57.5042 14.5059 57.1989 14.5788 56.9346 14.7246C56.6748 14.8704 56.4561 15.071 56.2783 15.3262C56.1051 15.5768 55.9753 15.8662 55.8887 16.1943C55.8021 16.5179 55.7588 16.862 55.7588 17.2266ZM64.0781 14.7656V21H62.8135V13.6035H64.0439L64.0781 14.7656ZM66.3887 13.5625L66.3818 14.7383C66.277 14.7155 66.1768 14.7018 66.0811 14.6973C65.9899 14.6882 65.8851 14.6836 65.7666 14.6836C65.4749 14.6836 65.2174 14.7292 64.9941 14.8203C64.7708 14.9115 64.5817 15.0391 64.4268 15.2031C64.2718 15.3672 64.1488 15.5632 64.0576 15.791C63.971 16.0143 63.9141 16.2604 63.8867 16.5293L63.5312 16.7344C63.5312 16.2878 63.5745 15.8685 63.6611 15.4766C63.7523 15.0846 63.8913 14.7383 64.0781 14.4375C64.265 14.1322 64.502 13.8952 64.7891 13.7266C65.0807 13.5534 65.4271 13.4668 65.8281 13.4668C65.9193 13.4668 66.0241 13.4782 66.1426 13.501C66.2611 13.5192 66.3431 13.5397 66.3887 13.5625ZM68.9316 13.6035V21H67.6602V13.6035H68.9316ZM67.5645 11.6416C67.5645 11.4365 67.626 11.2633 67.749 11.1221C67.8766 10.9808 68.0635 10.9102 68.3096 10.9102C68.5511 10.9102 68.7357 10.9808 68.8633 11.1221C68.9954 11.2633 69.0615 11.4365 69.0615 11.6416C69.0615 11.8376 68.9954 12.0062 68.8633 12.1475C68.7357 12.2842 68.5511 12.3525 68.3096 12.3525C68.0635 12.3525 67.8766 12.2842 67.749 12.1475C67.626 12.0062 67.5645 11.8376 67.5645 11.6416ZM75.3232 19.7354V15.9277C75.3232 15.6361 75.264 15.3831 75.1455 15.1689C75.0316 14.9502 74.8584 14.7816 74.626 14.6631C74.3936 14.5446 74.1064 14.4854 73.7646 14.4854C73.4456 14.4854 73.1654 14.54 72.9238 14.6494C72.6868 14.7588 72.5 14.9023 72.3633 15.0801C72.2311 15.2578 72.165 15.4492 72.165 15.6543H70.9004C70.9004 15.39 70.9688 15.1279 71.1055 14.8682C71.2422 14.6084 71.4382 14.3737 71.6934 14.1641C71.9531 13.9499 72.263 13.7812 72.623 13.6582C72.9876 13.5306 73.3932 13.4668 73.8398 13.4668C74.3776 13.4668 74.8516 13.5579 75.2617 13.7402C75.6764 13.9225 76 14.1982 76.2324 14.5674C76.4694 14.932 76.5879 15.39 76.5879 15.9414V19.3867C76.5879 19.6328 76.6084 19.8949 76.6494 20.1729C76.695 20.4508 76.7611 20.6901 76.8477 20.8906V21H75.5283C75.4645 20.8542 75.4144 20.6605 75.3779 20.4189C75.3415 20.1729 75.3232 19.945 75.3232 19.7354ZM75.542 16.5156L75.5557 17.4043H74.2773C73.9173 17.4043 73.596 17.4339 73.3135 17.4932C73.0309 17.5479 72.7939 17.6322 72.6025 17.7461C72.4111 17.86 72.2653 18.0036 72.165 18.1768C72.0648 18.3454 72.0146 18.5436 72.0146 18.7715C72.0146 19.0039 72.0671 19.2158 72.1719 19.4072C72.2767 19.5986 72.4339 19.7513 72.6436 19.8652C72.8577 19.9746 73.1198 20.0293 73.4297 20.0293C73.8171 20.0293 74.1589 19.9473 74.4551 19.7832C74.7513 19.6191 74.986 19.4186 75.1592 19.1816C75.3369 18.9447 75.4326 18.7145 75.4463 18.4912L75.9863 19.0996C75.9544 19.291 75.8678 19.5029 75.7266 19.7354C75.5853 19.9678 75.3962 20.1911 75.1592 20.4053C74.9268 20.6149 74.6488 20.7904 74.3252 20.9316C74.0062 21.0684 73.6462 21.1367 73.2451 21.1367C72.7438 21.1367 72.304 21.0387 71.9258 20.8428C71.5521 20.6468 71.2604 20.3848 71.0508 20.0566C70.8457 19.724 70.7432 19.3525 70.7432 18.9424C70.7432 18.5459 70.8206 18.1973 70.9756 17.8965C71.1305 17.5911 71.3538 17.3382 71.6455 17.1377C71.9372 16.9326 72.2881 16.7777 72.6982 16.6729C73.1084 16.568 73.5664 16.5156 74.0723 16.5156H75.542ZM79.9512 10.5V21H78.6797V10.5H79.9512ZM86.2881 19.0381C86.2881 18.8558 86.2471 18.6872 86.165 18.5322C86.0876 18.3727 85.9258 18.2292 85.6797 18.1016C85.4382 17.9694 85.0736 17.8555 84.5859 17.7598C84.1758 17.6732 83.8044 17.5706 83.4717 17.4521C83.1436 17.3337 82.8633 17.1901 82.6309 17.0215C82.403 16.8529 82.2275 16.6546 82.1045 16.4268C81.9814 16.1989 81.9199 15.9323 81.9199 15.627C81.9199 15.3353 81.9837 15.0596 82.1113 14.7998C82.2435 14.54 82.4281 14.3099 82.665 14.1094C82.9066 13.9089 83.196 13.7516 83.5332 13.6377C83.8704 13.5238 84.2464 13.4668 84.6611 13.4668C85.2536 13.4668 85.7594 13.5716 86.1787 13.7812C86.598 13.9909 86.9193 14.2712 87.1426 14.6221C87.3659 14.9684 87.4775 15.3535 87.4775 15.7773H86.2129C86.2129 15.5723 86.1514 15.374 86.0283 15.1826C85.9098 14.9867 85.7344 14.8249 85.502 14.6973C85.2741 14.5697 84.9938 14.5059 84.6611 14.5059C84.3102 14.5059 84.0254 14.5605 83.8066 14.6699C83.5924 14.7747 83.4352 14.9092 83.335 15.0732C83.2393 15.2373 83.1914 15.4105 83.1914 15.5928C83.1914 15.7295 83.2142 15.8525 83.2598 15.9619C83.3099 16.0667 83.3965 16.1647 83.5195 16.2559C83.6426 16.3424 83.8158 16.4245 84.0391 16.502C84.2624 16.5794 84.5472 16.6569 84.8936 16.7344C85.4997 16.8711 85.9987 17.0352 86.3906 17.2266C86.7826 17.418 87.0742 17.6527 87.2656 17.9307C87.457 18.2087 87.5527 18.5459 87.5527 18.9424C87.5527 19.266 87.4844 19.5622 87.3477 19.8311C87.2155 20.0999 87.0218 20.3324 86.7666 20.5283C86.516 20.7197 86.2152 20.8701 85.8643 20.9795C85.5179 21.0843 85.1283 21.1367 84.6953 21.1367C84.0436 21.1367 83.4922 21.0205 83.041 20.7881C82.5898 20.5557 82.248 20.2549 82.0156 19.8857C81.7832 19.5166 81.667 19.127 81.667 18.7168H82.9385C82.9567 19.0632 83.057 19.3389 83.2393 19.5439C83.4215 19.7445 83.6449 19.888 83.9092 19.9746C84.1735 20.0566 84.4355 20.0977 84.6953 20.0977C85.0417 20.0977 85.3311 20.0521 85.5635 19.9609C85.8005 19.8698 85.9805 19.7445 86.1035 19.585C86.2266 19.4255 86.2881 19.2432 86.2881 19.0381Z" fill="black"/>
<path d="M28.2578 12.9609C28.8867 13.1523 28.8867 14 28.2578 14.1914L20.6289 16.543C20.082 16.707 19.5898 16.625 19.3438 16.543L14.0117 14.9023C13.6562 15.1211 13.4648 15.5039 13.4375 15.9141C13.6836 16.0508 13.875 16.3242 13.875 16.625C13.875 16.9258 13.7109 17.1719 13.4922 17.3359L14.1758 20.4805C14.2305 20.7539 14.0391 21 13.7656 21H12.207C11.9336 21 11.7422 20.7539 11.7969 20.4805L12.4805 17.3359C12.2617 17.1719 12.125 16.9258 12.125 16.625C12.125 16.3242 12.2891 16.0508 12.5625 15.8867C12.5898 15.4219 12.7539 14.957 13.0547 14.6016L11.7148 14.1914C11.0859 14 11.0859 13.1523 11.7148 12.9609L19.3438 10.6094C19.7539 10.4727 20.2188 10.4727 20.6289 10.6094L28.2578 12.9609ZM20.875 17.3906L24.8398 16.1602L25.25 19.25C25.25 20.2344 22.8984 21 20 21C17.0742 21 14.75 20.2344 14.75 19.25L15.1328 16.1602L19.0977 17.3906C19.4258 17.5 20.1094 17.6094 20.875 17.3906Z" fill="black"/>
</svg>
