<svg xmlns="http://www.w3.org/2000/svg" xmlns:xlink="http://www.w3.org/1999/xlink" width="684" height="636"><script xmlns="" src="chrome-extension://hoklmmgfnpapgjgcpechhaamimifchmp/frame_ant/frame_ant.js"/>
	<clipPath id="cl_3">
		<rect y="-0.00030517578" width="684.3573" height="636.62927"/>
	</clipPath>
	<g clip-path="url(#cl_3)">
		<path fill="#e53935" transform="matrix(2.97789 0 0 3.30144 -738.407 -280.356)" d="M261.82 174.37C257.065 168.782 252.93 154.44 252.063 147.339C250.774 136.779 253.373 103.837 267.432 102.401C285.842 100.521 304.715 105.72 319.08 117.51C318.668 117.971 306.443 123.888 303.456 126.176C293.853 129.684 276.688 149.036 271.375 157.793C268.202 162.749 264.94 170.093 261.82 174.37ZM271.375 157.793C276.688 149.036 293.853 129.684 303.456 126.176C296.701 120.76 285.049 116.694 276.328 117.768C266.625 118.964 266.191 138.551 267.379 145.489C268.106 149.732 269.671 153.855 271.375 157.793Z"/>
		<path fill="#e53935" transform="matrix(2.97789 0 0 3.30144 -738.407 -280.356)" d="M404.166 118.329C412.495 108.761 429.153 102.287 441.583 101.372C453.104 100.524 457.656 100.101 462.91 110.057C474.075 131.214 473.877 152.987 459.649 172.768C456.345 168.626 454.766 162.621 450.862 157.793C442.819 144.53 431.028 134.296 418.032 126.176C417.065 125.959 404.576 118.757 404.166 118.329ZM418.032 126.176C431.028 134.296 442.819 144.53 450.862 157.793C455.01 145.87 456.159 137.185 451.343 124.908C448.692 118.15 447.458 116.577 439.528 117.511C431.587 118.446 424.475 121.502 418.032 126.176Z"/>
		<path fill="#e53935" transform="matrix(2.97789 0 0 3.30144 -738.407 -280.356)" d="M319.08 117.51C321.712 117.43 325.137 115.327 327.701 114.492C350.058 107.211 382.737 109.85 404.166 118.329C404.576 118.757 417.065 125.959 418.032 126.176C431.028 134.296 442.819 144.53 450.862 157.793C454.766 162.621 456.345 168.626 459.649 172.768C459.544 174.29 460.817 175.827 461.421 177.165C481.413 221.496 465.796 271.239 412.943 277.998C405.622 278.934 398.19 278.663 390.825 278.651L330.415 278.64C322.278 278.643 313.78 279.119 305.76 277.579C289.526 274.46 266.885 262.679 259.879 246.584C267.86 252.51 275.358 257.042 284.965 259.81C282.049 241.474 282.569 224.121 293.882 208.422C303.959 194.438 320.445 187.192 337.374 191.047C340.364 191.728 347.799 195.104 342.081 187.951C337.4 182.095 329.043 178.1 321.688 177.426C291.115 174.625 269.231 202.851 259.952 228.677C258.581 232.493 257.971 236.477 256.705 240.294C251.066 223.306 251.896 189.893 261.82 174.37C264.94 170.093 268.202 162.749 271.375 157.793C276.688 149.036 293.853 129.684 303.456 126.176C306.443 123.888 318.668 117.971 319.08 117.51ZM358.651 208.509C347.776 208.935 339.282 213.583 331.977 221.505C320.91 233.509 305.832 246.754 321.299 260.337C332.932 270.552 349.047 274.377 364.224 274.251C378.819 272.854 394.512 268.678 404.217 256.837C414.422 244.385 398.79 229.855 390.072 221.736C381.173 213.449 371.873 206.238 358.651 208.509ZM401.035 177.502C392.914 177.226 379.283 183.3 377.053 191.635C377.993 193.567 386.24 190.667 388.135 190.448C400.276 189.049 414.019 193.522 422.723 202.19C443.566 222.946 435.809 257.445 437.831 259.81C447.4 255.028 466.388 249.336 464.293 235.387C460.503 210.155 439.026 184.138 414.087 178.23C410.037 177.271 405.147 176.549 401.035 177.502ZM322.016 197.829C305.299 201.176 310.583 225.072 327.058 222.2C343.759 218.324 339.082 195.774 322.016 197.829ZM396.376 197.829C381.158 199.812 382.084 220.856 398.061 222.2C413.556 219.22 411.535 196.955 396.376 197.829Z"/>
		<path fill="#6C4342" transform="matrix(2.97789 0 0 3.30144 -738.407 -280.356)" d="M396.376 197.829C411.535 196.955 413.556 219.22 398.061 222.2C382.084 220.856 381.158 199.812 396.376 197.829ZM402.667 203.465C399.191 205.582 399.716 209.713 404.166 210.121C406.82 207.756 407.757 203.015 402.667 203.465Z"/>
		<path fill="#6C4342" transform="matrix(2.97789 0 0 3.30144 -738.407 -280.356)" d="M322.016 197.829C339.082 195.774 343.759 218.324 327.058 222.2C310.583 225.072 305.299 201.176 322.016 197.829ZM331.03 203.465C326.756 205.033 325.841 209.744 331.03 210.121C334.21 208.811 334.93 204.474 331.03 203.465Z"/>
		<path fill="#F0CCC7" transform="matrix(2.97789 0 0 3.30144 -738.407 -280.356)" d="M360.727 242.641L361.293 242.768L361.424 242.641C366.859 246.646 387.335 241.478 379.056 251.839C371.918 253.948 366.722 251.298 360.727 247.48C356.774 250.864 344.132 257.085 342.238 249.551C340.584 242.972 349.008 245.26 352.748 244.762C355.383 244.412 358.091 243.211 360.727 242.641Z"/>
		<path fill="#6C4342" transform="matrix(2.97789 0 0 3.30144 -738.407 -280.356)" d="M360.727 242.641C356.978 239.411 348.795 237.345 348.472 231.608C347.989 223.034 368.232 223.286 373.086 228.157C379.672 234.767 364.698 239.738 361.424 242.641L361.293 242.768L360.727 242.641Z"/>
	</g></svg>