<svg width="60" height="60" viewBox="0 0 60 60" fill="none" xmlns="http://www.w3.org/2000/svg">
<g clip-path="url(#clip0_753_710)">
<path d="M31.4739 32.7946C29.6439 28.1905 29.2261 23.4617 30.0117 19.3026C24.659 26.8231 26.3391 37.2617 33.8271 42.7241C36.8801 44.9514 40.4312 46.0107 43.9449 45.9858C38.753 43.9508 34.0288 39.2255 31.4739 32.7946Z" fill="#48DCBC" fill-opacity="0.5"/>
<path d="M25.5267 39.8415C20.5008 28.6711 24.102 16.1815 33.5699 11.9441C37.2229 10.3096 41.215 10.1423 45.0304 11.1945C31.0115 4.85799 15.766 8.23723 10.9347 18.772C6.0909 29.3352 13.5539 43.0908 27.6031 49.4967C31.2132 51.1436 34.9072 52.1424 38.4869 52.5412C33.1272 50.4831 28.303 46.0089 25.5267 39.8415Z" fill="#48DCBC" fill-opacity="0.5"/>
<path d="M35.1572 15.925C37.7228 16.2277 39.6939 18.1683 40.142 20.5755C40.5723 23.0057 42.5505 24.9731 45.1358 25.2776C48.2941 25.6497 51.1561 23.3992 51.5293 20.2514C51.8328 17.7001 50.408 15.3428 48.1781 14.3422C47.9013 14.2211 47.6192 14.1108 47.3354 14.0057C45.8464 13.5481 44.2663 13.3185 42.6291 13.2864C39.1815 13.2223 35.9124 14.1962 33.27 15.9944C33.7735 15.9161 34.6287 15.8627 35.159 15.925H35.1572Z" fill="#48DCBC" fill-opacity="0.5"/>
<path d="M42.688 34.2475C37.4407 30.4196 34.3769 24.8362 33.9002 19.3026C32.363 24.6813 33.6217 30.7988 37.7531 35.3602C43.6521 41.873 53.3129 42.895 60.0402 37.9775C54.5144 39.3573 48.0674 38.1715 42.688 34.2475Z" fill="#48DCBC" fill-opacity="0.5"/>
<path d="M8.91181 17.7429C3.98233 21.5601 1.24889 27.0349 2.18087 32.5649C3.30031 39.2166 10.2473 44.6415 16.9175 45.984C8.96359 40.2866 2.35226 29.4901 8.9136 17.7429H8.91181Z" fill="#48DCBC" fill-opacity="0.5"/>
</g>
<defs>
<clipPath id="clip0_753_710">
<rect width="60" height="60" fill="white"/>
</clipPath>
</defs>
</svg>
