<svg width="60" height="60" viewBox="0 0 60 60" fill="none" xmlns="http://www.w3.org/2000/svg">
<g clip-path="url(#clip0_775_830)">
<path fill-rule="evenodd" clip-rule="evenodd" d="M2.74712 37.0102C2.56267 36.8257 2.45903 36.5755 2.45903 36.3147C2.45903 36.0538 2.56267 35.8037 2.74712 35.6191C2.93159 35.4347 3.18177 35.331 3.44264 35.331C3.70351 35.331 3.95369 35.4347 4.13816 35.6191C4.32261 35.8037 4.42625 36.0538 4.42625 36.3147C4.42625 36.5755 4.32261 36.8257 4.13816 37.0102C3.95369 37.1947 3.70351 37.2983 3.44264 37.2983C3.18177 37.2983 2.93159 37.1947 2.74712 37.0102ZM2.74712 42.9118C2.56267 42.7274 2.45903 42.4771 2.45903 42.2163C2.45903 41.9554 2.56267 41.7053 2.74712 41.5208C2.93159 41.3364 3.18177 41.2327 3.44264 41.2327C3.70351 41.2327 3.95369 41.3364 4.13816 41.5208C4.32261 41.7053 4.42625 41.9554 4.42625 42.2163C4.42625 42.4771 4.32261 42.7274 4.13816 42.9118C3.95369 43.0963 3.70351 43.1999 3.44264 43.1999C3.18177 43.1999 2.93159 43.0963 2.74712 42.9118ZM2.74712 48.8134C2.56267 48.629 2.45903 48.3788 2.45903 48.1179C2.45903 47.8571 2.56267 47.6069 2.74712 47.4224C2.93159 47.238 3.18177 47.1343 3.44264 47.1343C3.70351 47.1343 3.95369 47.238 4.13816 47.4224C4.32261 47.6069 4.42625 47.8571 4.42625 48.1179C4.42625 48.3788 4.32261 48.629 4.13816 48.8134C3.95369 48.998 3.70351 49.1015 3.44264 49.1015C3.18177 49.1015 2.93159 48.998 2.74712 48.8134ZM2.74712 54.7151C2.56267 54.5307 2.45903 54.2804 2.45903 54.0196C2.45903 53.7587 2.56267 53.5086 2.74712 53.3241C2.93159 53.1396 3.18177 53.036 3.44264 53.036C3.70351 53.036 3.95369 53.1396 4.13816 53.3241C4.32261 53.5086 4.42625 53.7587 4.42625 54.0196C4.42625 54.2804 4.32261 54.5307 4.13816 54.7151C3.95369 54.8996 3.70351 55.0032 3.44264 55.0032C3.18177 55.0032 2.93159 54.8996 2.74712 54.7151ZM7.08898 57.6659C6.90451 57.8504 6.65433 57.954 6.39346 57.954C6.13259 57.954 5.88241 57.8504 5.69794 57.6659C5.51349 57.4815 5.40985 57.2312 5.40985 56.9704C5.40985 56.7095 5.51349 56.4594 5.69794 56.2749C5.88241 56.0905 6.13259 55.9868 6.39346 55.9868C6.65433 55.9868 6.90451 56.0905 7.08898 56.2749C7.27343 56.4594 7.37707 56.7095 7.37707 56.9704C7.37707 57.2312 7.27343 57.4815 7.08898 57.6659ZM12.9906 57.6659C12.8062 57.8504 12.556 57.954 12.2951 57.954C12.0342 57.954 11.784 57.8504 11.5996 57.6659C11.4152 57.4815 11.3115 57.2312 11.3115 56.9704C11.3115 56.7095 11.4152 56.4594 11.5996 56.2749C11.784 56.0905 12.0342 55.9868 12.2951 55.9868C12.556 55.9868 12.8062 56.0905 12.9906 56.2749C13.175 56.4594 13.2787 56.7095 13.2787 56.9704C13.2787 57.2312 13.175 57.4815 12.9906 57.6659ZM18.8922 57.6659C18.7078 57.8504 18.4576 57.954 18.1967 57.954C17.9359 57.954 17.6857 57.8504 17.5012 57.6659C17.3168 57.4815 17.2131 57.2312 17.2131 56.9704C17.2131 56.7095 17.3168 56.4594 17.5012 56.2749C17.6857 56.0905 17.9359 55.9868 18.1967 55.9868C18.4576 55.9868 18.7078 56.0905 18.8922 56.2749C19.0767 56.4594 19.1803 56.7095 19.1803 56.9704C19.1803 57.2312 19.0767 57.4815 18.8922 57.6659ZM24.7939 57.6659C24.6095 57.8504 24.3592 57.954 24.0984 57.954C23.8375 57.954 23.5873 57.8504 23.4029 57.6659C23.2184 57.4815 23.1148 57.2312 23.1148 56.9704C23.1148 56.7095 23.2184 56.4594 23.4029 56.2749C23.5873 56.0905 23.8375 55.9868 24.0984 55.9868C24.3592 55.9868 24.6095 56.0905 24.7939 56.2749C24.9783 56.4594 25.082 56.7095 25.082 56.9704C25.082 57.2312 24.9783 57.4815 24.7939 57.6659ZM30.6955 57.6659C30.5111 57.8504 30.2609 57.954 30 57.954C29.7392 57.954 29.4889 57.8504 29.3045 57.6659C29.1201 57.4815 29.0164 57.2312 29.0164 56.9704C29.0164 56.7095 29.1201 56.4594 29.3045 56.2749C29.4889 56.0905 29.7392 55.9868 30 55.9868C30.2609 55.9868 30.5111 56.0905 30.6955 56.2749C30.88 56.4594 30.9836 56.7095 30.9836 56.9704C30.9836 57.2312 30.88 57.4815 30.6955 57.6659ZM36.5972 57.6659C36.4127 57.8504 36.1625 57.954 35.9017 57.954C35.6408 57.954 35.3906 57.8504 35.2061 57.6659C35.0217 57.4815 34.918 57.2312 34.918 56.9704C34.918 56.7095 35.0217 56.4594 35.2061 56.2749C35.3906 56.0905 35.6408 55.9868 35.9017 55.9868C36.1625 55.9868 36.4127 56.0905 36.5972 56.2749C36.7816 56.4594 36.8853 56.7095 36.8853 56.9704C36.8853 57.2312 36.7816 57.4815 36.5972 57.6659ZM42.4988 57.6659C42.3144 57.8504 42.0641 57.954 41.8033 57.954C41.5424 57.954 41.2922 57.8504 41.1078 57.6659C40.9234 57.4815 40.8197 57.2312 40.8197 56.9704C40.8197 56.7095 40.9234 56.4594 41.1078 56.2749C41.2922 56.0905 41.5424 55.9868 41.8033 55.9868C42.0641 55.9868 42.3144 56.0905 42.4988 56.2749C42.6832 56.4594 42.7869 56.7095 42.7869 56.9704C42.7869 57.2312 42.6832 57.4815 42.4988 57.6659ZM48.4004 57.6659C48.216 57.8504 47.9658 57.954 47.7049 57.954C47.4441 57.954 47.1939 57.8504 47.0094 57.6659C46.825 57.4815 46.7213 57.2312 46.7213 56.9704C46.7213 56.7095 46.825 56.4594 47.0094 56.2749C47.1939 56.0905 47.4441 55.9868 47.7049 55.9868C47.9658 55.9868 48.216 56.0905 48.4004 56.2749C48.5849 56.4594 48.6885 56.7095 48.6885 56.9704C48.6885 57.2312 48.5849 57.4815 48.4004 57.6659ZM54.3021 57.6659C54.1177 57.8504 53.8674 57.954 53.6066 57.954C53.3457 57.954 53.0955 57.8504 52.9111 57.6659C52.7266 57.4815 52.623 57.2312 52.623 56.9704C52.623 56.7095 52.7266 56.4594 52.9111 56.2749C53.0955 56.0905 53.3457 55.9868 53.6066 55.9868C53.8674 55.9868 54.1177 56.0905 54.3021 56.2749C54.4865 56.4594 54.5902 56.7095 54.5902 56.9704C54.5902 57.2312 54.4865 57.4815 54.3021 57.6659ZM57.2529 53.3241C57.4373 53.5086 57.541 53.7587 57.541 54.0196C57.541 54.2804 57.4373 54.5307 57.2529 54.7151C57.0685 54.8996 56.8182 55.0032 56.5574 55.0032C56.2965 55.0032 56.0463 54.8996 55.8619 54.7151C55.6775 54.5307 55.5738 54.2804 55.5738 54.0196C55.5738 53.7587 55.6775 53.5086 55.8619 53.3241C56.0463 53.1396 56.2965 53.036 56.5574 53.036C56.8182 53.036 57.0685 53.1396 57.2529 53.3241ZM57.2529 47.4224C57.4373 47.6069 57.541 47.8571 57.541 48.1179C57.541 48.3788 57.4373 48.629 57.2529 48.8134C57.0685 48.998 56.8182 49.1015 56.5574 49.1015C56.2965 49.1015 56.0463 48.998 55.8619 48.8134C55.6775 48.629 55.5738 48.3788 55.5738 48.1179C55.5738 47.8571 55.6775 47.6069 55.8619 47.4224C56.0463 47.238 56.2965 47.1343 56.5574 47.1343C56.8182 47.1343 57.0685 47.238 57.2529 47.4224ZM57.2529 41.5208C57.4373 41.7053 57.541 41.9554 57.541 42.2163C57.541 42.4771 57.4373 42.7274 57.2529 42.9118C57.0685 43.0963 56.8182 43.1999 56.5574 43.1999C56.2965 43.1999 56.0463 43.0963 55.8619 42.9118C55.6775 42.7274 55.5738 42.4771 55.5738 42.2163C55.5738 41.9554 55.6775 41.7053 55.8619 41.5208C56.0463 41.3364 56.2965 41.2327 56.5574 41.2327C56.8182 41.2327 57.0685 41.3364 57.2529 41.5208ZM57.2529 35.6191C57.4373 35.8037 57.541 36.0538 57.541 36.3147C57.541 36.5755 57.4373 36.8257 57.2529 37.0102C57.0685 37.1947 56.8182 37.2983 56.5574 37.2983C56.2965 37.2983 56.0463 37.1947 55.8619 37.0102C55.6775 36.8257 55.5738 36.5755 55.5738 36.3147C55.5738 36.0538 55.6775 35.8037 55.8619 35.6191C56.0463 35.4347 56.2965 35.331 56.5574 35.331C56.8182 35.331 57.0685 35.4347 57.2529 35.6191ZM57.2529 29.7175C57.4373 29.902 57.541 30.1522 57.541 30.413C57.541 30.6739 57.4373 30.9241 57.2529 31.1085C57.0685 31.293 56.8182 31.3966 56.5574 31.3966C56.2965 31.3966 56.0463 31.293 55.8619 31.1085C55.6775 30.9241 55.5738 30.6739 55.5738 30.413C55.5738 30.1522 55.6775 29.902 55.8619 29.7175C56.0463 29.5331 56.2965 29.4294 56.5574 29.4294C56.8182 29.4294 57.0685 29.5331 57.2529 29.7175ZM57.2529 23.8159C57.4373 24.0004 57.541 24.2505 57.541 24.5114C57.541 24.7722 57.4373 25.0225 57.2529 25.2069C57.0685 25.3914 56.8182 25.495 56.5574 25.495C56.2965 25.495 56.0463 25.3914 55.8619 25.2069C55.6775 25.0225 55.5738 24.7722 55.5738 24.5114C55.5738 24.2505 55.6775 24.0004 55.8619 23.8159C56.0463 23.6314 56.2965 23.5278 56.5574 23.5278C56.8182 23.5278 57.0685 23.6314 57.2529 23.8159ZM57.2529 17.9142C57.4373 18.0988 57.541 18.3489 57.541 18.6097C57.541 18.8706 57.4373 19.1208 57.2529 19.3052C57.0685 19.4898 56.8182 19.5933 56.5574 19.5933C56.2965 19.5933 56.0463 19.4898 55.8619 19.3052C55.6775 19.1208 55.5738 18.8706 55.5738 18.6097C55.5738 18.3489 55.6775 18.0988 55.8619 17.9142C56.0463 17.7298 56.2965 17.6261 56.5574 17.6261C56.8182 17.6261 57.0685 17.7298 57.2529 17.9142ZM20.4521 17.9142C20.6365 17.7298 20.8867 17.6261 21.1476 17.6261C21.4084 17.6261 21.6586 17.7298 21.8431 17.9142C22.0275 18.0988 22.1312 18.3489 22.1312 18.6097C22.1312 18.8706 22.0275 19.1208 21.8431 19.3052C21.6586 19.4898 21.4084 19.5933 21.1476 19.5933C20.8867 19.5933 20.6365 19.4898 20.4521 19.3052C20.2676 19.1208 20.164 18.8706 20.164 18.6097C20.164 18.3489 20.2676 18.0988 20.4521 17.9142ZM17.5012 20.865C17.6857 20.6806 17.9359 20.577 18.1967 20.577C18.4576 20.577 18.7078 20.6806 18.8922 20.865C19.0767 21.0496 19.1803 21.2997 19.1803 21.5606C19.1803 21.8214 19.0767 22.0716 18.8922 22.2561C18.7078 22.4406 18.4576 22.5442 18.1967 22.5442C17.9359 22.5442 17.6857 22.4406 17.5012 22.2561C17.3168 22.0716 17.2131 21.8214 17.2131 21.5606C17.2131 21.2997 17.3168 21.0496 17.5012 20.865ZM23.4029 20.865C23.5873 20.6806 23.8375 20.577 24.0984 20.577C24.3592 20.577 24.6095 20.6806 24.7939 20.865C24.9783 21.0496 25.082 21.2997 25.082 21.5606C25.082 21.8214 24.9783 22.0716 24.7939 22.2561C24.6095 22.4406 24.3592 22.5442 24.0984 22.5442C23.8375 22.5442 23.5873 22.4406 23.4029 22.2561C23.2184 22.0716 23.1148 21.8214 23.1148 21.5606C23.1148 21.2997 23.2184 21.0496 23.4029 20.865ZM52.9111 20.865C53.0955 20.6806 53.3457 20.577 53.6066 20.577C53.8674 20.577 54.1177 20.6806 54.3021 20.865C54.4865 21.0496 54.5902 21.2997 54.5902 21.5606C54.5902 21.8214 54.4865 22.0716 54.3021 22.2561C54.1177 22.4406 53.8674 22.5442 53.6066 22.5442C53.3457 22.5442 53.0955 22.4406 52.9111 22.2561C52.7266 22.0716 52.623 21.8214 52.623 21.5606C52.623 21.2997 52.7266 21.0496 52.9111 20.865ZM14.5504 23.8159C14.7348 23.6314 14.9851 23.5278 15.2459 23.5278C15.5068 23.5278 15.757 23.6314 15.9414 23.8159C16.1259 24.0004 16.2295 24.2505 16.2295 24.5114C16.2295 24.7722 16.1259 25.0225 15.9414 25.2069C15.757 25.3914 15.5068 25.495 15.2459 25.495C14.9851 25.495 14.7348 25.3914 14.5504 25.2069C14.366 25.0225 14.2623 24.7722 14.2623 24.5114C14.2623 24.2505 14.366 24.0004 14.5504 23.8159ZM20.4521 23.8159C20.6365 23.6314 20.8867 23.5278 21.1476 23.5278C21.4084 23.5278 21.6586 23.6314 21.8431 23.8159C22.0275 24.0004 22.1312 24.2505 22.1312 24.5114C22.1312 24.7722 22.0275 25.0225 21.8431 25.2069C21.6586 25.3914 21.4084 25.495 21.1476 25.495C20.8867 25.495 20.6365 25.3914 20.4521 25.2069C20.2676 25.0225 20.164 24.7722 20.164 24.5114C20.164 24.2505 20.2676 24.0004 20.4521 23.8159ZM26.3537 23.8159C26.5381 23.6314 26.7883 23.5278 27.0492 23.5278C27.31 23.5278 27.5603 23.6314 27.7447 23.8159C27.9291 24.0004 28.0328 24.2505 28.0328 24.5114C28.0328 24.7722 27.9291 25.0225 27.7447 25.2069C27.5603 25.3914 27.31 25.495 27.0492 25.495C26.7883 25.495 26.5381 25.3914 26.3537 25.2069C26.1693 25.0225 26.0656 24.7722 26.0656 24.5114C26.0656 24.2505 26.1693 24.0004 26.3537 23.8159ZM49.9602 23.8159C50.1447 23.6314 50.3949 23.5278 50.6558 23.5278C50.9166 23.5278 51.1668 23.6314 51.3513 23.8159C51.5357 24.0004 51.6394 24.2505 51.6394 24.5114C51.6394 24.7722 51.5357 25.0225 51.3513 25.2069C51.1668 25.3914 50.9166 25.495 50.6558 25.495C50.3949 25.495 50.1447 25.3914 49.9602 25.2069C49.7758 25.0225 49.6721 24.7722 49.6721 24.5114C49.6721 24.2505 49.7758 24.0004 49.9602 23.8159ZM11.5996 26.7667C11.784 26.5823 12.0342 26.4786 12.2951 26.4786C12.556 26.4786 12.8062 26.5823 12.9906 26.7667C13.175 26.9512 13.2787 27.2013 13.2787 27.4622C13.2787 27.723 13.175 27.9733 12.9906 28.1577C12.8062 28.3422 12.556 28.4458 12.2951 28.4458C12.0342 28.4458 11.784 28.3422 11.5996 28.1577C11.4152 27.9733 11.3115 27.723 11.3115 27.4622C11.3115 27.2013 11.4152 26.9512 11.5996 26.7667ZM17.5012 26.7667C17.6857 26.5823 17.9359 26.4786 18.1967 26.4786C18.4576 26.4786 18.7078 26.5823 18.8922 26.7667C19.0767 26.9512 19.1803 27.2013 19.1803 27.4622C19.1803 27.723 19.0767 27.9733 18.8922 28.1577C18.7078 28.3422 18.4576 28.4458 18.1967 28.4458C17.9359 28.4458 17.6857 28.3422 17.5012 28.1577C17.3168 27.9733 17.2131 27.723 17.2131 27.4622C17.2131 27.2013 17.3168 26.9512 17.5012 26.7667ZM23.4029 26.7667C23.5873 26.5823 23.8375 26.4786 24.0984 26.4786C24.3592 26.4786 24.6095 26.5823 24.7939 26.7667C24.9783 26.9512 25.082 27.2013 25.082 27.4622C25.082 27.723 24.9783 27.9733 24.7939 28.1577C24.6095 28.3422 24.3592 28.4458 24.0984 28.4458C23.8375 28.4458 23.5873 28.3422 23.4029 28.1577C23.2184 27.9733 23.1148 27.723 23.1148 27.4622C23.1148 27.2013 23.2184 26.9512 23.4029 26.7667ZM29.3045 26.7667C29.4889 26.5823 29.7392 26.4786 30 26.4786C30.2609 26.4786 30.5111 26.5823 30.6955 26.7667C30.88 26.9512 30.9836 27.2013 30.9836 27.4622C30.9836 27.723 30.88 27.9733 30.6955 28.1577C30.5111 28.3422 30.2609 28.4458 30 28.4458C29.7392 28.4458 29.4889 28.3422 29.3045 28.1577C29.1201 27.9733 29.0164 27.723 29.0164 27.4622C29.0164 27.2013 29.1201 26.9512 29.3045 26.7667ZM47.0094 26.7667C47.1939 26.5823 47.4441 26.4786 47.7049 26.4786C47.9658 26.4786 48.216 26.5823 48.4004 26.7667C48.5849 26.9512 48.6885 27.2013 48.6885 27.4622C48.6885 27.723 48.5849 27.9733 48.4004 28.1577C48.216 28.3422 47.9658 28.4458 47.7049 28.4458C47.4441 28.4458 47.1939 28.3422 47.0094 28.1577C46.825 27.9733 46.7213 27.723 46.7213 27.4622C46.7213 27.2013 46.825 26.9512 47.0094 26.7667ZM52.9111 26.7667C53.0955 26.5823 53.3457 26.4786 53.6066 26.4786C53.8674 26.4786 54.1177 26.5823 54.3021 26.7667C54.4865 26.9512 54.5902 27.2013 54.5902 27.4622C54.5902 27.723 54.4865 27.9733 54.3021 28.1577C54.1177 28.3422 53.8674 28.4458 53.6066 28.4458C53.3457 28.4458 53.0955 28.3422 52.9111 28.1577C52.7266 27.9733 52.623 27.723 52.623 27.4622C52.623 27.2013 52.7266 26.9512 52.9111 26.7667ZM8.64876 29.7175C8.83323 29.5331 9.08341 29.4294 9.34428 29.4294C9.60515 29.4294 9.85536 29.5331 10.0398 29.7175C10.2242 29.902 10.3279 30.1522 10.3279 30.413C10.3279 30.6739 10.2242 30.9241 10.0398 31.1085C9.85536 31.293 9.60515 31.3966 9.34428 31.3966C9.08341 31.3966 8.83323 31.293 8.64876 31.1085C8.46431 30.9241 8.36067 30.6739 8.36067 30.413C8.36067 30.1522 8.46431 29.902 8.64876 29.7175ZM14.5504 29.7175C14.7348 29.5331 14.9851 29.4294 15.2459 29.4294C15.5068 29.4294 15.757 29.5331 15.9414 29.7175C16.1259 29.902 16.2295 30.1522 16.2295 30.413C16.2295 30.6739 16.1259 30.9241 15.9414 31.1085C15.757 31.293 15.5068 31.3966 15.2459 31.3966C14.9851 31.3966 14.7348 31.293 14.5504 31.1085C14.366 30.9241 14.2623 30.6739 14.2623 30.413C14.2623 30.1522 14.366 29.902 14.5504 29.7175ZM20.4521 29.7175C20.6365 29.5331 20.8867 29.4294 21.1476 29.4294C21.4084 29.4294 21.6586 29.5331 21.8431 29.7175C22.0275 29.902 22.1312 30.1522 22.1312 30.413C22.1312 30.6739 22.0275 30.9241 21.8431 31.1085C21.6586 31.293 21.4084 31.3966 21.1476 31.3966C20.8867 31.3966 20.6365 31.293 20.4521 31.1085C20.2676 30.9241 20.164 30.6739 20.164 30.413C20.164 30.1522 20.2676 29.902 20.4521 29.7175ZM26.3537 29.7175C26.5381 29.5331 26.7883 29.4294 27.0492 29.4294C27.31 29.4294 27.5603 29.5331 27.7447 29.7175C27.9291 29.902 28.0328 30.1522 28.0328 30.413C28.0328 30.6739 27.9291 30.9241 27.7447 31.1085C27.5603 31.293 27.31 31.3966 27.0492 31.3966C26.7883 31.3966 26.5381 31.293 26.3537 31.1085C26.1693 30.9241 26.0656 30.6739 26.0656 30.413C26.0656 30.1522 26.1693 29.902 26.3537 29.7175ZM32.2553 29.7175C32.4398 29.5331 32.69 29.4294 32.9508 29.4294C33.2117 29.4294 33.4619 29.5331 33.6463 29.7175C33.8308 29.902 33.9344 30.1522 33.9344 30.413C33.9344 30.6739 33.8308 30.9241 33.6463 31.1085C33.4619 31.293 33.2117 31.3966 32.9508 31.3966C32.69 31.3966 32.4398 31.293 32.2553 31.1085C32.0709 30.9241 31.9672 30.6739 31.9672 30.413C31.9672 30.1522 32.0709 29.902 32.2553 29.7175ZM44.0586 29.7175C44.243 29.5331 44.4933 29.4294 44.7541 29.4294C45.015 29.4294 45.2652 29.5331 45.4496 29.7175C45.634 29.902 45.7377 30.1522 45.7377 30.413C45.7377 30.6739 45.634 30.9241 45.4496 31.1085C45.2652 31.293 45.015 31.3966 44.7541 31.3966C44.4933 31.3966 44.243 31.293 44.0586 31.1085C43.8742 30.9241 43.7705 30.6739 43.7705 30.413C43.7705 30.1522 43.8742 29.902 44.0586 29.7175ZM49.9602 29.7175C50.1447 29.5331 50.3949 29.4294 50.6558 29.4294C50.9166 29.4294 51.1668 29.5331 51.3513 29.7175C51.5357 29.902 51.6394 30.1522 51.6394 30.413C51.6394 30.6739 51.5357 30.9241 51.3513 31.1085C51.1668 31.293 50.9166 31.3966 50.6558 31.3966C50.3949 31.3966 50.1447 31.293 49.9602 31.1085C49.7758 30.9241 49.6721 30.6739 49.6721 30.413C49.6721 30.1522 49.7758 29.902 49.9602 29.7175ZM5.69794 32.6683C5.88241 32.4839 6.13259 32.3802 6.39346 32.3802C6.65433 32.3802 6.90451 32.4839 7.08898 32.6683C7.27343 32.8529 7.37707 33.103 7.37707 33.3638C7.37707 33.6247 7.27343 33.8749 7.08898 34.0593C6.90451 34.2439 6.65433 34.3474 6.39346 34.3474C6.13259 34.3474 5.88241 34.2439 5.69794 34.0593C5.51349 33.8749 5.40985 33.6247 5.40985 33.3638C5.40985 33.103 5.51349 32.8529 5.69794 32.6683ZM11.5996 32.6683C11.784 32.4839 12.0342 32.3802 12.2951 32.3802C12.556 32.3802 12.8062 32.4839 12.9906 32.6683C13.175 32.8529 13.2787 33.103 13.2787 33.3638C13.2787 33.6247 13.175 33.8749 12.9906 34.0593C12.8062 34.2439 12.556 34.3474 12.2951 34.3474C12.0342 34.3474 11.784 34.2439 11.5996 34.0593C11.4152 33.8749 11.3115 33.6247 11.3115 33.3638C11.3115 33.103 11.4152 32.8529 11.5996 32.6683ZM17.5012 32.6683C17.6857 32.4839 17.9359 32.3802 18.1967 32.3802C18.4576 32.3802 18.7078 32.4839 18.8922 32.6683C19.0767 32.8529 19.1803 33.103 19.1803 33.3638C19.1803 33.6247 19.0767 33.8749 18.8922 34.0593C18.7078 34.2439 18.4576 34.3474 18.1967 34.3474C17.9359 34.3474 17.6857 34.2439 17.5012 34.0593C17.3168 33.8749 17.2131 33.6247 17.2131 33.3638C17.2131 33.103 17.3168 32.8529 17.5012 32.6683ZM23.4029 32.6683C23.5873 32.4839 23.8375 32.3802 24.0984 32.3802C24.3592 32.3802 24.6095 32.4839 24.7939 32.6683C24.9783 32.8529 25.082 33.103 25.082 33.3638C25.082 33.6247 24.9783 33.8749 24.7939 34.0593C24.6095 34.2439 24.3592 34.3474 24.0984 34.3474C23.8375 34.3474 23.5873 34.2439 23.4029 34.0593C23.2184 33.8749 23.1148 33.6247 23.1148 33.3638C23.1148 33.103 23.2184 32.8529 23.4029 32.6683ZM29.3045 32.6683C29.4889 32.4839 29.7392 32.3802 30 32.3802C30.2609 32.3802 30.5111 32.4839 30.6955 32.6683C30.88 32.8529 30.9836 33.103 30.9836 33.3638C30.9836 33.6247 30.88 33.8749 30.6955 34.0593C30.5111 34.2439 30.2609 34.3474 30 34.3474C29.7392 34.3474 29.4889 34.2439 29.3045 34.0593C29.1201 33.8749 29.0164 33.6247 29.0164 33.3638C29.0164 33.103 29.1201 32.8529 29.3045 32.6683ZM35.2061 32.6683C35.3906 32.4839 35.6408 32.3802 35.9017 32.3802C36.1625 32.3802 36.4127 32.4839 36.5972 32.6683C36.7816 32.8529 36.8853 33.103 36.8853 33.3638C36.8853 33.6247 36.7816 33.8749 36.5972 34.0593C36.4127 34.2439 36.1625 34.3474 35.9017 34.3474C35.6408 34.3474 35.3906 34.2439 35.2061 34.0593C35.0217 33.8749 34.918 33.6247 34.918 33.3638C34.918 33.103 35.0217 32.8529 35.2061 32.6683ZM41.1078 32.6683C41.2922 32.4839 41.5424 32.3802 41.8033 32.3802C42.0641 32.3802 42.3144 32.4839 42.4988 32.6683C42.6832 32.8529 42.7869 33.103 42.7869 33.3638C42.7869 33.6247 42.6832 33.8749 42.4988 34.0593C42.3144 34.2439 42.0641 34.3474 41.8033 34.3474C41.5424 34.3474 41.2922 34.2439 41.1078 34.0593C40.9234 33.8749 40.8197 33.6247 40.8197 33.3638C40.8197 33.103 40.9234 32.8529 41.1078 32.6683ZM47.0094 32.6683C47.1939 32.4839 47.4441 32.3802 47.7049 32.3802C47.9658 32.3802 48.216 32.4839 48.4004 32.6683C48.5849 32.8529 48.6885 33.103 48.6885 33.3638C48.6885 33.6247 48.5849 33.8749 48.4004 34.0593C48.216 34.2439 47.9658 34.3474 47.7049 34.3474C47.4441 34.3474 47.1939 34.2439 47.0094 34.0593C46.825 33.8749 46.7213 33.6247 46.7213 33.3638C46.7213 33.103 46.825 32.8529 47.0094 32.6683ZM52.9111 32.6683C53.0955 32.4839 53.3457 32.3802 53.6066 32.3802C53.8674 32.3802 54.1177 32.4839 54.3021 32.6683C54.4865 32.8529 54.5902 33.103 54.5902 33.3638C54.5902 33.6247 54.4865 33.8749 54.3021 34.0593C54.1177 34.2439 53.8674 34.3474 53.6066 34.3474C53.3457 34.3474 53.0955 34.2439 52.9111 34.0593C52.7266 33.8749 52.623 33.6247 52.623 33.3638C52.623 33.103 52.7266 32.8529 52.9111 32.6683ZM8.64876 35.6191C8.83323 35.4347 9.08341 35.331 9.34428 35.331C9.60515 35.331 9.85536 35.4347 10.0398 35.6191C10.2242 35.8037 10.3279 36.0538 10.3279 36.3147C10.3279 36.5755 10.2242 36.8257 10.0398 37.0102C9.85536 37.1947 9.60515 37.2983 9.34428 37.2983C9.08341 37.2983 8.83323 37.1947 8.64876 37.0102C8.46431 36.8257 8.36067 36.5755 8.36067 36.3147C8.36067 36.0538 8.46431 35.8037 8.64876 35.6191ZM14.5504 35.6191C14.7348 35.4347 14.9851 35.331 15.2459 35.331C15.5068 35.331 15.757 35.4347 15.9414 35.6191C16.1259 35.8037 16.2295 36.0538 16.2295 36.3147C16.2295 36.5755 16.1259 36.8257 15.9414 37.0102C15.757 37.1947 15.5068 37.2983 15.2459 37.2983C14.9851 37.2983 14.7348 37.1947 14.5504 37.0102C14.366 36.8257 14.2623 36.5755 14.2623 36.3147C14.2623 36.0538 14.366 35.8037 14.5504 35.6191ZM20.4521 35.6191C20.6365 35.4347 20.8867 35.331 21.1476 35.331C21.4084 35.331 21.6586 35.4347 21.8431 35.6191C22.0275 35.8037 22.1312 36.0538 22.1312 36.3147C22.1312 36.5755 22.0275 36.8257 21.8431 37.0102C21.6586 37.1947 21.4084 37.2983 21.1476 37.2983C20.8867 37.2983 20.6365 37.1947 20.4521 37.0102C20.2676 36.8257 20.164 36.5755 20.164 36.3147C20.164 36.0538 20.2676 35.8037 20.4521 35.6191ZM26.3537 35.6191C26.5381 35.4347 26.7883 35.331 27.0492 35.331C27.31 35.331 27.5603 35.4347 27.7447 35.6191C27.9291 35.8037 28.0328 36.0538 28.0328 36.3147C28.0328 36.5755 27.9291 36.8257 27.7447 37.0102C27.5603 37.1947 27.31 37.2983 27.0492 37.2983C26.7883 37.2983 26.5381 37.1947 26.3537 37.0102C26.1693 36.8257 26.0656 36.5755 26.0656 36.3147C26.0656 36.0538 26.1693 35.8037 26.3537 35.6191ZM32.2553 35.6191C32.4398 35.4347 32.69 35.331 32.9508 35.331C33.2117 35.331 33.4619 35.4347 33.6463 35.6191C33.8308 35.8037 33.9344 36.0538 33.9344 36.3147C33.9344 36.5755 33.8308 36.8257 33.6463 37.0102C33.4619 37.1947 33.2117 37.2983 32.9508 37.2983C32.69 37.2983 32.4398 37.1947 32.2553 37.0102C32.0709 36.8257 31.9672 36.5755 31.9672 36.3147C31.9672 36.0538 32.0709 35.8037 32.2553 35.6191ZM38.157 35.6191C38.3414 35.4347 38.5916 35.331 38.8525 35.331C39.1133 35.331 39.3636 35.4347 39.548 35.6191C39.7324 35.8037 39.8361 36.0538 39.8361 36.3147C39.8361 36.5755 39.7324 36.8257 39.548 37.0102C39.3636 37.1947 39.1133 37.2983 38.8525 37.2983C38.5916 37.2983 38.3414 37.1947 38.157 37.0102C37.9725 36.8257 37.8689 36.5755 37.8689 36.3147C37.8689 36.0538 37.9725 35.8037 38.157 35.6191ZM44.0586 35.6191C44.243 35.4347 44.4933 35.331 44.7541 35.331C45.015 35.331 45.2652 35.4347 45.4496 35.6191C45.634 35.8037 45.7377 36.0538 45.7377 36.3147C45.7377 36.5755 45.634 36.8257 45.4496 37.0102C45.2652 37.1947 45.015 37.2983 44.7541 37.2983C44.4933 37.2983 44.243 37.1947 44.0586 37.0102C43.8742 36.8257 43.7705 36.5755 43.7705 36.3147C43.7705 36.0538 43.8742 35.8037 44.0586 35.6191ZM49.9602 35.6191C50.1447 35.4347 50.3949 35.331 50.6558 35.331C50.9166 35.331 51.1668 35.4347 51.3513 35.6191C51.5357 35.8037 51.6394 36.0538 51.6394 36.3147C51.6394 36.5755 51.5357 36.8257 51.3513 37.0102C51.1668 37.1947 50.9166 37.2983 50.6558 37.2983C50.3949 37.2983 50.1447 37.1947 49.9602 37.0102C49.7758 36.8257 49.6721 36.5755 49.6721 36.3147C49.6721 36.0538 49.7758 35.8037 49.9602 35.6191ZM5.69794 38.57C5.88241 38.3855 6.13259 38.2819 6.39346 38.2819C6.65433 38.2819 6.90451 38.3855 7.08898 38.57C7.27343 38.7545 7.37707 39.0046 7.37707 39.2655C7.37707 39.5263 7.27343 39.7766 7.08898 39.961C6.90451 40.1455 6.65433 40.2491 6.39346 40.2491C6.13259 40.2491 5.88241 40.1455 5.69794 39.961C5.51349 39.7766 5.40985 39.5263 5.40985 39.2655C5.40985 39.0046 5.51349 38.7545 5.69794 38.57ZM11.5996 38.57C11.784 38.3855 12.0342 38.2819 12.2951 38.2819C12.556 38.2819 12.8062 38.3855 12.9906 38.57C13.175 38.7545 13.2787 39.0046 13.2787 39.2655C13.2787 39.5263 13.175 39.7766 12.9906 39.961C12.8062 40.1455 12.556 40.2491 12.2951 40.2491C12.0342 40.2491 11.784 40.1455 11.5996 39.961C11.4152 39.7766 11.3115 39.5263 11.3115 39.2655C11.3115 39.0046 11.4152 38.7545 11.5996 38.57ZM17.5012 38.57C17.6857 38.3855 17.9359 38.2819 18.1967 38.2819C18.4576 38.2819 18.7078 38.3855 18.8922 38.57C19.0767 38.7545 19.1803 39.0046 19.1803 39.2655C19.1803 39.5263 19.0767 39.7766 18.8922 39.961C18.7078 40.1455 18.4576 40.2491 18.1967 40.2491C17.9359 40.2491 17.6857 40.1455 17.5012 39.961C17.3168 39.7766 17.2131 39.5263 17.2131 39.2655C17.2131 39.0046 17.3168 38.7545 17.5012 38.57ZM23.4029 38.57C23.5873 38.3855 23.8375 38.2819 24.0984 38.2819C24.3592 38.2819 24.6095 38.3855 24.7939 38.57C24.9783 38.7545 25.082 39.0046 25.082 39.2655C25.082 39.5263 24.9783 39.7766 24.7939 39.961C24.6095 40.1455 24.3592 40.2491 24.0984 40.2491C23.8375 40.2491 23.5873 40.1455 23.4029 39.961C23.2184 39.7766 23.1148 39.5263 23.1148 39.2655C23.1148 39.0046 23.2184 38.7545 23.4029 38.57ZM29.3045 38.57C29.4889 38.3855 29.7392 38.2819 30 38.2819C30.2609 38.2819 30.5111 38.3855 30.6955 38.57C30.88 38.7545 30.9836 39.0046 30.9836 39.2655C30.9836 39.5263 30.88 39.7766 30.6955 39.961C30.5111 40.1455 30.2609 40.2491 30 40.2491C29.7392 40.2491 29.4889 40.1455 29.3045 39.961C29.1201 39.7766 29.0164 39.5263 29.0164 39.2655C29.0164 39.0046 29.1201 38.7545 29.3045 38.57ZM35.2061 38.57C35.3906 38.3855 35.6408 38.2819 35.9017 38.2819C36.1625 38.2819 36.4127 38.3855 36.5972 38.57C36.7816 38.7545 36.8853 39.0046 36.8853 39.2655C36.8853 39.5263 36.7816 39.7766 36.5972 39.961C36.4127 40.1455 36.1625 40.2491 35.9017 40.2491C35.6408 40.2491 35.3906 40.1455 35.2061 39.961C35.0217 39.7766 34.918 39.5263 34.918 39.2655C34.918 39.0046 35.0217 38.7545 35.2061 38.57ZM41.1078 38.57C41.2922 38.3855 41.5424 38.2819 41.8033 38.2819C42.0641 38.2819 42.3144 38.3855 42.4988 38.57C42.6832 38.7545 42.7869 39.0046 42.7869 39.2655C42.7869 39.5263 42.6832 39.7766 42.4988 39.961C42.3144 40.1455 42.0641 40.2491 41.8033 40.2491C41.5424 40.2491 41.2922 40.1455 41.1078 39.961C40.9234 39.7766 40.8197 39.5263 40.8197 39.2655C40.8197 39.0046 40.9234 38.7545 41.1078 38.57ZM47.0094 38.57C47.1939 38.3855 47.4441 38.2819 47.7049 38.2819C47.9658 38.2819 48.216 38.3855 48.4004 38.57C48.5849 38.7545 48.6885 39.0046 48.6885 39.2655C48.6885 39.5263 48.5849 39.7766 48.4004 39.961C48.216 40.1455 47.9658 40.2491 47.7049 40.2491C47.4441 40.2491 47.1939 40.1455 47.0094 39.961C46.825 39.7766 46.7213 39.5263 46.7213 39.2655C46.7213 39.0046 46.825 38.7545 47.0094 38.57ZM52.9111 38.57C53.0955 38.3855 53.3457 38.2819 53.6066 38.2819C53.8674 38.2819 54.1177 38.3855 54.3021 38.57C54.4865 38.7545 54.5902 39.0046 54.5902 39.2655C54.5902 39.5263 54.4865 39.7766 54.3021 39.961C54.1177 40.1455 53.8674 40.2491 53.6066 40.2491C53.3457 40.2491 53.0955 40.1455 52.9111 39.961C52.7266 39.7766 52.623 39.5263 52.623 39.2655C52.623 39.0046 52.7266 38.7545 52.9111 38.57ZM8.64876 41.5208C8.83323 41.3364 9.08341 41.2327 9.34428 41.2327C9.60515 41.2327 9.85536 41.3364 10.0398 41.5208C10.2242 41.7053 10.3279 41.9554 10.3279 42.2163C10.3279 42.4771 10.2242 42.7274 10.0398 42.9118C9.85536 43.0963 9.60515 43.1999 9.34428 43.1999C9.08341 43.1999 8.83323 43.0963 8.64876 42.9118C8.46431 42.7274 8.36067 42.4771 8.36067 42.2163C8.36067 41.9554 8.46431 41.7053 8.64876 41.5208ZM14.5504 41.5208C14.7348 41.3364 14.9851 41.2327 15.2459 41.2327C15.5068 41.2327 15.757 41.3364 15.9414 41.5208C16.1259 41.7053 16.2295 41.9554 16.2295 42.2163C16.2295 42.4771 16.1259 42.7274 15.9414 42.9118C15.757 43.0963 15.5068 43.1999 15.2459 43.1999C14.9851 43.1999 14.7348 43.0963 14.5504 42.9118C14.366 42.7274 14.2623 42.4771 14.2623 42.2163C14.2623 41.9554 14.366 41.7053 14.5504 41.5208ZM20.4521 41.5208C20.6365 41.3364 20.8867 41.2327 21.1476 41.2327C21.4084 41.2327 21.6586 41.3364 21.8431 41.5208C22.0275 41.7053 22.1312 41.9554 22.1312 42.2163C22.1312 42.4771 22.0275 42.7274 21.8431 42.9118C21.6586 43.0963 21.4084 43.1999 21.1476 43.1999C20.8867 43.1999 20.6365 43.0963 20.4521 42.9118C20.2676 42.7274 20.164 42.4771 20.164 42.2163C20.164 41.9554 20.2676 41.7053 20.4521 41.5208ZM26.3537 41.5208C26.5381 41.3364 26.7883 41.2327 27.0492 41.2327C27.31 41.2327 27.5603 41.3364 27.7447 41.5208C27.9291 41.7053 28.0328 41.9554 28.0328 42.2163C28.0328 42.4771 27.9291 42.7274 27.7447 42.9118C27.5603 43.0963 27.31 43.1999 27.0492 43.1999C26.7883 43.1999 26.5381 43.0963 26.3537 42.9118C26.1693 42.7274 26.0656 42.4771 26.0656 42.2163C26.0656 41.9554 26.1693 41.7053 26.3537 41.5208ZM32.2553 41.5208C32.4398 41.3364 32.69 41.2327 32.9508 41.2327C33.2117 41.2327 33.4619 41.3364 33.6463 41.5208C33.8308 41.7053 33.9344 41.9554 33.9344 42.2163C33.9344 42.4771 33.8308 42.7274 33.6463 42.9118C33.4619 43.0963 33.2117 43.1999 32.9508 43.1999C32.69 43.1999 32.4398 43.0963 32.2553 42.9118C32.0709 42.7274 31.9672 42.4771 31.9672 42.2163C31.9672 41.9554 32.0709 41.7053 32.2553 41.5208ZM38.157 41.5208C38.3414 41.3364 38.5916 41.2327 38.8525 41.2327C39.1133 41.2327 39.3636 41.3364 39.548 41.5208C39.7324 41.7053 39.8361 41.9554 39.8361 42.2163C39.8361 42.4771 39.7324 42.7274 39.548 42.9118C39.3636 43.0963 39.1133 43.1999 38.8525 43.1999C38.5916 43.1999 38.3414 43.0963 38.157 42.9118C37.9725 42.7274 37.8689 42.4771 37.8689 42.2163C37.8689 41.9554 37.9725 41.7053 38.157 41.5208ZM44.0586 41.5208C44.243 41.3364 44.4933 41.2327 44.7541 41.2327C45.015 41.2327 45.2652 41.3364 45.4496 41.5208C45.634 41.7053 45.7377 41.9554 45.7377 42.2163C45.7377 42.4771 45.634 42.7274 45.4496 42.9118C45.2652 43.0963 45.015 43.1999 44.7541 43.1999C44.4933 43.1999 44.243 43.0963 44.0586 42.9118C43.8742 42.7274 43.7705 42.4771 43.7705 42.2163C43.7705 41.9554 43.8742 41.7053 44.0586 41.5208ZM49.9602 41.5208C50.1447 41.3364 50.3949 41.2327 50.6558 41.2327C50.9166 41.2327 51.1668 41.3364 51.3513 41.5208C51.5357 41.7053 51.6394 41.9554 51.6394 42.2163C51.6394 42.4771 51.5357 42.7274 51.3513 42.9118C51.1668 43.0963 50.9166 43.1999 50.6558 43.1999C50.3949 43.1999 50.1447 43.0963 49.9602 42.9118C49.7758 42.7274 49.6721 42.4771 49.6721 42.2163C49.6721 41.9554 49.7758 41.7053 49.9602 41.5208ZM5.69794 44.4716C5.88241 44.2872 6.13259 44.1835 6.39346 44.1835C6.65433 44.1835 6.90451 44.2872 7.08898 44.4716C7.27343 44.6561 7.37707 44.9063 7.37707 45.1671C7.37707 45.428 7.27343 45.6782 7.08898 45.8626C6.90451 46.0471 6.65433 46.1507 6.39346 46.1507C6.13259 46.1507 5.88241 46.0471 5.69794 45.8626C5.51349 45.6782 5.40985 45.428 5.40985 45.1671C5.40985 44.9063 5.51349 44.6561 5.69794 44.4716ZM11.5996 44.4716C11.784 44.2872 12.0342 44.1835 12.2951 44.1835C12.556 44.1835 12.8062 44.2872 12.9906 44.4716C13.175 44.6561 13.2787 44.9063 13.2787 45.1671C13.2787 45.428 13.175 45.6782 12.9906 45.8626C12.8062 46.0471 12.556 46.1507 12.2951 46.1507C12.0342 46.1507 11.784 46.0471 11.5996 45.8626C11.4152 45.6782 11.3115 45.428 11.3115 45.1671C11.3115 44.9063 11.4152 44.6561 11.5996 44.4716ZM17.5012 44.4716C17.6857 44.2872 17.9359 44.1835 18.1967 44.1835C18.4576 44.1835 18.7078 44.2872 18.8922 44.4716C19.0767 44.6561 19.1803 44.9063 19.1803 45.1671C19.1803 45.428 19.0767 45.6782 18.8922 45.8626C18.7078 46.0471 18.4576 46.1507 18.1967 46.1507C17.9359 46.1507 17.6857 46.0471 17.5012 45.8626C17.3168 45.6782 17.2131 45.428 17.2131 45.1671C17.2131 44.9063 17.3168 44.6561 17.5012 44.4716ZM23.4029 44.4716C23.5873 44.2872 23.8375 44.1835 24.0984 44.1835C24.3592 44.1835 24.6095 44.2872 24.7939 44.4716C24.9783 44.6561 25.082 44.9063 25.082 45.1671C25.082 45.428 24.9783 45.6782 24.7939 45.8626C24.6095 46.0471 24.3592 46.1507 24.0984 46.1507C23.8375 46.1507 23.5873 46.0471 23.4029 45.8626C23.2184 45.6782 23.1148 45.428 23.1148 45.1671C23.1148 44.9063 23.2184 44.6561 23.4029 44.4716ZM29.3045 44.4716C29.4889 44.2872 29.7392 44.1835 30 44.1835C30.2609 44.1835 30.5111 44.2872 30.6955 44.4716C30.88 44.6561 30.9836 44.9063 30.9836 45.1671C30.9836 45.428 30.88 45.6782 30.6955 45.8626C30.5111 46.0471 30.2609 46.1507 30 46.1507C29.7392 46.1507 29.4889 46.0471 29.3045 45.8626C29.1201 45.6782 29.0164 45.428 29.0164 45.1671C29.0164 44.9063 29.1201 44.6561 29.3045 44.4716ZM35.2061 44.4716C35.3906 44.2872 35.6408 44.1835 35.9017 44.1835C36.1625 44.1835 36.4127 44.2872 36.5972 44.4716C36.7816 44.6561 36.8853 44.9063 36.8853 45.1671C36.8853 45.428 36.7816 45.6782 36.5972 45.8626C36.4127 46.0471 36.1625 46.1507 35.9017 46.1507C35.6408 46.1507 35.3906 46.0471 35.2061 45.8626C35.0217 45.6782 34.918 45.428 34.918 45.1671C34.918 44.9063 35.0217 44.6561 35.2061 44.4716ZM41.1078 44.4716C41.2922 44.2872 41.5424 44.1835 41.8033 44.1835C42.0641 44.1835 42.3144 44.2872 42.4988 44.4716C42.6832 44.6561 42.7869 44.9063 42.7869 45.1671C42.7869 45.428 42.6832 45.6782 42.4988 45.8626C42.3144 46.0471 42.0641 46.1507 41.8033 46.1507C41.5424 46.1507 41.2922 46.0471 41.1078 45.8626C40.9234 45.6782 40.8197 45.428 40.8197 45.1671C40.8197 44.9063 40.9234 44.6561 41.1078 44.4716ZM47.0094 44.4716C47.1939 44.2872 47.4441 44.1835 47.7049 44.1835C47.9658 44.1835 48.216 44.2872 48.4004 44.4716C48.5849 44.6561 48.6885 44.9063 48.6885 45.1671C48.6885 45.428 48.5849 45.6782 48.4004 45.8626C48.216 46.0471 47.9658 46.1507 47.7049 46.1507C47.4441 46.1507 47.1939 46.0471 47.0094 45.8626C46.825 45.6782 46.7213 45.428 46.7213 45.1671C46.7213 44.9063 46.825 44.6561 47.0094 44.4716ZM52.9111 44.4716C53.0955 44.2872 53.3457 44.1835 53.6066 44.1835C53.8674 44.1835 54.1177 44.2872 54.3021 44.4716C54.4865 44.6561 54.5902 44.9063 54.5902 45.1671C54.5902 45.428 54.4865 45.6782 54.3021 45.8626C54.1177 46.0471 53.8674 46.1507 53.6066 46.1507C53.3457 46.1507 53.0955 46.0471 52.9111 45.8626C52.7266 45.6782 52.623 45.428 52.623 45.1671C52.623 44.9063 52.7266 44.6561 52.9111 44.4716ZM8.64876 47.4224C8.83323 47.238 9.08341 47.1343 9.34428 47.1343C9.60515 47.1343 9.85536 47.238 10.0398 47.4224C10.2242 47.6069 10.3279 47.8571 10.3279 48.1179C10.3279 48.3788 10.2242 48.629 10.0398 48.8134C9.85536 48.998 9.60515 49.1015 9.34428 49.1015C9.08341 49.1015 8.83323 48.998 8.64876 48.8134C8.46431 48.629 8.36067 48.3788 8.36067 48.1179C8.36067 47.8571 8.46431 47.6069 8.64876 47.4224ZM14.5504 47.4224C14.7348 47.238 14.9851 47.1343 15.2459 47.1343C15.5068 47.1343 15.757 47.238 15.9414 47.4224C16.1259 47.6069 16.2295 47.8571 16.2295 48.1179C16.2295 48.3788 16.1259 48.629 15.9414 48.8134C15.757 48.998 15.5068 49.1015 15.2459 49.1015C14.9851 49.1015 14.7348 48.998 14.5504 48.8134C14.366 48.629 14.2623 48.3788 14.2623 48.1179C14.2623 47.8571 14.366 47.6069 14.5504 47.4224ZM20.4521 47.4224C20.6365 47.238 20.8867 47.1343 21.1476 47.1343C21.4084 47.1343 21.6586 47.238 21.8431 47.4224C22.0275 47.6069 22.1312 47.8571 22.1312 48.1179C22.1312 48.3788 22.0275 48.629 21.8431 48.8134C21.6586 48.998 21.4084 49.1015 21.1476 49.1015C20.8867 49.1015 20.6365 48.998 20.4521 48.8134C20.2676 48.629 20.164 48.3788 20.164 48.1179C20.164 47.8571 20.2676 47.6069 20.4521 47.4224ZM26.3537 47.4224C26.5381 47.238 26.7883 47.1343 27.0492 47.1343C27.31 47.1343 27.5603 47.238 27.7447 47.4224C27.9291 47.6069 28.0328 47.8571 28.0328 48.1179C28.0328 48.3788 27.9291 48.629 27.7447 48.8134C27.5603 48.998 27.31 49.1015 27.0492 49.1015C26.7883 49.1015 26.5381 48.998 26.3537 48.8134C26.1693 48.629 26.0656 48.3788 26.0656 48.1179C26.0656 47.8571 26.1693 47.6069 26.3537 47.4224ZM32.2553 47.4224C32.4398 47.238 32.69 47.1343 32.9508 47.1343C33.2117 47.1343 33.4619 47.238 33.6463 47.4224C33.8308 47.6069 33.9344 47.8571 33.9344 48.1179C33.9344 48.3788 33.8308 48.629 33.6463 48.8134C33.4619 48.998 33.2117 49.1015 32.9508 49.1015C32.69 49.1015 32.4398 48.998 32.2553 48.8134C32.0709 48.629 31.9672 48.3788 31.9672 48.1179C31.9672 47.8571 32.0709 47.6069 32.2553 47.4224ZM38.157 47.4224C38.3414 47.238 38.5916 47.1343 38.8525 47.1343C39.1133 47.1343 39.3636 47.238 39.548 47.4224C39.7324 47.6069 39.8361 47.8571 39.8361 48.1179C39.8361 48.3788 39.7324 48.629 39.548 48.8134C39.3636 48.998 39.1133 49.1015 38.8525 49.1015C38.5916 49.1015 38.3414 48.998 38.157 48.8134C37.9725 48.629 37.8689 48.3788 37.8689 48.1179C37.8689 47.8571 37.9725 47.6069 38.157 47.4224ZM44.0586 47.4224C44.243 47.238 44.4933 47.1343 44.7541 47.1343C45.015 47.1343 45.2652 47.238 45.4496 47.4224C45.634 47.6069 45.7377 47.8571 45.7377 48.1179C45.7377 48.3788 45.634 48.629 45.4496 48.8134C45.2652 48.998 45.015 49.1015 44.7541 49.1015C44.4933 49.1015 44.243 48.998 44.0586 48.8134C43.8742 48.629 43.7705 48.3788 43.7705 48.1179C43.7705 47.8571 43.8742 47.6069 44.0586 47.4224ZM49.9602 47.4224C50.1447 47.238 50.3949 47.1343 50.6558 47.1343C50.9166 47.1343 51.1668 47.238 51.3513 47.4224C51.5357 47.6069 51.6394 47.8571 51.6394 48.1179C51.6394 48.3788 51.5357 48.629 51.3513 48.8134C51.1668 48.998 50.9166 49.1015 50.6558 49.1015C50.3949 49.1015 50.1447 48.998 49.9602 48.8134C49.7758 48.629 49.6721 48.3788 49.6721 48.1179C49.6721 47.8571 49.7758 47.6069 49.9602 47.4224ZM5.69794 50.3732C5.88241 50.1888 6.13259 50.0851 6.39346 50.0851C6.65433 50.0851 6.90451 50.1888 7.08898 50.3732C7.27343 50.5578 7.37707 50.8079 7.37707 51.0688C7.37707 51.3296 7.27343 51.5798 7.08898 51.7643C6.90451 51.9488 6.65433 52.0524 6.39346 52.0524C6.13259 52.0524 5.88241 51.9488 5.69794 51.7643C5.51349 51.5798 5.40985 51.3296 5.40985 51.0688C5.40985 50.8079 5.51349 50.5578 5.69794 50.3732ZM11.5996 50.3732C11.784 50.1888 12.0342 50.0851 12.2951 50.0851C12.556 50.0851 12.8062 50.1888 12.9906 50.3732C13.175 50.5578 13.2787 50.8079 13.2787 51.0688C13.2787 51.3296 13.175 51.5798 12.9906 51.7643C12.8062 51.9488 12.556 52.0524 12.2951 52.0524C12.0342 52.0524 11.784 51.9488 11.5996 51.7643C11.4152 51.5798 11.3115 51.3296 11.3115 51.0688C11.3115 50.8079 11.4152 50.5578 11.5996 50.3732ZM17.5012 50.3732C17.6857 50.1888 17.9359 50.0851 18.1967 50.0851C18.4576 50.0851 18.7078 50.1888 18.8922 50.3732C19.0767 50.5578 19.1803 50.8079 19.1803 51.0688C19.1803 51.3296 19.0767 51.5798 18.8922 51.7643C18.7078 51.9488 18.4576 52.0524 18.1967 52.0524C17.9359 52.0524 17.6857 51.9488 17.5012 51.7643C17.3168 51.5798 17.2131 51.3296 17.2131 51.0688C17.2131 50.8079 17.3168 50.5578 17.5012 50.3732ZM23.4029 50.3732C23.5873 50.1888 23.8375 50.0851 24.0984 50.0851C24.3592 50.0851 24.6095 50.1888 24.7939 50.3732C24.9783 50.5578 25.082 50.8079 25.082 51.0688C25.082 51.3296 24.9783 51.5798 24.7939 51.7643C24.6095 51.9488 24.3592 52.0524 24.0984 52.0524C23.8375 52.0524 23.5873 51.9488 23.4029 51.7643C23.2184 51.5798 23.1148 51.3296 23.1148 51.0688C23.1148 50.8079 23.2184 50.5578 23.4029 50.3732ZM29.3045 50.3732C29.4889 50.1888 29.7392 50.0851 30 50.0851C30.2609 50.0851 30.5111 50.1888 30.6955 50.3732C30.88 50.5578 30.9836 50.8079 30.9836 51.0688C30.9836 51.3296 30.88 51.5798 30.6955 51.7643C30.5111 51.9488 30.2609 52.0524 30 52.0524C29.7392 52.0524 29.4889 51.9488 29.3045 51.7643C29.1201 51.5798 29.0164 51.3296 29.0164 51.0688C29.0164 50.8079 29.1201 50.5578 29.3045 50.3732ZM35.2061 50.3732C35.3906 50.1888 35.6408 50.0851 35.9017 50.0851C36.1625 50.0851 36.4127 50.1888 36.5972 50.3732C36.7816 50.5578 36.8853 50.8079 36.8853 51.0688C36.8853 51.3296 36.7816 51.5798 36.5972 51.7643C36.4127 51.9488 36.1625 52.0524 35.9017 52.0524C35.6408 52.0524 35.3906 51.9488 35.2061 51.7643C35.0217 51.5798 34.918 51.3296 34.918 51.0688C34.918 50.8079 35.0217 50.5578 35.2061 50.3732ZM41.1078 50.3732C41.2922 50.1888 41.5424 50.0851 41.8033 50.0851C42.0641 50.0851 42.3144 50.1888 42.4988 50.3732C42.6832 50.5578 42.7869 50.8079 42.7869 51.0688C42.7869 51.3296 42.6832 51.5798 42.4988 51.7643C42.3144 51.9488 42.0641 52.0524 41.8033 52.0524C41.5424 52.0524 41.2922 51.9488 41.1078 51.7643C40.9234 51.5798 40.8197 51.3296 40.8197 51.0688C40.8197 50.8079 40.9234 50.5578 41.1078 50.3732ZM47.0094 50.3732C47.1939 50.1888 47.4441 50.0851 47.7049 50.0851C47.9658 50.0851 48.216 50.1888 48.4004 50.3732C48.5849 50.5578 48.6885 50.8079 48.6885 51.0688C48.6885 51.3296 48.5849 51.5798 48.4004 51.7643C48.216 51.9488 47.9658 52.0524 47.7049 52.0524C47.4441 52.0524 47.1939 51.9488 47.0094 51.7643C46.825 51.5798 46.7213 51.3296 46.7213 51.0688C46.7213 50.8079 46.825 50.5578 47.0094 50.3732ZM52.9111 50.3732C53.0955 50.1888 53.3457 50.0851 53.6066 50.0851C53.8674 50.0851 54.1177 50.1888 54.3021 50.3732C54.4865 50.5578 54.5902 50.8079 54.5902 51.0688C54.5902 51.3296 54.4865 51.5798 54.3021 51.7643C54.1177 51.9488 53.8674 52.0524 53.6066 52.0524C53.3457 52.0524 53.0955 51.9488 52.9111 51.7643C52.7266 51.5798 52.623 51.3296 52.623 51.0688C52.623 50.8079 52.7266 50.5578 52.9111 50.3732ZM8.64876 53.3241C8.83323 53.1396 9.08341 53.036 9.34428 53.036C9.60515 53.036 9.85536 53.1396 10.0398 53.3241C10.2242 53.5086 10.3279 53.7587 10.3279 54.0196C10.3279 54.2804 10.2242 54.5307 10.0398 54.7151C9.85536 54.8996 9.60515 55.0032 9.34428 55.0032C9.08341 55.0032 8.83323 54.8996 8.64876 54.7151C8.46431 54.5307 8.36067 54.2804 8.36067 54.0196C8.36067 53.7587 8.46431 53.5086 8.64876 53.3241ZM14.5504 53.3241C14.7348 53.1396 14.9851 53.036 15.2459 53.036C15.5068 53.036 15.757 53.1396 15.9414 53.3241C16.1259 53.5086 16.2295 53.7587 16.2295 54.0196C16.2295 54.2804 16.1259 54.5307 15.9414 54.7151C15.757 54.8996 15.5068 55.0032 15.2459 55.0032C14.9851 55.0032 14.7348 54.8996 14.5504 54.7151C14.366 54.5307 14.2623 54.2804 14.2623 54.0196C14.2623 53.7587 14.366 53.5086 14.5504 53.3241ZM20.4521 53.3241C20.6365 53.1396 20.8867 53.036 21.1476 53.036C21.4084 53.036 21.6586 53.1396 21.8431 53.3241C22.0275 53.5086 22.1312 53.7587 22.1312 54.0196C22.1312 54.2804 22.0275 54.5307 21.8431 54.7151C21.6586 54.8996 21.4084 55.0032 21.1476 55.0032C20.8867 55.0032 20.6365 54.8996 20.4521 54.7151C20.2676 54.5307 20.164 54.2804 20.164 54.0196C20.164 53.7587 20.2676 53.5086 20.4521 53.3241ZM26.3537 53.3241C26.5381 53.1396 26.7883 53.036 27.0492 53.036C27.31 53.036 27.5603 53.1396 27.7447 53.3241C27.9291 53.5086 28.0328 53.7587 28.0328 54.0196C28.0328 54.2804 27.9291 54.5307 27.7447 54.7151C27.5603 54.8996 27.31 55.0032 27.0492 55.0032C26.7883 55.0032 26.5381 54.8996 26.3537 54.7151C26.1693 54.5307 26.0656 54.2804 26.0656 54.0196C26.0656 53.7587 26.1693 53.5086 26.3537 53.3241ZM32.2553 53.3241C32.4398 53.1396 32.69 53.036 32.9508 53.036C33.2117 53.036 33.4619 53.1396 33.6463 53.3241C33.8308 53.5086 33.9344 53.7587 33.9344 54.0196C33.9344 54.2804 33.8308 54.5307 33.6463 54.7151C33.4619 54.8996 33.2117 55.0032 32.9508 55.0032C32.69 55.0032 32.4398 54.8996 32.2553 54.7151C32.0709 54.5307 31.9672 54.2804 31.9672 54.0196C31.9672 53.7587 32.0709 53.5086 32.2553 53.3241ZM38.157 53.3241C38.3414 53.1396 38.5916 53.036 38.8525 53.036C39.1133 53.036 39.3636 53.1396 39.548 53.3241C39.7324 53.5086 39.8361 53.7587 39.8361 54.0196C39.8361 54.2804 39.7324 54.5307 39.548 54.7151C39.3636 54.8996 39.1133 55.0032 38.8525 55.0032C38.5916 55.0032 38.3414 54.8996 38.157 54.7151C37.9725 54.5307 37.8689 54.2804 37.8689 54.0196C37.8689 53.7587 37.9725 53.5086 38.157 53.3241ZM44.0586 53.3241C44.243 53.1396 44.4933 53.036 44.7541 53.036C45.015 53.036 45.2652 53.1396 45.4496 53.3241C45.634 53.5086 45.7377 53.7587 45.7377 54.0196C45.7377 54.2804 45.634 54.5307 45.4496 54.7151C45.2652 54.8996 45.015 55.0032 44.7541 55.0032C44.4933 55.0032 44.243 54.8996 44.0586 54.7151C43.8742 54.5307 43.7705 54.2804 43.7705 54.0196C43.7705 53.7587 43.8742 53.5086 44.0586 53.3241ZM49.9602 53.3241C50.1447 53.1396 50.3949 53.036 50.6558 53.036C50.9166 53.036 51.1668 53.1396 51.3513 53.3241C51.5357 53.5086 51.6394 53.7587 51.6394 54.0196C51.6394 54.2804 51.5357 54.5307 51.3513 54.7151C51.1668 54.8996 50.9166 55.0032 50.6558 55.0032C50.3949 55.0032 50.1447 54.8996 49.9602 54.7151C49.7758 54.5307 49.6721 54.2804 49.6721 54.0196C49.6721 53.7587 49.7758 53.5086 49.9602 53.3241Z" fill="#0098EF"/>
<path fill-rule="evenodd" clip-rule="evenodd" d="M59.5082 0L38.816 14.4832L21.1744 3.70197L0.491821 15.0768V59.9212H59.5082V58.9376V0ZM57.541 3.77689V18.6097V24.5114V30.413V36.3147V42.2163V48.1179V54.0196V57.954H53.6066H47.7049H41.8033H35.9017H30H24.0984H18.1967H12.2951H6.39346H2.45903V54.0196V48.1179V42.2163V36.3147V16.241L21.1207 5.97656L38.889 16.8346L57.541 3.77689Z" fill="#0098EF" fill-opacity="0.5"/>
</g>
<defs>
<clipPath id="clip0_775_830">
<rect width="60" height="60" fill="white"/>
</clipPath>
</defs>
</svg>
