<svg width="60" height="60" viewBox="0 0 60 60" fill="none" xmlns="http://www.w3.org/2000/svg">
<g clip-path="url(#clip0_775_832)">
<path d="M8.0006 7C7.7354 7 7.481 7.1054 7.2935 7.2929C7.1059 7.4804 7.0006 7.7348 7.0006 8C7.0006 8.2652 7.1059 8.5196 7.2935 8.7071C7.481 8.8946 7.7354 9 8.0006 9C8.2658 9 8.5201 8.8946 8.7077 8.7071C8.8952 8.5196 9.0006 8.2652 9.0006 8C9.0006 7.7348 8.8952 7.4804 8.7077 7.2929C8.5201 7.1054 8.2658 7 8.0006 7ZM12.0006 7C11.7354 7 11.481 7.1054 11.2935 7.2929C11.1059 7.4804 11.0006 7.7348 11.0006 8C11.0006 8.2652 11.1059 8.5196 11.2935 8.7071C11.481 8.8946 11.7354 9 12.0006 9C12.2658 9 12.5201 8.8946 12.7077 8.7071C12.8952 8.5196 13.0006 8.2652 13.0006 8C13.0006 7.7348 12.8952 7.4804 12.7077 7.2929C12.5201 7.1054 12.2658 7 12.0006 7ZM16.0006 7C15.7354 7 15.481 7.1054 15.2935 7.2929C15.1059 7.4804 15.0006 7.7348 15.0006 8C15.0006 8.2652 15.1059 8.5196 15.2935 8.7071C15.481 8.8946 15.7354 9 16.0006 9C16.2658 9 16.5201 8.8946 16.7077 8.7071C16.8952 8.5196 17.0006 8.2652 17.0006 8C17.0006 7.7348 16.8952 7.4804 16.7077 7.2929C16.5201 7.1054 16.2658 7 16.0006 7ZM20.0006 7C19.7354 7 19.481 7.1054 19.2935 7.2929C19.1059 7.4804 19.0006 7.7348 19.0006 8C19.0006 8.2652 19.1059 8.5196 19.2935 8.7071C19.481 8.8946 19.7354 9 20.0006 9C20.2658 9 20.5201 8.8946 20.7077 8.7071C20.8952 8.5196 21.0006 8.2652 21.0006 8C21.0006 7.7348 20.8952 7.4804 20.7077 7.2929C20.5201 7.1054 20.2658 7 20.0006 7ZM24.0006 7C23.7354 7 23.481 7.1054 23.2935 7.2929C23.1059 7.4804 23.0006 7.7348 23.0006 8C23.0006 8.2652 23.1059 8.5196 23.2935 8.7071C23.481 8.8946 23.7354 9 24.0006 9C24.2658 9 24.5201 8.8946 24.7077 8.7071C24.8952 8.5196 25.0006 8.2652 25.0006 8C25.0006 7.7348 24.8952 7.4804 24.7077 7.2929C24.5201 7.1054 24.2658 7 24.0006 7ZM28.0006 7C27.7354 7 27.481 7.1054 27.2935 7.2929C27.1059 7.4804 27.0006 7.7348 27.0006 8C27.0006 8.2652 27.1059 8.5196 27.2935 8.7071C27.481 8.8946 27.7354 9 28.0006 9C28.2658 9 28.5201 8.8946 28.7077 8.7071C28.8952 8.5196 29.0006 8.2652 29.0006 8C29.0006 7.7348 28.8952 7.4804 28.7077 7.2929C28.5201 7.1054 28.2658 7 28.0006 7ZM32.0006 7C31.7354 7 31.481 7.1054 31.2935 7.2929C31.1059 7.4804 31.0006 7.7348 31.0006 8C31.0006 8.2652 31.1059 8.5196 31.2935 8.7071C31.481 8.8946 31.7354 9 32.0006 9C32.2658 9 32.5201 8.8946 32.7077 8.7071C32.8952 8.5196 33.0006 8.2652 33.0006 8C33.0006 7.7348 32.8952 7.4804 32.7077 7.2929C32.5201 7.1054 32.2658 7 32.0006 7ZM36.0006 7C35.7354 7 35.481 7.1054 35.2935 7.2929C35.1059 7.4804 35.0006 7.7348 35.0006 8C35.0006 8.2652 35.1059 8.5196 35.2935 8.7071C35.481 8.8946 35.7354 9 36.0006 9C36.2658 9 36.5201 8.8946 36.7077 8.7071C36.8952 8.5196 37.0006 8.2652 37.0006 8C37.0006 7.7348 36.8952 7.4804 36.7077 7.2929C36.5201 7.1054 36.2658 7 36.0006 7ZM40.0006 7C39.7354 7 39.481 7.1054 39.2935 7.2929C39.1059 7.4804 39.0006 7.7348 39.0006 8C39.0006 8.2652 39.1059 8.5196 39.2935 8.7071C39.481 8.8946 39.7354 9 40.0006 9C40.2658 9 40.5201 8.8946 40.7077 8.7071C40.8952 8.5196 41.0006 8.2652 41.0006 8C41.0006 7.7348 40.8952 7.4804 40.7077 7.2929C40.5201 7.1054 40.2658 7 40.0006 7ZM44.0006 7C43.7354 7 43.481 7.1054 43.2935 7.2929C43.1059 7.4804 43.0006 7.7348 43.0006 8C43.0006 8.2652 43.1059 8.5196 43.2935 8.7071C43.481 8.8946 43.7354 9 44.0006 9C44.2658 9 44.5201 8.8946 44.7077 8.7071C44.8952 8.5196 45.0006 8.2652 45.0006 8C45.0006 7.7348 44.8952 7.4804 44.7077 7.2929C44.5201 7.1054 44.2658 7 44.0006 7ZM48.0006 7C47.7354 7 47.481 7.1054 47.2935 7.2929C47.1059 7.4804 47.0006 7.7348 47.0006 8C47.0006 8.2652 47.1059 8.5196 47.2935 8.7071C47.481 8.8946 47.7354 9 48.0006 9C48.2658 9 48.5201 8.8946 48.7077 8.7071C48.8952 8.5196 49.0006 8.2652 49.0006 8C49.0006 7.7348 48.8952 7.4804 48.7077 7.2929C48.5201 7.1054 48.2658 7 48.0006 7ZM52.0006 7C51.7354 7 51.481 7.1054 51.2935 7.2929C51.1059 7.4804 51.0006 7.7348 51.0006 8C51.0006 8.2652 51.1059 8.5196 51.2935 8.7071C51.481 8.8946 51.7354 9 52.0006 9C52.2658 9 52.5201 8.8946 52.7077 8.7071C52.8952 8.5196 53.0006 8.2652 53.0006 8C53.0006 7.7348 52.8952 7.4804 52.7077 7.2929C52.5201 7.1054 52.2658 7 52.0006 7ZM8.0006 11C7.7354 11 7.481 11.1054 7.2935 11.2929C7.1059 11.4804 7.0006 11.7348 7.0006 12C7.0006 12.2652 7.1059 12.5196 7.2935 12.7071C7.481 12.8946 7.7354 13 8.0006 13C8.2658 13 8.5201 12.8946 8.7077 12.7071C8.8952 12.5196 9.0006 12.2652 9.0006 12C9.0006 11.7348 8.8952 11.4804 8.7077 11.2929C8.5201 11.1054 8.2658 11 8.0006 11ZM52.0006 11C51.7354 11 51.481 11.1054 51.2935 11.2929C51.1059 11.4804 51.0006 11.7348 51.0006 12C51.0006 12.2652 51.1059 12.5196 51.2935 12.7071C51.481 12.8946 51.7354 13 52.0006 13C52.2658 13 52.5201 12.8946 52.7077 12.7071C52.8952 12.5196 53.0006 12.2652 53.0006 12C53.0006 11.7348 52.8952 11.4804 52.7077 11.2929C52.5201 11.1054 52.2658 11 52.0006 11ZM8.0006 15C7.7354 15 7.481 15.1054 7.2935 15.2929C7.1059 15.4804 7.0006 15.7348 7.0006 16C7.0006 16.2652 7.1059 16.5196 7.2935 16.7071C7.481 16.8946 7.7354 17 8.0006 17C8.2658 17 8.5201 16.8946 8.7077 16.7071C8.8952 16.5196 9.0006 16.2652 9.0006 16C9.0006 15.7348 8.8952 15.4804 8.7077 15.2929C8.5201 15.1054 8.2658 15 8.0006 15ZM52.0006 15C51.7354 15 51.481 15.1054 51.2935 15.2929C51.1059 15.4804 51.0006 15.7348 51.0006 16C51.0006 16.2652 51.1059 16.5196 51.2935 16.7071C51.481 16.8946 51.7354 17 52.0006 17C52.2658 17 52.5201 16.8946 52.7077 16.7071C52.8952 16.5196 53.0006 16.2652 53.0006 16C53.0006 15.7348 52.8952 15.4804 52.7077 15.2929C52.5201 15.1054 52.2658 15 52.0006 15ZM8.0006 19C7.7354 19 7.481 19.1054 7.2935 19.2929C7.1059 19.4804 7.0006 19.7348 7.0006 20C7.0006 20.2652 7.1059 20.5196 7.2935 20.7071C7.481 20.8946 7.7354 21 8.0006 21C8.2658 21 8.5201 20.8946 8.7077 20.7071C8.8952 20.5196 9.0006 20.2652 9.0006 20C9.0006 19.7348 8.8952 19.4804 8.7077 19.2929C8.5201 19.1054 8.2658 19 8.0006 19ZM52.0006 19C51.7354 19 51.481 19.1054 51.2935 19.2929C51.1059 19.4804 51.0006 19.7348 51.0006 20C51.0006 20.2652 51.1059 20.5196 51.2935 20.7071C51.481 20.8946 51.7354 21 52.0006 21C52.2658 21 52.5201 20.8946 52.7077 20.7071C52.8952 20.5196 53.0006 20.2652 53.0006 20C53.0006 19.7348 52.8952 19.4804 52.7077 19.2929C52.5201 19.1054 52.2658 19 52.0006 19ZM38.233 21.7461C38.0336 21.7457 37.8387 21.805 37.6733 21.9162C37.5079 22.0274 37.3794 22.1855 37.3045 22.3702C37.2296 22.5549 37.2115 22.7579 37.2527 22.9529C37.2939 23.1479 37.3925 23.3262 37.5357 23.4648L43.0709 29H1.0006C0.868098 28.9981 0.736498 29.0226 0.613498 29.072C0.490598 29.1214 0.378598 29.1948 0.284298 29.2878C0.189898 29.3809 0.114998 29.4918 0.063798 29.614C0.012698 29.7363 -0.0136719 29.8675 -0.0136719 30C-0.0136719 30.1325 0.012698 30.2637 0.063798 30.386C0.114998 30.5082 0.189898 30.6191 0.284298 30.7122C0.378598 30.8052 0.490598 30.8786 0.613498 30.928C0.736498 30.9774 0.868098 31.0019 1.0006 31H43.0709L37.5357 36.5352C37.4398 36.6273 37.3631 36.7377 37.3104 36.8598C37.2576 36.9819 37.2297 37.1134 37.2283 37.2464C37.227 37.3794 37.2522 37.5114 37.3025 37.6346C37.3528 37.7578 37.4271 37.8697 37.5212 37.9637C37.6153 38.0578 37.7272 38.1322 37.8504 38.1825C37.9735 38.2327 38.1055 38.258 38.2385 38.2566C38.3716 38.2553 38.503 38.2274 38.6251 38.1746C38.7473 38.1218 38.8576 38.0452 38.9498 37.9492L46.192 30.707C46.3794 30.5195 46.4847 30.2652 46.4847 30C46.4847 29.7348 46.3794 29.4805 46.192 29.293L38.9498 22.0508C38.8568 21.9546 38.7454 21.8781 38.6223 21.8258C38.4991 21.7735 38.3668 21.7464 38.233 21.7461ZM8.0006 23C7.7354 23 7.481 23.1054 7.2935 23.2929C7.1059 23.4804 7.0006 23.7348 7.0006 24C7.0006 24.2652 7.1059 24.5196 7.2935 24.7071C7.481 24.8946 7.7354 25 8.0006 25C8.2658 25 8.5201 24.8946 8.7077 24.7071C8.8952 24.5196 9.0006 24.2652 9.0006 24C9.0006 23.7348 8.8952 23.4804 8.7077 23.2929C8.5201 23.1054 8.2658 23 8.0006 23ZM52.0006 23C51.7354 23 51.481 23.1054 51.2935 23.2929C51.1059 23.4804 51.0006 23.7348 51.0006 24C51.0006 24.2652 51.1059 24.5196 51.2935 24.7071C51.481 24.8946 51.7354 25 52.0006 25C52.2658 25 52.5201 24.8946 52.7077 24.7071C52.8952 24.5196 53.0006 24.2652 53.0006 24C53.0006 23.7348 52.8952 23.4804 52.7077 23.2929C52.5201 23.1054 52.2658 23 52.0006 23ZM52.0006 27C51.7354 27 51.481 27.1054 51.2935 27.2929C51.1059 27.4804 51.0006 27.7348 51.0006 28C51.0006 28.2652 51.1059 28.5196 51.2935 28.7071C51.481 28.8946 51.7354 29 52.0006 29C52.2658 29 52.5201 28.8946 52.7077 28.7071C52.8952 28.5196 53.0006 28.2652 53.0006 28C53.0006 27.7348 52.8952 27.4804 52.7077 27.2929C52.5201 27.1054 52.2658 27 52.0006 27ZM52.0006 31C51.7354 31 51.481 31.1054 51.2935 31.2929C51.1059 31.4804 51.0006 31.7348 51.0006 32C51.0006 32.2652 51.1059 32.5196 51.2935 32.7071C51.481 32.8946 51.7354 33 52.0006 33C52.2658 33 52.5201 32.8946 52.7077 32.7071C52.8952 32.5196 53.0006 32.2652 53.0006 32C53.0006 31.7348 52.8952 31.4804 52.7077 31.2929C52.5201 31.1054 52.2658 31 52.0006 31ZM8.0006 35C7.7354 35 7.481 35.1054 7.2935 35.2929C7.1059 35.4804 7.0006 35.7348 7.0006 36C7.0006 36.2652 7.1059 36.5196 7.2935 36.7071C7.481 36.8946 7.7354 37 8.0006 37C8.2658 37 8.5201 36.8946 8.7077 36.7071C8.8952 36.5196 9.0006 36.2652 9.0006 36C9.0006 35.7348 8.8952 35.4804 8.7077 35.2929C8.5201 35.1054 8.2658 35 8.0006 35ZM52.0006 35C51.7354 35 51.481 35.1054 51.2935 35.2929C51.1059 35.4804 51.0006 35.7348 51.0006 36C51.0006 36.2652 51.1059 36.5196 51.2935 36.7071C51.481 36.8946 51.7354 37 52.0006 37C52.2658 37 52.5201 36.8946 52.7077 36.7071C52.8952 36.5196 53.0006 36.2652 53.0006 36C53.0006 35.7348 52.8952 35.4804 52.7077 35.2929C52.5201 35.1054 52.2658 35 52.0006 35ZM8.0006 39C7.7354 39 7.481 39.1054 7.2935 39.2929C7.1059 39.4804 7.0006 39.7348 7.0006 40C7.0006 40.2652 7.1059 40.5196 7.2935 40.7071C7.481 40.8946 7.7354 41 8.0006 41C8.2658 41 8.5201 40.8946 8.7077 40.7071C8.8952 40.5196 9.0006 40.2652 9.0006 40C9.0006 39.7348 8.8952 39.4804 8.7077 39.2929C8.5201 39.1054 8.2658 39 8.0006 39ZM52.0006 39C51.7354 39 51.481 39.1054 51.2935 39.2929C51.1059 39.4804 51.0006 39.7348 51.0006 40C51.0006 40.2652 51.1059 40.5196 51.2935 40.7071C51.481 40.8946 51.7354 41 52.0006 41C52.2658 41 52.5201 40.8946 52.7077 40.7071C52.8952 40.5196 53.0006 40.2652 53.0006 40C53.0006 39.7348 52.8952 39.4804 52.7077 39.2929C52.5201 39.1054 52.2658 39 52.0006 39ZM8.0006 43C7.7354 43 7.481 43.1054 7.2935 43.2929C7.1059 43.4804 7.0006 43.7348 7.0006 44C7.0006 44.2652 7.1059 44.5196 7.2935 44.7071C7.481 44.8946 7.7354 45 8.0006 45C8.2658 45 8.5201 44.8946 8.7077 44.7071C8.8952 44.5196 9.0006 44.2652 9.0006 44C9.0006 43.7348 8.8952 43.4804 8.7077 43.2929C8.5201 43.1054 8.2658 43 8.0006 43ZM52.0006 43C51.7354 43 51.481 43.1054 51.2935 43.2929C51.1059 43.4804 51.0006 43.7348 51.0006 44C51.0006 44.2652 51.1059 44.5196 51.2935 44.7071C51.481 44.8946 51.7354 45 52.0006 45C52.2658 45 52.5201 44.8946 52.7077 44.7071C52.8952 44.5196 53.0006 44.2652 53.0006 44C53.0006 43.7348 52.8952 43.4804 52.7077 43.2929C52.5201 43.1054 52.2658 43 52.0006 43ZM8.0006 47C7.7354 47 7.481 47.1054 7.2935 47.2929C7.1059 47.4804 7.0006 47.7348 7.0006 48C7.0006 48.2652 7.1059 48.5196 7.2935 48.7071C7.481 48.8946 7.7354 49 8.0006 49C8.2658 49 8.5201 48.8946 8.7077 48.7071C8.8952 48.5196 9.0006 48.2652 9.0006 48C9.0006 47.7348 8.8952 47.4804 8.7077 47.2929C8.5201 47.1054 8.2658 47 8.0006 47ZM52.0006 47C51.7354 47 51.481 47.1054 51.2935 47.2929C51.1059 47.4804 51.0006 47.7348 51.0006 48C51.0006 48.2652 51.1059 48.5196 51.2935 48.7071C51.481 48.8946 51.7354 49 52.0006 49C52.2658 49 52.5201 48.8946 52.7077 48.7071C52.8952 48.5196 53.0006 48.2652 53.0006 48C53.0006 47.7348 52.8952 47.4804 52.7077 47.2929C52.5201 47.1054 52.2658 47 52.0006 47ZM8.0006 51C7.7354 51 7.481 51.1054 7.2935 51.2929C7.1059 51.4804 7.0006 51.7348 7.0006 52C7.0006 52.2652 7.1059 52.5196 7.2935 52.7071C7.481 52.8946 7.7354 53 8.0006 53C8.2658 53 8.5201 52.8946 8.7077 52.7071C8.8952 52.5196 9.0006 52.2652 9.0006 52C9.0006 51.7348 8.8952 51.4804 8.7077 51.2929C8.5201 51.1054 8.2658 51 8.0006 51ZM12.0006 51C11.7354 51 11.481 51.1054 11.2935 51.2929C11.1059 51.4804 11.0006 51.7348 11.0006 52C11.0006 52.2652 11.1059 52.5196 11.2935 52.7071C11.481 52.8946 11.7354 53 12.0006 53C12.2658 53 12.5201 52.8946 12.7077 52.7071C12.8952 52.5196 13.0006 52.2652 13.0006 52C13.0006 51.7348 12.8952 51.4804 12.7077 51.2929C12.5201 51.1054 12.2658 51 12.0006 51ZM16.0006 51C15.7354 51 15.481 51.1054 15.2935 51.2929C15.1059 51.4804 15.0006 51.7348 15.0006 52C15.0006 52.2652 15.1059 52.5196 15.2935 52.7071C15.481 52.8946 15.7354 53 16.0006 53C16.2658 53 16.5201 52.8946 16.7077 52.7071C16.8952 52.5196 17.0006 52.2652 17.0006 52C17.0006 51.7348 16.8952 51.4804 16.7077 51.2929C16.5201 51.1054 16.2658 51 16.0006 51ZM20.0006 51C19.7354 51 19.481 51.1054 19.2935 51.2929C19.1059 51.4804 19.0006 51.7348 19.0006 52C19.0006 52.2652 19.1059 52.5196 19.2935 52.7071C19.481 52.8946 19.7354 53 20.0006 53C20.2658 53 20.5201 52.8946 20.7077 52.7071C20.8952 52.5196 21.0006 52.2652 21.0006 52C21.0006 51.7348 20.8952 51.4804 20.7077 51.2929C20.5201 51.1054 20.2658 51 20.0006 51ZM24.0006 51C23.7354 51 23.481 51.1054 23.2935 51.2929C23.1059 51.4804 23.0006 51.7348 23.0006 52C23.0006 52.2652 23.1059 52.5196 23.2935 52.7071C23.481 52.8946 23.7354 53 24.0006 53C24.2658 53 24.5201 52.8946 24.7077 52.7071C24.8952 52.5196 25.0006 52.2652 25.0006 52C25.0006 51.7348 24.8952 51.4804 24.7077 51.2929C24.5201 51.1054 24.2658 51 24.0006 51ZM28.0006 51C27.7354 51 27.481 51.1054 27.2935 51.2929C27.1059 51.4804 27.0006 51.7348 27.0006 52C27.0006 52.2652 27.1059 52.5196 27.2935 52.7071C27.481 52.8946 27.7354 53 28.0006 53C28.2658 53 28.5201 52.8946 28.7077 52.7071C28.8952 52.5196 29.0006 52.2652 29.0006 52C29.0006 51.7348 28.8952 51.4804 28.7077 51.2929C28.5201 51.1054 28.2658 51 28.0006 51ZM32.0006 51C31.7354 51 31.481 51.1054 31.2935 51.2929C31.1059 51.4804 31.0006 51.7348 31.0006 52C31.0006 52.2652 31.1059 52.5196 31.2935 52.7071C31.481 52.8946 31.7354 53 32.0006 53C32.2658 53 32.5201 52.8946 32.7077 52.7071C32.8952 52.5196 33.0006 52.2652 33.0006 52C33.0006 51.7348 32.8952 51.4804 32.7077 51.2929C32.5201 51.1054 32.2658 51 32.0006 51ZM36.0006 51C35.7354 51 35.481 51.1054 35.2935 51.2929C35.1059 51.4804 35.0006 51.7348 35.0006 52C35.0006 52.2652 35.1059 52.5196 35.2935 52.7071C35.481 52.8946 35.7354 53 36.0006 53C36.2658 53 36.5201 52.8946 36.7077 52.7071C36.8952 52.5196 37.0006 52.2652 37.0006 52C37.0006 51.7348 36.8952 51.4804 36.7077 51.2929C36.5201 51.1054 36.2658 51 36.0006 51ZM40.0006 51C39.7354 51 39.481 51.1054 39.2935 51.2929C39.1059 51.4804 39.0006 51.7348 39.0006 52C39.0006 52.2652 39.1059 52.5196 39.2935 52.7071C39.481 52.8946 39.7354 53 40.0006 53C40.2658 53 40.5201 52.8946 40.7077 52.7071C40.8952 52.5196 41.0006 52.2652 41.0006 52C41.0006 51.7348 40.8952 51.4804 40.7077 51.2929C40.5201 51.1054 40.2658 51 40.0006 51ZM44.0006 51C43.7354 51 43.481 51.1054 43.2935 51.2929C43.1059 51.4804 43.0006 51.7348 43.0006 52C43.0006 52.2652 43.1059 52.5196 43.2935 52.7071C43.481 52.8946 43.7354 53 44.0006 53C44.2658 53 44.5201 52.8946 44.7077 52.7071C44.8952 52.5196 45.0006 52.2652 45.0006 52C45.0006 51.7348 44.8952 51.4804 44.7077 51.2929C44.5201 51.1054 44.2658 51 44.0006 51ZM48.0006 51C47.7354 51 47.481 51.1054 47.2935 51.2929C47.1059 51.4804 47.0006 51.7348 47.0006 52C47.0006 52.2652 47.1059 52.5196 47.2935 52.7071C47.481 52.8946 47.7354 53 48.0006 53C48.2658 53 48.5201 52.8946 48.7077 52.7071C48.8952 52.5196 49.0006 52.2652 49.0006 52C49.0006 51.7348 48.8952 51.4804 48.7077 51.2929C48.5201 51.1054 48.2658 51 48.0006 51ZM52.0006 51C51.7354 51 51.481 51.1054 51.2935 51.2929C51.1059 51.4804 51.0006 51.7348 51.0006 52C51.0006 52.2652 51.1059 52.5196 51.2935 52.7071C51.481 52.8946 51.7354 53 52.0006 53C52.2658 53 52.5201 52.8946 52.7077 52.7071C52.8952 52.5196 53.0006 52.2652 53.0006 52C53.0006 51.7348 52.8952 51.4804 52.7077 51.2929C52.5201 51.1054 52.2658 51 52.0006 51Z" fill="#0098EF"/>
<path fill-rule="evenodd" clip-rule="evenodd" d="M4 1.7H56C57.2703 1.7 58.3 2.72975 58.3 4V56C58.3 57.2703 57.2703 58.3 56 58.3H4C2.72975 58.3 1.7 57.2703 1.7 56V37H0V56C0 58.2091 1.79086 60 4 60H56C58.2091 60 60 58.2091 60 56V4C60 1.79086 58.2091 0 56 0H4C1.79086 0 0 1.79086 0 4V23H1.7V4C1.7 2.72975 2.72975 1.7 4 1.7Z" fill="#0098EF" fill-opacity="0.5"/>
</g>
<defs>
<clipPath id="clip0_775_832">
<rect width="60" height="60" fill="white"/>
</clipPath>
</defs>
</svg>
