<?xml version="1.0" encoding="UTF-8" standalone="no"?>
<!-- Created with Inkscape (http://www.inkscape.org/) -->

<svg
   width="130"
   height="130"
   viewBox="0 0 34.395833 34.395834"
   version="1.1"
   id="svg5"
   inkscape:version="1.1.2 (b8e25be8, 2022-02-05)"
   sodipodi:docname="logo.svg"
   xmlns:inkscape="http://www.inkscape.org/namespaces/inkscape"
   xmlns:sodipodi="http://sodipodi.sourceforge.net/DTD/sodipodi-0.dtd"
   xmlns="http://www.w3.org/2000/svg"
   xmlns:svg="http://www.w3.org/2000/svg">
  <sodipodi:namedview
     id="namedview7"
     pagecolor="#ffffff"
     bordercolor="#666666"
     borderopacity="1.0"
     inkscape:pageshadow="2"
     inkscape:pageopacity="0.0"
     inkscape:pagecheckerboard="0"
     inkscape:document-units="mm"
     showgrid="false"
     units="px"
     inkscape:zoom="0.64052329"
     inkscape:cx="92.892797"
     inkscape:cy="360.64262"
     inkscape:window-width="1920"
     inkscape:window-height="974"
     inkscape:window-x="0"
     inkscape:window-y="25"
     inkscape:window-maximized="1"
     inkscape:current-layer="Layer_1" />
  <defs
     id="defs2">
    <style
       id="style9">.cls-1{fill:url(#未命名的渐变_63);}.cls-2{fill:url(#未命名的渐变_17);}</style>
    <linearGradient
       id="未命名的渐变_63"
       x1="78.199997"
       y1="77.5"
       x2="345.76001"
       y2="77.5"
       gradientUnits="userSpaceOnUse">
      <stop
         offset="0"
         stop-color="#ff3cbc"
         id="stop11" />
      <stop
         offset="0.5"
         stop-color="#7f80ff"
         id="stop13" />
      <stop
         offset="1"
         stop-color="#00e4ff"
         id="stop15" />
    </linearGradient>
    <linearGradient
       id="未命名的渐变_17"
       x1="1.4400001"
       y1="79.010002"
       x2="100.89"
       y2="3.75"
       gradientUnits="userSpaceOnUse"
       gradientTransform="translate(4.6836705,10.928565)">
      <stop
         offset="0"
         stop-color="#0024b2"
         id="stop18" />
      <stop
         offset="1"
         stop-color="#c6c"
         id="stop20" />
    </linearGradient>
  </defs>
  <g
     inkscape:label="Layer 1"
     inkscape:groupmode="layer"
     id="layer1">
    <g
       id="Layer_1"
       data-name="Layer 1"
       transform="matrix(0.26458333,0,0,0.26458333,1.259875,1.9389548)">
      <path
         class="cls-2"
         d="m 81.003671,11.128565 c -55.12,4.48 -81.02000049,50.8 -75.6200005,76.86 4.6200005,22.579995 22.7200005,16.939995 22.7200005,16.939995 20.68,-5.829995 17.74,-37.679995 45.58,-41.789995 8.59,-1.35 18.41,-2.1 30.369999,-7.6 26,-13.41 14.63,-47.5000005 -23.049999,-44.41 z m -44.05,71.8 c -3.16,9.46 -14.44,13.23 -21.79,5 -15.31000049,-20 29.15,-39.49 46.25,-27.44 -7.73,1.73 -16.92,4.12 -24.46,22.44 z m 38.6,-31.15 c -15.1,4.7 -34.55,-10.67 -56.74,10.25 1.13,-9.59 13,-32.44 43.18,-41.62 27.48,-8.83 35.79,24.4 13.56,31.35 z"
         id="path47"
         style="fill:url(#%E6%9C%AA%E5%91%BD%E5%90%8D%E7%9A%84%E6%B8%90%E5%8F%98_17)" />
    </g>
  </g>
</svg>
