<svg width="206" height="61" viewBox="0 0 206 61" fill="none" xmlns="http://www.w3.org/2000/svg">
<path d="M86.8133 21.4015C88.8983 21.4015 90.4837 21.8296 91.5672 22.6882C92.6507 23.5468 93.1949 24.6835 93.1949 26.0981C93.1949 26.7304 93.1055 27.3356 92.929 27.9089C92.7526 28.4821 92.4743 29.016 92.0965 29.508C91.7188 30.0001 91.2293 30.4356 90.6328 30.8194C90.0364 31.2032 89.3157 31.5181 88.4758 31.769C88.6945 32.1528 88.9306 32.6153 89.1816 33.1541C89.4325 33.6954 89.6935 34.2785 89.9644 34.9034C90.2327 35.5283 90.4937 36.1803 90.7471 36.8642C90.9981 37.5482 91.2268 38.2223 91.4281 38.8865H88.0831C87.8819 38.2862 87.6681 37.6786 87.4495 37.0635C87.2308 36.4484 87.0021 35.853 86.7661 35.2773C86.53 34.7016 86.2889 34.1628 86.0454 33.6536C85.8018 33.1468 85.5608 32.6916 85.3247 32.2931C85.1731 32.3103 84.9892 32.3177 84.7705 32.3177H82.7253L81.8804 35.8211C81.448 37.6195 79.6886 39.2384 77.8223 39.2384L82.0693 21.8296C82.8769 21.6623 83.697 21.5516 84.5295 21.4925C85.362 21.4335 86.1224 21.404 86.8133 21.404V21.4015ZM89.9668 26.4475C89.9668 25.5323 89.6289 24.9024 88.9579 24.5629C88.2844 24.2209 87.3848 24.0512 86.2591 24.0512C86.023 24.0512 85.772 24.061 85.5012 24.0758C85.2328 24.093 84.9619 24.1176 84.6935 24.1521L83.3342 29.7959H84.7457C85.5012 29.7959 86.1995 29.7344 86.8381 29.6089C87.4768 29.4834 88.0285 29.2891 88.4907 29.0209C88.9529 28.7552 89.3133 28.4083 89.5742 27.9851C89.8351 27.5595 89.9644 27.0478 89.9644 26.4499L89.9668 26.4475Z" fill="white"/>
<path d="M95.9908 38.8964H93.0435L96.11 26.29H99.0573L95.9908 38.8964ZM98.1826 24.9935C97.7452 24.9935 97.3625 24.8655 97.037 24.6072C96.7114 24.3513 96.5499 23.9651 96.5499 23.4509C96.5499 22.8555 96.7562 22.3659 97.1712 21.9797C97.5862 21.5934 98.0608 21.4015 98.5951 21.4015C99.0325 21.4015 99.4177 21.5343 99.7507 21.8001C100.084 22.0658 100.25 22.4545 100.25 22.9687C100.25 23.5641 100.039 24.0487 99.6165 24.4276C99.194 24.8065 98.7144 24.9935 98.1801 24.9935H98.1826Z" fill="white"/>
<path d="M103.036 36.8472C103.816 36.8472 104.433 36.7218 104.887 36.4733C105.342 36.2248 105.568 35.8434 105.568 35.3292C105.568 34.911 105.422 34.5789 105.131 34.3279C104.838 34.0794 104.328 33.7867 103.598 33.4471C103.207 33.27 102.847 33.0855 102.514 32.8936C102.181 32.7017 101.893 32.4753 101.649 32.2195C101.406 31.9636 101.212 31.661 101.065 31.3166C100.919 30.9721 100.847 30.5563 100.847 30.0741C100.847 28.8219 101.309 27.8255 102.233 27.0849C103.158 26.3468 104.497 25.9753 106.252 25.9753C107.062 25.9753 107.79 26.059 108.431 26.2287C109.072 26.3985 109.554 26.5707 109.88 26.7479L108.834 29.0138C108.558 28.8538 108.16 28.6964 107.641 28.5439C107.121 28.3913 106.577 28.315 106.008 28.315C105.732 28.315 105.461 28.3396 105.193 28.3864C104.925 28.4356 104.686 28.5143 104.475 28.6275C104.264 28.7407 104.09 28.8957 103.95 29.0974C103.811 29.2992 103.744 29.5427 103.744 29.833C103.744 30.2021 103.893 30.5047 104.194 30.7359C104.495 30.9697 104.927 31.2132 105.496 31.4716C106.03 31.7127 106.485 31.9464 106.86 32.1703C107.233 32.3966 107.541 32.6476 107.785 32.9305C108.028 33.211 108.207 33.5259 108.322 33.8703C108.436 34.2172 108.493 34.6305 108.493 35.1127C108.493 35.7081 108.371 36.2568 108.128 36.7636C107.884 37.2704 107.531 37.7034 107.069 38.0651C106.607 38.4267 106.035 38.7121 105.352 38.9212C104.671 39.1303 103.891 39.2337 103.014 39.2337C102.412 39.2337 101.873 39.1943 101.396 39.1131C100.916 39.0319 100.499 38.9409 100.141 38.8351C99.7829 38.7318 99.4822 38.6235 99.2387 38.5104C98.9952 38.3972 98.8088 38.3012 98.6796 38.22L99.7258 35.9295C99.8401 35.9935 100.007 36.0796 100.225 36.183C100.444 36.2887 100.695 36.3872 100.981 36.4831C101.264 36.5791 101.582 36.6627 101.93 36.7365C102.278 36.8079 102.648 36.8448 103.038 36.8448L103.036 36.8472Z" fill="white"/>
<path d="M112.638 38.8964H109.691L112.758 26.29H115.705L112.638 38.8964ZM114.83 24.9935C114.393 24.9935 114.01 24.8655 113.684 24.6072C113.359 24.3513 113.197 23.9651 113.197 23.4509C113.197 22.8555 113.404 22.3659 113.819 21.9797C114.234 21.5934 114.708 21.4015 115.243 21.4015C115.68 21.4015 116.065 21.5343 116.398 21.8001C116.731 22.0658 116.898 22.4545 116.898 22.9687C116.898 23.5641 116.686 24.0487 116.264 24.4276C115.841 24.8065 115.362 24.9935 114.828 24.9935H114.83Z" fill="white"/>
<path d="M118.622 26.8191C119.271 26.6272 120.014 26.4451 120.849 26.2754C121.684 26.1081 122.598 26.022 123.588 26.022C125.081 26.022 126.177 26.3836 126.875 27.1069C127.574 27.8303 127.921 28.8021 127.921 30.0248C127.921 30.3619 127.894 30.7211 127.837 31.0975C127.78 31.4764 127.71 31.8651 127.631 32.2661L126.023 38.894H123.081L124.587 32.5786C124.669 32.2243 124.748 31.8626 124.83 31.4936C124.912 31.1245 124.959 30.7703 124.977 30.4332C124.992 29.8698 124.86 29.4048 124.574 29.0358C124.291 28.6668 123.734 28.4822 122.907 28.4822C122.208 28.4822 121.607 28.5536 121.105 28.6987L118.662 38.8965H115.697L118.62 26.8191H118.622Z" fill="white"/>
<path d="M134.037 41.1377C135.844 39.8707 136.107 38.857 136.318 37.9098L136.391 37.5728C136.065 37.7327 135.677 37.8828 135.223 38.0181C134.768 38.1559 134.288 38.2223 133.786 38.2223C132.357 38.2223 131.299 37.841 130.608 37.0783C129.917 36.3156 129.574 35.2995 129.574 34.03C129.574 32.8737 129.778 31.8035 130.183 30.8243C130.588 29.8451 131.159 28.9963 131.9 28.2804C132.638 27.5645 133.528 27.006 134.566 26.605C135.605 26.2039 136.758 26.0022 138.023 26.0022C138.64 26.0022 139.301 26.0711 140.009 26.2064C140.715 26.3442 141.351 26.5631 141.92 26.8682L139.338 37.5703C139.109 38.52 138.821 39.3589 138.473 40.0896C138.125 40.8203 137.665 41.4305 137.096 41.9225C136.527 42.4121 135.826 42.7861 134.989 43.0444C134.154 43.3003 133.143 43.4307 131.957 43.4307C131.097 43.4307 130.322 43.3372 129.631 43.1527C128.94 42.9681 128.336 42.7393 127.817 42.4662C127.817 42.4662 132.037 42.5376 134.032 41.1377H134.037ZM134.512 35.8605C134.949 35.8605 135.399 35.7793 135.861 35.6193C136.323 35.4594 136.706 35.2577 137.014 35.0166L138.585 28.5805C138.212 28.4994 137.847 28.46 137.489 28.46C136.741 28.46 136.065 28.5978 135.454 28.8709C134.845 29.1439 134.32 29.513 133.883 29.9804C133.446 30.4479 133.103 30.9891 132.859 31.6067C132.616 32.2267 132.494 32.8885 132.494 33.5946C132.494 34.3006 132.648 34.8567 132.956 35.2577C133.264 35.6587 133.781 35.8605 134.512 35.8605Z" fill="white"/>
<path d="M155.782 24.2974C155.931 25.4808 156.763 31.1049 156.865 32.0472C156.967 32.9895 157.069 33.8629 157.171 34.6723C157.648 33.7817 158.14 32.8025 158.652 31.7323C159.161 30.6645 159.673 29.5599 160.185 28.4134C160.695 27.2694 161.199 26.0958 161.691 24.8952C162.186 23.6921 162.66 22.5112 163.123 21.35H166.54C165.195 24.5951 163.838 27.6655 162.469 30.5587C161.1 33.452 159.648 36.2099 158.118 38.835H154.999C154.865 37.9272 154.733 37.0366 154.606 36.1607C154.48 35.2873 154.36 34.3992 154.251 33.4987C154.142 32.5983 154.04 31.6831 153.948 30.7482C153.856 29.8157 153.766 28.8439 153.682 27.8352C152.621 29.769 151.574 31.6412 150.538 33.4495C149.502 35.2578 148.403 37.0538 147.24 38.835H144.119C143.988 37.3712 143.891 35.9172 143.833 34.4705C143.776 33.0239 143.746 31.5428 143.746 30.0298C143.746 27.2718 143.843 24.3786 144.037 21.35H147.248C147.146 22.9639 147.062 24.5655 146.992 26.1573C146.925 27.7466 146.89 29.3581 146.89 30.9893V32.8172C146.89 33.4323 146.907 34.0498 146.94 34.6723C147.467 33.8136 148.013 32.9107 148.575 31.9611C149.137 31.0114 149.691 30.047 150.235 29.0727C150.779 28.0985 151.314 27.1217 151.833 26.145C152.352 25.1708 152.521 25.1929 152.981 24.2998H155.784L155.782 24.2974Z" fill="white"/>
<path d="M175.183 34.0031C175.133 34.1802 175.086 34.4705 175.036 34.8716C174.986 35.2726 174.964 35.6515 174.964 36.0033C174.964 36.4707 175.004 36.9234 175.086 37.3663C175.168 37.8091 175.297 38.2544 175.476 38.7046C175.476 38.7046 173.297 38.9581 172.385 37.8608C171.979 38.2151 171.48 38.5324 170.886 38.8129C170.292 39.0934 169.624 39.2361 168.878 39.2361C168.133 39.2361 167.462 39.1106 166.917 38.8621C166.373 38.6136 165.931 38.2667 165.59 37.8263C165.25 37.3835 164.996 36.8668 164.835 36.2714C164.673 35.6761 164.591 35.0339 164.591 34.3426C164.591 33.1691 164.803 32.0767 165.225 31.0631C165.647 30.0519 166.236 29.1761 166.989 28.4355C167.745 27.6974 168.642 27.1144 169.681 26.6887C170.72 26.2631 171.855 26.0491 173.09 26.0491C173.724 26.0491 174.36 26.1007 175.001 26.2065C175.642 26.3123 176.289 26.5067 176.937 26.797L175.185 34.0055L175.183 34.0031ZM173.582 28.5561C173.274 28.4921 172.924 28.4601 172.534 28.4601C171.803 28.4601 171.127 28.6176 170.511 28.93C169.894 29.2425 169.36 29.6607 168.915 30.1823C168.468 30.7039 168.123 31.3042 167.879 31.9783C167.636 32.6524 167.514 33.361 167.514 34.099C167.514 34.4681 167.546 34.815 167.611 35.1348C167.675 35.4571 167.785 35.7376 167.939 35.9787C168.093 36.2198 168.299 36.4117 168.56 36.5568C168.818 36.702 169.151 36.7733 169.559 36.7733C170.078 36.7733 170.536 36.6651 170.936 36.4486C171.333 36.2321 171.704 35.9393 172.044 35.5678C172.059 35.1496 172.096 34.7559 172.153 34.3869C172.211 34.0178 172.288 33.6488 172.385 33.2773L173.585 28.5536L173.582 28.5561Z" fill="white"/>
<path d="M180.337 38.8965C179.922 37.258 179.551 35.3562 179.221 33.1961C178.89 31.0336 178.674 28.7332 178.575 26.2902H181.594C181.611 26.9963 181.639 27.7614 181.681 28.5807C181.723 29.3999 181.775 30.2241 181.842 31.0508C181.91 31.8774 181.987 32.677 182.076 33.4495C182.166 34.2221 182.27 34.9208 182.387 35.5457C182.809 34.9995 183.266 34.3451 183.753 33.5799C184.241 32.8172 184.713 32.0127 185.17 31.1689C185.625 30.325 186.04 29.4787 186.415 28.625C186.79 27.7737 187.091 26.9938 187.317 26.2877H190.386C189.996 27.3973 189.506 28.5389 188.922 29.7099C188.336 30.8835 187.702 32.025 187.019 33.1322C186.335 34.2417 185.632 35.2947 184.907 36.2911C184.183 37.2875 183.495 38.156 182.844 38.8941H180.337V38.8965Z" fill="white"/>
<path d="M190.053 34.3402C190.053 33.2626 190.227 32.2219 190.578 31.2182C190.926 30.2144 191.43 29.3213 192.089 28.5414C192.747 27.7615 193.537 27.139 194.462 26.6741C195.386 26.2091 196.425 25.9753 197.578 25.9753C198.811 25.9753 199.77 26.2878 200.451 26.9152C201.132 27.5425 201.472 28.3446 201.472 29.3262C201.472 30.3079 201.221 31.1591 200.717 31.784C200.212 32.4114 199.561 32.901 198.756 33.2552C197.953 33.6095 197.044 33.8506 196.03 33.9786C195.016 34.1065 193.99 34.1877 192.951 34.2197C192.933 34.2517 192.926 34.2836 192.926 34.3156V34.5567C192.926 36.0181 193.647 37.1498 195.416 37.7378C197.036 38.2766 199.28 38.4366 199.28 38.4366C198.89 38.6137 198.339 38.7908 197.625 38.9655C196.912 39.1426 196.099 39.2312 195.19 39.2312C194.28 39.2312 193.5 39.1033 192.851 38.845C192.203 38.5891 191.671 38.2348 191.256 37.7846C190.841 37.3344 190.538 36.8177 190.344 36.2297C190.15 35.6442 190.051 35.0119 190.051 34.3378L190.053 34.3402ZM197.138 28.3618C196.651 28.3618 196.189 28.4577 195.752 28.6521C195.314 28.844 194.924 29.1097 194.584 29.4468C194.243 29.7838 193.947 30.1824 193.694 30.64C193.443 31.0976 193.259 31.5921 193.145 32.1235C195.093 32.0596 196.509 31.8258 197.394 31.4248C198.279 31.0238 198.721 30.421 198.721 29.6165C198.721 29.2942 198.604 29.0064 198.368 28.7481C198.132 28.4922 197.722 28.3618 197.138 28.3618Z" fill="white"/>
<path d="M36.5012 33.7233C34.4717 28.6506 34.0091 23.444 34.8776 18.8596C28.9376 27.1427 30.8012 38.6447 39.1111 44.6636C42.4979 47.1179 46.4389 48.2845 50.3364 48.2542C44.5753 46.0117 39.3337 40.8051 36.4968 33.7233H36.5012Z" fill="white"/>
<path d="M29.9021 41.4879C24.3244 29.1821 28.3222 15.4246 38.8274 10.7538C42.8819 8.95199 47.3118 8.77051 51.5453 9.9285C35.9905 2.94603 19.0696 6.67059 13.7101 18.2763C8.33751 29.9124 16.6168 45.0655 32.2065 52.1258C36.2131 53.9405 40.3113 55.038 44.2829 55.4787C38.3342 53.2103 32.9834 48.2845 29.9021 41.4879Z" fill="white"/>
<path d="M40.5863 15.1437C43.4319 15.4764 45.6184 17.6153 46.116 20.2682C46.5917 22.9472 48.7914 25.1119 51.6588 25.4489C55.1634 25.8594 58.3407 23.3792 58.7553 19.9096C59.0914 17.1011 57.5115 14.5043 55.0369 13.3981C54.7313 13.2642 54.4171 13.1432 54.1029 13.0265C52.4487 12.521 50.6986 12.2704 48.8787 12.2358C45.0554 12.1667 41.4242 13.2382 38.4913 15.2172C39.05 15.1308 39.9971 15.0746 40.5863 15.1394V15.1437Z" fill="white"/>
<path d="M48.9441 35.3263C43.122 31.1092 39.7221 24.9606 39.194 18.8596C37.4875 24.7835 38.8841 31.524 43.4711 36.5491C50.0177 43.726 60.7368 44.8494 68.2043 39.4311C62.0723 40.952 54.919 39.6472 48.9485 35.322L48.9441 35.3263Z" fill="white"/>
<path d="M11.4625 17.1443C5.99386 21.3485 2.96059 27.3803 3.99495 33.4727C5.23881 40.8008 12.9464 46.7766 20.3484 48.2543C11.5236 41.9761 4.18699 30.0852 11.4668 17.1443H11.4625Z" fill="white"/>
</svg>
