<svg width="206" height="61" viewBox="0 0 206 61" fill="none" xmlns="http://www.w3.org/2000/svg">
<path d="M36.6568 33.0083C34.6243 27.8134 34.1602 22.4778 35.0308 17.7804C29.0821 26.2659 30.9487 38.0488 39.2687 44.2113C42.6597 46.7264 46.6063 47.9205 50.5088 47.8931C44.7397 45.5975 39.4923 40.2619 36.6534 33.0083H36.6568Z" fill="#005EEC"/>
<path d="M30.0476 40.9619C24.4614 28.3555 28.4656 14.2599 38.9842 9.48017C43.0425 7.63416 47.4769 7.44887 51.7182 8.63265C36.142 1.48193 19.2039 5.29405 13.8345 17.1833C8.45493 29.1035 16.7444 44.6265 32.3546 51.8561C36.3655 53.7124 40.4713 54.8413 44.4484 55.2908C38.493 52.9678 33.1338 47.9205 30.051 40.9585L30.0476 40.9619Z" fill="#005EEC"/>
<path d="M40.7457 13.9717C43.5947 14.3148 45.7865 16.5039 46.2845 19.218C46.7622 21.9596 48.9607 24.1796 51.8334 24.5262C55.343 24.9482 58.5206 22.4057 58.9373 18.8543C59.2726 15.9755 57.6906 13.3163 55.2143 12.184C54.906 12.0467 54.5943 11.9232 54.2793 11.8031C52.6261 11.2884 50.8713 11.0276 49.0488 10.9933C45.2174 10.9213 41.5859 12.0193 38.6488 14.0506C39.2078 13.9614 40.1563 13.903 40.7457 13.9717Z" fill="#005EEC"/>
<path d="M49.1131 34.6484C43.283 30.3285 39.8785 24.0287 39.35 17.7804C37.6426 23.8503 39.0417 30.754 43.632 35.9008C50.187 43.2506 60.919 44.4035 68.3955 38.8551C62.2537 40.4129 55.0923 39.0747 49.1165 34.645L49.1131 34.6484Z" fill="#005EEC"/>
<path d="M11.5884 16.0236C6.11066 20.3298 3.07536 26.5095 4.10858 32.7509C5.35184 40.2551 13.0722 46.3798 20.481 47.8964C11.6427 41.4663 4.29829 29.2819 11.5884 16.027V16.0236Z" fill="#005EEC"/>
<path d="M86.7766 8.03552C88.8058 8.03552 90.3506 8.46443 91.4075 9.31538C92.4644 10.1698 92.9929 11.3021 92.9929 12.7123C92.9929 13.3437 92.9082 13.9441 92.7355 14.5172C92.5627 15.0902 92.2951 15.6186 91.9258 16.1093C91.5566 16.5999 91.0823 17.0323 90.4996 17.4166C89.9169 17.7974 89.2191 18.1131 88.3993 18.3636C88.6127 18.7445 88.8397 19.2042 89.087 19.7429C89.3309 20.2817 89.585 20.8615 89.8492 21.486C90.11 22.1071 90.3641 22.759 90.6114 23.4384C90.8553 24.1178 91.0789 24.7903 91.2754 25.4525H88.0199C87.8234 24.8555 87.6168 24.2516 87.4033 23.6374C87.1899 23.0232 86.9663 22.4296 86.736 21.86C86.5056 21.287 86.2719 20.7483 86.0347 20.2439C85.7976 19.7395 85.5639 19.2866 85.3335 18.8886C85.1878 18.9057 85.0049 18.9126 84.7915 18.9126H82.8029L81.9798 22.4022C81.5563 24.1933 79.8456 25.806 78.0298 25.806L82.1661 8.46443C82.952 8.29973 83.7515 8.1865 84.5611 8.12817C85.3708 8.06984 86.1126 8.04239 86.7834 8.04239L86.7766 8.03552ZM89.8458 13.0623C89.8458 12.1496 89.5172 11.5251 88.8634 11.1854C88.2096 10.8457 87.3322 10.6742 86.2346 10.6742C86.0042 10.6742 85.7603 10.6844 85.4961 10.6982C85.2353 10.7153 84.971 10.7393 84.7102 10.7737L83.3856 16.3975H84.761C85.4961 16.3975 86.177 16.3357 86.8003 16.2122C87.4237 16.0887 87.9589 15.8931 88.4095 15.6289C88.86 15.3647 89.2123 15.0181 89.4664 14.5961C89.7205 14.174 89.8458 13.6628 89.8458 13.0657V13.0623Z" fill="#091720"/>
<path d="M95.686 25.4492H92.7151L95.8114 12.4379H98.7823L95.686 25.4492ZM97.8981 11.0997C97.4544 11.0997 97.0716 10.9659 96.743 10.7016C96.4144 10.4374 96.2518 10.0394 96.2518 9.50757C96.2518 8.89338 96.4618 8.38898 96.8785 7.99096C97.2952 7.59293 97.7762 7.39392 98.3148 7.39392C98.7552 7.39392 99.1448 7.53117 99.4802 7.80567C99.8155 8.08017 99.9849 8.48163 99.9849 9.01347C99.9849 9.62766 99.7715 10.1286 99.3447 10.5198C98.9178 10.911 98.4368 11.1031 97.8948 11.1031L97.8981 11.0997Z" fill="#091720"/>
<path d="M102.793 23.3355C103.579 23.3355 104.203 23.2086 104.66 22.9512C105.117 22.6939 105.348 22.2993 105.348 21.7709C105.348 21.3386 105.198 20.9954 104.907 20.7381C104.612 20.4807 104.097 20.1788 103.359 19.8288C102.966 19.647 102.6 19.4548 102.265 19.2558C101.929 19.0568 101.638 18.8234 101.394 18.5592C101.15 18.295 100.954 17.9828 100.805 17.6259C100.656 17.2691 100.585 16.8436 100.585 16.3461C100.585 15.0525 101.052 14.0231 101.984 13.2614C102.919 12.4997 104.267 12.1154 106.035 12.1154C106.855 12.1154 107.587 12.2011 108.234 12.3761C108.881 12.5511 109.369 12.7296 109.694 12.9114L108.637 15.2515C108.359 15.0868 107.956 14.9256 107.434 14.7677C106.909 14.6099 106.36 14.531 105.788 14.531C105.51 14.531 105.236 14.555 104.965 14.6064C104.694 14.6545 104.453 14.7403 104.24 14.8535C104.026 14.9702 103.85 15.1314 103.711 15.3373C103.572 15.5466 103.501 15.7971 103.501 16.0956C103.501 16.4765 103.654 16.7887 103.955 17.0289C104.257 17.2691 104.697 17.523 105.27 17.7872C105.808 18.0377 106.269 18.2779 106.645 18.5078C107.021 18.7411 107.333 19.0019 107.577 19.2901C107.824 19.5818 108.003 19.9043 108.119 20.2611C108.234 20.618 108.291 21.0435 108.291 21.541C108.291 22.1552 108.169 22.7214 107.922 23.2463C107.678 23.7679 107.319 24.2174 106.855 24.5879C106.388 24.962 105.812 25.257 105.124 25.4698C104.436 25.6859 103.65 25.7923 102.766 25.7923C102.16 25.7923 101.614 25.7511 101.133 25.6688C100.649 25.5864 100.229 25.4904 99.8697 25.384C99.5106 25.2776 99.2058 25.1644 98.9619 25.0477C98.7179 24.9311 98.5282 24.8316 98.3961 24.7492L99.4531 22.3851C99.5682 22.4503 99.7342 22.5395 99.9578 22.6459C100.178 22.7522 100.432 22.8586 100.72 22.9581C101.005 23.0576 101.326 23.1434 101.679 23.2189C102.031 23.2944 102.404 23.3321 102.797 23.3321L102.793 23.3355Z" fill="#091720"/>
<path d="M112.482 25.4492H109.511L112.607 12.4379H115.578L112.482 25.4492ZM114.694 11.0997C114.25 11.0997 113.867 10.9659 113.539 10.7016C113.21 10.4374 113.048 10.0394 113.048 9.50757C113.048 8.89338 113.258 8.38898 113.674 7.99096C114.091 7.59293 114.572 7.39392 115.111 7.39392C115.551 7.39392 115.941 7.53117 116.276 7.80567C116.611 8.08017 116.781 8.48163 116.781 9.01347C116.781 9.62766 116.567 10.1286 116.141 10.5198C115.714 10.911 115.233 11.1031 114.691 11.1031L114.694 11.0997Z" fill="#091720"/>
<path d="M118.515 12.9868C119.169 12.7878 119.918 12.6025 120.761 12.4275C121.605 12.2525 122.526 12.1667 123.526 12.1667C125.033 12.1667 126.137 12.5408 126.842 13.2853C127.547 14.0333 127.899 15.0353 127.899 16.2945C127.899 16.6445 127.872 17.0117 127.814 17.4028C127.757 17.794 127.689 18.1955 127.604 18.6106L125.982 25.4526H123.014L124.535 18.9332C124.616 18.5695 124.698 18.1955 124.779 17.8146C124.86 17.4337 124.911 17.07 124.928 16.72C124.945 16.1401 124.81 15.6598 124.522 15.2755C124.234 14.8946 123.675 14.7024 122.838 14.7024C122.133 14.7024 121.527 14.7779 121.019 14.9255L118.556 25.4491H115.565L118.512 12.9834L118.515 12.9868Z" fill="#091720"/>
<path d="M134.064 27.7619C135.887 26.4546 136.155 25.408 136.368 24.4301L136.443 24.0801C136.114 24.2448 135.721 24.3992 135.264 24.5399C134.806 24.6806 134.322 24.7527 133.814 24.7527C132.374 24.7527 131.304 24.3581 130.609 23.5723C129.911 22.7831 129.566 21.7366 129.566 20.4259C129.566 19.2318 129.769 18.1304 130.179 17.1181C130.589 16.1059 131.165 15.2309 131.91 14.4932C132.655 13.7555 133.553 13.1791 134.6 12.7639C135.646 12.3487 136.812 12.1428 138.089 12.1428C138.712 12.1428 139.38 12.2149 140.091 12.3556C140.802 12.4962 141.446 12.7261 142.019 13.0384L139.414 24.0836C139.183 25.0615 138.892 25.9296 138.543 26.6845C138.191 27.4393 137.726 28.0707 137.154 28.5751C136.581 29.0795 135.873 29.4672 135.03 29.7314C134.186 29.9956 133.167 30.1294 131.971 30.1294C131.104 30.1294 130.321 30.0334 129.627 29.8446C128.929 29.6525 128.319 29.4157 127.797 29.1344C127.797 29.1344 132.056 29.2099 134.068 27.7653L134.064 27.7619ZM134.546 22.3165C134.986 22.3165 135.44 22.2341 135.907 22.066C136.371 21.9013 136.761 21.692 137.073 21.4449L138.658 14.802C138.282 14.7197 137.913 14.6785 137.554 14.6785C136.798 14.6785 136.117 14.8192 135.501 15.1006C134.888 15.3819 134.359 15.7628 133.915 16.2466C133.475 16.727 133.129 17.2863 132.882 17.9245C132.638 18.5627 132.513 19.2489 132.513 19.9764C132.513 20.7038 132.669 21.2802 132.977 21.692C133.289 22.1072 133.81 22.313 134.546 22.313V22.3165Z" fill="#091720"/>
<path d="M156.396 11.1168C156.538 12.2835 157.341 17.8284 157.439 18.7582C157.537 19.6881 157.635 20.5493 157.734 21.3454C158.194 20.467 158.669 19.4994 159.16 18.446C159.651 17.3926 160.146 16.3015 160.637 15.176C161.128 14.0471 161.613 12.8908 162.09 11.707C162.568 10.5198 163.025 9.35661 163.469 8.21057H166.762C165.468 11.4119 164.157 14.4383 162.839 17.2931C161.518 20.1445 160.122 22.8654 158.645 25.4526H155.64C155.511 24.557 155.383 23.6786 155.261 22.814C155.139 21.9527 155.024 21.0778 154.919 20.1891C154.814 19.3004 154.715 18.398 154.627 17.4784C154.539 16.5588 154.454 15.6015 154.37 14.6064C153.347 16.5142 152.337 18.3602 151.341 20.141C150.342 21.9253 149.285 23.6958 148.164 25.4526H145.155C145.027 24.008 144.935 22.5738 144.881 21.1498C144.823 19.7224 144.796 18.2641 144.796 16.7715C144.796 14.0506 144.891 11.1992 145.078 8.214H148.174C148.076 9.8061 147.994 11.3845 147.93 12.9526C147.866 14.5206 147.832 16.1093 147.832 17.7186V19.5234C147.832 20.1307 147.849 20.7381 147.879 21.3523C148.387 20.5047 148.912 19.616 149.454 18.6793C149.996 17.7426 150.528 16.7921 151.057 15.8314C151.582 14.8706 152.097 13.9064 152.595 12.9457C153.096 11.9849 153.259 12.0055 153.702 11.1271H156.406L156.396 11.1168Z" fill="#091720"/>
<path d="M175.573 20.3984C175.526 20.5802 175.475 20.8787 175.424 21.2939C175.376 21.7091 175.349 22.0968 175.349 22.464C175.349 22.9443 175.39 23.4144 175.471 23.8708C175.553 24.3271 175.685 24.7869 175.864 25.2501C175.864 25.2501 173.666 25.5109 172.744 24.3786C172.334 24.7423 171.83 25.0717 171.233 25.3599C170.634 25.6516 169.96 25.7957 169.208 25.7957C168.456 25.7957 167.778 25.6653 167.229 25.4114C166.68 25.1541 166.233 24.7972 165.891 24.3409C165.546 23.8845 165.292 23.3492 165.129 22.735C164.966 22.1208 164.885 21.4586 164.885 20.7449C164.885 19.5337 165.098 18.4048 165.525 17.3617C165.952 16.3152 166.545 15.4128 167.307 14.651C168.069 13.8893 168.974 13.2854 170.021 12.8462C171.067 12.407 172.216 12.1874 173.459 12.1874C174.099 12.1874 174.74 12.2423 175.387 12.3486C176.034 12.455 176.684 12.6609 177.338 12.9594L175.57 20.3984H175.573ZM173.957 14.7745C173.645 14.7093 173.293 14.675 172.9 14.675C172.162 14.675 171.481 14.8363 170.857 15.1588C170.234 15.4814 169.699 15.9137 169.248 16.4524C168.798 16.9911 168.449 17.6088 168.205 18.3053C167.958 19.0018 167.836 19.7327 167.836 20.4944C167.836 20.8753 167.87 21.2322 167.934 21.565C167.998 21.8978 168.11 22.186 168.266 22.4365C168.422 22.6836 168.632 22.8826 168.893 23.0336C169.153 23.1845 169.489 23.2566 169.899 23.2566C170.424 23.2566 170.884 23.1434 171.288 22.9203C171.687 22.6973 172.06 22.3953 172.406 22.011C172.422 21.5787 172.46 21.1738 172.517 20.793C172.575 20.4121 172.653 20.0312 172.751 19.6469L173.96 14.7711L173.957 14.7745Z" fill="#091720"/>
<path d="M180.773 25.4492C180.356 23.7576 179.98 21.7949 179.645 19.5646C179.31 17.3343 179.093 14.9564 178.995 12.4379H182.04C182.057 13.1687 182.084 13.9545 182.128 14.802C182.169 15.6495 182.223 16.497 182.291 17.3514C182.358 18.2058 182.436 19.0293 182.528 19.8253C182.619 20.6214 182.724 21.342 182.839 21.9905C183.266 21.4277 183.727 20.7518 184.218 19.9626C184.709 19.1734 185.187 18.3465 185.648 17.4749C186.109 16.6034 186.525 15.7284 186.905 14.85C187.281 13.9716 187.586 13.1653 187.816 12.4379H190.912C190.519 13.5839 190.025 14.7608 189.435 15.9721C188.846 17.1833 188.205 18.3602 187.514 19.5062C186.823 20.6488 186.115 21.7366 185.384 22.7659C184.652 23.7953 183.961 24.6909 183.304 25.4526H180.773V25.4492Z" fill="#091720"/>
<path d="M190.573 20.7484C190.573 19.6367 190.75 18.5627 191.102 17.5264C191.454 16.4902 191.962 15.5706 192.626 14.7643C193.29 13.9614 194.086 13.3163 195.021 12.8359C195.956 12.3555 197.003 12.1154 198.165 12.1154C199.408 12.1154 200.377 12.4379 201.065 13.0864C201.753 13.7349 202.098 14.5618 202.098 15.5741C202.098 16.5863 201.844 17.4647 201.336 18.1132C200.828 18.7617 200.17 19.2661 199.357 19.6298C198.548 19.9935 197.63 20.244 196.607 20.3778C195.584 20.5116 194.547 20.594 193.5 20.6249C193.483 20.6592 193.477 20.6901 193.477 20.7244V20.9714C193.477 22.4812 194.205 23.6478 195.99 24.2551C197.626 24.811 199.889 24.9757 199.889 24.9757C199.496 25.1575 198.941 25.3394 198.219 25.5212C197.498 25.7031 196.681 25.7957 195.763 25.7957C194.845 25.7957 194.059 25.6619 193.405 25.3977C192.752 25.1335 192.213 24.7664 191.796 24.3032C191.38 23.8399 191.071 23.3047 190.875 22.6973C190.678 22.0934 190.58 21.4415 190.58 20.7449L190.573 20.7484ZM197.721 14.579C197.23 14.579 196.763 14.6785 196.322 14.8775C195.878 15.0765 195.485 15.351 195.143 15.6976C194.798 16.0476 194.5 16.4559 194.246 16.9294C193.991 17.4029 193.809 17.9107 193.693 18.4597C195.658 18.3945 197.088 18.1544 197.979 17.7392C198.87 17.324 199.317 16.7029 199.317 15.8726C199.317 15.5397 199.198 15.2412 198.961 14.977C198.724 14.7128 198.311 14.579 197.721 14.579Z" fill="#091720"/>
<path d="M88.501 50.8165C87.8844 51.1493 87.1866 51.4101 86.4074 51.592C85.6283 51.7738 84.8525 51.8665 84.0869 51.8665C83.2468 51.8665 82.4778 51.7498 81.7799 51.513C81.0821 51.2763 80.4825 50.9126 79.9777 50.4185C79.4763 49.9244 79.0834 49.293 78.8056 48.5244C78.5278 47.7558 78.3889 46.8328 78.3889 45.752C78.3889 44.1256 78.6362 42.6707 79.1308 41.384C79.6254 40.0973 80.2928 39.013 81.1363 38.1209C81.9764 37.2322 82.9453 36.5494 84.0429 36.0793C85.1371 35.6092 86.2855 35.3724 87.4881 35.3724C88.1927 35.3724 88.8499 35.4479 89.4597 35.5989C90.0661 35.7499 90.686 36.0004 91.3161 36.3503L90.6182 37.764C89.5376 37.0949 88.3892 36.7621 87.173 36.7621C86.2279 36.7621 85.3234 36.9714 84.4595 37.39C83.5957 37.8086 82.8335 38.4057 82.1729 39.1811C81.5123 39.9566 80.9872 40.8967 80.5977 41.9982C80.2081 43.0996 80.0116 44.3349 80.0116 45.7039C80.0116 47.2549 80.3402 48.4386 81.0008 49.2518C81.6614 50.065 82.6743 50.4734 84.0395 50.4734C84.6391 50.4734 85.1743 50.4356 85.6384 50.3601C86.1025 50.2847 86.5057 50.192 86.8444 50.0856C87.1832 49.9793 87.4677 49.8695 87.7015 49.7562C87.9352 49.643 88.1317 49.5401 88.2977 49.4474L88.501 50.8165Z" fill="#091720"/>
<path d="M94.6867 34.0995L96.1874 33.825L93.396 45.7074C93.2775 46.2255 93.1589 46.7162 93.0471 47.1794C92.9353 47.6426 92.8777 48.0715 92.8777 48.4695C92.8777 48.7131 92.9014 48.9362 92.9455 49.1421C92.9895 49.3479 93.081 49.5298 93.2131 49.691C93.3486 49.8489 93.5383 49.993 93.7856 50.1131C94.0329 50.2332 94.3513 50.3396 94.7375 50.4322L94.4022 51.7326C93.3113 51.5954 92.5491 51.2591 92.1155 50.717C91.6819 50.1783 91.4651 49.4955 91.4651 48.6754C91.4651 48.3117 91.4956 47.9274 91.5565 47.5225C91.6175 47.121 91.6988 46.699 91.8039 46.2564L94.6867 34.0995Z" fill="#091720"/>
<path d="M107.37 43.4255C107.37 44.8564 107.17 46.0951 106.774 47.1416C106.377 48.1915 105.866 49.0631 105.243 49.7528C104.619 50.4459 103.928 50.9571 103.169 51.2934C102.41 51.6262 101.665 51.7944 100.93 51.7944C100.405 51.7944 99.907 51.712 99.4328 51.5439C98.9585 51.3757 98.5418 51.1253 98.1827 50.7924C97.8237 50.4596 97.5357 50.0444 97.3257 49.5503C97.1156 49.0562 97.0106 48.4832 97.0106 47.8278C97.0106 46.4004 97.2105 45.1583 97.6068 44.1118C98.0032 43.0618 98.5147 42.1972 99.138 41.5109C99.7614 40.8281 100.452 40.3168 101.211 39.984C101.97 39.6512 102.715 39.483 103.45 39.483C103.976 39.483 104.474 39.5654 104.948 39.7335C105.422 39.9016 105.839 40.1521 106.198 40.485C106.557 40.8212 106.841 41.233 107.055 41.7271C107.265 42.2212 107.37 42.7873 107.37 43.4255ZM98.4978 47.7352C98.4978 48.6342 98.7451 49.3101 99.2397 49.7665C99.7343 50.2228 100.327 50.4493 101.018 50.4493C101.56 50.4493 102.112 50.3086 102.685 50.0273C103.254 49.7459 103.776 49.3204 104.25 48.7508C104.724 48.1813 105.114 47.4607 105.422 46.596C105.73 45.7279 105.883 44.7088 105.883 43.5388C105.883 42.6432 105.636 41.9638 105.141 41.5075C104.646 41.0511 104.053 40.8247 103.362 40.8247C102.82 40.8247 102.265 40.9653 101.696 41.2467C101.123 41.5281 100.605 41.9535 100.131 42.5231C99.6564 43.0927 99.2668 43.8133 98.9585 44.6779C98.6502 45.5461 98.4978 46.5651 98.4978 47.7352Z" fill="#091720"/>
<path d="M112.241 51.7978C111.594 51.7978 111.056 51.7154 110.619 51.5473C110.182 51.3792 109.836 51.1493 109.582 50.8508C109.328 50.5522 109.142 50.2057 109.03 49.8008C108.918 49.3994 108.861 48.9601 108.861 48.4901C108.861 48.0509 108.898 47.5808 108.972 47.0867C109.047 46.5926 109.145 46.0951 109.264 45.5941L110.659 39.7335H112.119L110.88 44.9353C110.758 45.4671 110.629 46.0264 110.487 46.6132C110.344 47.1999 110.273 47.7558 110.273 48.2911C110.273 48.5964 110.307 48.8778 110.375 49.1351C110.443 49.3925 110.558 49.6224 110.724 49.818C110.89 50.017 111.107 50.168 111.378 50.2743C111.649 50.3807 111.994 50.4322 112.414 50.4322C113.136 50.4322 113.773 50.288 114.321 49.9998C114.87 49.7116 115.385 49.293 115.866 48.744C115.866 48.3322 115.927 47.8622 116.046 47.3303C116.164 46.7985 116.279 46.3181 116.385 45.8926L117.892 39.7335H119.349L117.57 47.0318C117.479 47.4127 117.404 47.7695 117.347 48.1023C117.286 48.4352 117.255 48.7577 117.255 49.0597C117.255 49.4714 117.292 49.8591 117.367 50.2228C117.441 50.5866 117.577 50.9915 117.773 51.4307L116.269 51.6605C116.178 51.4787 116.1 51.2694 116.032 51.0326C115.964 50.7959 115.917 50.5591 115.887 50.3155C115.361 50.8336 114.802 51.2076 114.206 51.4444C113.613 51.6811 112.956 51.7978 112.235 51.7978H112.241Z" fill="#091720"/>
<path d="M128.157 51.6606C128.082 51.5096 128.007 51.3072 127.933 51.0567C127.858 50.8062 127.804 50.5592 127.774 50.3155C127.638 50.4665 127.462 50.6312 127.245 50.8062C127.028 50.9812 126.771 51.139 126.469 51.2866C126.171 51.4307 125.833 51.5508 125.46 51.6503C125.087 51.7498 124.674 51.7978 124.223 51.7978C123.58 51.7978 123.028 51.6812 122.574 51.4444C122.116 51.2077 121.744 50.892 121.452 50.4974C121.161 50.1028 120.948 49.6362 120.812 49.094C120.677 48.5553 120.609 47.9892 120.609 47.3955C120.609 46.4382 120.761 45.4878 121.07 44.5442C121.378 43.6006 121.849 42.7531 122.486 42.0016C123.123 41.2502 123.925 40.636 124.901 40.1659C125.873 39.6958 127.018 39.4591 128.339 39.4591C128.817 39.4591 129.305 39.5037 129.8 39.5963L131.09 34.0995L132.632 33.825L129.39 47.4401C129.315 47.7146 129.257 47.9789 129.22 48.2396C129.183 48.497 129.163 48.7475 129.163 48.9911C129.163 49.4337 129.2 49.8489 129.274 50.2469C129.349 50.6415 129.484 51.0361 129.681 51.4341L128.163 51.664L128.157 51.6606ZM129.474 40.9414C129.264 40.9105 129.034 40.883 128.78 40.8624C128.526 40.8384 128.292 40.8281 128.085 40.8281C127.039 40.8281 126.137 41.0203 125.382 41.4114C124.627 41.7992 124.007 42.3001 123.519 42.9178C123.034 43.532 122.675 44.2182 122.442 44.9696C122.211 45.7211 122.093 46.4622 122.093 47.1931C122.093 47.6495 122.133 48.0715 122.215 48.4592C122.296 48.847 122.428 49.1901 122.608 49.4852C122.787 49.7803 123.017 50.0136 123.302 50.1817C123.587 50.3498 123.929 50.4322 124.335 50.4322C124.708 50.4322 125.064 50.3807 125.402 50.2744C125.738 50.168 126.053 50.0342 126.344 49.8763C126.635 49.7185 126.903 49.5401 127.14 49.3411C127.381 49.1421 127.581 48.9533 127.747 48.7715C127.747 48.3769 127.797 47.9308 127.906 47.4367C128.011 46.9426 128.129 46.4279 128.265 45.8961L129.471 40.9482L129.474 40.9414Z" fill="#091720"/>
</svg>
