<?xml version="1.0" encoding="UTF-8" standalone="no"?>
<!-- Created with Inkscape (http://www.inkscape.org/) -->

<svg
   width="35000"
   height="9000"
   viewBox="0 0 9260.4164 2381.25"
   version="1.1"
   id="svg5"
   inkscape:version="1.1.2 (b8e25be833, 2022-02-05)"
   sodipodi:docname="rw.svg"
   xmlns:inkscape="http://www.inkscape.org/namespaces/inkscape"
   xmlns:sodipodi="http://sodipodi.sourceforge.net/DTD/sodipodi-0.dtd"
   xmlns:xlink="http://www.w3.org/1999/xlink"
   xmlns="http://www.w3.org/2000/svg"
   xmlns:svg="http://www.w3.org/2000/svg">
  <sodipodi:namedview
     id="namedview7"
     pagecolor="#ffffff"
     bordercolor="#666666"
     borderopacity="1.0"
     inkscape:pageshadow="2"
     inkscape:pageopacity="0.0"
     inkscape:pagecheckerboard="0"
     inkscape:document-units="mm"
     showgrid="false"
     units="px"
     inkscape:zoom="0.020000001"
     inkscape:cx="22974.999"
     inkscape:cy="3399.9999"
     inkscape:window-width="1920"
     inkscape:window-height="1017"
     inkscape:window-x="-8"
     inkscape:window-y="-8"
     inkscape:window-maximized="1"
     inkscape:current-layer="svg5">
    <inkscape:grid
       type="xygrid"
       id="grid23195" />
  </sodipodi:namedview>
  <defs
     id="defs2">
    <inkscape:path-effect
       effect="bspline"
       id="path-effect24141"
       is_visible="true"
       lpeversion="1"
       weight="33.333333"
       steps="2"
       helper_size="0"
       apply_no_weight="true"
       apply_with_weight="true"
       only_selected="false" />
    <inkscape:path-effect
       effect="bspline"
       id="path-effect24137"
       is_visible="true"
       lpeversion="1"
       weight="33.333333"
       steps="2"
       helper_size="0"
       apply_no_weight="true"
       apply_with_weight="true"
       only_selected="false" />
    <inkscape:path-effect
       effect="bspline"
       id="path-effect23940"
       is_visible="true"
       lpeversion="1"
       weight="33.333333"
       steps="2"
       helper_size="0"
       apply_no_weight="true"
       apply_with_weight="true"
       only_selected="false" />
    <inkscape:path-effect
       effect="bspline"
       id="path-effect23743"
       is_visible="true"
       lpeversion="1"
       weight="33.333333"
       steps="2"
       helper_size="0"
       apply_no_weight="true"
       apply_with_weight="true"
       only_selected="false" />
    <inkscape:path-effect
       effect="bspline"
       id="path-effect23546"
       is_visible="true"
       lpeversion="1"
       weight="33.333333"
       steps="2"
       helper_size="0"
       apply_no_weight="true"
       apply_with_weight="true"
       only_selected="false" />
    <inkscape:path-effect
       effect="bspline"
       id="path-effect23349"
       is_visible="true"
       lpeversion="1"
       weight="33.333333"
       steps="2"
       helper_size="0"
       apply_no_weight="true"
       apply_with_weight="true"
       only_selected="false" />
    <inkscape:path-effect
       effect="bspline"
       id="path-effect23232"
       is_visible="true"
       lpeversion="1"
       weight="33.333333"
       steps="2"
       helper_size="0"
       apply_no_weight="true"
       apply_with_weight="true"
       only_selected="false" />
    <inkscape:path-effect
       effect="bspline"
       id="path-effect13462"
       is_visible="true"
       lpeversion="1"
       weight="33.333333"
       steps="2"
       helper_size="0"
       apply_no_weight="true"
       apply_with_weight="true"
       only_selected="false" />
    <inkscape:path-effect
       effect="bspline"
       id="path-effect13458"
       is_visible="true"
       lpeversion="1"
       weight="33.333333"
       steps="2"
       helper_size="0"
       apply_no_weight="true"
       apply_with_weight="true"
       only_selected="false" />
    <inkscape:path-effect
       effect="bspline"
       id="path-effect13454"
       is_visible="true"
       lpeversion="1"
       weight="33.333333"
       steps="2"
       helper_size="0"
       apply_no_weight="true"
       apply_with_weight="true"
       only_selected="false" />
    <inkscape:path-effect
       effect="bspline"
       id="path-effect13450"
       is_visible="true"
       lpeversion="1"
       weight="33.333333"
       steps="2"
       helper_size="0"
       apply_no_weight="true"
       apply_with_weight="true"
       only_selected="false" />
    <inkscape:path-effect
       effect="bspline"
       id="path-effect13446"
       is_visible="true"
       lpeversion="1"
       weight="33.333333"
       steps="2"
       helper_size="0"
       apply_no_weight="true"
       apply_with_weight="true"
       only_selected="false" />
    <inkscape:path-effect
       effect="bspline"
       id="path-effect13442"
       is_visible="true"
       lpeversion="1"
       weight="33.333333"
       steps="2"
       helper_size="0"
       apply_no_weight="true"
       apply_with_weight="true"
       only_selected="false" />
    <inkscape:path-effect
       effect="bspline"
       id="path-effect13438"
       is_visible="true"
       lpeversion="1"
       weight="33.333333"
       steps="2"
       helper_size="0"
       apply_no_weight="true"
       apply_with_weight="true"
       only_selected="false" />
    <inkscape:path-effect
       effect="bspline"
       id="path-effect13434"
       is_visible="true"
       lpeversion="1"
       weight="33.333333"
       steps="2"
       helper_size="0"
       apply_no_weight="true"
       apply_with_weight="true"
       only_selected="false" />
    <inkscape:path-effect
       effect="bspline"
       id="path-effect13430"
       is_visible="true"
       lpeversion="1"
       weight="33.333333"
       steps="2"
       helper_size="0"
       apply_no_weight="true"
       apply_with_weight="true"
       only_selected="false" />
    <inkscape:path-effect
       effect="bspline"
       id="path-effect13313"
       is_visible="true"
       lpeversion="1"
       weight="33.333333"
       steps="2"
       helper_size="0"
       apply_no_weight="true"
       apply_with_weight="true"
       only_selected="false" />
    <inkscape:path-effect
       effect="bspline"
       id="path-effect13196"
       is_visible="true"
       lpeversion="1"
       weight="33.333333"
       steps="2"
       helper_size="0"
       apply_no_weight="true"
       apply_with_weight="true"
       only_selected="false" />
    <inkscape:path-effect
       effect="bspline"
       id="path-effect13192"
       is_visible="true"
       lpeversion="1"
       weight="33.333333"
       steps="2"
       helper_size="0"
       apply_no_weight="true"
       apply_with_weight="true"
       only_selected="false" />
    <inkscape:path-effect
       effect="bspline"
       id="path-effect13075"
       is_visible="true"
       lpeversion="1"
       weight="33.333333"
       steps="2"
       helper_size="0"
       apply_no_weight="true"
       apply_with_weight="true"
       only_selected="false" />
    <inkscape:path-effect
       effect="bspline"
       id="path-effect12950"
       is_visible="true"
       lpeversion="1"
       weight="33.333333"
       steps="2"
       helper_size="0"
       apply_no_weight="true"
       apply_with_weight="true"
       only_selected="false" />
    <inkscape:path-effect
       effect="bspline"
       id="path-effect12643"
       is_visible="true"
       lpeversion="1"
       weight="33.333333"
       steps="2"
       helper_size="0"
       apply_no_weight="true"
       apply_with_weight="true"
       only_selected="false" />
    <inkscape:path-effect
       effect="bspline"
       id="path-effect12639"
       is_visible="true"
       lpeversion="1"
       weight="33.333333"
       steps="2"
       helper_size="0"
       apply_no_weight="true"
       apply_with_weight="true"
       only_selected="false" />
    <inkscape:path-effect
       effect="bspline"
       id="path-effect12635"
       is_visible="true"
       lpeversion="1"
       weight="33.333333"
       steps="2"
       helper_size="0"
       apply_no_weight="true"
       apply_with_weight="true"
       only_selected="false" />
    <inkscape:path-effect
       effect="bspline"
       id="path-effect12405"
       is_visible="true"
       lpeversion="1"
       weight="33.333333"
       steps="2"
       helper_size="0"
       apply_no_weight="true"
       apply_with_weight="true"
       only_selected="false" />
    <inkscape:path-effect
       effect="bspline"
       id="path-effect12208"
       is_visible="true"
       lpeversion="1"
       weight="33.333333"
       steps="2"
       helper_size="0"
       apply_no_weight="true"
       apply_with_weight="true"
       only_selected="false" />
    <inkscape:path-effect
       effect="bspline"
       id="path-effect11898"
       is_visible="true"
       lpeversion="1"
       weight="33.333333"
       steps="2"
       helper_size="0"
       apply_no_weight="true"
       apply_with_weight="true"
       only_selected="false" />
    <linearGradient
       inkscape:collect="always"
       id="linearGradient11345">
      <stop
         style="stop-color:#5577d6;stop-opacity:1;"
         offset="0"
         id="stop11341" />
      <stop
         style="stop-color:#5577d6;stop-opacity:0;"
         offset="1"
         id="stop11343" />
    </linearGradient>
    <linearGradient
       inkscape:collect="always"
       id="linearGradient9539">
      <stop
         style="stop-color:#5577d6;stop-opacity:1;"
         offset="0"
         id="stop9535" />
      <stop
         style="stop-color:#5577d6;stop-opacity:0;"
         offset="1"
         id="stop9537" />
    </linearGradient>
    <style
       type="text/css"
       id="style1159" />
    <style
       type="text/css"
       id="style1176" />
    <style
       type="text/css"
       id="style1196" />
    <style
       type="text/css"
       id="style1216" />
    <style
       type="text/css"
       id="style1233" />
    <clipPath
       clipPathUnits="userSpaceOnUse"
       id="clipPath23">
      <path
         d="M 0,1080 H 1920 V 0 H 0 Z"
         id="path21" />
    </clipPath>
    <clipPath
       clipPathUnits="userSpaceOnUse"
       id="clipPath91">
      <path
         d="M 0,1080 H 1920 V 0 H 0 Z"
         id="path89" />
    </clipPath>
    <linearGradient
       inkscape:collect="always"
       xlink:href="#linearGradient9539"
       id="linearGradient9541"
       x1="9217.4219"
       y1="856.58856"
       x2="11294.401"
       y2="2963.3333"
       gradientUnits="userSpaceOnUse"
       gradientTransform="translate(102.52604,85.989583)" />
    <linearGradient
       inkscape:collect="always"
       xlink:href="#linearGradient11345"
       id="linearGradient11347"
       x1="8942.8389"
       y1="622.06982"
       x2="12277.694"
       y2="3671.6152"
       gradientUnits="userSpaceOnUse" />
    <style
       type="text/css"
       id="style18614" />
    <style
       type="text/css"
       id="style19098" />
    <style
       type="text/css"
       id="style22319" />
  </defs>
  <g
     inkscape:label="图层 1"
     inkscape:groupmode="layer"
     id="real-time-result">
    <rect
       id="rect131"
       width="1400"
       height="1800"
       x="7351.8472"
       y="349.02252"
       fill="#5577d6"
       style="stroke-width:0.77827"
       opacity="0.5"
       rx="100" />
    <rect
       id="rect131-8"
       width="1400"
       height="1800"
       x="7531.4272"
       y="254.17271"
       fill="#5577d6"
       style="stroke-width:0.77827"
       opacity="0.5"
       rx="100" />
    <rect
       id="rect131-0"
       width="1400"
       height="1800"
       x="7453.0493"
       y="291.02307"
       fill="#5577d6"
       style="stroke-width:0.77827"
       opacity="0.5"
       rx="100" />
    <rect
       id="rect1272-1"
       width="600"
       height="600"
       x="8094.5815"
       y="1194.5583"
       rx="0"
       fill="#5577d6"
       opacity="0.5"
       style="stroke-width:1.24935" />
    <rect
       id="rect1272-1-7"
       width="600"
       height="600"
       x="7403.3579"
       y="1194.5583"
       rx="0"
       fill="#5577d6"
       opacity="0.5"
       style="stroke-width:1.24935" />
    <rect
       id="rect1272-1-2"
       width="600"
       height="600"
       x="8093.3452"
       y="492.44885"
       rx="0"
       fill="#5577d6"
       opacity="0.5"
       style="stroke-width:1.24935" />
    <g
       id="real-time-chart1"
       transform="translate(4401.0261,-212.00433)">
      <rect
         id="rect1272"
         width="600"
         height="600"
         x="3006.3281"
         y="704.45312"
         rx="0"
         fill="#5577d6"
         opacity="0.5"
         style="stroke-width:1.24935" />
      <g
         id="logo-stream"
         transform="matrix(0.4391807,0,0,0.49213867,3088.875,774.39438)">
        <path
           d="m 147.91111,207.64444 c 36.97778,0 68.26667,-22.75555 79.64445,-56.88888 H 463.64444 L 665.6,349.86667 h 82.48889 c 11.37778,34.13333 42.66667,56.88889 79.64444,56.88889 48.35556,0 85.33334,-36.97778 85.33334,-85.33334 0,-48.35555 -36.97778,-85.33333 -85.33334,-85.33333 -36.97778,0 -68.26666,22.75556 -79.64444,56.88889 H 688.35556 L 486.4,93.866667 H 227.55556 C 216.17778,59.733334 184.88889,36.977778 147.91111,36.977778 c -48.355555,0 -85.333332,36.977778 -85.333332,85.333332 0,48.35556 36.977778,85.33333 85.333332,85.33333 z m 796.44445,284.44445 c -48.35556,0 -85.33334,36.97778 -85.33334,85.33333 H 531.91111 L 321.42222,819.2 H 173.51111 C 167.82222,790.75556 150.75556,765.15556 119.46667,753.77778 76.8,736.71111 25.6,759.46667 8.533333,802.13333 -8.533334,844.8 14.222222,896 56.888889,913.06667 c 39.822222,14.22222 82.488891,0 105.244441,-36.97778 H 344.17778 L 554.66667,634.31111 h 327.11111 c 14.22222,17.06667 36.97778,28.44445 62.57778,28.44445 48.35555,0 85.33334,-36.97778 85.33334,-85.33334 0,-48.35555 -39.82223,-85.33333 -85.33334,-85.33333 z m -853.333338,51.2 C 128,543.28889 159.28889,520.53333 170.66667,486.4 h 125.15555 c 11.37778,34.13333 42.66667,56.88889 79.64445,56.88889 48.35555,0 85.33333,-36.97778 85.33333,-85.33333 0,-48.35556 -36.97778,-85.33334 -85.33333,-85.33334 -36.97778,0 -68.26667,22.75556 -79.64445,56.88889 H 170.66667 C 159.28889,395.37778 128,372.62222 91.022222,372.62222 c -48.355556,0 -85.333333,36.97778 -85.333333,85.33334 0,48.35555 36.977778,85.33333 85.333333,85.33333 z"
           p-id="15101"
           fill="#ffffff"
           id="path1163" />
        <path
           d="m 716.8,861.86667 m -85.33333,0 a 85.333333,85.333333 0 1 0 170.66666,0 85.333333,85.333333 0 1 0 -170.66666,0 z"
           p-id="15102"
           fill="#ffffff"
           id="path1165" />
      </g>
    </g>
    <g
       id="logo-pie"
       transform="matrix(0.59177523,0,0,0.57637009,8096.0119,1195.273)">
      <path
         d="M 480.2,958.7 C 252.1,958.7 66.7,773.2 66.7,545.2 67.4,361.9 188,200.6 363.7,148.3 c 17.8,-4.1 35.7,6.4 40.9,24 5.1,17.6 -4.3,36.1 -21.5,42.2 -146.4,43.6 -246.9,178 -247.5,330.7 0,190 154.6,344.6 344.6,344.6 151.6,0.6 285.5,-98.4 329.4,-243.4 5.6,-18.2 24.9,-28.5 43.1,-22.9 18.2,5.6 28.5,24.9 22.9,43.1 C 823,840.7 662.1,959.5 480.2,958.7 Z M 925.9,546.4 c -9.1,0 -17.9,-3.6 -24.4,-10.1 -6.5,-6.5 -10.1,-15.2 -10.1,-24.4 0,-209 -170.1,-379.1 -379.1,-379.1 -19,0 -34.5,-15.4 -34.5,-34.5 0,-19 15.4,-34.5 34.5,-34.5 247,0 448,201 448,448 0,19.2 -15.4,34.6 -34.4,34.6 z m 0,0"
         p-id="19249"
         fill="#ffffff"
         id="path1180" />
      <path
         d="m 512.4,63.9 c -19,0 -34.5,15.4 -34.5,34.5 v 413.5 c 0,19 15.4,34.5 34.5,34.5 19,0 34.5,-15.4 34.5,-34.5 V 98.4 c -0.1,-19 -15.5,-34.5 -34.5,-34.5 z m 0,0"
         p-id="19250"
         fill="#ffffff"
         id="path1182" />
      <path
         d="M 925.9,477.5 H 512.4 c -19,0 -34.5,15.4 -34.5,34.5 0,19 15.4,34.5 34.5,34.5 h 413.5 c 19,0 34.5,-15.4 34.5,-34.5 -0.1,-19.1 -15.5,-34.5 -34.5,-34.5 z m 0,0"
         p-id="19251"
         fill="#ffffff"
         id="path1184" />
    </g>
    <g
       id="logo-chart1"
       transform="matrix(0.5272492,0,0,0.57606432,7430.8315,1205.8234)">
      <path
         d="m 947.1,294.2 c 9.4,-14.1 4.7,-33 -9.4,-42.4 -4.7,0 -9.4,-4.7 -14.1,-4.7 h -9.4 l -183.6,70.6 c -9.4,4.7 -23.5,14.1 -33,18.8 -28.3,18.8 -51.8,47.1 -65.9,75.3 -23.7,51.9 -47.2,103.7 -70.7,150.8 -9.4,14.1 -18.8,28.3 -28.3,37.7 -28.2,23.5 -61.2,37.7 -98.9,33 -14.1,0 -28.3,-4.7 -42.4,-9.4 -14.1,-4.7 -23.5,-9.4 -33,-14.1 C 334.9,600.4 316,591 292.5,591 c -61.2,-4.7 -113,14.1 -155.4,56.5 -14.1,14.1 -28.2,33 -37.7,51.8 -9.4,23.5 -23.5,51.8 -33,75.3 -4.7,4.7 -4.7,14.1 0,23.5 4.7,9.4 14.1,18.8 23.5,18.8 9.4,4.7 18.8,0 28.2,-4.7 4.7,-4.7 9.4,-9.4 9.4,-14.1 9.4,-23.5 18.8,-51.8 33,-75.3 33,-61.2 103.6,-89.5 164.8,-61.2 14.1,4.7 23.5,9.4 33,14.1 18.8,4.7 42.4,14.1 61.2,14.1 56.5,4.7 113,-14.1 155.4,-51.8 14.1,-14.1 28.2,-33 37.7,-51.8 23.5,-51.8 47.1,-103.6 70.6,-150.7 14.1,-23.5 33,-42.4 61.2,-56.5 61.2,-23.5 127.1,-42.4 188.3,-70.6 z m -678.3,201 c 93,0 169.6,-72.5 176.5,-164.2 H 255.2 V 140.9 C 163.5,147.8 91,224.4 91,317.4 c 0,98.5 79.3,177.8 177.8,177.8 z"
         p-id="20192"
         fill="#ffffff"
         id="path1220" />
      <path
         d="M 282.5,127.2 V 303.7 H 459 c -5.5,-94.4 -82.1,-171 -176.5,-176.5 z m 667.2,217.5 c -39.9,18.4 -81.3,32.9 -121.3,46.7 V 896.9 H 960.2 V 337.7 l -4,4 z M 828.3,129.4 v 107.8 l 78.3,-30.1 h 16.8 c 8.9,0 16.2,2.5 21.1,4.7 h 5.2 l 10.1,6.7 c 0.1,0.1 0.2,0.2 0.4,0.3 V 129.4 Z M 649.5,602 l -0.9,2 c -10.8,21.6 -27.3,44.3 -45.2,62.2 l -1.7,1.6 c -2.9,2.5 -5.8,5 -8.7,7.4 V 896.9 H 724.8 V 473.1 h -15.4 c -20,41.1 -40.3,85.6 -59.9,128.9 z m -292,-35.9 c 2.1,0.8 4.2,1.7 6.2,2.6 l 0.2,0.1 c 3.1,1.3 6.2,2.6 9.5,3.9 l 1.5,0.6 1.5,0.7 c 8.8,4.4 16.3,8.1 27.7,11.9 11.4,3.8 22.1,7.4 29.7,7.4 h 2.5 l 2.5,0.3 c 17.4,2.2 33.8,-1.5 50.5,-11.3 V 538.9 H 357.5 Z m 60.4,163.6 c -18.6,-0.3 -37.1,-5.9 -53.5,-10.8 -2.4,-0.7 -4.7,-1.4 -6.9,-2.1 V 896.9 H 489.3 V 724.7 c -23.3,5.1 -47.4,6.9 -71.4,5 z m -222,12 -0.9,1.6 c -9.3,15.5 -16.6,34.7 -23.8,53.3 l -0.1,0.1 c -1.6,4.1 -3.1,8.1 -4.6,12 -3.5,15.3 -13.7,25.6 -20,31.8 l -4.5,4.5 -5.8,2.9 c -3.9,1.9 -8.7,4.3 -14.2,6.4 v 42.6 H 253.8 V 693.6 c -23.3,6.5 -44.5,23.3 -57.9,48.1 z"
         p-id="20193"
         fill="#ffffff"
         id="path1222" />
    </g>
    <g
       id="logo-chart2"
       transform="matrix(0.54737697,0,0,0.59465351,8106.4519,482.55373)">
      <path
         d="m 72.08448,101.75488 a 5.12512,5.12512 0 0 1 5.12,-5.12 h 32.39424 a 5.09952,5.09952 0 0 1 5.12,5.12 V 892.4416 H 976.4608 a 5.10464,5.10464 0 0 1 5.12,5.12 v 32.38912 a 5.10464,5.10464 0 0 1 -5.12,5.12 H 72.08448 Z"
         p-id="21851"
         fill="#ffffff"
         id="path1237" />
      <path
         d="m 192.34816,303.24224 c 0,-3.03616 1.15712,-6.07744 3.47648,-8.39168 a 11.81696,11.81696 0 0 1 8.39168,-3.47648 H 312.2176 c 3.03616,0 6.07232,1.15712 8.38656,3.47648 2.31936,2.31936 3.47648,5.3504 3.47648,8.39168 V 862.208 H 192.34816 Z m 585.99936,164.6592 c 0,-3.03616 1.16224,-6.07744 3.4816,-8.39168 a 11.81184,11.81184 0 0 1 8.39168,-3.47648 h 108.00128 a 11.8272,11.8272 0 0 1 8.39168,3.47648 c 2.31424,2.31936 3.47136,5.3504 3.47136,8.39168 V 862.20288 H 778.35264 V 467.90144 Z M 390.76864,617.85088 a 12.6464,12.6464 0 0 1 12.65664,-12.66176 h 115.2 a 12.5952,12.5952 0 0 1 8.94464,3.712 c 2.47296,2.46784 3.712,5.7088 3.712,8.94976 V 862.80192 H 390.76864 Z m 188.4416,115.2256 c 0,-6.12864 1.23392,-12.2624 3.70688,-16.93696 2.47296,-4.67456 5.71392,-7.01952 8.94976,-7.01952 h 115.2 c 3.24096,0 6.4768,2.34496 8.94464,7.01952 2.47296,4.67456 3.712,10.8032 3.712,16.93696 V 864.22016 H 579.21536 V 733.07648 Z"
         p-id="21852"
         fill="#ffffff"
         id="path1239" />
    </g>
    <text
       xml:space="preserve"
       x="7487.4541"
       y="2013.5942"
       id="text2384"
       transform="scale(1.0002555,0.99974457)"
       font-size="130px"
       fill="#ffffff"><tspan
         sodipodi:role="line"
         id="tspan2382"
         x="7487.4541"
         y="2013.5942">Real Time Result</tspan></text>
  </g>
  <g
     id="cpu"
     transform="translate(-5099.6712,-258.50112)">
    <rect
       id="rect131-0-8"
       width="2000"
       height="2000"
       x="8874.6094"
       y="508.90625"
       fill="#5577d6"
       opacity="0.8"
       rx="100"
       style="fill:url(#linearGradient11347);fill-opacity:1" />
    <rect
       id="rect131-0-8-3"
       width="1400"
       height="1400"
       x="9173.2295"
       y="805.78125"
       fill="#5577d6"
       style="fill:url(#linearGradient9541);fill-opacity:1;stroke-width:0.77827"
       opacity="0.8"
       rx="100" />
    <g
       id="g19"
       clip-path="url(#clipPath23)"
       transform="matrix(5.7632011,0,0,-5.8318688,4566.1458,4764.5833)"
       inkscape:transform-center-x="-37064.59"
       inkscape:transform-center-y="-34881.868">
      <g
         id="g65"
         transform="translate(836.53231,571.92025)">
        <path
           d="m 0,0 c 2.631,-2.663 5.385,-5.128 8.245,-7.398 7.412,-5.887 15.531,-10.457 24.042,-13.707 7.92,-3.025 16.177,-4.907 24.518,-5.645 25.774,-2.28 52.344,6.361 72.192,25.97 18.539,18.316 27.468,42.562 26.977,66.71 -1.092,5.997 -3.509,5.222 -3.427,8.318 0.575,-0.466 3.148,-2.951 5.036,-5.649 23.639,-35.608 19.594,-84.095 -11.954,-115.265 -28.918,-28.57 -72.105,-33.857 -106.307,-16.006 -8.184,4.272 -15.854,9.866 -22.69,16.786 -3.119,3.157 -5.96,6.485 -8.524,9.952 C 1.179,-26.566 -3.725,-16.178 -6.608,-5.365 -8.059,0.073 -8.999,5.618 -9.426,11.195 -6.631,7.278 -3.49,3.532 0,0"
           style="fill:#3a7ceb;fill-opacity:1;fill-rule:nonzero;stroke:none"
           id="path67" />
      </g>
      <g
         id="g69"
         transform="translate(895.31261,645.23765)">
        <path
           d="m 0,0 c 1.724,-1.745 2.919,-3.811 3.592,-6.004 0.215,-1.013 0.411,-2.032 0.592,-3.05 3.02,-17.13 1.122,-34.95 -5.679,-51.195 -2.925,13.93 -9.133,27.311 -18.638,38.906 -0.867,1.063 -1.768,2.11 -2.691,3.141 -4.817,5.221 -2.949,13.376 2.064,18.329 C -14.993,5.825 -5.698,5.767 0,0"
           style="fill:#e23e2b;fill-opacity:1;fill-rule:nonzero;stroke:none"
           id="path71" />
      </g>
      <g
         id="g73"
         transform="translate(905.40781,653.51065)">
        <path
           d="m 0,0 c 7.721,7.628 20.162,7.553 27.791,-0.168 4.886,-4.947 7.056,-11 5.637,-17.315 l -0.199,-0.886 C 29.492,-34.683 21.223,-50.161 8.436,-62.794 c -5.719,-5.651 -11.999,-10.39 -18.655,-14.22 -2.539,-1.463 -5.133,-2.791 -7.773,-3.99 2.476,4.025 4.608,8.199 6.402,12.483 6.8,16.244 8.698,34.064 5.678,51.194 -0.022,0.255 -0.235,1.283 -0.235,1.283 C -6.915,-10.163 -4.545,-4.491 0,0"
           style="fill:#f0b400;fill-opacity:1;fill-rule:nonzero;stroke:none"
           id="path75" />
      </g>
      <g
         id="g77"
         transform="translate(887.41611,572.50675)">
        <path
           d="m 0,0 c 2.64,1.199 5.234,2.527 7.773,3.99 6.656,3.83 12.935,8.569 18.655,14.22 12.786,12.633 21.056,28.111 24.792,44.425 0.2,0.873 0.296,1.518 0.473,2.409 1.024,5.123 3.642,9.917 7.64,13.867 10.654,10.527 27.456,11.077 38.355,-0.233 2.733,-2.837 7.101,-6.227 7.53,-15.069 0.007,-3.738 -0.219,-7.479 -0.674,-11.198 C 102.142,32.716 93.324,13.662 78.114,-1.365 58.267,-20.975 31.695,-29.616 5.922,-27.337 c -8.342,0.739 -16.599,2.622 -24.518,5.645 -8.512,3.249 -16.631,7.821 -24.044,13.707 C -28.138,-8.771 -13.481,-6.109 0,0"
           style="fill:#4acfd2;fill-opacity:1;fill-rule:nonzero;stroke:none"
           id="path79" />
      </g>
    </g>
    <text
       xml:space="preserve"
       x="9498.542"
       y="2037.2916"
       id="text6045"
       font-size="130px"
       fill="#ffffff"><tspan
         sodipodi:role="line"
         id="tspan6043"
         style="stroke-width:0.264583"
         x="9498.542"
         y="2037.2916">RisingWave</tspan></text>
    <path
       d="M 8948.5186,748.38911 V 2308.3891"
       id="cpu-edge"
       stroke-width="150"
       stroke="#ffffff"
       stroke-dasharray="30, 30" />
    <path
       d="M 10797.355,733.07961 V 2293.0796"
       id="cpu-edge-4"
       stroke-width="150"
       stroke="#ffffff"
       stroke-dasharray="30, 30" />
    <path
       d="M 9070.7545,2432.1527 H 10670"
       id="cpu-edge-5-2-8"
       stroke-width="150"
       stroke="#ffffff"
       stroke-dasharray="30, 30" />
    <path
       d="M 9073.9818,589.32935 H 10673.228"
       id="cpu-edge-5-2-8-1"
       stroke-width="150"
       stroke="#ffffff"
       stroke-dasharray="30, 30" />
    <path
       style="fill:none;stroke:#000000;stroke-width:0.264583px;stroke-linecap:butt;stroke-linejoin:miter;stroke-opacity:1"
       d="m 9045.7371,795.12683 c -9.3544,205.79757 -9.3544,205.79757 -9.3544,205.79757"
       id="path10457" />
  </g>
  <g
     id="cpu-to-real-time"
     transform="translate(-5099.6712,-258.50112)">
    <path
       style="fill:none;stroke:#3a7ceb;stroke-width:2.15296px;stroke-linecap:butt;stroke-linejoin:miter;stroke-opacity:0.5"
       d="m 10874.375,2321.7187 c 160.955,0 321.91,0 512.081,-111.3479 190.171,-111.3478 409.55,-334.0342 602.476,-486.726 192.925,-152.6918 359.385,-235.3811 525.848,-318.0721"
       id="path12633"
       inkscape:path-effect="#path-effect12635"
       inkscape:original-d="m 10874.375,2321.7187 c 160.955,0 321.91,0 482.864,0 219.389,-222.6951 438.768,-445.3816 658.151,-668.0729 166.467,-82.6924 332.927,-165.3818 499.39,-248.0731" />
    <path
       style="fill:none;stroke:#3a7ceb;stroke-width:2.15296px;stroke-linecap:butt;stroke-linejoin:miter;stroke-opacity:0.5"
       d="m 10871.068,2248.9583 c 164.284,-3.3077 328.524,-6.6146 486.173,-124.0256 157.649,-117.4111 308.679,-348.9169 500.502,-487.8281 191.824,-138.9112 424.428,-185.2211 657.037,-231.5319"
       id="path12637"
       inkscape:path-effect="#path-effect12639"
       inkscape:original-d="m 10871.068,2248.9583 c 164.262,-4.4095 328.524,-6.6143 492.786,-9.9219 151.036,-231.5147 302.066,-463.0205 453.099,-694.5312 232.614,-46.3115 465.218,-92.6214 697.827,-138.9325" />
    <path
       style="fill:none;stroke:#3a7ceb;stroke-width:2.15296px;stroke-linecap:butt;stroke-linejoin:miter;stroke-opacity:0.5"
       d="m 10874.375,2156.3541 c 189.618,-4.4097 379.236,-8.8194 514.836,-109.1425 135.6,-100.3231 217.178,-296.5516 395.772,-419.4776 178.595,-122.926 454.193,-172.5431 729.797,-222.1613"
       id="path12948"
       inkscape:path-effect="#path-effect12950"
       inkscape:original-d="m 10874.375,2156.3541 c 189.618,-4.4094 379.236,-8.8191 568.854,-13.2291 81.582,-196.2363 163.16,-392.465 244.74,-588.6979 275.609,-49.6189 551.207,-99.236 826.811,-148.8544" />
    <path
       style="fill:none;stroke:#3a7ceb;stroke-width:2.15296px;stroke-linecap:butt;stroke-linejoin:miter;stroke-opacity:0.5"
       d="m 10874.375,1025.2604 c 106.937,3.2736 216.077,6.6146 329.628,63.3912 113.552,56.7765 232.612,167.0172 451.997,228.7489 219.385,61.7316 539.079,74.9518 858.78,88.1722"
       id="path13073"
       inkscape:path-effect="#path-effect13075"
       inkscape:original-d="m 10874.375,1025.2604 c 106.936,3.3076 216.077,6.6149 324.114,9.9219 119.066,110.2455 238.126,220.4863 357.188,330.7291 319.708,13.221 639.402,26.4411 959.103,39.6613" />
    <path
       style="fill:none;stroke:#3a7ceb;stroke-width:2.15296px;stroke-linecap:butt;stroke-linejoin:miter;stroke-opacity:0.5"
       d="m 10877.682,1091.4062 c 147.726,4.4097 295.452,8.8195 406.798,79.3765 111.346,70.5571 186.31,207.2558 385.3,257.4115 198.99,50.1557 521.992,13.7674 845,-22.6215"
       id="path13190"
       inkscape:path-effect="#path-effect13192"
       inkscape:original-d="m 10877.682,1091.4062 c 147.726,4.41 295.452,8.8197 443.177,13.2292 74.967,136.7044 149.931,273.403 224.896,410.1042 323.015,-36.3895 646.017,-72.7777 969.025,-109.1669" />
    <path
       style="fill:none;stroke:#3a7ceb;stroke-width:2.15296px;stroke-linecap:butt;stroke-linejoin:miter;stroke-opacity:0.5"
       d="m 10877.682,1203.8542 c 135.599,1.1024 271.198,2.2048 380.891,62.2887 109.693,60.0839 193.476,179.144 398.529,212.2118 205.053,33.0678 531.362,-19.8565 857.678,-72.782"
       id="path13194"
       inkscape:path-effect="#path-effect13196"
       inkscape:original-d="m 10877.682,1203.8542 c 135.599,1.1027 271.198,2.2051 406.797,3.3072 83.787,119.0652 167.57,238.1253 251.354,357.1875 326.322,-52.9262 652.631,-105.8505 978.947,-158.7762" />
    <path
       style="fill:none;stroke:#3a7ceb;stroke-width:2.15296px;stroke-linecap:butt;stroke-linejoin:miter;stroke-opacity:0.5"
       d="m 10877.682,2067.0573 c 148.829,-1.1024 297.657,-2.2049 423.335,-74.9666 125.678,-72.7618 228.202,-217.1774 426.64,-326.8744 198.439,-109.697 492.778,-184.6696 787.123,-259.6436"
       id="path13311"
       inkscape:path-effect="#path-effect13313"
       inkscape:original-d="m 10877.682,2067.0573 c 148.829,-1.1022 297.657,-2.2046 446.485,-3.3073 102.528,-144.421 205.052,-288.8366 307.578,-433.2552 294.351,-74.9753 588.69,-149.9478 883.035,-224.9221" />
    <path
       style="fill:none;stroke:#3a7ceb;stroke-width:2.15296px;stroke-linecap:butt;stroke-linejoin:miter;stroke-opacity:0.5"
       d="m 10874.375,1475.0521 c 238.125,14.3316 476.25,28.6632 749.654,17.0829 273.404,-11.5803 582.074,-49.0709 890.751,-86.5623"
       id="path13428"
       inkscape:path-effect="#path-effect13430"
       inkscape:original-d="m 10874.375,1475.0521 c 238.125,14.3318 476.25,28.6634 714.375,42.9948 308.683,-37.4919 617.353,-74.9826 926.03,-112.4742" />
    <path
       style="fill:none;stroke:#3a7ceb;stroke-width:2.15296px;stroke-linecap:butt;stroke-linejoin:miter;stroke-opacity:0.5"
       d="m 10874.375,1623.8802 c 136.702,-1.1024 273.403,-2.2049 399.081,-27.5613 125.678,-25.3563 240.329,-74.9649 445.382,-110.7984 205.053,-35.8335 500.495,-57.8905 795.942,-79.9478"
       id="path13432"
       inkscape:path-effect="#path-effect13434"
       inkscape:original-d="m 10874.375,1623.8802 c 136.702,-1.1022 273.403,-2.2046 410.104,-3.3073 114.655,-49.6101 229.306,-99.2185 343.958,-148.8281 295.454,-22.0576 590.896,-44.1145 886.343,-66.1721" />
    <path
       style="fill:none;stroke:#3a7ceb;stroke-width:2.15296px;stroke-linecap:butt;stroke-linejoin:miter;stroke-opacity:0.5"
       d="m 10874.375,1802.4739 c 198.438,-17.6389 396.875,-35.2778 548.46,-82.132 151.586,-46.8542 256.315,-122.9205 430.499,-180.2514 174.184,-57.3309 417.813,-95.924 661.446,-134.5178"
       id="path13436"
       inkscape:path-effect="#path-effect13438"
       inkscape:original-d="m 10874.375,1802.4739 c 198.438,-17.6386 396.875,-35.2775 595.312,-52.9166 104.734,-76.069 209.463,-152.1352 314.193,-228.2032 243.638,-38.5943 487.267,-77.1873 730.9,-115.7814" />
    <path
       style="fill:none;stroke:#3a7ceb;stroke-width:2.15296px;stroke-linecap:butt;stroke-linejoin:miter;stroke-opacity:0.5"
       d="m 10874.375,1025.2604 c 218.281,-1.1024 436.563,-2.2049 592.558,82.1328 155.994,84.3377 249.699,254.1089 413.961,318.0448 164.263,63.936 399.072,22.0358 633.886,-19.8653"
       id="path13440"
       inkscape:path-effect="#path-effect13442"
       inkscape:original-d="m 10874.375,1025.2604 c 218.281,-1.1022 436.563,-2.2046 654.844,-3.3073 93.708,169.778 187.413,339.5489 281.119,509.3229 234.819,-41.9017 469.628,-83.8019 704.442,-125.7033" />
    <path
       style="fill:none;stroke:#3a7ceb;stroke-width:2.15296px;stroke-linecap:butt;stroke-linejoin:miter;stroke-opacity:0.5"
       d="m 10880.989,1286.5364 c 251.355,82.6825 502.709,165.3647 775.011,185.2036 272.301,19.8388 565.537,-23.1637 858.78,-66.1673"
       id="path13448"
       inkscape:path-effect="#path-effect13450"
       inkscape:original-d="m 10880.989,1286.5364 c 251.355,82.6826 502.709,165.3649 754.063,248.0469 293.249,-43.0041 586.485,-86.0068 879.728,-129.0106" />
    <path
       style="fill:none;stroke:#3a7ceb;stroke-width:2.15296px;stroke-linecap:butt;stroke-linejoin:miter;stroke-opacity:0.5"
       d="m 10874.375,1908.3073 c 158.75,-2.2049 317.5,-4.4097 466.881,-66.1471 149.381,-61.7374 289.386,-183.002 483.414,-265.6892 194.029,-82.6872 442.067,-126.7923 690.11,-170.8983"
       id="path13444"
       inkscape:path-effect="#path-effect13446"
       inkscape:original-d="m 10874.375,1908.3073 c 158.75,-2.2046 317.5,-4.4095 476.25,-6.6146 140.012,-121.2695 280.017,-242.5345 420.026,-363.8021 248.048,-44.1066 496.086,-88.2117 744.129,-132.3179" />
    <path
       style="fill:none;stroke:#3a7ceb;stroke-width:2.15296px;stroke-linecap:butt;stroke-linejoin:miter;stroke-opacity:0.5"
       d="m 10874.375,1551.1198 c 199.54,3.3073 399.08,6.6145 573.265,-9.9223 174.186,-16.5368 323.011,-52.9163 496.644,-78.8279 173.633,-25.9117 372.063,-41.3542 570.496,-56.7969"
       id="path13452"
       inkscape:path-effect="#path-effect13454"
       inkscape:original-d="m 10874.375,1551.1198 c 199.54,3.3075 399.08,6.6148 598.62,9.9218 148.831,-36.3806 297.656,-72.7601 446.484,-109.1406 198.438,-15.4428 396.868,-30.8853 595.301,-46.3283" />
    <path
       style="fill:none;stroke:#3a7ceb;stroke-width:2.15296px;stroke-linecap:butt;stroke-linejoin:miter;stroke-opacity:0.5"
       d="m 10871.068,1709.8698 c 203.949,-3.3073 407.899,-6.6146 551.216,-50.1615 143.317,-43.5468 225.997,-127.3297 397.977,-176.3925 171.98,-49.0627 433.247,-63.4028 694.519,-77.7431"
       id="path13456"
       inkscape:path-effect="#path-effect13458"
       inkscape:original-d="m 10871.068,1709.8698 c 203.949,-3.3071 407.899,-6.6143 611.849,-9.9219 82.684,-83.7861 165.364,-167.5692 248.046,-251.3542 261.278,-14.3403 522.545,-28.6804 783.817,-43.021" />
    <path
       style="fill:none;stroke:#3a7ceb;stroke-width:2.15296px;stroke-linecap:butt;stroke-linejoin:miter;stroke-opacity:0.5"
       d="m 10880.989,790.4427 c 171.98,-1.10243 343.959,-2.20486 493.34,81.58166 149.38,83.78653 276.157,252.45514 462.468,355.52824 186.312,103.0732 432.145,140.5463 677.983,178.0201"
       id="path13460"
       inkscape:path-effect="#path-effect13462"
       inkscape:original-d="m 10880.989,790.4427 c 171.98,-1.10218 343.959,-2.20459 515.938,-3.30729 126.782,168.67552 253.559,337.34399 380.338,506.01559 245.844,37.4749 491.677,74.9481 737.515,112.4217" />
    <path
       style="fill:none;stroke:#3a7ceb;stroke-width:2.15296px;stroke-linecap:butt;stroke-linejoin:miter;stroke-opacity:0.5"
       d="m 10860.135,912.81248 c 153.711,0 307.421,0 430.132,80.47472 122.71,80.4747 214.419,241.4183 413.346,323.5449 198.928,82.1265 505.039,85.4335 811.167,88.7406"
       id="path12206"
       inkscape:path-effect="#path-effect12208"
       inkscape:original-d="m 10860.135,912.81248 c 153.711,-1.10211 307.421,0 461.131,0 91.711,160.94972 183.42,321.89282 275.129,482.83882 306.134,4.4099 612.257,6.6146 918.385,9.9214" />
    <path
       style="fill:none;stroke:#3a7ceb;stroke-width:2.15296px;stroke-linecap:butt;stroke-linejoin:miter;stroke-opacity:0.5"
       d="m 10874.348,684.63559 c 192.917,0 385.834,0 527.009,90.94592 141.176,90.94592 230.606,272.82989 407.555,392.98669 176.951,120.1567 441.407,178.5799 705.868,237.0045"
       id="path12403" />
    <path
       d="m 12146.206,1381.6211 v 154.6159 l 133.002,-71.1233 z"
       id="to-arrow-head"
       fill="#5f7fd7"
       opacity="0.6"
       style="stroke-width:0.467557" />
    <path
       d="m 10957.057,1458.5156 h 1145.625"
       id="to-arrow-body"
       stroke="#5f7fd7"
       stroke-width="100"
       opacity="0.6"
       stroke-dasharray="50, 50" />
  </g>
  <g
     id="input"
     transform="translate(-3810.3969,-206.92513)">
    <rect
       id="rect13839"
       width="1894.3386"
       height="552.53809"
       x="4221.1782"
       y="529.71387"
       rx="158.22562"
       fill="#5f7fd7"
       opacity="0.6"
       style="stroke-width:1.22554" />
    <rect
       id="rect13839-2"
       width="1894.3386"
       height="552.53809"
       x="4264.0166"
       y="485.03662"
       rx="158.22562"
       fill="#5f7fd7"
       opacity="0.6"
       style="stroke-width:1.22554" />
    <text
       x="4944.1367"
       y="842.88715"
       id="text15568"
       font-size="130px"
       fill="#ffffff"
       xml:space="default"><tspan
         sodipodi:role="line"
         id="tspan15566"
         style="stroke-width:0.264583"
         x="4944.1367"
         y="842.88715">Real Time Data</tspan></text>
    <ellipse
       id="path18733"
       cx="4532.7432"
       cy="799.45917"
       rx="252"
       ry="250"
       fill="#5f7fd7"
       opacity="0.6" />
    <g
       id="g18629"
       transform="matrix(0.29954738,0,0,0.31728492,4393.4409,632.41132)">
      <path
         d="m 147.91111,207.64444 c 36.97778,0 68.26667,-22.75555 79.64445,-56.88888 H 463.64444 L 665.6,349.86667 h 82.48889 c 11.37778,34.13333 42.66667,56.88889 79.64444,56.88889 48.35556,0 85.33334,-36.97778 85.33334,-85.33334 0,-48.35555 -36.97778,-85.33333 -85.33334,-85.33333 -36.97778,0 -68.26666,22.75556 -79.64444,56.88889 H 688.35556 L 486.4,93.866667 H 227.55556 C 216.17778,59.733334 184.88889,36.977778 147.91111,36.977778 c -48.355555,0 -85.333332,36.977778 -85.333332,85.333332 0,48.35556 36.977778,85.33333 85.333332,85.33333 z m 796.44445,284.44445 c -48.35556,0 -85.33334,36.97778 -85.33334,85.33333 H 531.91111 L 321.42222,819.2 H 173.51111 C 167.82222,790.75556 150.75556,765.15556 119.46667,753.77778 76.8,736.71111 25.6,759.46667 8.533333,802.13333 -8.533334,844.8 14.222222,896 56.888889,913.06667 c 39.822222,14.22222 82.488891,0 105.244441,-36.97778 H 344.17778 L 554.66667,634.31111 h 327.11111 c 14.22222,17.06667 36.97778,28.44445 62.57778,28.44445 48.35555,0 85.33334,-36.97778 85.33334,-85.33334 0,-48.35555 -39.82223,-85.33333 -85.33334,-85.33333 z m -853.333338,51.2 C 128,543.28889 159.28889,520.53333 170.66667,486.4 h 125.15555 c 11.37778,34.13333 42.66667,56.88889 79.64445,56.88889 48.35555,0 85.33333,-36.97778 85.33333,-85.33333 0,-48.35556 -36.97778,-85.33334 -85.33333,-85.33334 -36.97778,0 -68.26667,22.75556 -79.64445,56.88889 H 170.66667 C 159.28889,395.37778 128,372.62222 91.022222,372.62222 c -48.355556,0 -85.333333,36.97778 -85.333333,85.33334 0,48.35555 36.977778,85.33333 85.333333,85.33333 z"
         p-id="15101"
         fill="#e23e2b"
         id="path18618" />
      <path
         d="m 716.8,861.86667 m -85.33333,0 a 85.333333,85.333333 0 1 0 170.66666,0 85.333333,85.333333 0 1 0 -170.66666,0 z"
         p-id="15102"
         fill="#e23e2b"
         id="path18620" />
    </g>
    <rect
       id="rect13839-24"
       width="1894.3386"
       height="552.53809"
       x="4207.1631"
       y="1207.5499"
       rx="158.22562"
       fill="#5f7fd7"
       opacity="0.6"
       style="stroke-width:1.22554" />
    <rect
       id="rect13839-2-8"
       width="1894.3386"
       height="552.53809"
       x="4250.0015"
       y="1162.8727"
       rx="158.22562"
       fill="#5f7fd7"
       opacity="0.6"
       style="stroke-width:1.22554" />
    <text
       x="4894.2007"
       y="1520.7233"
       id="text15568-7"
       font-size="130px"
       fill="#ffffff"
       xml:space="default"><tspan
         sodipodi:role="line"
         id="tspan15566-8"
         style="stroke-width:0.264583"
         x="4894.2007"
         y="1520.7233">Historaical Data</tspan></text>
    <ellipse
       id="path18733-6"
       cx="4518.728"
       cy="1477.2953"
       rx="252"
       ry="250"
       fill="#5f7fd7"
       opacity="0.6" />
    <rect
       id="rect13839-9"
       width="1894.3386"
       height="552.53809"
       x="4227.688"
       y="1887.519"
       rx="158.22562"
       fill="#5f7fd7"
       opacity="0.6"
       style="stroke-width:1.22554" />
    <rect
       id="rect13839-2-2"
       width="1894.3386"
       height="552.53809"
       x="4270.5264"
       y="1842.8418"
       rx="158.22562"
       fill="#5f7fd7"
       opacity="0.6"
       style="stroke-width:1.22554" />
    <text
       x="4950.6465"
       y="2200.6924"
       id="text15568-8"
       font-size="130px"
       fill="#ffffff"
       xml:space="default"><tspan
         sodipodi:role="line"
         id="tspan15566-5"
         style="stroke-width:0.264583"
         x="4950.6465"
         y="2200.6924">Database Log</tspan></text>
    <ellipse
       id="path18733-3"
       cx="4539.2529"
       cy="2157.2644"
       rx="252"
       ry="250"
       fill="#5f7fd7"
       opacity="0.6" />
    <g
       id="g19113"
       transform="matrix(0.25404374,0,0,0.28532323,4376.6526,1301.9389)">
      <path
         d="M 921.1,61.4 H 102.9 c -45.5,0 -82.4,36.9 -82.4,82.4 v 736.3 c 0,45.5 36.9,82.4 82.4,82.4 h 818.2 c 45.5,0 82.4,-36.9 82.4,-82.4 V 143.8 c 0,-45.5 -36.9,-82.4 -82.4,-82.4 z M 102.4,184.8 c 0,-22.9 18.6,-41.4 41.4,-41.4 h 736.3 c 22.9,0 41.4,18.6 41.4,41.4 v 81.4 H 102.4 Z M 880,880.6 H 143.8 c -22.9,0 -41.4,-18.6 -41.4,-41.4 v -491 h 819.2 l -0.1,491 c 0,22.9 -18.6,41.4 -41.5,41.4 z"
         p-id="15725"
         fill="#4acfd2"
         id="path19102" />
      <path
         d="m 599,463.6 c -19.5,-11.3 -44.7,-4.5 -56,15 L 410,709.2 c -11.3,19.5 -4.5,44.7 15,56 19.5,11.3 44.7,4.5 56,-15 L 614,519.6 c 11.3,-19.5 4.5,-44.7 -15,-56 z m -266.4,6 c -15.9,-15.9 -42,-15.9 -57.9,0 L 158.9,585.4 c -15.9,15.9 -15.9,42 0,57.9 l 115.9,115.9 c 15.9,15.9 42,15.9 57.9,0 15.9,-15.9 15.9,-42 0,-57.9 l -86.9,-86.9 86.9,-86.9 c 15.9,-15.9 15.9,-42 -0.1,-57.9 z m 416.7,0 c -15.9,-15.9 -42,-15.9 -57.9,0 -15.9,15.9 -15.9,42 0,57.9 l 86.9,86.9 -86.9,86.9 c -15.9,15.9 -15.9,42 0,57.9 15.9,15.9 42,15.9 57.9,0 L 865.2,643.3 c 15.9,-15.9 15.9,-42 0,-57.9 z"
         p-id="15726"
         fill="#4acfd2"
         id="path19104" />
    </g>
    <g
       id="g22337"
       transform="matrix(0.2373834,0,0,0.27247281,4414.7231,2006.3925)">
      <path
         d="M 959.71883,123.96368 C 872.4444,50.185297 704.59358,0.299912 511.85004,0.299912 319.10651,0.299912 151.25569,50.185297 63.981255,123.96368 23.193205,158.45358 0,198.04198 0,240.22962 V 784.07029 C 0,916.53149 229.13287,1024 511.85004,1024 794.56722,1024 1023.7001,916.53148 1023.7001,784.07029 V 240.22962 c 0,-42.18764 -23.1932,-81.77604 -63.98127,-116.26594 z M 87.774285,189.64444 C 107.56849,167.75085 138.45944,146.55706 177.1481,128.46236 219.43571,108.66816 269.22113,92.972762 325.10475,81.876013 384.08747,70.17944 446.86908,64.281168 511.85004,64.281168 c 64.98097,0 127.76257,5.898272 186.74529,17.594845 55.88363,11.096749 105.66904,26.792147 147.95666,46.586347 38.68866,18.0947 69.57961,39.28849 89.37381,61.18208 15.79538,17.49487 23.79303,34.4899 23.79303,50.48521 0,16.09529 -7.99765,33.09031 -23.79303,50.48521 -19.7942,21.89359 -50.68515,43.08738 -89.37381,61.18207 -42.28761,19.89418 -92.07303,35.48961 -147.95666,46.58636 -58.98272,11.69657 -121.86429,17.59484 -186.74529,17.59484 -64.88099,0 -127.76257,-5.89827 -186.74529,-17.59484 C 269.22113,387.28654 219.43571,371.59113 177.1481,351.79693 138.45944,333.70224 107.56849,312.50844 87.774285,290.61486 71.978912,273.31993 63.981255,256.3249 63.981255,240.22962 c 0,-16.09528 7.997657,-33.09031 23.79303,-50.58518 z m -23.79303,166.85112 c 87.274435,73.77838 255.125255,123.66377 447.868785,123.66377 192.74354,0 360.59436,-49.88539 447.86879,-123.66377 v 155.25451 c 0,16.09529 -7.99765,33.09031 -23.79303,50.48521 -19.7942,21.89359 -50.68515,43.08738 -89.37381,61.18208 -42.28761,19.7942 -92.07303,35.4896 -147.95666,46.58635 -58.98272,11.69657 -121.86429,17.59485 -186.74529,17.59485 -64.88099,0 -127.76257,-5.89828 -186.74529,-17.59485 C 269.22113,658.90696 219.43571,643.21156 177.1481,623.41736 138.45944,605.32266 107.56849,584.12887 87.774285,562.23528 71.978912,544.74041 63.981255,527.74539 63.981255,511.75007 Z M 959.71883,784.07029 c 0,16.09529 -7.99765,33.09031 -23.79303,50.48521 -19.7942,21.89359 -50.68515,43.08738 -89.37381,61.18208 -42.28761,19.89417 -92.07303,35.4896 -147.95666,46.58635 -58.98272,11.69657 -121.86429,17.59484 -186.74529,17.59484 -64.88099,0 -127.76257,-5.89827 -186.74529,-17.59484 C 269.22113,931.22718 219.43571,915.53178 177.1481,895.73758 138.45944,877.64288 107.56849,856.44909 87.774285,834.5555 71.978912,817.1606 63.981255,800.16558 63.981255,784.07029 V 627.91604 c 87.274435,73.77838 255.125255,123.66377 447.868785,123.66377 192.74354,0 360.59436,-49.88538 447.86879,-123.66377 z"
         p-id="16614"
         fill="#f0b400"
         id="path22323" />
      <path
         d="m 167.9508,519.8477 m -39.98829,0 a 39.988285,39.988285 0 1 0 79.97657,0 39.988285,39.988285 0 1 0 -79.97657,0 z"
         p-id="16615"
         fill="#f0b400"
         id="path22325" />
      <path
         d="m 167.9508,791.76804 m -39.98829,0 a 39.988285,39.988285 0 1 0 79.97657,0 39.988285,39.988285 0 1 0 -79.97657,0 z"
         p-id="16616"
         fill="#f0b400"
         id="path22327" />
    </g>
  </g>
  <path
     style="fill:none;stroke:#4acfd2;stroke-width:10px"
     d="m 2369.8335,1257.1468 c 451.5559,0 903.1112,0 1354.6666,0"
     id="path23347"
     inkscape:path-effect="#path-effect23349"
     inkscape:original-d="m 2369.8335,1257.1468 c 451.5559,0 903.1112,0 1354.6666,0" />
  <path
     style="fill:none;stroke:#e23e2b;stroke-width:10px"
     d="m 2369.8334,579.81356 c 197.5559,0 395.1113,0 493.889,112.89126 98.7777,112.89125 98.7777,338.66458 225.7804,451.55328 127.0026,112.8887 380.9975,112.8887 634.9973,112.8887"
     id="path24135"
     inkscape:path-effect="#path-effect24137"
     inkscape:original-d="m 2369.8334,579.81356 c 197.5559,0 395.1113,0 592.6667,0 0,225.78251 0,451.55584 0,677.33324 254.0053,0 508.0002,0 762,0" />
  <path
     style="fill:none;stroke:#f0b400;stroke-width:10px"
     d="m 2369.8334,1934.4801 c 211.6669,0 423.3336,0 529.1668,-112.891 105.8332,-112.891 105.8332,-338.6643 225.7802,-451.5533 119.947,-112.889 359.831,-112.889 599.7197,-112.889"
     id="path24139"
     inkscape:path-effect="#path-effect24141"
     inkscape:original-d="m 2369.8334,1934.4801 c 211.6669,0 423.3336,0 635,0 0,-225.782 0,-451.5553 0,-677.3333 239.894,0 479.778,0 719.6667,0" />
</svg>
