<svg width="91" height="89" viewBox="0 0 91 89" fill="none" xmlns="http://www.w3.org/2000/svg">
<path d="M47.6894 23.009C49.1312 25.8926 50.306 28.3668 50.306 28.4736C50.306 28.5982 46.212 36.9642 41.1924 47.0746L32.0788 65.462H27.2016C24.5316 65.462 22.36 65.3908 22.3956 65.3018C22.6804 64.5542 44.8948 17.758 44.966 17.758C45.0194 17.758 46.2298 20.1254 47.6894 23.009Z" fill="#70707B"/>
<path d="M61.965 51.6492C65.6318 59.1786 68.64 65.373 68.64 65.4086C68.64 65.4264 66.2904 65.462 63.4068 65.462H58.1914L56.4292 61.368L54.667 57.274H50.0924C47.5648 57.274 45.5 57.2384 45.5 57.2028C45.5 57.1672 47.2266 53.536 49.3448 49.1572L49.5729 48.6839C51.6142 44.4469 53.6163 40.2913 54.0796 39.296C54.756 37.872 55.0052 37.4982 55.1298 37.694C55.2366 37.8364 58.2982 44.1198 61.965 51.6492Z" fill="#70707B"/>
<path fill-rule="evenodd" clip-rule="evenodd" d="M45.5 89C20.8698 89 1 69.1302 1 44.5C1 19.8698 20.8698 0 45.5 0C70.1302 0 90 19.8698 90 44.5C90 69.1302 70.1302 89 45.5 89ZM45.5 4.13953C23.3535 4.13953 5.13953 22.3535 5.13953 44.5C5.13953 66.6465 23.3535 84.8605 45.5 84.8605C67.6465 84.8605 85.8605 66.6465 85.8605 44.5C85.8605 22.3535 67.6465 4.13953 45.5 4.13953Z" fill="#70707B"/>
</svg>
