<svg width="64" height="65" viewBox="0 0 64 65" fill="none" xmlns="http://www.w3.org/2000/svg">
<path fill-rule="evenodd" clip-rule="evenodd" d="M43.3 26.6C44.2 22.1 31.3 20.2 23.9 29.3C15.6 39.5 32.3 50.2 51.3 35.9C63.4 26.7 67.3 14.1 60.2 7.69997C46.4 -4.90003 13 6.79997 1.79999 31.8C13 12.9 41.1 3.99997 52.3 15.5C57 20.3 54.4 30 45.8 34.1C31.9 40.6 33.2 26.4 43.3 26.6Z" fill="#70707B"/>
<path fill-rule="evenodd" clip-rule="evenodd" d="M42.6 16.6999C19.6 9.79995 -11.6 37.9999 4.39997 56.5999C15 68.9999 52.1 62.9999 64 25.5999C49.9 51.3999 23.3 55.1999 13.2 47.7999C1.29997 39.0999 16.1 14.6999 42.6 16.6999Z" fill="#A0A0AB"/>
</svg>
