<svg width="43" height="43" viewBox="0 0 43 43" fill="none" xmlns="http://www.w3.org/2000/svg">
<g clip-path="url(#clip0_750_261)">
<path fill-rule="evenodd" clip-rule="evenodd" d="M30.8 22.7C31.9 22.6 33 22.6 34.1 22.5V21.7C33 21.6 31.9 21.6 30.8 21.5L27.5 21.4C25.6 21.3 23.6 21.3 21.7 21.3C21.7 19.4 21.7 17.4 21.6 15.5L21.5 12.2C21.4 11.1 21.4 10 21.3 8.90002H20.4C20.3 10 20.3 11.1 20.2 12.2L20.1 15.5C20.1 16.4 20.1 17.3 20.1 18.2C19.7 17.4 19.4 16.5 19 15.7L17.6 12.7C17.1 11.7 16.7 10.7 16.2 9.70002L15.4 10C15.8 11.1 16.1 12.1 16.5 13.1L17.7 16.2C18 17.1 18.4 17.9 18.7 18.8C18 18.2 17.4 17.5 16.7 16.9L14.3 14.6C13.5 13.9 12.7 13.1 11.8 12.4L11.1 13.1C11.8 13.9 12.6 14.7 13.3 15.6L15.6 18C16.2 18.7 16.9 19.3 17.5 20C16.7 19.7 15.8 19.3 14.9 19L11.8 17.8C10.8 17.4 9.7 17 8.7 16.7L8.3 17.6C9.3 18.1 10.3 18.5 11.3 19L14.3 20.4C15.1 20.8 16 21.1 16.8 21.5C15.9 21.5 15 21.5 14.1 21.5L10.8 21.6C9.7 21.7 8.6 21.7 7.5 21.8V22.7C8.6 22.8 9.7 22.8 10.8 22.9L14.1 23C16.1 23.1 18 23.1 19.9 23.1C19.9 25 19.9 27 20 28.9L20.1 32.2C20.2 33.3 20.2 34.4 20.3 35.5H21.1C21.2 34.4 21.2 33.3 21.3 32.2L21.4 28.9C21.4 28 21.4 27 21.5 26.1C21.9 27 22.2 27.8 22.6 28.7L24 31.7C24.5 32.7 24.9 33.7 25.4 34.7L26.2 34.4C25.9 33.3 25.5 32.3 25.1 31.3L24.1 28C23.8 27.1 23.4 26.3 23.1 25.4C23.8 26.1 24.4 26.7 25.1 27.3L27.5 29.6C28.3 30.3 29.1 31.1 30 31.8L30.6 31.2C29.9 30.4 29.1 29.6 28.4 28.7L26.1 26.3C25.5 25.6 24.8 24.9 24.2 24.3C25.1 24.6 25.9 25 26.8 25.3L29.9 26.5C30.9 26.9 32 27.3 33 27.6L33.3 26.8C32.3 26.3 31.3 25.8 30.3 25.4L27.3 24C26.4 23.6 25.6 23.2 24.7 22.9C25.6 22.9 26.6 22.9 27.5 22.8L30.8 22.7Z" fill="#70707B"/>
<path fill-rule="evenodd" clip-rule="evenodd" d="M21.5 43C9.6 43 0 33.4 0 21.5C0 9.6 9.6 0 21.5 0C33.4 0 43 9.6 43 21.5C43 33.4 33.4 43 21.5 43ZM21.5 2C10.8 2 2 10.8 2 21.5C2 32.2 10.8 41 21.5 41C32.2 41 41 32.2 41 21.5C41 10.8 32.2 2 21.5 2Z" fill="#70707B"/>
</g>
<defs>
<clipPath id="clip0_750_261">
<rect width="43" height="43" fill="white"/>
</clipPath>
</defs>
</svg>
