<svg width="164" height="199" viewBox="0 0 164 199" fill="none" xmlns="http://www.w3.org/2000/svg">
<g clip-path="url(#clip0_749_169)">
<path d="M85.226 198.08C62.7076 192.4 42.6692 171.48 23.1268 133.38C1.79877 91.68 -5.54203 53.08 3.28677 29.38C9.63557 12.28 26.5988 6.38001 43.9588 15.18C49.5735 18.04 51.1706 19.84 54.3748 26.88C58.313 35.55 59.8506 45.48 60.5152 66.48L61.1283 85.78L64.2829 78.49C66.0189 74.48 69.5206 67.59 72.0701 63.09C74.6195 58.64 76.7126 53.78 76.7126 52.29C76.7126 50.81 75.6016 46.94 74.2326 43.67C71.6931 37.59 71.2864 34.29 72.3677 28.77C72.9867 25.65 72.9936 25.64 79.5597 25.64L86.1267 25.6362L90.2237 20.2962C94.8464 14.2562 103.814 6.89621 111.552 2.89621C116.035 0.556208 117.95 0.176208 125.241 0.176208C132.761 0.176208 134.249 0.495207 138.534 3.01621C141.173 4.57621 143.117 6.06621 142.859 6.32621C142.601 6.58621 139.814 6.04021 136.649 5.11621C128.773 2.80621 120.876 3.63621 112.841 7.61621C93.7949 17.0562 74.4509 52.6162 81.9901 64.2162C83.0118 65.7962 85.5017 67.2062 89.0928 68.2562C94.9257 69.9662 97.743 69.5162 92.8723 67.6482C82.6547 63.7382 84.7677 54.4482 99.7171 37.5482L108.238 27.9182L107.674 22.4082C107.163 17.4182 107.32 16.7782 109.34 15.6882C112.118 14.1882 116.652 15.0352 119.955 17.6782C123.09 20.1682 132.851 20.3982 141.084 18.1872C144.08 17.3752 149.318 16.7072 152.691 16.6972C158.464 16.6861 158.911 16.8522 159.496 19.1872C159.838 20.5572 159.866 22.3472 159.558 23.1572C159.249 23.9672 159.932 26.7572 161.075 29.3672C163.645 35.2272 164.607 49.0672 162.97 56.6672C162.337 59.6472 160.054 65.7472 157.891 70.2672C152.485 81.4672 152.276 83.1672 155.381 90.5672C160.708 103.267 164.597 127.567 163.595 141.667C163.298 145.817 161.869 155.067 160.411 162.167C157.633 175.867 157.851 180.667 161.403 183.667C162.218 184.35 162.891 186.347 162.891 188.107C162.891 191.827 160.113 194.817 155.054 196.517C150.312 198.117 140.075 197.937 135.115 196.156C129.192 194.046 124.302 194.286 120.235 196.879C117.179 198.829 115.225 199.119 103.867 199.339C95.1073 199.505 89.0858 199.115 85.1178 198.119L85.226 198.08ZM70.1476 162.88C61.3287 136.78 64.0666 107.48 78.1728 76.98L82.4186 67.82L77.8752 63.84L73.8973 72.5C57.7277 107.7 55.2477 138.7 66.8343 161.8C69.8996 167.92 72.6772 172.7 73.193 172.7C73.3299 172.7 71.9629 168.31 70.1575 162.95L70.1476 162.88ZM146.036 75.38L148.119 70.13L147.666 74.5C147.409 76.99 147.587 78.5 148.079 78C148.891 77.182 154.001 64.3 154.001 63C154.001 62.689 152.652 63.582 150.996 64.98C147.93 67.58 142.425 69.59 138.298 69.6C136.215 69.6051 136.076 69.929 136.651 73.36C137.782 80.13 138.08 80.61 141.076 80.61C143.575 80.61 144.171 79.981 146.006 75.36L146.036 75.38Z" fill="#FBFBFB" fill-opacity="0.87"/>
<path fill-rule="evenodd" clip-rule="evenodd" d="M156.32 16.6115C158.672 16.7842 159.023 17.3379 159.446 19.0282L156.32 16.6115Z" fill="#70707B" fill-opacity="0.68"/>
<path fill-rule="evenodd" clip-rule="evenodd" d="M47.9268 172.48C58.3428 184.98 72.9252 194.97 85.226 198.08L85.0682 197.96C89.0362 198.956 95.0577 199.346 103.817 199.18C115.175 198.96 117.13 198.67 120.185 196.72C124.252 194.127 129.143 193.887 135.065 195.997C140.025 197.778 150.262 197.958 155.004 196.358C160.063 194.658 162.841 191.668 162.841 187.948C162.841 186.188 162.168 184.191 161.353 183.508C157.802 180.508 157.583 175.708 160.361 162.008C161.819 154.908 163.249 145.658 163.545 141.508C164.547 127.408 160.659 103.108 155.332 90.4082C152.227 83.0082 152.435 81.3082 157.841 70.1082C160.004 65.5882 162.287 59.4882 162.92 56.5082C164.557 48.9082 163.595 35.0682 161.026 29.2082C159.883 26.5982 159.199 23.8082 159.508 22.9982C159.816 22.1882 159.789 20.3982 159.446 19.0282L156.32 16.6115C155.423 16.5456 154.235 16.5351 152.641 16.5382C149.268 16.5482 144.031 17.2162 141.035 18.0282C132.801 20.2392 123.04 20.0092 119.905 17.5192C116.602 14.8762 112.069 14.0292 109.291 15.5292C107.27 16.6192 107.113 17.2592 107.624 22.2492L108.189 27.7592L99.6675 37.3892C84.7181 54.2892 82.6051 63.5792 92.8227 67.4892C97.6934 69.3572 94.8762 69.8072 89.0432 68.0972C85.4522 67.0472 82.9622 65.6372 81.9405 64.0572C74.4013 52.4572 93.7453 16.8972 112.792 7.45721C120.827 3.47721 133.199 2.20798 141.076 4.51798C144.24 5.44198 142.552 6.42721 142.81 6.16721C143.068 5.90721 141.123 4.41721 138.484 2.85721C134.199 0.336212 132.711 0.0172119 125.192 0.0172119C117.9 0.0172119 115.986 0.397211 111.502 2.73721C103.764 6.73721 94.7968 14.0972 90.1741 20.1372L86.0771 25.4772L79.5101 25.481C72.944 25.481 72.9371 25.491 72.3181 28.611C71.2368 34.131 71.6435 37.431 74.183 43.511C75.552 46.781 76.663 50.651 76.663 52.131C76.663 53.621 74.5699 58.481 72.0205 62.931C69.471 67.431 65.9693 74.321 64.2333 78.331L61.0787 85.621L60.4656 66.321C59.801 45.321 58.2634 35.391 54.3252 26.721C51.121 19.681 49.5239 17.881 43.9092 15.021C32.7988 9.38001 20.8848 9.71001 12.8596 15.88C7.31429 20.18 4.54661 24.47 2.04677 32.78C0.204628 38.98 0.0320193 41.48 0.449651 56.38C0.866291 71.08 1.30277 74.48 4.08037 85.08C11.818 114.28 30.4676 151.58 47.9268 172.48ZM78.1729 76.98C64.0666 107.48 61.3287 136.78 70.1476 162.88L70.1575 162.95C71.9629 168.31 73.3299 172.7 73.193 172.7C72.6772 172.7 69.8996 167.92 66.8343 161.8C55.2477 138.7 57.7277 107.7 73.8973 72.5L77.8752 63.84L82.4186 67.82L78.1729 76.98ZM148.119 70.13L146.036 75.38L146.006 75.36C144.171 79.981 143.575 80.61 141.076 80.61C138.08 80.61 137.782 80.13 136.651 73.36C136.076 69.929 136.215 69.6051 138.298 69.6C142.425 69.59 147.93 67.58 150.996 64.98C152.652 63.582 154.001 62.689 154.001 63C154.001 64.3 148.891 77.182 148.079 78C147.587 78.5 147.409 76.99 147.666 74.5L148.119 70.13Z" fill="#A0A0AB"/>
<path d="M146.036 75.38L148.119 70.13L147.666 74.5C147.409 76.99 147.587 78.5 148.079 78C148.891 77.182 154.001 64.3 154.001 63C154.001 62.689 152.652 63.582 150.996 64.98C147.93 67.58 142.425 69.59 138.298 69.6C136.215 69.6051 136.076 69.929 136.651 73.36C137.782 80.13 138.08 80.61 141.076 80.61C143.575 80.61 144.171 79.981 146.006 75.36L146.036 75.38Z" fill="#A0A0AB"/>
<path d="M141.076 4.51798C133.199 2.20798 120.827 3.47721 112.792 7.45721C93.7453 16.8972 74.4013 52.4572 81.9405 64.0572C82.9622 65.6372 85.4522 67.0472 89.0432 68.0972C94.8762 69.8072 97.6934 69.3572 92.8227 67.4892C82.6051 63.5792 84.7181 54.2892 99.6675 37.3892L108.189 27.7592L107.624 22.2492C107.113 17.2592 107.27 16.6192 109.291 15.5292C112.069 14.0292 116.602 14.8762 119.905 17.5192C123.04 20.0092 132.801 20.2392 141.035 18.0282C144.031 17.2162 149.268 16.5482 152.641 16.5382C154.235 16.5351 155.423 16.5456 156.32 16.6115L141.076 4.51798Z" fill="#70707B"/>
<path d="M70.1476 162.88C61.3287 136.78 64.0666 107.48 78.1729 76.98L82.4186 67.82L77.8752 63.84L73.8973 72.5C57.7277 107.7 55.2477 138.7 66.8343 161.8C69.8996 167.92 72.6772 172.7 73.193 172.7C73.3299 172.7 71.9629 168.31 70.1575 162.95L70.1476 162.88Z" fill="#70707B"/>
<path fill-rule="evenodd" clip-rule="evenodd" d="M23.5236 131.58C42.6692 169.98 63.0052 191.94 85.226 198.08L85.4135 198.004C88.2903 198.795 95.7303 199.392 103.468 199.444C115.729 199.524 116.999 199.354 121.324 197.034C126.978 193.975 128.972 193.935 137.593 196.735C143.703 198.721 145.023 198.825 150.985 197.795C158.256 196.545 162.204 194.185 163.583 190.275C164.327 188.185 164.01 187.145 161.847 184.555C158.423 180.455 158.383 175.355 161.686 159.955C166.051 139.555 164.196 112.455 157.222 94.855C155.586 90.745 154.246 85.745 154.246 83.755C154.246 81.555 156.052 76.295 158.899 70.155C163.108 61.035 163.582 59.275 163.879 51.555L164.207 43.025L162.203 48.085C161.092 50.865 158.959 54.345 157.442 55.805L154.694 58.465L155.072 54.475C155.528 49.655 154.496 43.575 153.207 43.575C152.686 43.575 152.259 44.905 152.259 46.535C152.259 51.435 148.43 60.265 145.048 63.135C142.329 65.44 141.298 65.718 137.25 65.235C131.794 64.635 122.152 59.955 114.831 54.435C111.964 52.278 109.626 51.09 109.633 51.795C109.643 52.495 110.536 55.925 111.617 59.415C114.553 68.815 114.226 72.465 109.623 80.915C102.888 93.215 101.413 98.615 101.449 110.515C101.489 122.515 102.421 127.315 107.104 140.015C112.529 154.705 112.648 161.525 107.47 160.215C100.526 158.415 85.4174 144.835 80.1896 135.615L77.1342 130.235L75.7752 134.115C73.5035 140.615 74.1582 159.315 77.035 170.215C78.3655 175.265 78.9903 179.112 78.4238 178.765C74.4558 176.365 66.4305 162.705 63.2462 153.065C60.8704 145.865 60.596 143.565 60.5777 130.565C60.5678 118.065 60.9349 114.585 63.2958 105.065C65.875 94.665 72.7595 75.785 77.0846 67.165L79.019 63.305L80.9633 65.415C83.7112 68.395 84.1377 68.035 82.243 64.335C77.283 54.835 87.4014 30.635 102.281 16.435C114.285 4.885 126.685 1.555 140.771 6.035C141.862 6.385 140.751 5.535 138.291 4.155C134.64 2.103 132.428 1.6319 126.288 1.595C119.86 1.555 117.905 1.985 112.896 4.525C105.059 8.525 96.4485 15.465 91.8654 21.525L88.1355 26.465L81.5486 26.522C74.0074 26.592 73.7463 26.872 73.7614 34.912C73.7614 38.232 74.6046 41.932 76.0728 45.112C78.8246 51.112 78.5468 56.372 75.2038 61.712C71.6326 67.312 64.6787 81.632 62.8038 87.112L61.0976 92.112L60.5946 68.612C60.178 49.112 59.7514 43.782 58.0452 37.412C54.3748 23.832 51.2301 19.372 42.4708 15.512C34.9316 12.17 25.7655 11.8 19.3572 14.58C7.92932 19.58 2.49912 30.28 1.60036 49.68C0.509164 73.38 7.35396 99.18 23.5236 131.58ZM147.067 77.83C146.422 78.93 145.204 80.392 144.349 81.08L144.383 81.057C140.752 83.977 138.161 81.437 137.479 74.277L137.005 69.307H140.537C145.17 69.307 149.009 67.767 152.342 64.567C153.83 63.13 155.286 62.185 155.566 62.467C156.171 63.067 152.986 72.697 150.695 77.167C148.83 80.82 146.707 81.44 147.62 78.08C148.198 75.94 148.168 75.93 147.067 77.83ZM137.227 21.18C130.283 24.58 132.663 31.23 142.683 35.98H142.693C145.421 37.28 148.379 38.345 149.26 38.35C153.922 38.45 160.072 29.33 160.072 22.45C160.072 18.91 159.745 18.353 157.364 17.75C153.892 16.87 141.76 18.95 137.227 21.18Z" fill="#70707B"/>
<path d="M108.855 30.11C110.026 28.29 110.095 27.07 109.19 23.69C107.116 15.94 111.888 14.22 121.689 19.19L127.254 22.02L122.016 23.68C119.139 24.595 114.953 26.92 112.721 28.85C108.019 32.91 106.829 33.3 108.882 30.11H108.855Z" fill="#70707B"/>
</g>
<defs>
<clipPath id="clip0_749_169">
<rect width="164" height="199" fill="white"/>
</clipPath>
</defs>
</svg>
