<svg width="75" height="29" viewBox="0 0 75 29" fill="none" xmlns="http://www.w3.org/2000/svg">
<g clip-path="url(#clip0_749_188)">
<path d="M5.68987 8.84533C5.5437 8.84533 5.50716 8.77244 5.58024 8.66311L6.34763 7.67911C6.42071 7.56978 6.60343 7.49689 6.74959 7.49689H19.7952C19.9413 7.49689 19.9779 7.60622 19.9048 7.71555L19.2836 8.66311C19.2105 8.77244 19.0278 8.88177 18.9182 8.88177L5.68987 8.84533Z" fill="#70707B"/>
<path d="M0.172048 12.1982C0.0258792 12.1982 -0.0106634 12.1253 0.062421 12.016L0.829808 11.032C0.902893 10.9226 1.0856 10.8497 1.23177 10.8497H17.895C18.0412 10.8497 18.1143 10.9591 18.0777 11.0684L17.7854 11.9431C17.7489 12.0888 17.6027 12.1617 17.4565 12.1617L0.172048 12.1982Z" fill="#70707B"/>
<path d="M9.01531 15.5511C8.86914 15.5511 8.8326 15.4417 8.90568 15.3324L9.41727 14.4213C9.49036 14.312 9.63653 14.2026 9.7827 14.2026H17.0911C17.2373 14.2026 17.3104 14.312 17.3104 14.4577L17.2373 15.3324C17.2373 15.4782 17.0911 15.5875 16.9815 15.5875L9.01531 15.5511Z" fill="#70707B"/>
<path d="M46.9462 8.18931C44.644 8.77242 43.0727 9.20975 40.8071 9.79286C40.2589 9.93864 40.2224 9.97508 39.7473 9.42842C39.1992 8.80886 38.7972 8.40798 38.0299 8.04353C35.7277 6.91375 33.4986 7.24175 31.4157 8.5902C28.9308 10.1938 27.6519 12.5626 27.6884 15.5146C27.7249 18.4302 29.7348 20.8355 32.6216 21.2364C35.1065 21.5644 37.1894 20.6898 38.8338 18.8311C39.1627 18.4302 39.455 17.9929 39.8204 17.4826C38.5049 17.4826 36.8605 17.4826 32.7678 17.4826C32.0004 17.4826 31.8177 17.0089 32.0735 16.3893C32.5485 15.2595 33.4255 13.3644 33.9371 12.4169C34.0467 12.1982 34.3025 11.8338 34.8507 11.8338C36.7143 11.8338 43.5843 11.8338 48.1521 11.8338C48.079 12.8178 48.079 13.8018 47.9328 14.7858C47.5308 17.4098 46.5442 19.8151 44.9363 21.9289C42.3053 25.3911 38.8703 27.5413 34.5218 28.1244C30.9407 28.5982 27.6153 27.9058 24.6919 25.7191C21.9878 23.6782 20.453 20.9813 20.0511 17.6284C19.576 13.656 20.7454 10.0844 23.1572 6.9502C25.7517 3.56086 29.1866 1.41064 33.389 0.645307C36.824 0.0257512 40.1128 0.426641 43.0727 2.43109C45.0094 3.70664 46.398 5.45597 47.3116 7.56975C47.5308 7.89775 47.3847 8.07998 46.9462 8.18931Z" fill="#70707B"/>
<path d="M59.0417 28.3431C55.7163 28.2702 52.6833 27.3226 50.1253 25.136C47.9694 23.2773 46.6173 20.9084 46.1788 18.1022C45.521 13.984 46.6538 10.3395 49.1387 7.09597C51.8063 3.5973 55.022 1.77508 59.3705 1.00975C63.0978 0.353745 66.6059 0.718189 69.7851 2.86841C72.6719 4.83641 74.4625 7.49686 74.9375 10.9955C75.5587 15.9155 74.1336 19.9244 70.7352 23.3502C68.3234 25.792 65.3635 27.3226 61.965 28.0151C60.9784 28.1973 59.9917 28.2337 59.0417 28.3431ZM67.7387 13.6195C67.7022 13.1457 67.7022 12.7813 67.6291 12.4169C66.9713 8.80886 63.646 6.76797 60.1745 7.56975C56.776 8.33508 54.5835 10.4853 53.7796 13.9111C53.1218 16.7537 54.5104 19.6329 57.1415 20.7991C59.1513 21.6737 61.1611 21.5644 63.0978 20.5804C65.9847 19.0862 67.556 16.7537 67.7387 13.6195Z" fill="#70707B"/>
</g>
<defs>
<clipPath id="clip0_749_188">
<rect width="75" height="29" fill="white"/>
</clipPath>
</defs>
</svg>
