<svg width="105" height="113" viewBox="0 0 105 113" fill="none" xmlns="http://www.w3.org/2000/svg">
<path d="M103.9 49.9C103.7 48 103.4 45.8 102.8 43.4C102.2 41 101.2 38.4 99.9 35.6C98.5 32.9 96.8 30 94.5 27.3C93.6 26.2 92.6 25.2 91.6 24.1C93.2 17.8 89.7 12.3 89.7 12.3C83.6 11.9 79.8 14.2 78.4 15.2C78.2 15.1 77.9 15 77.7 14.9C76.7 14.5 75.6 14.1 74.5 13.7C73.4 13.4 72.3 13 71.2 12.8C70.1 12.5 68.9 12.3 67.7 12.1C67.5 12.1 67.3 12 67.1 12C64.5 3.6 56.9 0 56.9 0C48.2 5.6 46.5 13.1 46.5 13.1C46.5 13.1 46.5 13.3 46.4 13.5C45.9 13.6 45.5 13.8 45 13.9C44.4 14.1 43.7 14.3 43.1 14.6C42.5 14.9 41.8 15.1 41.2 15.4C39.9 16 38.7 16.6 37.4 17.3C36.2 18 35 18.7 33.9 19.5C33.7 19.4 33.6 19.3 33.6 19.3C21.9 14.8 11.5 20.2 11.5 20.2C10.6 32.7 16.2 40.5 17.3 41.9C17 42.7 16.8 43.4 16.5 44.2C15.6 47 15 49.9 14.6 52.9C14.5 53.3 14.5 53.8 14.4 54.2C3.6 59.5 0.399994 70.5 0.399994 70.5C9.39999 80.9 20 81.5 20 81.5C21.3 83.9 22.9 86.2 24.6 88.3C25.3 89.2 26.1 90 26.9 90.9C23.6 100.3 27.4 108.2 27.4 108.2C37.5 108.6 44.1 103.8 45.5 102.7C46.5 103 47.5 103.3 48.5 103.6C51.6 104.4 54.8 104.9 57.9 105C58.7 105 59.5 105 60.3 105H60.7H61H61.5H62C66.7 111.8 75.1 112.7 75.1 112.7C81 106.4 81.4 100.3 81.4 98.9C81.4 98.9 81.4 98.9 81.4 98.8C81.4 98.7 81.4 98.6 81.4 98.6C81.4 98.5 81.4 98.4 81.4 98.3C82.6 97.4 83.8 96.5 85 95.5C87.4 93.4 89.4 90.9 91.2 88.3C91.4 88.1 91.5 87.8 91.7 87.6C98.4 88 103.1 83.4 103.1 83.4C102 76.4 98 73 97.2 72.4C97.2 72.4 97.2 72.4 97.1 72.3L97 72.2L96.9 72.1C96.9 71.7 97 71.3 97 70.8C97.1 70 97.1 69.3 97.1 68.5V67.9V67.6V67.5C97.1 67.3 97.1 67.4 97.1 67.3V66.8V66.2C97.1 66 97.1 65.8 97.1 65.6C97.1 65.4 97.1 65.2 97 65L96.9 64.4L96.8 63.8C96.7 63 96.5 62.3 96.4 61.5C95.7 58.5 94.5 55.6 93 53.1C91.4 50.5 89.5 48.3 87.3 46.3C85.1 44.4 82.7 42.8 80.1 41.7C77.5 40.5 74.9 39.8 72.2 39.5C70.9 39.3 69.5 39.3 68.2 39.3H67.7H67.6H67.4H67.2H66.7C66.5 39.3 66.3 39.3 66.2 39.3C65.5 39.4 64.8 39.5 64.2 39.6C61.5 40.1 59 41.1 56.8 42.4C54.6 43.7 52.7 45.4 51.1 47.3C49.5 49.2 48.3 51.2 47.5 53.4C46.7 55.5 46.2 57.8 46.1 59.9C46.1 60.4 46.1 61 46.1 61.5C46.1 61.6 46.1 61.8 46.1 61.9V62.3C46.1 62.6 46.1 62.8 46.2 63.1C46.3 64.2 46.5 65.2 46.8 66.2C47.4 68.2 48.3 70 49.5 71.6C50.7 73.2 52 74.4 53.5 75.4C55 76.4 56.5 77.1 58.1 77.6C59.7 78.1 61.2 78.3 62.6 78.2C62.8 78.2 63 78.2 63.1 78.2C63.2 78.2 63.3 78.2 63.4 78.2C63.5 78.2 63.6 78.2 63.7 78.2C63.9 78.2 64 78.2 64.2 78.2H64.3H64.4C64.5 78.2 64.6 78.2 64.7 78.2C64.9 78.2 65.1 78.1 65.2 78.1C65.4 78.1 65.5 78 65.7 78C66 77.9 66.4 77.8 66.7 77.7C67.3 77.5 67.9 77.2 68.5 77C69.1 76.7 69.6 76.4 70 76.1C70.1 76 70.3 75.9 70.4 75.8C70.9 75.4 71 74.7 70.6 74.2C70.2 73.8 69.6 73.7 69.1 73.9C69 74 68.9 74 68.7 74.1C68.3 74.3 67.8 74.5 67.4 74.6C66.9 74.7 66.4 74.9 65.9 75C65.6 75 65.4 75.1 65.1 75.1C65 75.1 64.8 75.1 64.7 75.1C64.6 75.1 64.4 75.1 64.3 75.1C64.2 75.1 64 75.1 63.9 75.1C63.7 75.1 63.6 75.1 63.4 75.1H63.3H63.2C63.1 75.1 63.1 75.1 63 75.1C62.9 75.1 62.7 75.1 62.6 75C61.5 74.8 60.3 74.5 59.2 74C58.1 73.5 57 72.8 56.1 71.9C55.1 71 54.3 70 53.6 68.8C52.9 67.6 52.5 66.3 52.3 65C52.2 64.3 52.1 63.6 52.2 62.9C52.2 62.7 52.2 62.5 52.2 62.3V62.2V62.1C52.2 62 52.2 61.9 52.2 61.8C52.2 61.4 52.3 61.1 52.4 60.7C52.9 57.7 54.4 54.8 56.7 52.6C57.3 52 57.9 51.5 58.6 51.1C59.3 50.6 60 50.2 60.7 49.9C61.4 49.6 62.2 49.3 63 49.1C63.8 48.9 64.6 48.7 65.4 48.7C65.8 48.7 66.2 48.6 66.6 48.6C66.7 48.6 66.8 48.6 66.9 48.6H67.2H67.4H67.5H67.8C68.7 48.7 69.6 48.8 70.4 49C72.1 49.4 73.8 50 75.4 50.9C78.6 52.7 81.3 55.4 82.9 58.7C83.7 60.3 84.3 62.1 84.6 64C84.7 64.5 84.7 64.9 84.8 65.4V65.7V66C84.8 66.1 84.8 66.2 84.8 66.3C84.8 66.4 84.8 66.5 84.8 66.6V66.9V67.2C84.8 67.4 84.8 67.8 84.8 68C84.8 68.5 84.7 69 84.7 69.5C84.6 70 84.6 70.5 84.5 71C84.4 71.5 84.3 72 84.2 72.5C84 73.5 83.6 74.4 83.3 75.4C82.6 77.3 81.6 79.1 80.4 80.7C78 84 74.7 86.7 71 88.4C69.1 89.2 67.2 89.9 65.2 90.2C64.2 90.4 63.2 90.5 62.2 90.5H62H61.8H61.5H61H60.7H60.6C60.1 90.5 59.5 90.5 59 90.4C56.8 90.2 54.7 89.8 52.6 89.2C50.5 88.6 48.5 87.8 46.6 86.8C42.8 84.8 39.4 81.9 36.7 78.6C35.4 76.9 34.2 75.1 33.2 73.2C32.2 71.3 31.5 69.3 30.9 67.3C30.3 65.3 30 63.2 29.9 61.1V60.7V60.6V60.5V60.3V60V59.9V59.8V59.6V59.1V59V58.8C29.9 58.5 29.9 58.3 29.9 58C29.9 57 30 55.9 30.2 54.8C30.3 53.7 30.5 52.7 30.7 51.6C30.9 50.5 31.2 49.5 31.5 48.4C32.1 46.3 32.8 44.3 33.7 42.4C35.5 38.6 37.8 35.2 40.5 32.5C41.2 31.8 41.9 31.2 42.7 30.6C43 30.3 43.7 29.7 44.5 29.2C45.3 28.7 46.1 28.2 47 27.8C47.4 27.6 47.8 27.4 48.3 27.2C48.5 27.1 48.7 27 49 26.9C49.2 26.8 49.4 26.7 49.7 26.6C50.6 26.2 51.5 25.9 52.4 25.6C52.6 25.5 52.9 25.5 53.1 25.4C53.3 25.3 53.6 25.3 53.8 25.2C54.3 25.1 54.7 25 55.2 24.8C55.4 24.7 55.7 24.7 55.9 24.6C56.1 24.6 56.4 24.5 56.6 24.5C56.8 24.5 57.1 24.4 57.3 24.4L57.7 24.3L58.1 24.2C58.3 24.2 58.6 24.1 58.8 24.1C59.1 24.1 59.3 24 59.6 24C59.8 24 60.2 23.9 60.4 23.9C60.6 23.9 60.7 23.9 60.9 23.8H61.2H61.4H61.6C61.9 23.8 62.1 23.8 62.4 23.7H62.8H62.9H63.1C63.3 23.7 63.6 23.7 63.8 23.7C64.7 23.7 65.6 23.7 66.5 23.7C68.3 23.8 70.1 24 71.8 24.3C75.2 24.9 78.5 26 81.4 27.5C84.3 28.9 87 30.7 89.2 32.6C89.3 32.7 89.5 32.8 89.6 33C89.7 33.1 89.9 33.2 90 33.4C90.3 33.6 90.5 33.9 90.8 34.1C91.1 34.3 91.3 34.6 91.6 34.8C91.8 35.1 92.1 35.3 92.3 35.6C93.3 36.6 94.2 37.7 95 38.7C96.6 40.8 97.9 42.9 98.9 44.9C99 45 99 45.1 99.1 45.3C99.2 45.4 99.2 45.5 99.3 45.7C99.4 45.9 99.5 46.2 99.7 46.4C99.8 46.6 99.9 46.9 100 47.1C100.1 47.3 100.2 47.6 100.3 47.8C100.7 48.7 101 49.6 101.3 50.5C101.8 51.9 102.1 53.1 102.4 54.1C102.5 54.5 102.9 54.8 103.3 54.8C103.8 54.8 104.1 54.4 104.1 53.9C104 52.7 104 51.4 103.9 49.9Z" fill="#70707B"/>
</svg>
