<svg width="112" height="127" viewBox="0 0 112 127" fill="none" xmlns="http://www.w3.org/2000/svg">
<g clip-path="url(#clip0_752_508)">
<path d="M32.9308 100.53C29.9708 88.2056 27.0449 75.8728 24.1533 63.5317C25.3337 49.7285 18.5859 37.457 17.1706 24.24C28.4979 26.7337 33.3002 35.8784 40.9782 41.986C52.3524 51.0048 61.3794 62.0958 73.6207 70.3849L72.0978 73.9909L34.7177 100.194C34.1322 100.357 33.5336 100.469 32.9308 100.53Z" fill="#A0A0AB"/>
<path d="M-0.210022 32.8501C-0.210022 32.2367 -0.210022 31.6234 -0.210022 31.0101C10.16 27.9301 19.68 22.8101 29.44 18.3101C32.53 16.8801 36.79 17.0001 38.44 13.0401C44.38 13.2901 50.44 12.0401 56.27 13.8201C56.3166 27.8201 56.3633 41.8534 56.41 55.9201H55.49C44.1 51.0501 32.79 45.9901 21.3 41.3801C14.17 38.5501 7.63998 34.0301 -0.210022 32.8501Z" fill="#A0A0AB"/>
<path d="M-0.210022 32.8501C7.62998 34.0201 14.16 38.5301 21.33 41.4101C32.82 46.0201 44.13 51.0801 55.52 55.9501C54.61 60.2201 50.38 61.2401 47.72 63.7501C41.65 69.4901 34.39 73.8601 28.6 79.9501C28.4425 80.0218 28.2728 80.0625 28.1 80.0701C17.3 65.1601 5.90998 50.6001 -0.210022 32.8501Z" fill="#70707B"/>
<path d="M92.54 54.0101C92.54 61.4901 92.4 69.0101 92.63 76.4501C92.7789 77.9356 92.4876 79.432 91.7924 80.7531C91.0971 82.0743 90.0287 83.1617 88.72 83.8801C84.81 86.2901 82.02 90.2501 77.6 91.9701C72.88 85.9701 69.94 78.8101 65.71 72.5101C62.83 68.2301 61.64 62.7101 56.71 59.9101C56.71 58.9635 56.4667 58.9467 56.5 58L58.67 56.0701C59.53 57.1301 60.74 56.9901 61.86 56.8901C72.0667 55.9568 82.2933 54.9968 92.54 54.0101Z" fill="#70707B"/>
<path d="M31.22 99.1401C28.4 93.0801 29.22 86.4201 28.11 80.0801C28.2828 80.0725 28.4525 80.0317 28.61 79.9601C37.61 80.3401 46.61 80.5701 55.55 81.9601C55.55 88.9601 55.5333 95.9601 55.5 102.96C53.6955 102.89 51.8979 102.696 50.12 102.38C43.8 101.4 37.7 99.1601 31.22 99.1401Z" fill="#70707B"/>
<path d="M55.49 102.95C55.49 95.9501 55.5066 88.9501 55.54 81.9501C57.61 74.6901 55.86 67.2301 56.67 59.9501C61.61 62.7501 63.14 67.73 66 72C70.24 78.31 72.84 85.9801 77.56 92.0101L76.46 93.7501L56.35 103C56.0624 103.012 55.7743 102.995 55.49 102.95Z" fill="#A0A0AB"/>
<path d="M88.59 13.02L106.59 13.24C106.85 17.66 109.38 21.32 110.7 25.38C111.39 27.5 113.09 29.5 111.51 31.9C111.117 31.8684 110.723 31.9448 110.37 32.1211C110.018 32.2973 109.72 32.5667 109.51 32.9C105.76 33.6 102.51 35.59 99.12 37.11C95.73 38.63 92.72 41.17 88.71 41.06C88.71 31.78 88.6933 22.5034 88.66 13.23L88.59 13.02Z" fill="#70707B"/>
<path d="M88.73 41.07C92.73 41.18 95.73 38.63 99.14 37.12C102.55 35.61 105.78 33.61 109.53 32.91C107.28 39.46 101.29 43.1 97.48 48.45C95.921 50.3943 94.2516 52.2473 92.48 54C82.2466 54.9667 72.0133 55.93 61.78 56.89C60.66 56.99 59.45 57.13 58.59 56.07C65.66 52.8 72.78 49.64 79.77 46.21C82.87 44.71 86.46 44 88.73 41.07Z" fill="#A0A0AB"/>
<path d="M55.49 102.95C55.7859 102.981 56.0841 102.981 56.38 102.95C56.54 110.603 56.6966 118.27 56.85 125.95C56.13 126.95 55.44 126.5 54.85 125.85C46.9633 116.963 39.0866 108.07 31.22 99.17C37.69 99.17 44 101 50.11 102.41C51.8889 102.713 53.6864 102.893 55.49 102.95Z" fill="#A0A0AB"/>
<path d="M38.48 13.0601C36.79 17.0601 32.53 16.9001 29.48 18.3301C19.72 22.8301 10.2 27.9501 -0.170044 31.0301L8.29999 13.1401L9.53998 12.9801L38.48 13.0601Z" fill="#70707B"/>
<path d="M56.84 125.92C56.6866 118.267 56.53 110.6 56.37 102.92L76.48 93.67C72.91 101.67 68 108.9 63.48 116.34C61.54 119.67 60.44 123.71 56.84 125.92Z" fill="#70707B"/>
<path d="M109.54 32.9301C109.75 32.5968 110.048 32.3274 110.401 32.1511C110.753 31.9749 111.147 31.8984 111.54 31.9301C111.344 32.277 111.049 32.5575 110.693 32.7357C110.336 32.9139 109.935 32.9815 109.54 32.9301Z" fill="#266FA8"/>
<path d="M15.36 5.85008C20.36 2.56008 25.53 -0.149917 31.75 -0.0999173C49.5 -0.0999173 67.25 0.190082 84.98 -0.229918C88.0203 -0.411207 91.0648 0.0468833 93.9172 1.11479C96.7695 2.18269 99.3663 3.8367 101.54 5.97008C101.54 6.27675 101.54 6.58342 101.54 6.89008L88.54 6.96008H21.64C19.48 6.96008 17.3 7.09008 15.36 5.85008Z" fill="#70707B"/>
<path d="M15.36 5.8501C17.3 7.0901 19.48 6.9501 21.64 6.9501H88.54V13.0201L88.62 13.2401L56.31 13.8501C50.43 12.0801 44.42 13.3201 38.48 13.0701L9.47998 13.0001C10.69 9.9801 10.76 6.0501 15.36 5.8501Z" fill="#70707B"/>
<path d="M15.36 5.8501C17.3 7.0901 19.48 6.9501 21.64 6.9501H88.54V13.0201L88.62 13.2401L56.31 13.8501C50.43 12.0801 44.42 13.3201 38.48 13.0701L9.47998 13.0001C10.69 9.9801 10.76 6.0501 15.36 5.8501Z" fill="#70707B"/>
<path d="M101.54 6.85005C101.54 6.54339 101.54 6.23672 101.54 5.93005L101.95 6.61005L101.54 6.85005Z" fill="#E9F6FD"/>
<path d="M56 13.6056L89.9476 13C89.9476 22.5255 89.965 32.0477 90 41.5664C87.6194 44.5739 83.8649 45.3027 80.6453 46.8526C73.3041 50.3734 65.8476 53.617 58.4331 56.9735L56.43 58L56.1468 56.8401L56 13.6056Z" fill="#70707B"/>
<path d="M100.245 6C98.676 7.24 96.7468 6.5 95 6.5L41.0647 7.1L41 12L67 14C72 14.5 76.6964 13.75 81.5 13.5H105.5C104.521 10.48 103.965 6.2 100.245 6Z" fill="#70707B"/>
</g>
<defs>
<clipPath id="clip0_752_508">
<rect width="112" height="127" fill="white"/>
</clipPath>
</defs>
</svg>
