<svg width="137" height="187" viewBox="0 0 137 187" fill="none" xmlns="http://www.w3.org/2000/svg">
<g clip-path="url(#clip0_749_209)">
<path d="M64.4968 99.8615C64.4968 99.8615 54.1325 79.9388 54.5217 65.3456C54.8009 54.9559 78.2925 44.6461 87.5293 29.7038C96.7655 14.7219 86.4018 0.168976 86.4018 0.168976C86.4018 0.168976 88.6959 10.9072 82.5415 22.0335C76.4267 33.1208 53.7438 39.6652 44.9053 58.8409C36.0974 78.0263 64.4968 99.8615 64.4968 99.8615Z" fill="#70707B"/>
<path d="M103.309 39.2764C103.309 39.2764 67.9679 52.6944 67.9679 68.0248C67.9679 83.3955 77.5537 88.3758 79.1102 93.3562C80.636 98.3371 76.4268 106.784 76.4268 106.784C76.4268 106.784 90.2519 97.1715 87.918 86.0848C85.6239 74.9579 74.8606 71.491 81.0247 60.3647C85.1546 52.9335 103.309 39.2764 103.309 39.2764Z" fill="#70707B"/>
<path d="M60.6859 120.133C93.3342 118.968 105.214 108.687 105.214 108.687C84.0974 114.445 28.0273 114.056 27.6386 109.853C27.2493 105.619 44.9053 102.152 44.9053 102.152C44.9053 102.152 17.2742 102.152 14.9801 109.075C12.6763 115.969 28.0273 121.298 60.6859 120.133Z" fill="#70707B"/>
<path d="M107.908 136.32C107.908 136.32 139.858 129.506 136.706 112.154C132.885 91.0658 110.591 102.97 110.591 102.97C110.591 102.97 126.342 102.97 127.858 112.542C129.414 122.115 107.908 136.32 107.908 136.32Z" fill="#70707B"/>
<path d="M92.1669 127.096C92.1669 127.096 84.0973 129.237 72.1771 130.562C56.1974 132.345 36.8357 130.951 35.3195 128.261C33.793 125.582 38.0023 124.018 38.0023 124.018C18.7904 128.649 29.3142 136.669 51.798 138.223C71.1194 139.548 99.8376 132.465 99.8376 132.465L92.1669 127.096Z" fill="#70707B"/>
<path d="M42.6412 143.871C42.6412 143.871 33.9134 144.099 33.4043 148.692C32.8953 153.284 38.7809 157.408 60.2869 158.653C81.8032 159.938 96.8756 152.816 96.8756 152.816L87.1797 146.899C87.1797 146.899 81.0246 148.184 71.5483 149.469C62.0817 150.754 42.6406 148.453 41.8626 146.669C41.0852 144.876 42.6412 143.871 42.6412 143.871Z" fill="#70707B"/>
<path d="M56.7058 176.593C102.761 176.554 123.03 168.146 126.342 164.57C129.653 160.984 125.284 158.185 125.284 158.185C125.284 158.185 126.84 159.978 124.815 162C122.75 164.062 104.047 169.163 74.082 170.676C44.1568 172.23 11.6282 167.877 10.6102 164.062C9.59334 160.207 27.2487 157.139 27.2487 157.139C25.2235 157.408 0.6351 157.916 -0.142858 164.57C-0.919613 171.224 10.6108 176.593 56.7058 176.593Z" fill="#70707B"/>
<path d="M108.417 179.661C88.1875 183.715 26.7415 181.145 26.7415 181.145C26.7415 181.145 66.6814 190.639 112.267 182.699C134.053 178.884 135.3 168.375 135.3 168.375C135.3 168.375 128.636 175.538 108.417 179.661Z" fill="#70707B"/>
</g>
<defs>
<clipPath id="clip0_749_209">
<rect width="137" height="187" fill="white"/>
</clipPath>
</defs>
</svg>
