<svg width="21" height="33" viewBox="0 0 21 33" fill="none" xmlns="http://www.w3.org/2000/svg">
<path d="M11.1015 18.4291C11.7393 18.794 12.3688 19.1515 12.9953 19.5141C13.0803 19.5633 13.1103 19.506 13.1517 19.4627C13.5676 19.0274 14.0557 18.6927 14.6198 18.4658C17.073 17.4778 19.8294 18.9041 20.3972 21.4528C20.8816 23.6264 19.6098 25.7897 17.4664 26.4394C15.3974 27.0663 13.1171 25.9945 12.3026 24.0096C11.9213 23.081 11.8642 22.1355 12.1522 21.1724C12.162 21.1408 12.1695 21.1085 12.1808 21.0674C11.525 20.6916 10.8722 20.3172 10.2118 19.9384C10.1201 20.0368 10.0328 20.1329 9.9426 20.2269C9.13261 21.0696 8.14965 21.6099 6.98543 21.8301C6.91248 21.8441 6.85683 21.8499 6.85758 21.9468C6.86209 22.6582 6.86059 23.3702 6.86209 24.0815C6.86209 24.0903 6.86736 24.0999 6.87413 24.119C6.92527 24.1322 6.98167 24.1461 7.03733 24.1623C8.77011 24.6695 9.82527 25.7949 10.1682 27.5192C10.542 29.3999 9.5282 31.2931 7.75857 32.1123C6.19274 32.8369 4.30503 32.5271 3.04831 31.3394C0.920687 29.328 1.40954 25.8485 4.01623 24.511C4.31782 24.3561 4.654 24.2621 4.97814 24.152C5.06388 24.1226 5.09471 24.0925 5.09396 24.0052C5.09095 23.3269 5.09095 22.6493 5.09396 21.9711C5.09396 21.8866 5.07441 21.8499 4.97814 21.8286C2.63166 21.3067 1.16135 19.8833 0.643171 17.6114C0.221256 15.7615 0.741693 14.1032 2.07437 12.7173C2.86405 11.8958 3.84025 11.3768 4.9804 11.1669C5.06538 11.1515 5.09396 11.1192 5.09321 11.0355C5.0902 10.3528 5.0902 9.6701 5.09321 8.98741C5.09321 8.89932 5.0541 8.87583 4.97814 8.85454C3.14984 8.33555 2.05256 7.15222 1.76226 5.3273C1.41255 3.12506 2.90241 1.03955 5.13307 0.585886C7.29078 0.147641 9.42818 1.42641 10.0599 3.51266C10.7669 5.84556 9.37779 8.24452 6.96738 8.85675C6.93429 8.86482 6.9027 8.87803 6.85908 8.89272C6.85908 9.13643 6.85908 9.38088 6.85908 9.62606C6.85908 10.0922 6.86134 10.5591 6.85683 11.0252C6.85607 11.1155 6.88541 11.1493 6.97641 11.1662C8.23764 11.404 9.27551 12.0162 10.1126 12.9602C10.1411 12.9925 10.1712 13.0241 10.2103 13.066C10.8677 12.6886 11.5235 12.3121 12.1845 11.9318C12.0281 11.4473 11.9529 10.9599 11.9755 10.4614C12.0725 8.26875 13.7308 6.69635 15.6253 6.42768C17.8943 6.10542 20.0257 7.61395 20.4273 9.82426C20.7702 11.7123 19.882 13.5681 18.141 14.4034C16.615 15.1353 15.1139 14.9966 13.718 14.0247C13.5112 13.8808 13.3307 13.698 13.1457 13.5262C13.0855 13.4697 13.0457 13.4565 12.9712 13.4998C12.3786 13.8433 11.7844 14.184 11.1888 14.5231C11.1256 14.5591 11.0933 14.5914 11.1211 14.6699C11.5588 15.9002 11.5483 17.1298 11.1143 18.3587C11.1083 18.3763 11.1076 18.3961 11.1015 18.4277V18.4291ZM3.11299 16.4919C3.10697 18.0672 4.39152 19.3504 5.97314 19.3511C7.55551 19.3511 8.83404 18.0878 8.84156 16.5154C8.84908 14.9386 7.57356 13.6562 5.99044 13.6473C4.41183 13.6385 3.11825 14.9173 3.11299 16.4919ZM18.22 22.4012C18.2215 21.2957 17.3445 20.417 16.2405 20.4177C15.141 20.4177 14.2527 21.2964 14.2527 22.3829C14.2527 23.4642 15.1379 24.3487 16.2224 24.3509C17.334 24.3531 18.2192 23.4891 18.2207 22.402L18.22 22.4012ZM7.95712 4.74297C7.96088 3.65066 7.0832 2.77197 5.98517 2.76757C4.89165 2.7639 3.99743 3.64332 3.99292 4.72902C3.98841 5.81546 4.87285 6.69709 5.97088 6.69929C7.08095 6.70149 7.95335 5.84262 7.95712 4.74297ZM7.95712 28.2614C7.95486 27.1632 7.08019 26.297 5.97539 26.2977C4.87811 26.2984 3.99217 27.1779 3.99292 28.2665C3.99292 29.3485 4.89165 30.2368 5.98141 30.2338C7.08019 30.2309 7.96012 29.3522 7.95712 28.2606V28.2614ZM18.2184 10.6134C18.2184 9.5299 17.3385 8.65487 16.245 8.6512C15.1477 8.64753 14.2558 9.52623 14.2527 10.6141C14.2497 11.6976 15.1394 12.5793 16.2397 12.5837C17.337 12.5881 18.2177 11.7108 18.2184 10.6141V10.6134Z" fill="#70707B"/>
</svg>
