<svg width="31" height="12" viewBox="0 0 31 12" fill="none" xmlns="http://www.w3.org/2000/svg">
<path d="M30.15 5.20038C29.8349 5.34658 29.5019 5.26358 29.1765 5.27301C28.8935 5.28244 28.9115 5.06832 28.9115 4.87778C28.9115 4.04959 28.9171 3.22045 28.9067 2.39226C28.9039 2.14418 28.8747 1.89232 28.8266 1.64896C28.7803 1.41691 28.6332 1.26033 28.3738 1.24712C28.1219 1.23486 27.9531 1.35749 27.8569 1.57727C27.7305 1.8678 27.6861 2.17436 27.6871 2.4913C27.6899 3.25724 27.6748 4.02317 27.6937 4.78911C27.7022 5.14661 27.5937 5.323 27.2126 5.28055C27.0579 5.26358 26.8994 5.27301 26.7429 5.27773C26.5023 5.28527 26.4023 5.16265 26.4023 4.93437C26.4023 3.44966 26.4023 1.96401 26.4023 0.4793C26.4023 0.275553 26.492 0.151984 26.7089 0.150098C26.8966 0.148211 27.0853 0.150098 27.273 0.148212C27.7559 0.145382 27.5512 0.53684 27.6277 0.767941C27.7522 0.769828 27.772 0.662295 27.8182 0.589663C28.1182 0.1218 28.5681 -0.00837169 29.0831 0.063317C29.5849 0.132176 29.8792 0.462321 30.0434 0.922638C30.0726 1.00565 30.0396 1.11601 30.15 1.16412V5.19943V5.20038Z" fill="#70707B"/>
<path d="M6.89686 0.670855C7.82127 -0.213934 8.42119 -0.170544 9.27296 0.826495C9.43709 0.666139 9.51821 0.436924 9.72007 0.309582C10.1455 0.0416927 10.5945 -0.0384854 11.0614 0.161488C11.5434 0.368065 11.7773 0.773672 11.7849 1.27738C11.8038 2.49609 11.7906 3.71574 11.799 4.93539C11.8009 5.19951 11.6887 5.30987 11.4331 5.29195C11.417 5.291 11.4019 5.29195 11.3859 5.29195C10.5577 5.3259 10.5615 5.3259 10.5558 4.5128C10.5502 3.63839 10.5388 2.76303 10.5247 1.88862C10.519 1.56885 10.4388 1.27832 10.0483 1.25851C9.63895 1.23776 9.45784 1.49244 9.40974 1.86221C9.289 2.79605 9.38144 3.73555 9.34371 4.67127C9.33522 4.86936 9.4786 5.16838 9.18713 5.24195C8.8749 5.32119 8.53061 5.33628 8.2165 5.2212C8.0618 5.1646 8.11274 4.97595 8.11179 4.84106C8.10802 3.98174 8.11368 3.12148 8.10708 2.26216C8.10519 2.06124 8.08067 1.85749 8.04199 1.6594C7.99483 1.41887 7.83825 1.27927 7.58639 1.2604C7.31945 1.23965 7.13173 1.35944 7.02514 1.59904C6.90818 1.86221 6.90535 2.14613 6.90441 2.42817C6.90158 3.22524 6.88931 4.02325 6.91006 4.81937C6.9195 5.16366 6.81385 5.3193 6.45824 5.28063C6.31863 5.26553 6.1762 5.27214 6.03565 5.27874C5.78569 5.29195 5.66117 5.20139 5.66211 4.92973C5.66872 3.44502 5.66778 1.95937 5.66306 0.474655C5.66306 0.233177 5.76305 0.12753 6.00075 0.148282C6.38089 0.181297 6.90535 -0.0564076 6.8978 0.671799L6.89686 0.670855Z" fill="#70707B"/>
<path d="M19.419 1.16377C18.8955 1.16377 18.4748 1.14962 18.055 1.16754C17.6221 1.18641 17.6806 0.888336 17.6787 0.627993C17.6768 0.377082 17.6457 0.119569 18.0437 0.127115C18.9219 0.143151 19.8001 0.137491 20.6783 0.129002C20.9518 0.126172 21.0197 0.248797 21.0254 0.500651C21.032 0.82608 20.966 1.10435 20.7726 1.37695C20.267 2.08535 19.7859 2.81167 19.2615 3.58138C19.8491 3.60402 20.3538 3.68985 20.8217 3.91718C21.0924 4.0483 21.2678 4.8048 21.0867 5.03496C20.983 5.16702 20.8613 5.0991 20.749 5.04911C19.7935 4.61709 18.838 4.61992 17.8843 5.04911C17.6523 5.15381 17.5315 5.1142 17.5212 4.83782C17.5042 4.34731 17.5372 3.89171 17.8541 3.46347C18.3824 2.74941 18.8578 1.99574 19.42 1.16377H19.419Z" fill="#70707B"/>
<path d="M6.44486 8.24736C6.44486 9.31892 6.44769 10.3905 6.44203 11.4611C6.44109 11.6573 6.53731 11.9101 6.16 11.9157C5.79306 11.9214 5.86003 11.6884 5.86003 11.479C5.85909 10.1679 5.85438 8.85577 5.86664 7.54463C5.86852 7.39087 5.73081 7.12204 6.04209 7.10034C6.31847 7.08148 6.60899 6.99564 6.7618 7.40785C7.19476 8.57468 7.67583 9.72358 8.1918 11.0159C8.21256 10.7574 8.23142 10.6329 8.23142 10.5074C8.23425 9.47739 8.23802 8.44639 8.22953 7.41634C8.22765 7.17958 8.29462 7.07959 8.54742 7.08431C8.77663 7.08808 8.84549 7.17958 8.84455 7.3937C8.83983 8.79918 8.84078 10.2037 8.84455 11.6092C8.84455 11.7903 8.80587 11.9242 8.58986 11.9063C8.33141 11.8846 8.04088 12.0186 7.89467 11.6224C7.52774 10.6282 7.11647 9.65001 6.72313 8.66618C6.66559 8.5228 6.60428 8.38225 6.54485 8.23982L6.44675 8.24736H6.44486Z" fill="#70707B"/>
<path d="M19.5119 11.9988C18.5894 12.0101 18.1197 11.6054 18.0338 10.7282C18.0169 10.5527 17.9867 10.3792 18.2612 10.3726C18.4753 10.3679 18.63 10.3952 18.6375 10.6556C18.6488 11.0442 18.7743 11.364 19.1959 11.4743C19.7044 11.6073 20.1722 11.3923 20.3213 10.964C20.4807 10.5037 20.2911 10.0905 19.7893 9.86321C19.477 9.72172 19.1412 9.63022 18.829 9.48779C18.2564 9.22556 18.0253 8.76902 18.1036 8.10967C18.1744 7.51541 18.5404 7.13904 19.162 7.02396C20.027 6.86266 20.7212 7.25978 20.8165 7.98139C20.8344 8.11439 20.9268 8.32285 20.6637 8.33511C20.4948 8.34266 20.2845 8.42284 20.2477 8.11533C20.1949 7.67105 19.8968 7.45787 19.4657 7.48145C19.1214 7.50032 18.8281 7.63332 18.7451 8.02949C18.6507 8.48132 18.7998 8.82373 19.2337 9.0303C19.4723 9.14444 19.7298 9.2199 19.9798 9.30951C20.7929 9.60287 21.0976 10.0679 20.9721 10.8272C20.8486 11.5771 20.3354 11.9893 19.5129 11.9988H19.5119Z" fill="#70707B"/>
<path d="M14.4051 11.9998C13.4844 12.0111 12.9722 11.5715 12.9307 10.7273C12.9222 10.5632 12.8713 10.3708 13.1571 10.3717C13.3684 10.3727 13.4835 10.3906 13.5212 10.6585C13.6146 11.3254 13.8731 11.5263 14.4645 11.4999C14.8597 11.4819 15.1078 11.2763 15.2163 10.9103C15.3238 10.5462 15.2342 10.2302 14.9201 9.99723C14.6381 9.78782 14.2947 9.71802 13.9731 9.59728C13.4439 9.39919 13.0373 9.10772 12.9949 8.47573C12.9609 7.95504 13.0666 7.4919 13.5344 7.2174C14.0862 6.89386 14.6739 6.90612 15.238 7.2108C15.5361 7.3721 15.6483 7.673 15.7077 7.98806C15.7341 8.12672 15.8285 8.32198 15.5615 8.33613C15.3851 8.34556 15.1682 8.40781 15.1314 8.11823C15.0984 7.85694 14.9946 7.64188 14.7248 7.53906C14.3287 7.38908 13.8665 7.5268 13.6938 7.85223C13.4901 8.23802 13.6099 8.73796 14.0004 8.95585C14.2702 9.10678 14.5749 9.19922 14.8673 9.3077C15.7087 9.61898 15.9926 10.0831 15.8445 10.9188C15.7266 11.5866 15.1889 11.9894 14.4051 11.9998Z" fill="#70707B"/>
<path d="M3.77771 11.8469C3.34003 11.9959 3.10139 11.8808 2.91179 11.5007C2.59862 10.8734 2.22792 10.2744 1.86759 9.63679C1.52801 9.93487 1.28653 10.2414 1.33747 10.7168C1.36859 11.0102 1.33181 11.3111 1.3469 11.6073C1.35727 11.8299 1.27804 11.9129 1.0526 11.912C0.835646 11.912 0.743204 11.8412 0.744148 11.6148C0.750751 10.2084 0.750751 8.80106 0.746977 7.39464C0.746977 7.1824 0.812063 7.0909 1.04316 7.0843C1.312 7.07675 1.35067 7.20504 1.34784 7.42671C1.33841 8.03512 1.34501 8.64447 1.34501 9.31231C1.59592 9.17459 1.68365 8.95481 1.81382 8.78219C2.14302 8.34451 2.45619 7.89551 2.77596 7.45218C2.96587 7.18869 3.25797 7.08744 3.65226 7.14844C3.29759 7.63517 2.99574 8.12662 2.6156 8.5492C2.25904 8.94632 2.27697 9.25949 2.55617 9.69245C2.99574 10.3735 3.36173 11.1017 3.7796 11.8469H3.77771Z" fill="#70707B"/>
<path d="M9.7999 9.49641C9.7999 8.80971 9.80933 8.12207 9.79518 7.43631C9.78952 7.17313 9.87442 7.07881 10.1442 7.08635C10.7545 7.10239 11.3657 7.09673 11.976 7.08918C12.1854 7.08635 12.2949 7.13729 12.2892 7.37499C12.2835 7.59572 12.1694 7.62779 11.9892 7.62591C11.5506 7.62025 11.112 7.62402 10.6743 7.62402C10.3404 7.62402 10.4187 7.98246 10.4083 8.15602C10.396 8.35977 10.4074 8.67294 10.4074 8.89461C10.4074 9.03798 10.5234 9.11156 10.6762 9.11156H11.7544C11.927 9.11156 12.1779 9.05874 12.1845 9.37568C12.1911 9.7162 11.9279 9.65394 11.7308 9.65394C11.4025 9.65394 11.0884 9.65394 10.7451 9.65394C10.4932 9.65394 10.3696 9.71431 10.3866 9.99352C10.4074 10.3359 10.4102 10.6812 10.3866 11.0236C10.3649 11.332 10.5045 11.3905 10.7734 11.3801C11.1799 11.3632 11.5874 11.3716 11.994 11.3782C12.1647 11.3811 12.3788 11.3047 12.3807 11.6254C12.3826 11.9121 12.2213 11.9112 12.0194 11.9102C11.3931 11.9065 10.7668 11.8989 10.1404 11.9131C9.86782 11.9197 9.7933 11.8131 9.79801 11.5565C9.81122 10.8698 9.80273 10.1831 9.80273 9.49641H9.7999Z" fill="#70707B"/>
<path d="M4.29298 9.46826C4.29298 8.78062 4.29958 8.09297 4.2892 7.40627C4.28543 7.1714 4.35618 7.07613 4.60803 7.07424C4.87875 7.07235 4.91176 7.20252 4.91082 7.42042C4.90516 8.79477 4.9061 10.1701 4.91082 11.5454C4.91082 11.7548 4.89478 11.9038 4.61935 11.9095C4.32599 11.9151 4.28826 11.767 4.29109 11.5303C4.29958 10.8426 4.29392 10.1559 4.29392 9.46826H4.29298Z" fill="#70707B"/>
<path d="M17.2536 9.51919C17.2536 10.2049 17.2507 10.8907 17.2555 11.5765C17.2564 11.7661 17.246 11.9057 16.9913 11.9057C16.7536 11.9057 16.6603 11.834 16.6621 11.5859C16.6706 10.1993 16.6678 8.81267 16.664 7.42512C16.664 7.21572 16.681 7.07517 16.9583 7.07422C17.23 7.07328 17.2592 7.19685 17.2573 7.41569C17.2489 8.11654 17.2545 8.81833 17.2545 9.51919H17.2536Z" fill="#70707B"/>
<path d="M16.8081 4.21849C16.576 3.9374 16.5581 3.58556 16.5534 3.24032C16.5468 2.74039 16.5534 2.24045 16.5506 1.74052C16.5459 0.575576 15.9393 -0.0149126 14.7772 0.0105558C13.7264 0.0341376 13.0312 0.465213 12.8199 1.22738C12.7879 1.34246 12.7086 1.45942 12.8284 1.5745C13.0576 1.79428 13.833 1.67826 13.9905 1.39905C14.2028 1.02363 14.5942 0.878366 14.9432 1.04721C15.2715 1.20568 15.2781 1.5047 15.2772 1.80843C15.2772 2.14235 14.9942 2.06217 14.83 2.07444C14.4509 2.10462 14.0896 2.20178 13.7293 2.30365C13.0558 2.49325 12.6181 3.11203 12.6039 3.85911C12.5907 4.52694 12.8935 5.05423 13.4585 5.22591C14.0698 5.41173 14.6801 5.37117 15.1847 4.93349C15.4083 4.74012 15.5385 4.67692 15.7139 4.97028C15.9233 5.32118 16.178 5.34853 16.4478 5.01461C16.5261 4.9184 16.6232 4.83351 16.7232 4.76087C16.9392 4.60429 16.9949 4.44676 16.8072 4.21849H16.8081ZM15.1706 3.79685C15.0687 4.13737 14.8668 4.37602 14.4839 4.39017C14.2622 4.39866 14.082 4.30339 14.0085 4.08644C13.8877 3.73082 13.883 3.37709 14.1707 3.09128C14.4178 2.84603 14.7508 2.79415 15.0781 2.78661C15.4045 2.77906 15.2083 3.06581 15.2687 3.14599C15.2998 3.41388 15.2272 3.60442 15.1706 3.79685Z" fill="#70707B"/>
<path d="M4.90007 4.36868C4.42089 3.79988 4.59916 3.12073 4.55106 2.32932C4.55106 2.1501 4.56332 1.82184 4.54823 1.49453C4.51333 0.695574 4.19262 0.280535 3.42291 0.0862205C2.83147 -0.0637598 2.2391 -0.0213127 1.67974 0.23903C1.24583 0.440891 0.960021 0.780469 0.819473 1.2389C0.787402 1.34455 0.745898 1.45302 0.819473 1.55301C0.978886 1.76713 1.83632 1.69356 1.96555 1.45868C2.18627 1.05402 2.52774 0.892719 2.88241 1.02761C3.23708 1.16249 3.30122 1.46528 3.305 1.78977C3.30877 2.14161 3.00504 2.0586 2.82015 2.07935C2.49095 2.11614 2.17307 2.18877 1.85613 2.2765C1.14113 2.4727 0.713827 2.94151 0.6195 3.64236C0.530833 4.29699 0.775139 4.8705 1.25809 5.14216C1.80991 5.4525 2.67772 5.37798 3.19369 4.92049C3.43706 4.70448 3.55496 4.71674 3.72004 4.97992C3.91529 5.29025 4.15205 5.36194 4.42372 5.0384C4.53313 4.90823 4.67934 4.80919 4.80763 4.69505C4.90761 4.60638 4.99911 4.48847 4.90007 4.37151V4.36868ZM3.2767 3.10375C3.28613 3.36881 3.25123 3.5801 3.18237 3.78951C3.07767 4.10833 2.90316 4.34415 2.54283 4.38094C2.32211 4.40358 2.14288 4.32434 2.03724 4.12437C1.87028 3.80743 1.8882 3.48577 2.09006 3.19996C2.34097 2.84435 2.74658 2.80096 3.13521 2.79247C3.38989 2.78681 3.26632 3.01414 3.2767 3.10469V3.10375Z" fill="#70707B"/>
<path d="M25.1326 0.771878C24.344 -0.232707 22.7885 -0.186487 22.0726 0.868092C21.7009 1.41613 21.5717 2.03586 21.5764 2.68861C21.5708 3.2574 21.6623 3.80544 21.932 4.31481C22.6244 5.62124 24.3062 5.74764 25.1854 4.56006C25.924 3.56113 25.8994 1.74816 25.1335 0.771878H25.1326ZM24.2195 3.91392C24.1233 4.18086 23.9648 4.38744 23.6526 4.39593C23.3337 4.40442 23.163 4.20539 23.0819 3.9309C22.8451 3.13572 22.8347 2.33016 23.0413 1.52838C23.1234 1.20956 23.3432 1.03505 23.7016 1.05486C24.0544 1.07467 24.194 1.28879 24.2402 1.59535C24.294 1.95002 24.3355 2.30564 24.3676 2.54429C24.3534 3.08478 24.3657 3.50831 24.2195 3.91297V3.91392Z" fill="#70707B"/>
</svg>
