<svg width="64" height="64" viewBox="0 0 64 64" fill="none" xmlns="http://www.w3.org/2000/svg">
<g clip-path="url(#clip0_867_193)">
<path d="M31.8 0.174072L33.508 3.38207C33.892 3.97407 34.308 4.49807 34.798 4.98607C36.228 6.41607 37.586 7.91407 38.806 9.51807C41.7 13.3181 43.652 17.5381 45.046 22.1021C45.882 24.8901 46.336 27.7501 46.37 30.6421C46.51 39.2881 43.546 46.7121 37.57 52.8821C36.594 53.8581 35.55 54.7621 34.43 55.5661C33.838 55.5661 33.558 55.1121 33.314 54.6941C32.86 53.9281 32.582 53.0541 32.442 52.1841C32.232 51.1381 32.094 50.0921 32.162 49.0121V48.5241C32.114 48.4201 31.592 0.420072 31.8 0.174072Z" fill="#70707B"/>
<path d="M31.8 0.0680736C31.73 -0.0719264 31.66 0.0340736 31.59 0.102074C31.624 0.802074 31.38 1.42607 30.998 2.02207C30.578 2.61407 30.022 3.06807 29.464 3.55607C26.364 6.24007 23.924 9.48207 21.97 13.1081C19.37 17.9881 18.03 23.2181 17.65 28.7241C17.476 30.7101 18.278 37.7181 18.904 39.7401C20.612 45.1081 23.68 49.6061 27.654 53.5101C28.63 54.4501 29.674 55.3221 30.754 56.1601C31.068 56.1601 31.102 55.8801 31.174 55.6721C31.3117 55.227 31.4166 54.7725 31.488 54.3121L32.188 49.0841L31.8 0.0680736Z" fill="#A0A0AB"/>
<path d="M33.508 57.69C33.578 56.89 33.962 56.226 34.38 55.564C33.96 55.39 33.648 55.044 33.404 54.658C33.194 54.31 33.02 53.892 32.884 53.508C32.396 52.044 32.292 50.508 32.152 49.012V48.106C31.978 48.246 31.942 49.43 31.942 49.606C31.8403 51.1871 31.6304 52.7594 31.314 54.312C31.21 54.94 31.14 55.566 30.754 56.124C30.754 56.194 30.754 56.264 30.788 56.368C31.416 58.216 31.588 60.098 31.694 62.016V62.716C31.694 63.552 31.66 63.376 32.354 63.656C32.634 63.76 32.946 63.796 33.226 64.004C33.436 64.004 33.47 63.83 33.47 63.69L33.366 62.54V59.332C33.332 58.772 33.436 58.216 33.506 57.692L33.508 57.69Z" fill="#C2BFBF"/>
</g>
<defs>
<clipPath id="clip0_867_193">
<rect width="64" height="64" fill="white"/>
</clipPath>
</defs>
</svg>
