<svg width="26" height="25" viewBox="0 0 26 25" fill="none" xmlns="http://www.w3.org/2000/svg">
<g clip-path="url(#clip0_750_265)">
<path fill-rule="evenodd" clip-rule="evenodd" d="M12.003 10.545H11.005V6.049H12.003V8.047L13.35 6.049H14.454L12.894 8.151L14.583 10.545H13.399L12.003 8.372V10.545ZM26 17.059L25.666 17.348C24.318 18.528 22.037 18.527 20.689 17.347L20.023 16.769C19.045 15.914 17.333 15.912 16.357 16.767L15.687 17.347C15.013 17.939 14.107 18.234 13.199 18.234C12.292 18.234 11.385 17.938 10.71 17.346L10.043 16.769C9.066 15.912 7.353 15.913 6.378 16.767L5.707 17.347C4.36 18.53 2.08 18.53 0.73 17.347L0.398 17.06L1.051 16.303L1.385 16.593C2.363 17.451 4.075 17.45 5.05 16.595L5.722 16.015C7.068 14.835 9.348 14.833 10.697 16.015L11.364 16.593C12.342 17.451 14.054 17.45 15.029 16.595L15.7 16.015C17.048 14.833 19.328 14.835 20.678 16.015L21.344 16.593C22.322 17.449 24.034 17.451 25.009 16.595L25.345 16.304L25.999 17.06L26 17.059ZM24.95 23.069L25.602 23.825L25.268 24.115C24.595 24.705 23.688 25 22.782 25C21.875 25 20.968 24.704 20.292 24.112L19.625 23.536C18.647 22.677 16.935 22.679 15.96 23.533L15.289 24.115C13.942 25.294 11.663 25.296 10.313 24.112L9.646 23.536C8.669 22.68 6.956 22.679 5.98 23.534L5.31 24.114C3.963 25.295 1.682 25.293 0.333 24.114L0 23.824L0.654 23.068L0.988 23.358C1.965 24.212 3.676 24.215 4.654 23.359L5.324 22.779C6.672 21.597 8.952 21.6 10.301 22.78L10.968 23.357C11.945 24.215 13.657 24.214 14.633 23.359L15.303 22.779C16.649 21.599 18.93 21.597 20.279 22.78L20.947 23.357C21.925 24.215 23.636 24.214 24.612 23.359L24.948 23.067L24.95 23.069ZM24.95 19.903L25.602 20.659L25.268 20.949C23.922 22.127 21.642 22.129 20.292 20.946L19.625 20.369C18.647 19.512 16.935 19.513 15.96 20.367L15.289 20.948C14.616 21.538 13.709 21.833 12.803 21.833C11.896 21.833 10.988 21.538 10.313 20.946L9.646 20.369C8.669 19.514 6.956 19.513 5.98 20.368L5.31 20.948C3.963 22.128 1.682 22.128 0.333 20.946L0 20.658L0.656 19.903L0.99 20.193C1.965 21.047 3.677 21.049 4.655 20.193L5.325 19.613C6.673 18.432 8.953 18.435 10.302 19.615L10.969 20.193C11.946 21.048 13.658 21.048 14.634 20.193L15.304 19.613C16.65 18.433 18.931 18.432 20.28 19.615L20.948 20.193C21.926 21.048 23.637 21.048 24.613 20.193L24.949 19.903H24.95ZM5.509 10.999C5.77422 10.999 6.02857 11.1044 6.21611 11.2919C6.40364 11.4794 6.509 11.7338 6.509 11.999C6.509 12.2642 6.40364 12.5186 6.21611 12.7061C6.02857 12.8936 5.77422 12.999 5.509 12.999C5.24378 12.999 4.98943 12.8936 4.80189 12.7061C4.61436 12.5186 4.509 12.2642 4.509 11.999C4.509 11.7338 4.61436 11.4794 4.80189 11.2919C4.98943 11.1044 5.24378 10.999 5.509 10.999ZM11.566 3.756C11.848 3.906 12.161 4 12.501 4C12.841 4 13.155 3.906 13.436 3.756L18.301 10.405C17.943 10.673 17.682 11.055 17.566 11.499H7.436C7.3229 11.0617 7.06441 10.6759 6.703 10.405L11.566 3.756ZM12.501 1C12.7662 1.00027 13.0205 1.10588 13.2078 1.2936C13.3952 1.48132 13.5003 1.73578 13.5 2.001C13.4997 2.26622 13.3941 2.52047 13.2064 2.70781C13.0187 2.89516 12.7642 3.00027 12.499 3C12.2338 2.99973 11.9795 2.89412 11.7922 2.7064C11.6048 2.51868 11.4997 2.26422 11.5 1.999C11.5003 1.73378 11.6059 1.47953 11.7936 1.29219C11.9813 1.10484 12.2358 0.999735 12.501 1ZM20.492 11.999C20.492 12.264 20.3868 12.5182 20.1995 12.7058C20.0121 12.8933 19.758 12.9987 19.493 12.999C19.2278 12.999 18.9734 12.8936 18.7859 12.7061C18.5984 12.5186 18.493 12.2642 18.493 11.999C18.493 11.7338 18.5984 11.4794 18.7859 11.2919C18.9734 11.1044 19.2278 10.999 19.493 10.999C19.7582 10.999 20.0126 11.1044 20.2001 11.2919C20.3876 11.4794 20.492 11.7338 20.492 11.999ZM5.509 13.999C6.437 13.999 7.212 13.359 7.436 12.499H17.566C17.79 13.359 18.566 13.999 19.493 13.999C20.0234 13.999 20.5321 13.7883 20.9072 13.4132C21.2823 13.0381 21.493 12.5294 21.493 11.999C21.493 11.4686 21.2823 10.9599 20.9072 10.5848C20.5321 10.2097 20.0234 9.999 19.493 9.999C19.413 9.999 19.336 10.014 19.259 10.023L14.179 3.079C14.379 2.767 14.499 2.398 14.499 1.999C14.4987 1.46891 14.288 0.960614 13.9132 0.585786C13.5384 0.210958 13.0301 0.000264977 12.5 0C11.9699 0.000530087 11.4617 0.211478 11.0871 0.586493C10.7124 0.961509 10.502 1.46991 10.502 2C10.502 2.398 10.622 2.767 10.822 3.079L5.744 10.023C5.664 10.013 5.589 9.999 5.508 9.999C4.97757 9.999 4.46886 10.2097 4.09379 10.5848C3.71871 10.9599 3.508 11.4686 3.508 11.999C3.508 12.5294 3.71871 13.0381 4.09379 13.4132C4.46886 13.7883 4.97857 13.999 5.509 13.999Z" fill="#70707B"/>
</g>
<defs>
<clipPath id="clip0_750_265">
<rect width="26" height="25" fill="white"/>
</clipPath>
</defs>
</svg>
