<svg width="24" height="22" viewBox="0 0 24 22" fill="none" xmlns="http://www.w3.org/2000/svg">
<path d="M6.97564 11.7301C7.02086 11.8125 7.06705 11.8735 7.09014 11.9419C7.50002 13.1221 8.09272 14.216 8.76143 15.2724C9.23482 16.0195 9.73419 16.7497 10.3788 17.3722C10.5068 17.4959 10.6521 17.6037 10.7724 17.748C10.7406 17.7387 10.705 17.7349 10.6762 17.719C10.6098 17.6805 10.5395 17.6431 10.4828 17.5924C9.82271 17.0131 9.15496 16.4413 8.50838 15.847C8.03692 15.413 7.65493 14.9097 7.40092 14.3191C7.29316 14.0669 7.15076 13.8289 6.98141 13.587C6.93427 13.827 6.88327 14.066 6.84093 14.3069C6.7909 14.5947 6.76685 14.8881 6.70142 15.1721C6.52727 15.9248 5.79505 16.1779 5.16483 15.7064C4.73378 15.384 4.45571 14.9462 4.24884 14.4672C3.78604 13.3948 3.64075 12.2709 3.80239 11.1254C3.89957 10.4318 4.09874 9.75218 4.25654 9.06696C4.27578 8.98353 4.30368 8.89542 4.35276 8.82605C4.45282 8.68263 4.40279 8.56171 4.29984 8.46141C3.65711 7.83336 3.32227 7.03753 3.01437 6.23044C2.80751 5.68864 2.65644 5.12715 2.44573 4.58721C2.33508 4.30319 2.17151 4.03229 1.99158 3.782C1.69331 3.36487 1.35944 2.97211 1.04865 2.56247C0.795602 2.2297 0.587774 1.87443 0.517535 1.45636C0.39149 0.70927 0.960132 0.0277946 1.73564 0.00154791C2.39569 -0.0209492 2.99032 0.20496 3.56955 0.472113C4.04197 0.690523 4.50189 0.932367 4.88099 1.29326C5.04648 1.45074 5.24565 1.50042 5.47369 1.49948C6.37524 1.49386 7.25275 1.66165 8.05808 2.04035C8.67484 2.33 9.25021 2.71058 9.82078 3.08553C11.7634 4.36037 13.3019 6.00922 14.4604 7.98522C14.7644 8.50359 14.9549 9.08289 15.2138 9.62751C15.7439 10.7411 16.2837 11.85 16.8235 12.959C16.8899 13.0949 16.9678 13.2308 17.065 13.3461C17.1468 13.4427 17.2526 13.542 17.369 13.5823C18.9999 14.1513 20.4143 15.0671 21.7046 16.1714C22.0683 16.4826 22.3675 16.8678 22.6908 17.2231C22.7726 17.3131 22.7341 17.389 22.6071 17.4331C22.0423 17.6271 21.4535 17.6955 20.8646 17.778C20.4489 17.8362 20.0429 17.9599 19.6321 18.0527C19.5464 18.0724 19.4589 18.0846 19.328 18.1089C19.4281 18.243 19.4935 18.3808 19.6022 18.4661C19.8784 18.6826 20.1565 18.9048 20.4643 19.0716C21.364 19.5562 22.127 20.188 22.7543 20.9783C22.812 21.0504 22.8794 21.1179 22.9525 21.1751C23.221 21.3841 23.3942 21.6522 23.5 22C23.423 21.9513 23.3547 21.9213 23.3018 21.8735C22.583 21.2313 21.7758 20.7252 20.881 20.3446C20.0891 20.0081 19.3867 19.5356 18.7651 18.9526C18.4332 18.6414 18.2129 18.2505 18.0368 17.839C18.0195 17.7977 18.0464 17.7152 18.082 17.6815C18.1436 17.6243 18.2244 17.5793 18.3052 17.5484C19.3425 17.1491 20.4191 16.9728 21.5343 17.0131C21.5785 17.015 21.6218 17.0094 21.6988 17.0056C21.6536 16.9335 21.6276 16.8688 21.5814 16.8238C21.4958 16.7394 21.4053 16.6569 21.3053 16.5904C20.65 16.1526 19.99 15.7214 19.3357 15.2837C18.8046 14.9284 18.1878 14.7737 17.5951 14.5619C17.3084 14.4597 17.0092 14.3885 16.734 14.2638C16.5714 14.1897 16.4146 14.0623 16.3078 13.9207C16.1211 13.6732 15.9498 13.4089 15.8161 13.1314C15.2426 11.9475 14.6403 10.7749 14.1361 9.56377C13.6666 8.4361 13.0421 7.41248 12.2705 6.46948C10.9388 4.84499 9.32334 3.56734 7.36724 2.70589C6.73317 2.42655 6.07408 2.33281 5.3919 2.31313C5.20332 2.3075 5.01185 2.30657 4.82903 2.26907C4.69433 2.24095 4.54519 2.18377 4.44705 2.09284C3.84184 1.5351 3.09327 1.23327 2.33893 0.939866C2.16574 0.872375 1.97811 0.816132 1.79434 0.801134C1.42967 0.772075 1.15353 0.975487 1.24013 1.35325C1.29497 1.59416 1.42294 1.8285 1.5586 2.04035C1.71351 2.28313 1.90691 2.50248 2.09357 2.72464C2.76998 3.52891 3.21835 4.44192 3.50508 5.44023C3.69367 6.0964 3.90919 6.74788 4.29599 7.3253C4.44897 7.55403 4.62409 7.77525 4.82133 7.96928C5.09363 8.23831 5.21005 8.52984 5.08593 8.89542C4.94449 9.31068 4.77226 9.71844 4.66258 10.1412C4.28444 11.6026 4.35083 13.0368 5.00703 14.4222C5.12923 14.6809 5.27355 14.9237 5.55451 15.0531C5.73251 15.1356 5.75368 15.1224 5.78062 14.934C5.85374 14.425 5.91821 13.9151 6.00481 13.408C6.08755 12.929 6.29731 12.5034 6.63214 12.1378C6.74568 12.0141 6.84767 11.88 6.97468 11.7282L6.97564 11.7301Z" fill="#70707B"/>
<path d="M5.96935 5.22215C5.7875 4.70566 5.46806 4.27446 5.0957 3.87232C5.53061 3.66985 5.97224 3.80015 6.19258 4.17697C6.42639 4.57536 6.34942 4.96437 5.96839 5.22215H5.96935Z" fill="#70707B"/>
</svg>
