<svg width="48" height="54" viewBox="0 0 48 54" fill="none" xmlns="http://www.w3.org/2000/svg">
<g clip-path="url(#clip0_749_221)">
<path d="M24.2435 54.0005C23.5208 54.0005 22.8029 53.8111 22.1692 53.4465L15.5666 49.5412C14.5805 48.9902 15.0617 48.7954 15.3869 48.6831C16.7018 48.2231 16.9686 48.1193 18.3721 47.323C18.5197 47.2389 18.7127 47.2686 18.8637 47.3576L23.9361 50.3647C24.1193 50.4636 24.3792 50.4636 24.549 50.3647L44.3266 38.9594C44.5098 38.8555 44.6286 38.6428 44.6286 38.4252V15.6244C44.6286 15.3969 44.5098 15.1941 44.3227 15.0803L24.553 3.68489C24.3698 3.57608 24.1272 3.57608 23.944 3.68489L4.17829 15.0803C3.9867 15.1892 3.86491 15.4018 3.86491 15.6195V38.4203C3.86491 38.6379 3.98373 38.8456 4.17185 38.9495L9.5878 42.0753C12.5285 43.5443 14.3255 41.8132 14.3255 40.0722V17.5682C14.3255 17.2467 14.578 16.9994 14.8998 16.9994H17.4048C17.7167 16.9994 17.9741 17.2467 17.9741 17.5682V40.0821C17.9741 43.9993 15.8355 46.2497 12.1176 46.2497C10.974 46.2497 10.073 46.2497 7.55805 45.0132L2.36983 42.0259C1.08763 41.284 0.295532 39.8991 0.295532 38.4203V15.6195C0.295532 14.1357 1.08763 12.7508 2.36983 12.0188L22.1673 0.608517C23.4198 -0.0987535 25.0832 -0.0987535 26.3258 0.608517L46.0984 12.0238C47.3757 12.7607 48.1727 14.1406 48.1727 15.6244V38.4252C48.1727 39.904 47.3757 41.284 46.0984 42.0259L26.3258 53.4362C25.6921 53.8022 24.9743 53.9901 24.2416 53.9901" fill="#70707B"/>
<path d="M30.3526 38.2892C21.6989 38.2892 19.8845 34.3206 19.8845 30.992C19.8845 30.6754 20.14 30.4232 20.4573 30.4232H23.0118C23.294 30.4232 23.5316 30.6284 23.5762 30.9069C23.9623 33.5075 25.1109 34.8191 30.3436 34.8191C34.512 34.8191 36.2844 33.8784 36.2844 31.67C36.2844 30.3989 35.7794 29.4543 29.304 28.8212C23.8881 28.287 20.5415 27.095 20.5415 22.7673C20.5415 18.7809 23.9079 16.4069 29.5466 16.4069C35.8784 16.4069 39.0171 18.6029 39.4131 23.3213C39.428 23.4845 39.3686 23.6428 39.2597 23.7615C39.1508 23.8752 38.9973 23.9445 38.8389 23.9445H36.2695C36.0022 23.9445 35.7695 23.7565 35.715 23.4993C35.0962 20.7642 33.6011 19.8888 29.5367 19.8888C24.9871 19.8888 24.4574 21.4715 24.4574 22.6585C24.4574 24.0978 25.0812 24.5182 31.2199 25.3293C37.2992 26.1355 40.1854 27.2731 40.1854 31.5414C40.1854 35.8444 36.5913 38.3124 30.3238 38.3124" fill="#70707B"/>
</g>
<defs>
<clipPath id="clip0_749_221">
<rect width="48" height="54" fill="white"/>
</clipPath>
</defs>
</svg>
