<svg width="22" height="22" viewBox="0 0 22 22" fill="none" xmlns="http://www.w3.org/2000/svg">
<path d="M18.9006 0.590408C19.876 1.01066 20.6861 1.63613 21.3451 2.44774C21.5941 2.75455 21.7308 3.10931 21.8095 3.48779C21.91 3.97249 21.9185 4.46287 21.8834 4.95427C21.7951 6.18614 21.4877 7.37314 21.085 8.53952C20.5989 9.94773 19.9643 11.291 19.1888 12.5718C19.1793 12.5873 19.1702 12.6028 19.1612 12.6182C19.1596 12.6208 19.1601 12.6249 19.1585 12.6368C19.2138 12.6342 19.2681 12.6332 19.3218 12.6296C19.6952 12.6059 20.0606 12.5326 20.4276 12.4697C20.7031 12.4228 20.9803 12.4151 21.2494 12.5063C21.6393 12.6389 21.9063 12.8962 21.9786 13.2932C22.0392 13.6242 21.9722 13.9434 21.7611 14.226C21.5207 14.5483 21.2095 14.7922 20.8733 15.0108C20.251 15.4156 19.5628 15.6445 18.8234 15.7435C18.425 15.7966 18.0261 15.8276 17.624 15.808C17.5618 15.8049 17.499 15.7997 17.4299 15.7946C17.4182 15.892 17.4022 15.9874 17.3964 16.0828C17.3724 16.4747 17.3607 16.8671 17.3272 17.258C17.2602 18.0484 17.1384 18.8296 16.8528 19.5789C16.6746 20.0466 16.4304 20.4771 16.0789 20.8463C15.6682 21.2774 15.1608 21.5563 14.5885 21.7296C14.1949 21.8487 13.7955 21.9451 13.3838 21.9838C12.7221 22.0457 12.1019 21.9369 11.5583 21.5409C11.2041 21.2831 10.9488 20.9469 10.777 20.555C10.5397 20.0151 10.3472 19.4603 10.2866 18.8724C10.2414 18.4341 10.2052 17.9948 10.177 17.5555C10.1536 17.1889 10.1477 16.8212 10.1344 16.4541C10.1339 16.4366 10.1323 16.419 10.1307 16.3989C10.0116 16.4402 9.89669 16.4835 9.77967 16.5196C9.28129 16.6727 8.7712 16.7155 8.25208 16.6712C7.91805 16.6428 7.58934 16.5882 7.2702 16.4871C6.89416 16.3675 6.55481 16.1896 6.29365 15.8987C6.17451 15.9761 6.06121 16.0606 5.93781 16.1277C5.25487 16.5 4.5767 16.4778 3.90918 16.0895C3.5326 15.8704 3.2374 15.5646 2.97677 15.2263C2.58583 14.7179 2.28797 14.159 2.02468 13.5815C1.60396 12.66 1.27897 11.7061 0.992814 10.7382C0.682721 9.68837 0.421562 8.62666 0.219975 7.55207C0.138596 7.11893 0.0667904 6.68321 0.024771 6.24544C-0.00873824 5.90047 -0.00129185 5.55087 0.00721842 5.20384C0.0205157 4.67583 0.0955125 4.15503 0.236996 3.64403C0.408797 3.02372 0.678466 2.44878 1.09068 1.9419C1.59385 1.32365 2.23691 0.89412 2.99752 0.625987C3.4443 0.468717 3.90599 0.376933 4.37831 0.331557C4.90488 0.281024 5.43039 0.288243 5.9559 0.337229C6.7415 0.41045 7.50956 0.568751 8.26484 0.789445C8.38824 0.82554 8.51058 0.866791 8.63451 0.901339C8.65897 0.908043 8.69355 0.90598 8.71535 0.89412C9.27171 0.584736 9.86797 0.392402 10.5009 0.299587C11.0621 0.217085 11.6248 0.220694 12.1875 0.267102C12.5019 0.292884 12.8146 0.339291 13.1279 0.374871C13.1508 0.377449 13.1763 0.375902 13.1981 0.369199C13.8476 0.185631 14.5108 0.0752835 15.1842 0.0237195C15.3039 0.0144379 15.4236 0.00773461 15.5427 0C15.7496 0 15.9571 0 16.164 0C16.2613 0.00670332 16.3586 0.0139223 16.4565 0.0206256M10.6318 15.315C10.6318 15.3465 10.6318 15.3681 10.6318 15.3893C10.6302 16.5918 10.6397 17.7937 10.7732 18.9916C10.819 19.403 10.92 19.797 11.1195 20.1662C11.3019 20.5034 11.5259 20.8066 11.8466 21.034C12.3152 21.3661 12.8466 21.461 13.4125 21.4156C13.838 21.3815 14.2497 21.28 14.6497 21.1387C15.0667 20.9912 15.4422 20.7803 15.7432 20.457C16.0188 20.161 16.1922 19.8119 16.3092 19.434C16.4554 18.9622 16.5134 18.4738 16.5847 17.9886C16.6459 17.5704 16.7012 17.1512 16.7554 16.732C16.8161 16.2628 16.8719 15.7935 16.9299 15.3238C16.9405 15.2377 16.9506 15.1516 16.9613 15.0619C17.1778 15.1253 17.3916 15.1516 17.6081 15.1624C17.9916 15.181 18.3719 15.1511 18.7516 15.099C19.4271 15.0067 20.0494 14.7844 20.6069 14.3993C20.8335 14.243 21.0494 14.0749 21.2127 13.8527C21.2877 13.7506 21.3419 13.6392 21.3526 13.5124C21.3728 13.2669 21.1824 13.0637 20.91 13.0313C20.7079 13.007 20.5127 13.0431 20.3165 13.0808C19.8718 13.1658 19.4239 13.2293 18.9692 13.2241C18.7319 13.2215 18.4963 13.2009 18.2724 13.1179C18.2149 13.0968 18.1612 13.0663 18.1032 13.0385C18.1181 13.0153 18.1261 13.0014 18.1352 12.9885C19.0399 11.6396 19.7686 10.2056 20.3266 8.6906C20.776 7.46957 21.1233 6.22481 21.226 4.92591C21.2616 4.47266 21.259 4.01993 21.1654 3.57184C21.1068 3.29391 21.0127 3.02939 20.8297 2.80251C20.4021 2.27243 19.8973 1.82485 19.3053 1.47164C18.3442 0.898246 17.2889 0.637331 16.1698 0.591955C15.5581 0.567204 14.9513 0.610003 14.3481 0.710552C13.9327 0.779648 13.5226 0.86937 13.1242 1.00447C13.1013 1.0122 13.0731 1.01066 13.0487 1.00653C12.8599 0.971982 12.6732 0.929184 12.4833 0.901339C11.8684 0.810071 11.2514 0.787383 10.6334 0.869885C9.97222 0.95806 9.35841 1.16844 8.79993 1.5263C8.78078 1.53816 8.74727 1.5428 8.72599 1.53558C8.07815 1.31076 7.41647 1.13699 6.73938 1.01942C5.97186 0.886386 5.20061 0.827603 4.42192 0.902886C4.00492 0.943106 3.59749 1.02509 3.20336 1.1638C2.59062 1.37985 2.06298 1.7176 1.64172 2.20436C1.23748 2.67153 0.98324 3.21141 0.824737 3.79666C0.720486 4.18236 0.661446 4.57528 0.633787 4.97284C0.606129 5.36678 0.593363 5.76177 0.636978 6.15417C0.682721 6.56307 0.743889 6.97146 0.818886 7.37624C1.00398 8.37194 1.2428 9.35578 1.52311 10.3298C1.82044 11.3611 2.15979 12.3785 2.61136 13.3577C2.84965 13.8749 3.11826 14.3771 3.46984 14.8324C3.67887 15.1036 3.91397 15.3511 4.21448 15.5311C4.64957 15.791 5.09796 15.824 5.55592 15.5899C5.80803 15.461 6.01175 15.2738 6.19365 15.0634C6.74629 14.4225 7.31541 13.7965 7.90262 13.1849C7.93826 13.1478 7.96326 13.139 8.01272 13.1643C8.28505 13.302 8.57387 13.3927 8.87811 13.4335C8.98715 13.4479 9.09725 13.4572 9.21587 13.4696C9.20576 13.4897 9.19991 13.5077 9.18874 13.5216C9.08768 13.6449 8.98343 13.7661 8.88397 13.8908C8.75791 14.0486 8.60047 14.1646 8.40207 14.2183C8.14836 14.2868 7.89252 14.3498 7.63561 14.4085C7.39094 14.4653 7.14734 14.522 6.9282 14.6488C6.55853 14.8633 6.51439 15.2604 6.83086 15.544C6.99947 15.6951 7.19999 15.7951 7.41594 15.8616C7.91805 16.0163 8.43239 16.0746 8.95843 16.0235C9.50202 15.9709 9.99509 15.7905 10.4318 15.4708C10.4961 15.4233 10.5578 15.3723 10.6302 15.3155L10.6318 15.315Z" fill="#70707B"/>
<path d="M9.90456 12.9783C9.93541 12.8798 9.9636 12.7824 9.99604 12.686C10.1561 12.2111 10.3609 11.7537 10.5684 11.2968C10.7609 10.8724 10.8896 10.4295 10.9529 9.96956C11.0093 9.56014 11.0173 9.14969 10.9917 8.73718C10.9582 8.19885 10.871 7.66826 10.7551 7.14179C10.6806 6.80456 10.5412 6.49879 10.2854 6.25128C10.0471 6.02079 9.75563 5.89188 9.42745 5.8367C8.98279 5.76194 8.5493 5.82433 8.12059 5.94035C7.76582 6.03626 7.42647 6.17135 7.10202 6.341C7.09085 6.34719 7.07861 6.35183 7.06691 6.35699C7.06425 6.35802 7.06 6.35699 7.04883 6.35647C7.05734 6.26623 7.06372 6.176 7.07489 6.08576C7.12223 5.70573 7.18712 5.32931 7.28392 4.95805C7.46211 4.27535 7.72008 3.62512 8.13389 3.0409C8.6711 2.2824 9.38968 1.77449 10.3189 1.55947C10.6854 1.4749 11.0566 1.44139 11.4327 1.44345C12.5172 1.44964 13.5368 1.6956 14.4788 2.2231C15.307 2.68717 15.9809 3.31471 16.5362 4.06496C16.9027 4.56049 17.2053 5.08954 17.4229 5.66293C17.4303 5.68253 17.4356 5.70315 17.4441 5.73048C17.3989 5.72636 17.3612 5.72017 17.3229 5.71914C17.092 5.7145 16.8612 5.70058 16.6309 5.70986C16.2341 5.72584 15.8511 5.80267 15.5054 6.00532C15.1123 6.23581 14.8847 6.57871 14.7974 7.01185C14.7224 7.38363 14.7581 7.75282 14.8368 8.11944C14.9618 8.70263 15.1889 9.25076 15.4463 9.78857C15.7176 10.3558 16.0367 10.8987 16.3452 11.4469C16.4298 11.5974 16.499 11.7563 16.5777 11.9099C16.741 12.2296 16.9585 12.5142 17.1899 12.7901C17.2308 12.8386 17.2686 12.8896 17.3074 12.9396C17.3106 12.9433 17.3106 12.9494 17.3127 12.9582C17.2569 12.9773 17.2011 12.9943 17.1468 13.0144C16.7362 13.1701 16.5043 13.4682 16.4176 13.8797C16.3793 14.0612 16.3729 14.2442 16.3766 14.4298C16.3793 14.5505 16.3596 14.6722 16.3468 14.7934C16.3277 14.9749 16.3059 15.1559 16.2841 15.3369C16.2564 15.5694 16.2282 15.802 16.199 16.0345C16.1724 16.249 16.1452 16.4641 16.1176 16.6786C16.0873 16.9127 16.0575 17.1468 16.0256 17.3803C15.9947 17.6072 15.9633 17.8336 15.9282 18.06C15.8607 18.4962 15.8096 18.9355 15.6634 19.3563C15.5346 19.7265 15.332 20.0467 14.9964 20.2757C14.7889 20.4169 14.5607 20.5165 14.3214 20.5928C13.9879 20.699 13.648 20.7815 13.2964 20.8021C12.6199 20.8418 12.1018 20.5907 11.763 20.0106C11.5752 19.6883 11.4518 19.348 11.421 18.9778C11.3869 18.5658 11.3465 18.1543 11.3215 17.7423C11.263 16.7848 11.2736 15.8262 11.28 14.8676C11.2816 14.6598 11.2907 14.452 11.2981 14.2447C11.3189 13.659 10.8588 13.0882 10.2684 12.9819C10.1551 12.9613 10.0343 12.9788 9.90456 12.9788V12.9783Z" fill="#70707B"/>
<path d="M7.40589 12.7884C7.17824 13.0318 6.94527 13.2747 6.72028 13.5237C6.38147 13.8981 6.04797 14.2771 5.71288 14.655C5.58469 14.7994 5.448 14.9345 5.27513 15.0309C5.06078 15.1506 4.84536 15.1542 4.62676 15.0412C4.41506 14.9324 4.24911 14.7726 4.09859 14.5968C3.81243 14.2626 3.59223 13.8877 3.39383 13.5005C2.99225 12.7167 2.68854 11.8958 2.41834 11.0626C2.10506 10.0957 1.8423 9.1155 1.63008 8.12289C1.52529 7.63355 1.43487 7.14111 1.34392 6.64868C1.25456 6.165 1.24392 5.67618 1.2652 5.18735C1.2886 4.65469 1.36785 4.1308 1.55082 3.62496C1.73007 3.1284 1.99974 2.68753 2.40504 2.33173C2.7912 1.99244 3.24596 1.77897 3.74488 1.64903C4.04327 1.57168 4.34698 1.5294 4.65495 1.50568C4.99695 1.4799 5.33843 1.48402 5.67937 1.5098C6.52295 1.57426 7.34473 1.74803 8.14895 2.00018C8.15586 2.00224 8.16278 2.00482 8.17448 2.00894C8.16756 2.01926 8.16331 2.02854 8.15639 2.03524C7.65322 2.52458 7.291 3.10313 7.01921 3.73737C6.80326 4.24115 6.64635 4.76195 6.54955 5.29873C6.49104 5.6241 6.44264 5.95204 6.4086 6.28051C6.37136 6.64197 6.36604 7.00498 6.38732 7.36954C6.41285 7.8001 6.42774 8.23272 6.41923 8.6638C6.41179 9.04434 6.37243 9.42437 6.33307 9.80336C6.31019 10.0246 6.28413 10.2448 6.29211 10.467C6.31977 11.2399 6.59476 11.919 7.12186 12.5002C7.21175 12.5997 7.31068 12.6915 7.40696 12.7889L7.40589 12.7884Z" fill="#70707B"/>
<path d="M14.1973 1.36645C14.3951 1.33551 14.5925 1.30044 14.7914 1.27518C15.2057 1.22207 15.6222 1.19783 16.0403 1.21021C17.0892 1.24063 18.0817 1.46803 18.9832 2.00997C19.5055 2.32399 19.9518 2.72052 20.3284 3.19027C20.4507 3.34238 20.5044 3.52389 20.5411 3.709C20.6151 4.08078 20.6172 4.45565 20.5906 4.83206C20.5114 5.96235 20.2241 7.0488 19.855 8.11772C19.3348 9.62391 18.638 11.0502 17.7679 12.3965C17.7583 12.4115 17.7476 12.4259 17.7333 12.446C17.7046 12.4115 17.6742 12.3821 17.6546 12.347C17.6455 12.3305 17.6514 12.2991 17.6625 12.281C17.8157 12.0222 17.9343 11.7494 18.012 11.4601C18.07 11.243 18.1067 11.0234 18.1221 10.7996C18.146 10.4484 18.1306 10.0983 18.0897 9.74921C18.0514 9.42075 18.0099 9.09228 17.9796 8.76279C17.9514 8.46063 17.9556 8.15794 17.9971 7.85681C18.0391 7.55207 18.0923 7.24887 18.1264 6.94361C18.1535 6.70229 18.1529 6.45788 18.1748 6.21553C18.2115 5.80611 18.0428 5.44722 17.8806 5.0904C17.4046 4.0421 16.7227 3.13715 15.828 2.3869C15.3472 1.98367 14.8169 1.65417 14.2388 1.3979C14.2255 1.39223 14.2122 1.38604 14.1989 1.37985C14.1989 1.37521 14.1978 1.37109 14.1973 1.36645Z" fill="#70707B"/>
<path d="M10.3554 9.27428C10.3596 10.0013 10.1634 10.6809 9.84797 11.3337C9.62032 11.8056 9.43469 12.2934 9.28789 12.7951C9.27565 12.8363 9.25225 12.8379 9.21874 12.8368C8.80546 12.827 8.42675 12.7069 8.08528 12.4852C7.48371 12.0948 7.12574 11.5452 6.98426 10.8604C6.91937 10.5464 6.92948 10.2318 6.96937 9.91522C7.00713 9.61718 7.03692 9.31759 7.04915 9.01749C7.06458 8.63849 7.06351 8.25847 7.06032 7.87896C7.05819 7.6464 7.03958 7.41385 7.02468 7.18181C7.02256 7.14365 7.03426 7.122 7.06351 7.10137C7.32148 6.9178 7.60657 6.78322 7.90284 6.66978C8.18315 6.56253 8.47143 6.48105 8.77142 6.44702C9.03949 6.4166 9.3065 6.41763 9.56128 6.52127C9.84212 6.63523 10.0054 6.8518 10.0804 7.12664C10.1464 7.36796 10.1926 7.61443 10.2368 7.86039C10.2745 8.06974 10.3049 8.28116 10.3235 8.49257C10.3469 8.75297 10.3549 9.0144 10.3692 9.27531C10.3644 9.27531 10.3591 9.27531 10.3543 9.27479L10.3554 9.27428ZM9.10651 6.75847C8.96396 6.7693 8.81716 6.77445 8.70227 6.88171C8.6911 6.89202 8.66929 6.89872 8.66717 6.91007C8.65227 6.98226 8.64696 7.05342 8.68046 7.12457C8.77248 7.31949 9.05864 7.56545 9.37831 7.50718C9.55277 7.47521 9.69478 7.39219 9.79637 7.24987C9.8352 7.19573 9.85648 7.13489 9.83467 7.06734C9.80701 6.98071 9.74053 6.92863 9.66287 6.88686C9.49054 6.79456 9.30225 6.76775 9.10598 6.75795L9.10651 6.75847Z" fill="#70707B"/>
<path d="M17.2175 11.7437C17.1888 11.6896 17.1622 11.6468 17.1425 11.6009C16.9882 11.2492 16.785 10.9223 16.5962 10.5881C16.2643 10.0008 15.9494 9.40578 15.7085 8.7767C15.5909 8.46938 15.4931 8.1569 15.4399 7.83256C15.4016 7.59846 15.3867 7.36385 15.4335 7.1282C15.5021 6.78272 15.7143 6.56203 16.0505 6.44498C16.2574 6.3733 16.4718 6.34597 16.6904 6.3336C16.9627 6.31761 17.2324 6.33875 17.5026 6.36969C17.5079 6.37021 17.5132 6.37227 17.526 6.37588C17.5212 6.46148 17.5222 6.54914 17.5105 6.63525C17.459 7.01785 17.3988 7.39943 17.352 7.78255C17.31 8.12442 17.2973 8.46783 17.3361 8.81177C17.3728 9.14074 17.4111 9.46921 17.4467 9.79819C17.4802 10.1029 17.4983 10.4092 17.4802 10.7155C17.46 11.0589 17.3861 11.3915 17.2388 11.7066C17.2345 11.7159 17.2286 11.7251 17.2175 11.7447V11.7437ZM16.3409 7.26072C16.559 7.26175 16.7686 7.14161 16.8877 6.96216C16.9973 6.79767 16.9494 6.68011 16.7526 6.63215C16.618 6.59915 16.4819 6.60276 16.3462 6.62442C16.2074 6.64659 16.0718 6.68166 15.9564 6.76519C15.8452 6.84563 15.8314 6.93638 15.9165 7.04157C16.0303 7.18183 16.1835 7.25092 16.3404 7.26124L16.3409 7.26072Z" fill="#70707B"/>
<path d="M7.34747 15.1219C7.50917 15.0817 7.6714 15.0425 7.83309 15.0018C8.0985 14.9348 8.36605 14.8744 8.62827 14.7971C8.93943 14.7053 9.18782 14.5207 9.38887 14.2737C9.52291 14.1092 9.66067 13.9478 9.80056 13.7875C9.8479 13.7333 9.90428 13.6854 9.96066 13.6395C10.0282 13.5848 10.1075 13.5791 10.1904 13.6039C10.4606 13.6848 10.5862 13.8803 10.6383 14.134C10.6665 14.2696 10.6218 14.3846 10.5362 14.4934C10.1798 14.9461 9.72609 15.2508 9.1458 15.3663C8.8873 15.4179 8.62614 15.4262 8.36339 15.4071C8.12723 15.3895 7.89426 15.3529 7.66874 15.2849C7.55757 15.2514 7.45172 15.1993 7.34375 15.1554C7.34481 15.1441 7.34588 15.1328 7.34694 15.1219H7.34747Z" fill="#70707B"/>
<path d="M20.5148 13.6835C20.4621 13.7252 20.4212 13.7603 20.3776 13.7928C19.909 14.1439 19.384 14.3693 18.7973 14.4626C18.4319 14.5204 18.0654 14.557 17.6958 14.5446C17.5022 14.5384 17.3091 14.5214 17.124 14.4585C17.0235 14.4244 17.024 14.4239 17.0235 14.3223C17.0229 14.1821 17.0346 14.0439 17.0782 13.9093C17.1266 13.7593 17.225 13.6541 17.3777 13.601C17.4713 13.5685 17.567 13.5412 17.6628 13.5149C17.6787 13.5107 17.7027 13.5179 17.717 13.5277C17.9463 13.6907 18.2096 13.7686 18.4856 13.8088C18.8659 13.8639 19.2478 13.8578 19.6281 13.8103C19.9111 13.7753 20.1919 13.7263 20.4744 13.6835C20.4823 13.6824 20.4914 13.6835 20.5148 13.6835Z" fill="#70707B"/>
</svg>
