<svg width="26" height="18" viewBox="0 0 26 18" fill="none" xmlns="http://www.w3.org/2000/svg">
<path d="M7.43933 5.90273H0.5V7.30723H4.85743C5.92249 7.30723 6.27709 7.82944 6.27709 7.82944C6.27709 7.82944 4.02582 11.1811 2.26291 11.2028L0.5 11.2245V12.7503C0.5 12.7503 2.60237 12.9431 3.87691 12.4068C5.15146 11.8705 6.97746 11.2462 9.3991 6.62541C11.8207 2.00463 13.2013 2.50004 13.6051 2.50004C14.0089 2.50004 15.3251 2.6507 17.5764 6.81948C19.8276 10.9883 19.8706 11.1823 19.8706 11.1823C19.8706 11.1823 13.8171 11.4403 11.3538 12.4719C8.89054 13.5036 6.65946 14.4484 5.74709 14.9643C4.83471 15.4801 4.04853 15.738 3.21945 15.8453C2.39036 15.9525 0.5 15.9525 0.5 15.9525V17.5C0.5 17.5 2.98599 17.4566 4.28073 17.2421C5.57546 17.0276 8.74163 15.5018 10.5676 14.7919C12.3936 14.082 15.262 13.2878 17.0249 13.2227C18.7878 13.1576 25.3725 13.0299 25.3725 13.0299V11.5092C25.3725 11.5092 23.7156 11.4926 23.0784 11.5092C22.4411 11.5258 22.2076 11.5092 21.4858 9.99236C20.764 8.47551 19.8504 7.67878 20.7854 7.48598C21.7205 7.29318 25.5 7.33532 25.5 7.33532V5.93849H19.362C19.362 5.93849 16.5365 0.436711 13.3931 0.500551C10.2496 0.564392 7.43933 5.90273 7.43933 5.90273Z" fill="#70707B"/>
</svg>
