<svg width="46" height="45" viewBox="0 0 46 45" fill="none" xmlns="http://www.w3.org/2000/svg">
<path d="M22.7386 0.000353493C20.8984 0.00871843 19.1421 0.165371 17.5962 0.438372C13.0422 1.24141 12.2151 2.92124 12.2151 6.01931V10.1113H22.9765V11.4748H8.17566C5.04794 11.4748 2.309 13.35 1.45294 16.9181C0.464998 21.0078 0.420785 23.5591 1.45294 27.829C2.21829 31.0077 4.04476 33.2723 7.17247 33.2723H10.8727V28.3674C10.8727 24.8237 13.9463 21.6983 17.5954 21.6983H28.3446C31.3366 21.6983 33.7256 19.2405 33.7256 16.2428V6.01931C33.7256 3.10983 31.2649 0.924299 28.3446 0.438372C26.4952 0.131911 24.5773 -0.00801145 22.7379 0.000353493H22.7386ZM16.9185 3.29082C18.0307 3.29082 18.9378 4.21172 18.9378 5.34251C18.9378 6.4733 18.0299 7.38203 16.9185 7.38203C15.807 7.38203 14.8991 6.47026 14.8991 5.34251C14.8991 4.21476 15.8032 3.29082 16.9185 3.29082Z" fill="#70707B"/>
<path d="M35.0678 11.4727V16.2399C35.0678 19.9357 31.9264 23.0467 28.3451 23.0467H17.5959C14.6512 23.0467 12.2148 25.5607 12.2148 28.5022V38.7249C12.2148 41.6344 14.751 43.3461 17.5959 44.1803C21.0026 45.1796 24.2691 45.3606 28.3451 44.1803C31.0543 43.3978 33.7262 41.823 33.7262 38.7249V34.6337H22.977V33.2702H39.1072C42.235 33.2702 43.4005 31.0938 44.4883 27.8269C45.6119 24.4642 45.5647 21.23 44.4883 16.916C43.7153 13.8103 42.2388 11.4727 39.1072 11.4727H35.0686H35.0678ZM29.022 37.3614C30.1373 37.3614 31.0414 38.2732 31.0414 39.4009C31.0414 40.5287 30.1373 41.4526 29.022 41.4526C27.9068 41.4526 27.0027 40.5317 27.0027 39.4009C27.0027 38.2701 27.9106 37.3614 29.022 37.3614Z" fill="#A0A0AB"/>
</svg>
