<svg width="50" height="64" viewBox="0 0 50 64" fill="none" xmlns="http://www.w3.org/2000/svg">
<g clip-path="url(#clip0_749_164)">
<path fill-rule="evenodd" clip-rule="evenodd" d="M24.486 64V49.934L44.556 40.899L24.486 64Z" fill="#70707B"/>
<path fill-rule="evenodd" clip-rule="evenodd" d="M50.156 25.102C50.156 11.253 38.904 0 25 0C11.096 0 -0.156006 11.252 -0.156006 25.102C-0.156006 38.952 11.097 50.204 25 50.204C38.903 50.204 50.156 38.979 50.156 25.102ZM13.45 29.025H9.74397C9.31409 29.0269 8.90235 29.1985 8.59837 29.5024C8.2944 29.8064 8.12281 30.2181 8.12097 30.648V34.328C8.12281 34.7579 8.2944 35.1696 8.59837 35.4736C8.90235 35.7776 9.31409 35.9492 9.74397 35.951H13.45C13.8799 35.9492 14.2916 35.7776 14.5956 35.4736C14.8995 35.1696 15.0711 34.7579 15.073 34.328V30.648C15.0711 30.2181 14.8995 29.8064 14.5956 29.5024C14.2916 29.1985 13.8799 29.0269 13.45 29.025ZM22 20.9H18.32V20.91C17.8901 20.9119 17.4783 21.0835 17.1744 21.3874C16.8704 21.6914 16.6988 22.1031 16.697 22.533V34.317C16.6988 34.7469 16.8704 35.1586 17.1744 35.4626C17.4783 35.7666 17.8901 35.9382 18.32 35.94H22C22.4298 35.9382 22.8416 35.7666 23.1456 35.4626C23.4495 35.1586 23.6211 34.7469 23.623 34.317V22.523C23.6211 22.0931 23.4495 21.6814 23.1456 21.3774C22.8416 21.0735 22.4298 20.9019 22 20.9ZM30.572 25.373H26.866C26.4361 25.3749 26.0243 25.5464 25.7204 25.8504C25.4164 26.1544 25.2448 26.5661 25.243 26.996V34.326C25.2448 34.7559 25.4164 35.1676 25.7204 35.4716C26.0243 35.7756 26.4361 35.9472 26.866 35.949H30.572C31.0018 35.9472 31.4136 35.7756 31.7176 35.4716C32.0215 35.1676 32.1931 34.7559 32.195 34.326V26.996C32.1931 26.5661 32.0215 26.1544 31.7176 25.8504C31.4136 25.5464 31.0018 25.3749 30.572 25.373ZM39.31 14.796H35.63V14.797C35.2001 14.7989 34.7883 14.9704 34.4844 15.2744C34.1804 15.5784 34.0088 15.9901 34.007 16.42V34.326C34.0088 34.7559 34.1804 35.1676 34.4844 35.4716C34.7883 35.7756 35.2001 35.9472 35.63 35.949H39.31C39.7399 35.9472 40.1516 35.7756 40.4556 35.4716C40.7595 35.1676 40.9311 34.7559 40.933 34.326V16.419C40.9311 15.9891 40.7595 15.5774 40.4556 15.2734C40.1516 14.9694 39.7399 14.7979 39.31 14.796Z" fill="#70707B"/>
</g>
<defs>
<clipPath id="clip0_749_164">
<rect width="50" height="64" fill="white"/>
</clipPath>
</defs>
</svg>
