<svg width="30" height="33" viewBox="0 0 30 33" fill="none" xmlns="http://www.w3.org/2000/svg">
<path d="M3.38867 0.873566C4.66513 0.873566 5.85396 0.861707 7.0428 0.875542C10.689 0.919024 14.3471 0.798461 17.9753 1.06528C22.8203 1.42104 26.1618 5.21976 26.3728 10.0028C26.5481 13.9892 24.8992 16.8432 21.3965 18.707C21.281 18.7683 21.1635 18.8315 21.0559 18.9066C21.0042 18.9422 20.9723 19.0035 20.8548 19.1497C21.0918 19.6597 21.4004 20.2032 21.5876 20.7843C21.6713 21.0471 21.6195 21.5491 21.4442 21.6657C19.654 22.8437 17.828 23.9624 15.8904 25.1739C15.1814 23.5137 14.4825 21.9602 13.8592 20.3771C13.6063 19.7348 13.2996 19.4403 12.5569 19.5015C11.605 19.5826 10.6412 19.5213 9.51606 19.5213V29.9411H3.38867V0.873566ZM9.47225 10.2735C9.47225 11.2598 9.42844 12.25 9.50013 13.2323C9.52203 13.5149 9.88047 14.0051 10.0856 14.0051C12.302 14.0011 14.5323 14.0525 16.7287 13.8173C18.7559 13.5999 19.9209 11.9713 19.8074 9.99485C19.6919 7.98481 18.5309 6.80685 16.3364 6.69024C14.2873 6.58153 12.2303 6.60525 10.1772 6.63687C9.93822 6.64083 9.52601 7.06181 9.5061 7.31479C9.42645 8.29511 9.47424 9.28531 9.47225 10.2716V10.2735Z" fill="#70707B"/>
<path d="M20.3595 31.1474C22.5838 29.7105 24.7146 28.3329 27.0743 26.8091C27.9286 27.7973 28.7849 28.7855 29.6113 29.7421C27.146 32.6949 22.7412 32.5922 20.3595 31.1494V31.1474Z" fill="#70707B"/>
<path d="M25.1303 25.619C22.9139 27.0085 20.7971 28.3366 18.5767 29.73C18.0032 28.8604 17.4715 28.0501 16.8562 27.1172C17.6966 26.5875 18.4911 26.0855 19.2876 25.5834C20.347 24.9154 21.4224 24.2691 22.4619 23.5714C22.9139 23.2671 23.1887 23.2947 23.5212 23.7355C23.9972 24.362 24.5408 24.9372 25.1283 25.619H25.1303Z" fill="#70707B"/>
</svg>
