<svg width="34" height="27" viewBox="0 0 34 27" fill="none" xmlns="http://www.w3.org/2000/svg">
<path d="M16.9141 14.9403C15.8649 12.2914 15.6253 9.57139 16.0743 7.17731C13.0023 11.5057 13.9673 17.5114 18.2634 20.6545C20.0164 21.9369 22.0522 22.5456 24.0686 22.5305C21.0894 21.3605 18.3778 18.6404 16.912 14.9403H16.9141Z" fill="#70707B"/>
<path d="M13.5016 18.9982C10.6174 12.5716 12.6834 5.38499 18.1172 2.94558C20.2135 2.00435 22.504 1.90936 24.6931 2.51382C16.6492 -1.13235 7.90153 0.812706 5.12956 6.87454C2.35112 12.9515 6.63213 20.8677 14.6933 24.5528C16.7658 25.5005 18.8858 26.0747 20.9389 26.3035C17.8646 25.1183 15.0948 22.5451 13.5016 18.9961V18.9982Z" fill="#70707B"/>
<path d="M19.0251 5.2365C20.4975 5.41136 21.6287 6.52744 21.8856 7.91122C22.1317 9.3101 23.2673 10.4413 24.7504 10.6162C26.5617 10.8299 28.2046 9.53462 28.4183 7.72341C28.591 6.25544 27.7749 4.89973 26.4947 4.32334C26.335 4.25425 26.1752 4.18949 26.0112 4.12905C25.1563 3.86568 24.2495 3.73399 23.3104 3.71672C21.3329 3.68002 19.4569 4.2413 17.9392 5.27535C18.2285 5.23002 18.7186 5.1998 19.023 5.2365H19.0251Z" fill="#70707B"/>
<path d="M23.3446 15.7779C20.333 13.5759 18.5756 10.3637 18.3015 7.17731C17.4207 10.273 18.1417 13.7918 20.5121 16.4169C23.8972 20.1645 29.4412 20.7517 33.3012 17.9237C30.1298 18.7181 26.4317 18.0359 23.3446 15.7779Z" fill="#70707B"/>
<path d="M3.9655 6.28296C1.1374 8.47843 -0.429928 11.6302 0.103309 14.8101C0.746648 18.6376 4.73189 21.7592 8.55954 22.5321C3.99356 19.255 0.200458 13.0421 3.9655 6.28296Z" fill="#70707B"/>
</svg>
