<svg width="15" height="10" viewBox="0 0 15 10" fill="none" xmlns="http://www.w3.org/2000/svg">
<path d="M5.81802 7.40568C5.81802 7.1076 5.75036 6.85578 5.61417 6.6502C5.47798 6.44549 5.30324 6.27247 5.08996 6.132C4.87583 5.99152 4.64114 5.87503 4.38503 5.78081C4.12892 5.68659 3.88309 5.60265 3.64669 5.52728C3.30321 5.41593 2.9546 5.2823 2.60085 5.12641C2.24624 4.97052 1.92332 4.77866 1.6321 4.55167C1.34001 4.32469 1.1019 4.05573 0.916884 3.74652C0.731871 3.43731 0.639365 3.07242 0.639365 2.65357C0.639365 2.23472 0.731871 1.86041 0.916884 1.53064C1.1019 1.20087 1.34344 0.922497 1.64152 0.695513C1.93959 0.468529 2.27879 0.295508 2.65738 0.177305C3.03597 0.0591015 3.41713 0 3.80001 0C4.22314 0 4.63086 0.0702365 5.02315 0.21071C5.41545 0.351183 5.76235 0.548187 6.06557 0.802581C6.36878 1.05612 6.61119 1.36362 6.79363 1.72508C6.97607 2.08568 7.072 2.48912 7.08143 2.93452H5.81203C5.77605 2.65357 5.70753 2.39918 5.60475 2.16962C5.50196 1.94007 5.36663 1.74307 5.19703 1.57861C5.02743 1.41415 4.82615 1.28567 4.59231 1.19402C4.35847 1.10237 4.09466 1.05697 3.80001 1.05697C3.5636 1.05697 3.33319 1.09038 3.10792 1.15719C2.88265 1.224 2.68222 1.32422 2.50663 1.45784C2.33104 1.59146 2.19056 1.75677 2.08521 1.95206C1.98071 2.14821 1.92846 2.3752 1.92846 2.63387C1.93274 2.91482 2.00384 3.15208 2.1426 3.34566C2.2805 3.53924 2.45524 3.70284 2.6668 3.83646C2.87837 3.97008 3.10792 4.08143 3.35546 4.17051C3.603 4.25959 3.83513 4.33754 4.05355 4.40435C4.29424 4.48058 4.53664 4.56623 4.78161 4.66131C5.02658 4.75724 5.26298 4.86774 5.48997 4.99194C5.71695 5.11699 5.92852 5.25746 6.12467 5.41336C6.32082 5.56925 6.49213 5.74655 6.63945 5.94441C6.78678 6.14313 6.90069 6.36069 6.98378 6.59967C7.06601 6.83779 7.10712 7.1016 7.10712 7.39197C7.10712 7.82881 7.01034 8.20997 6.81676 8.5346C6.62318 8.86009 6.37221 9.13075 6.06471 9.3466C5.75721 9.56245 5.40946 9.7252 5.0223 9.83483C4.63514 9.94447 4.24712 9.99843 3.85911 9.99843C3.42656 9.99843 3.00342 9.93162 2.58971 9.798C2.176 9.66438 1.80426 9.47166 1.47706 9.21984C1.14986 8.96801 0.883477 8.66051 0.678763 8.29734C0.474049 7.93416 0.364411 7.52131 0.351562 7.05792H1.61496C1.65522 7.36114 1.73745 7.62923 1.86251 7.86307C1.98756 8.09691 2.14774 8.29562 2.34388 8.45751C2.54003 8.62025 2.76616 8.74274 3.02226 8.82497C3.27837 8.9072 3.55761 8.94831 3.86082 8.94831C4.10151 8.94831 4.33878 8.91833 4.57261 8.85837C4.80645 8.79842 5.01459 8.70505 5.19789 8.57743C5.38033 8.45066 5.52937 8.29049 5.64586 8.09605C5.76235 7.90162 5.81974 7.67206 5.81974 7.40396L5.81802 7.40568Z" fill="#70707B"/>
<path d="M10.3823 4.40544H11.2645C11.5763 4.40544 11.8513 4.36347 12.0902 4.27868C12.3284 4.19388 12.5288 4.07824 12.6915 3.93092C12.8543 3.78359 12.9776 3.608 13.0624 3.40329C13.1472 3.19857 13.1892 2.9733 13.1892 2.72833C13.1892 2.16301 13.0444 1.7356 12.7549 1.44866C12.4654 1.16171 12.0423 1.01781 11.4855 1.01781C11.2226 1.01781 10.9827 1.05722 10.7669 1.13516C10.551 1.21311 10.366 1.32531 10.2118 1.47264C10.0585 1.61996 9.9386 1.79556 9.85466 2.00027C9.76987 2.20498 9.7279 2.43454 9.7279 2.68893H8.48505C8.48505 2.3189 8.557 1.97029 8.70261 1.64309C8.84822 1.31589 9.05123 1.03066 9.31418 0.787403C9.57714 0.545002 9.89235 0.353136 10.2598 0.212663C10.6273 0.0721896 11.0358 0.00195312 11.4864 0.00195312C11.9369 0.00195312 12.3215 0.0610546 12.683 0.179258C13.0436 0.297461 13.3536 0.472196 13.6115 0.703463C13.8701 0.935586 14.0706 1.22253 14.2128 1.56515C14.3549 1.90862 14.4269 2.30434 14.4269 2.75488C14.4269 2.94161 14.3978 3.13605 14.3404 3.33648C14.2821 3.53691 14.1931 3.7322 14.0731 3.9215C13.9532 4.11079 13.7982 4.28895 13.6089 4.45598C13.4196 4.62301 13.1935 4.76262 12.9305 4.87397C13.2466 4.97676 13.5104 5.11038 13.7228 5.27484C13.9344 5.43929 14.104 5.62431 14.2307 5.82988C14.3575 6.03459 14.4466 6.25129 14.498 6.47828C14.5494 6.70526 14.5751 6.93053 14.5751 7.15324C14.5751 7.60806 14.4971 8.01064 14.3412 8.36267C14.1853 8.71471 13.9695 9.01194 13.6928 9.25519C13.4162 9.49845 13.0898 9.68261 12.7138 9.81023C12.3369 9.937 11.9309 10.0004 11.4941 10.0004C11.0573 10.0004 10.6641 9.94043 10.2881 9.81966C9.91119 9.69974 9.58485 9.52329 9.30905 9.29203C9.03238 9.06076 8.81311 8.77724 8.65036 8.44319C8.48762 8.10914 8.40625 7.72798 8.40625 7.30056H9.64224C9.64224 7.5541 9.68592 7.78622 9.77243 7.99522C9.85894 8.20507 9.98314 8.38323 10.1433 8.5297C10.3035 8.67703 10.4988 8.79009 10.7283 8.87061C10.9579 8.95112 11.2131 8.99052 11.4932 8.99052C11.7733 8.99052 12.0277 8.95369 12.2547 8.88003C12.4817 8.80637 12.6761 8.69416 12.8363 8.54255C12.9965 8.39094 13.1207 8.2025 13.2072 7.97809C13.2937 7.75282 13.3374 7.48729 13.3374 7.17979C13.3374 6.87229 13.2877 6.61533 13.1866 6.39434C13.0864 6.17421 12.9459 5.99005 12.7652 5.84272C12.5845 5.6954 12.3661 5.58662 12.1099 5.51552C11.8538 5.44443 11.572 5.40846 11.2645 5.40846H10.3823V4.4063V4.40544Z" fill="#70707B"/>
</svg>
