<svg width="47" height="77" viewBox="0 0 47 77" fill="none" xmlns="http://www.w3.org/2000/svg">
<g clip-path="url(#clip0_751_309)">
<path d="M19.6395 0.459486C12.5385 1.50375 5.93872 6.30737 2.42999 12.9907C-1.4129 20.3005 -1.07874 29.5736 3.2654 36.3822L4.6856 38.6378L4.72738 37.0923C4.72738 34.8785 6.10581 30.8267 7.60955 28.4458C10.2829 24.3523 14.9194 21.0942 19.6813 20.0917C20.8926 19.841 23.8165 19.6322 26.1557 19.6322C33.0061 19.6322 37.3502 18.0031 41.5273 13.8261C44.8272 10.4844 47.3334 5.09602 47.3334 1.16959V9.13814e-06L34.7187 0.0417797C27.743 0.0835503 20.9761 0.250633 19.6395 0.459486Z" fill="#70707B"/>
<path d="M21.2268 31.7875C17.4256 32.957 15.17 38.1784 17.0079 41.6871C18.5952 44.7363 22.2293 46.4489 25.195 45.5718C30.7505 43.9009 32.4213 37.6771 28.4113 33.5001C26.5316 31.5368 23.9836 30.952 21.2268 31.7875Z" fill="#70707B"/>
<path d="M42.3209 40.2251C42.3209 43.6503 39.4805 49.6235 36.6401 52.2968C32.7972 55.8891 27.5759 57.6434 20.7255 57.6434C18.4699 57.6434 15.7966 57.8523 14.7941 58.1029C7.86015 59.6902 1.63633 66.0393 0.174357 73.015C-0.702826 77.2756 -2.20657 76.8579 13.7498 76.8579C27.6176 76.8579 27.7847 76.8579 30.9175 75.8136C38.4362 73.2656 43.6993 67.919 46.3309 60.1497C46.9157 58.4788 47.1245 56.6409 47.1245 53.2575C47.1245 47.9944 46.2473 44.7781 43.7829 40.8934L42.3627 38.6378L42.3209 40.2251Z" fill="#70707B"/>
</g>
<defs>
<clipPath id="clip0_751_309">
<rect width="47" height="77" fill="white"/>
</clipPath>
</defs>
</svg>
