<svg width="53" height="27" viewBox="0 0 53 27" fill="none" xmlns="http://www.w3.org/2000/svg">
<path d="M38.9886 0.75C34.5837 0.75 30.5273 3.22773 26.6064 7.55731C22.7543 3.15891 18.629 0.75 14.0198 0.75C6.38876 0.75 0.820312 6.19585 0.820312 13.528C0.820312 20.8601 6.38876 26.2371 14.0198 26.2371C18.7107 26.2371 22.3456 24.039 26.402 19.6535C30.323 24.0519 34.3127 26.25 38.9886 26.25C46.6197 26.2371 52.1881 20.8794 52.1881 13.528C52.1881 6.17649 46.6197 0.75 38.9886 0.75ZM14.0736 18.5436C10.8409 18.5436 8.91381 16.4122 8.91381 13.5946C8.91381 10.7771 10.8409 8.5854 14.0736 8.5854C16.7965 8.5854 19.0226 10.7771 21.4315 13.7323C19.1581 16.4832 16.7557 18.5458 14.0736 18.5458V18.5436ZM38.7563 18.5436C36.0742 18.5436 33.8073 16.4122 31.3984 13.5946C33.8761 10.6394 36.0076 8.5854 38.7563 8.5854C41.989 8.5854 43.8967 10.805 43.8967 13.5946C43.8967 16.3842 41.9911 18.5436 38.7563 18.5436Z" fill="#70707B"/>
<path d="M32.1493 24.4217L37.2811 18.2962C35.24 17.6833 33.3538 15.8465 31.3987 13.5645L26.4023 19.6577C28.0391 21.5547 29.9813 23.1657 32.1472 24.4217H32.1493Z" fill="#A0A0AB"/>
<path d="M26.6008 7.55147C24.977 5.62649 23.0455 3.97897 20.8904 2.67773L15.75 8.87207C17.7029 9.55172 19.4322 11.3089 21.2711 13.5479L21.4755 13.6899L26.6008 7.54932V7.55147Z" fill="#A0A0AB"/>
</svg>
