<svg width="34" height="39" viewBox="0 0 34 39" fill="none" xmlns="http://www.w3.org/2000/svg">
<path d="M8.49998 4.86345L0.0258179 9.71667V19.5V29.2833L8.47415 34.116C13.1194 36.7758 16.9483 38.9487 16.9741 38.9487C17.0052 38.9487 20.8289 36.7758 25.4741 34.116L33.9225 29.2833V19.5V9.71667L25.5775 4.93007C20.989 2.30103 17.1757 0.11785 17.1033 0.0768512C16.9793 0.0153532 16.6073 0.220347 8.49998 4.86345ZM20.0124 8.20997C22.472 9.6193 22.627 9.71667 22.5237 9.78329C22.4669 9.82429 21.2061 10.552 19.7231 11.4027L17.0258 12.9453L17.0103 22.6723C17 31.9072 16.9948 32.3992 16.907 32.3684C16.8605 32.3479 15.579 31.6253 14.0702 30.7592L11.3161 29.1859V22.7133C11.3161 19.1566 11.3058 16.2457 11.2903 16.2457C11.2748 16.2457 10.0243 16.9529 8.51548 17.8139C7.00667 18.6749 5.74071 19.3924 5.69937 19.4077C5.64254 19.4282 5.6322 18.8799 5.64254 16.1945L5.65804 12.9607L11.3161 9.71667L16.9741 6.47265L17.1808 6.59052C17.2945 6.65714 18.5656 7.38487 20.0124 8.20997ZM28.3058 19.4539L28.2903 25.9419L25.4793 27.5511C23.9343 28.4377 22.6632 29.1603 22.6529 29.1603C22.6425 29.1603 22.6374 26.2391 22.6425 22.6671L22.658 16.174L25.4483 14.5699C26.983 13.6884 28.2541 12.9658 28.2799 12.9658C28.3006 12.9658 28.3109 15.887 28.3058 19.4539Z" fill="#70707B"/>
</svg>
